<?xml version="1.0" encoding="utf-8" standalone="no"?>
<!DOCTYPE svg PUBLIC "-//W3C//DTD SVG 1.1//EN"
  "http://www.w3.org/Graphics/SVG/1.1/DTD/svg11.dtd">
<svg xmlns:xlink="http://www.w3.org/1999/xlink" width="840pt" height="480pt" viewBox="0 0 840 480" xmlns="http://www.w3.org/2000/svg" version="1.1">
 <metadata>
  <rdf:RDF xmlns:dc="http://purl.org/dc/elements/1.1/" xmlns:cc="http://creativecommons.org/ns#" xmlns:rdf="http://www.w3.org/1999/02/22-rdf-syntax-ns#">
   <cc:Work>
    <dc:type rdf:resource="http://purl.org/dc/dcmitype/StillImage"/>
    <dc:date>2023-09-12T07:27:09.523128</dc:date>
    <dc:format>image/svg+xml</dc:format>
    <dc:creator>
     <cc:Agent>
      <dc:title>Matplotlib v3.7.2, https://matplotlib.org/</dc:title>
     </cc:Agent>
    </dc:creator>
   </cc:Work>
  </rdf:RDF>
 </metadata>
 <defs>
  <style type="text/css">*{stroke-linejoin: round; stroke-linecap: butt}</style>
 </defs>
 <g id="figure_1">
  <g id="patch_1">
   <path d="M 0 480 
L 840 480 
L 840 0 
L 0 0 
z
" style="fill: #ffffff"/>
  </g>
  <g id="axes_1">
   <g id="patch_2">
    <path d="M 92.731771 186.342986 
L 496.952604 186.342986 
L 496.952604 19.908194 
L 92.731771 19.908194 
z
" style="fill: #ffffff"/>
   </g>
   <g id="matplotlib.axis_1">
    <g id="xtick_1">
     <g id="line2d_1">
      <path d="M 110.994313 186.342986 
L 110.994313 19.908194 
" clip-path="url(#p6f5759ad6b)" style="fill: none; stroke: #b0b0b0; stroke-width: 0.8; stroke-linecap: square"/>
     </g>
     <g id="line2d_2">
      <defs>
       <path id="m814d506696" d="M 0 0 
L 0 3.5 
" style="stroke: #000000; stroke-width: 0.8"/>
      </defs>
      <g>
       <use xlink:href="#m814d506696" x="110.994313" y="186.342986" style="stroke: #000000; stroke-width: 0.8"/>
      </g>
     </g>
     <g id="text_1">
      <!-- 0.0 -->
      <g transform="translate(103.04275 200.941423) scale(0.1 -0.1)">
       <defs>
        <path id="DejaVuSans-30" d="M 2034 4250 
Q 1547 4250 1301 3770 
Q 1056 3291 1056 2328 
Q 1056 1369 1301 889 
Q 1547 409 2034 409 
Q 2525 409 2770 889 
Q 3016 1369 3016 2328 
Q 3016 3291 2770 3770 
Q 2525 4250 2034 4250 
z
M 2034 4750 
Q 2819 4750 3233 4129 
Q 3647 3509 3647 2328 
Q 3647 1150 3233 529 
Q 2819 -91 2034 -91 
Q 1250 -91 836 529 
Q 422 1150 422 2328 
Q 422 3509 836 4129 
Q 1250 4750 2034 4750 
z
" transform="scale(0.015625)"/>
        <path id="DejaVuSans-2e" d="M 684 794 
L 1344 794 
L 1344 0 
L 684 0 
L 684 794 
z
" transform="scale(0.015625)"/>
       </defs>
       <use xlink:href="#DejaVuSans-30"/>
       <use xlink:href="#DejaVuSans-2e" x="63.623047"/>
       <use xlink:href="#DejaVuSans-30" x="95.410156"/>
      </g>
     </g>
    </g>
    <g id="xtick_2">
     <g id="line2d_3">
      <path d="M 156.613032 186.342986 
L 156.613032 19.908194 
" clip-path="url(#p6f5759ad6b)" style="fill: none; stroke: #b0b0b0; stroke-width: 0.8; stroke-linecap: square"/>
     </g>
     <g id="line2d_4">
      <g>
       <use xlink:href="#m814d506696" x="156.613032" y="186.342986" style="stroke: #000000; stroke-width: 0.8"/>
      </g>
     </g>
     <g id="text_2">
      <!-- 0.1 -->
      <g transform="translate(148.66147 200.941423) scale(0.1 -0.1)">
       <defs>
        <path id="DejaVuSans-31" d="M 794 531 
L 1825 531 
L 1825 4091 
L 703 3866 
L 703 4441 
L 1819 4666 
L 2450 4666 
L 2450 531 
L 3481 531 
L 3481 0 
L 794 0 
L 794 531 
z
" transform="scale(0.015625)"/>
       </defs>
       <use xlink:href="#DejaVuSans-30"/>
       <use xlink:href="#DejaVuSans-2e" x="63.623047"/>
       <use xlink:href="#DejaVuSans-31" x="95.410156"/>
      </g>
     </g>
    </g>
    <g id="xtick_3">
     <g id="line2d_5">
      <path d="M 202.231752 186.342986 
L 202.231752 19.908194 
" clip-path="url(#p6f5759ad6b)" style="fill: none; stroke: #b0b0b0; stroke-width: 0.8; stroke-linecap: square"/>
     </g>
     <g id="line2d_6">
      <g>
       <use xlink:href="#m814d506696" x="202.231752" y="186.342986" style="stroke: #000000; stroke-width: 0.8"/>
      </g>
     </g>
     <g id="text_3">
      <!-- 0.2 -->
      <g transform="translate(194.280189 200.941423) scale(0.1 -0.1)">
       <defs>
        <path id="DejaVuSans-32" d="M 1228 531 
L 3431 531 
L 3431 0 
L 469 0 
L 469 531 
Q 828 903 1448 1529 
Q 2069 2156 2228 2338 
Q 2531 2678 2651 2914 
Q 2772 3150 2772 3378 
Q 2772 3750 2511 3984 
Q 2250 4219 1831 4219 
Q 1534 4219 1204 4116 
Q 875 4013 500 3803 
L 500 4441 
Q 881 4594 1212 4672 
Q 1544 4750 1819 4750 
Q 2544 4750 2975 4387 
Q 3406 4025 3406 3419 
Q 3406 3131 3298 2873 
Q 3191 2616 2906 2266 
Q 2828 2175 2409 1742 
Q 1991 1309 1228 531 
z
" transform="scale(0.015625)"/>
       </defs>
       <use xlink:href="#DejaVuSans-30"/>
       <use xlink:href="#DejaVuSans-2e" x="63.623047"/>
       <use xlink:href="#DejaVuSans-32" x="95.410156"/>
      </g>
     </g>
    </g>
    <g id="xtick_4">
     <g id="line2d_7">
      <path d="M 247.850471 186.342986 
L 247.850471 19.908194 
" clip-path="url(#p6f5759ad6b)" style="fill: none; stroke: #b0b0b0; stroke-width: 0.8; stroke-linecap: square"/>
     </g>
     <g id="line2d_8">
      <g>
       <use xlink:href="#m814d506696" x="247.850471" y="186.342986" style="stroke: #000000; stroke-width: 0.8"/>
      </g>
     </g>
     <g id="text_4">
      <!-- 0.3 -->
      <g transform="translate(239.898909 200.941423) scale(0.1 -0.1)">
       <defs>
        <path id="DejaVuSans-33" d="M 2597 2516 
Q 3050 2419 3304 2112 
Q 3559 1806 3559 1356 
Q 3559 666 3084 287 
Q 2609 -91 1734 -91 
Q 1441 -91 1130 -33 
Q 819 25 488 141 
L 488 750 
Q 750 597 1062 519 
Q 1375 441 1716 441 
Q 2309 441 2620 675 
Q 2931 909 2931 1356 
Q 2931 1769 2642 2001 
Q 2353 2234 1838 2234 
L 1294 2234 
L 1294 2753 
L 1863 2753 
Q 2328 2753 2575 2939 
Q 2822 3125 2822 3475 
Q 2822 3834 2567 4026 
Q 2313 4219 1838 4219 
Q 1578 4219 1281 4162 
Q 984 4106 628 3988 
L 628 4550 
Q 988 4650 1302 4700 
Q 1616 4750 1894 4750 
Q 2613 4750 3031 4423 
Q 3450 4097 3450 3541 
Q 3450 3153 3228 2886 
Q 3006 2619 2597 2516 
z
" transform="scale(0.015625)"/>
       </defs>
       <use xlink:href="#DejaVuSans-30"/>
       <use xlink:href="#DejaVuSans-2e" x="63.623047"/>
       <use xlink:href="#DejaVuSans-33" x="95.410156"/>
      </g>
     </g>
    </g>
    <g id="xtick_5">
     <g id="line2d_9">
      <path d="M 293.469191 186.342986 
L 293.469191 19.908194 
" clip-path="url(#p6f5759ad6b)" style="fill: none; stroke: #b0b0b0; stroke-width: 0.8; stroke-linecap: square"/>
     </g>
     <g id="line2d_10">
      <g>
       <use xlink:href="#m814d506696" x="293.469191" y="186.342986" style="stroke: #000000; stroke-width: 0.8"/>
      </g>
     </g>
     <g id="text_5">
      <!-- 0.4 -->
      <g transform="translate(285.517628 200.941423) scale(0.1 -0.1)">
       <defs>
        <path id="DejaVuSans-34" d="M 2419 4116 
L 825 1625 
L 2419 1625 
L 2419 4116 
z
M 2253 4666 
L 3047 4666 
L 3047 1625 
L 3713 1625 
L 3713 1100 
L 3047 1100 
L 3047 0 
L 2419 0 
L 2419 1100 
L 313 1100 
L 313 1709 
L 2253 4666 
z
" transform="scale(0.015625)"/>
       </defs>
       <use xlink:href="#DejaVuSans-30"/>
       <use xlink:href="#DejaVuSans-2e" x="63.623047"/>
       <use xlink:href="#DejaVuSans-34" x="95.410156"/>
      </g>
     </g>
    </g>
    <g id="xtick_6">
     <g id="line2d_11">
      <path d="M 339.08791 186.342986 
L 339.08791 19.908194 
" clip-path="url(#p6f5759ad6b)" style="fill: none; stroke: #b0b0b0; stroke-width: 0.8; stroke-linecap: square"/>
     </g>
     <g id="line2d_12">
      <g>
       <use xlink:href="#m814d506696" x="339.08791" y="186.342986" style="stroke: #000000; stroke-width: 0.8"/>
      </g>
     </g>
     <g id="text_6">
      <!-- 0.5 -->
      <g transform="translate(331.136348 200.941423) scale(0.1 -0.1)">
       <defs>
        <path id="DejaVuSans-35" d="M 691 4666 
L 3169 4666 
L 3169 4134 
L 1269 4134 
L 1269 2991 
Q 1406 3038 1543 3061 
Q 1681 3084 1819 3084 
Q 2600 3084 3056 2656 
Q 3513 2228 3513 1497 
Q 3513 744 3044 326 
Q 2575 -91 1722 -91 
Q 1428 -91 1123 -41 
Q 819 9 494 109 
L 494 744 
Q 775 591 1075 516 
Q 1375 441 1709 441 
Q 2250 441 2565 725 
Q 2881 1009 2881 1497 
Q 2881 1984 2565 2268 
Q 2250 2553 1709 2553 
Q 1456 2553 1204 2497 
Q 953 2441 691 2322 
L 691 4666 
z
" transform="scale(0.015625)"/>
       </defs>
       <use xlink:href="#DejaVuSans-30"/>
       <use xlink:href="#DejaVuSans-2e" x="63.623047"/>
       <use xlink:href="#DejaVuSans-35" x="95.410156"/>
      </g>
     </g>
    </g>
    <g id="xtick_7">
     <g id="line2d_13">
      <path d="M 384.70663 186.342986 
L 384.70663 19.908194 
" clip-path="url(#p6f5759ad6b)" style="fill: none; stroke: #b0b0b0; stroke-width: 0.8; stroke-linecap: square"/>
     </g>
     <g id="line2d_14">
      <g>
       <use xlink:href="#m814d506696" x="384.70663" y="186.342986" style="stroke: #000000; stroke-width: 0.8"/>
      </g>
     </g>
     <g id="text_7">
      <!-- 0.6 -->
      <g transform="translate(376.755067 200.941423) scale(0.1 -0.1)">
       <defs>
        <path id="DejaVuSans-36" d="M 2113 2584 
Q 1688 2584 1439 2293 
Q 1191 2003 1191 1497 
Q 1191 994 1439 701 
Q 1688 409 2113 409 
Q 2538 409 2786 701 
Q 3034 994 3034 1497 
Q 3034 2003 2786 2293 
Q 2538 2584 2113 2584 
z
M 3366 4563 
L 3366 3988 
Q 3128 4100 2886 4159 
Q 2644 4219 2406 4219 
Q 1781 4219 1451 3797 
Q 1122 3375 1075 2522 
Q 1259 2794 1537 2939 
Q 1816 3084 2150 3084 
Q 2853 3084 3261 2657 
Q 3669 2231 3669 1497 
Q 3669 778 3244 343 
Q 2819 -91 2113 -91 
Q 1303 -91 875 529 
Q 447 1150 447 2328 
Q 447 3434 972 4092 
Q 1497 4750 2381 4750 
Q 2619 4750 2861 4703 
Q 3103 4656 3366 4563 
z
" transform="scale(0.015625)"/>
       </defs>
       <use xlink:href="#DejaVuSans-30"/>
       <use xlink:href="#DejaVuSans-2e" x="63.623047"/>
       <use xlink:href="#DejaVuSans-36" x="95.410156"/>
      </g>
     </g>
    </g>
    <g id="xtick_8">
     <g id="line2d_15">
      <path d="M 430.325349 186.342986 
L 430.325349 19.908194 
" clip-path="url(#p6f5759ad6b)" style="fill: none; stroke: #b0b0b0; stroke-width: 0.8; stroke-linecap: square"/>
     </g>
     <g id="line2d_16">
      <g>
       <use xlink:href="#m814d506696" x="430.325349" y="186.342986" style="stroke: #000000; stroke-width: 0.8"/>
      </g>
     </g>
     <g id="text_8">
      <!-- 0.7 -->
      <g transform="translate(422.373787 200.941423) scale(0.1 -0.1)">
       <defs>
        <path id="DejaVuSans-37" d="M 525 4666 
L 3525 4666 
L 3525 4397 
L 1831 0 
L 1172 0 
L 2766 4134 
L 525 4134 
L 525 4666 
z
" transform="scale(0.015625)"/>
       </defs>
       <use xlink:href="#DejaVuSans-30"/>
       <use xlink:href="#DejaVuSans-2e" x="63.623047"/>
       <use xlink:href="#DejaVuSans-37" x="95.410156"/>
      </g>
     </g>
    </g>
    <g id="xtick_9">
     <g id="line2d_17">
      <path d="M 475.944069 186.342986 
L 475.944069 19.908194 
" clip-path="url(#p6f5759ad6b)" style="fill: none; stroke: #b0b0b0; stroke-width: 0.8; stroke-linecap: square"/>
     </g>
     <g id="line2d_18">
      <g>
       <use xlink:href="#m814d506696" x="475.944069" y="186.342986" style="stroke: #000000; stroke-width: 0.8"/>
      </g>
     </g>
     <g id="text_9">
      <!-- 0.8 -->
      <g transform="translate(467.992506 200.941423) scale(0.1 -0.1)">
       <defs>
        <path id="DejaVuSans-38" d="M 2034 2216 
Q 1584 2216 1326 1975 
Q 1069 1734 1069 1313 
Q 1069 891 1326 650 
Q 1584 409 2034 409 
Q 2484 409 2743 651 
Q 3003 894 3003 1313 
Q 3003 1734 2745 1975 
Q 2488 2216 2034 2216 
z
M 1403 2484 
Q 997 2584 770 2862 
Q 544 3141 544 3541 
Q 544 4100 942 4425 
Q 1341 4750 2034 4750 
Q 2731 4750 3128 4425 
Q 3525 4100 3525 3541 
Q 3525 3141 3298 2862 
Q 3072 2584 2669 2484 
Q 3125 2378 3379 2068 
Q 3634 1759 3634 1313 
Q 3634 634 3220 271 
Q 2806 -91 2034 -91 
Q 1263 -91 848 271 
Q 434 634 434 1313 
Q 434 1759 690 2068 
Q 947 2378 1403 2484 
z
M 1172 3481 
Q 1172 3119 1398 2916 
Q 1625 2713 2034 2713 
Q 2441 2713 2670 2916 
Q 2900 3119 2900 3481 
Q 2900 3844 2670 4047 
Q 2441 4250 2034 4250 
Q 1625 4250 1398 4047 
Q 1172 3844 1172 3481 
z
" transform="scale(0.015625)"/>
       </defs>
       <use xlink:href="#DejaVuSans-30"/>
       <use xlink:href="#DejaVuSans-2e" x="63.623047"/>
       <use xlink:href="#DejaVuSans-38" x="95.410156"/>
      </g>
     </g>
    </g>
    <g id="text_10">
     <!-- time (h) -->
     <g transform="translate(274.886719 214.619548) scale(0.1 -0.1)">
      <defs>
       <path id="DejaVuSans-74" d="M 1172 4494 
L 1172 3500 
L 2356 3500 
L 2356 3053 
L 1172 3053 
L 1172 1153 
Q 1172 725 1289 603 
Q 1406 481 1766 481 
L 2356 481 
L 2356 0 
L 1766 0 
Q 1100 0 847 248 
Q 594 497 594 1153 
L 594 3053 
L 172 3053 
L 172 3500 
L 594 3500 
L 594 4494 
L 1172 4494 
z
" transform="scale(0.015625)"/>
       <path id="DejaVuSans-69" d="M 603 3500 
L 1178 3500 
L 1178 0 
L 603 0 
L 603 3500 
z
M 603 4863 
L 1178 4863 
L 1178 4134 
L 603 4134 
L 603 4863 
z
" transform="scale(0.015625)"/>
       <path id="DejaVuSans-6d" d="M 3328 2828 
Q 3544 3216 3844 3400 
Q 4144 3584 4550 3584 
Q 5097 3584 5394 3201 
Q 5691 2819 5691 2113 
L 5691 0 
L 5113 0 
L 5113 2094 
Q 5113 2597 4934 2840 
Q 4756 3084 4391 3084 
Q 3944 3084 3684 2787 
Q 3425 2491 3425 1978 
L 3425 0 
L 2847 0 
L 2847 2094 
Q 2847 2600 2669 2842 
Q 2491 3084 2119 3084 
Q 1678 3084 1418 2786 
Q 1159 2488 1159 1978 
L 1159 0 
L 581 0 
L 581 3500 
L 1159 3500 
L 1159 2956 
Q 1356 3278 1631 3431 
Q 1906 3584 2284 3584 
Q 2666 3584 2933 3390 
Q 3200 3197 3328 2828 
z
" transform="scale(0.015625)"/>
       <path id="DejaVuSans-65" d="M 3597 1894 
L 3597 1613 
L 953 1613 
Q 991 1019 1311 708 
Q 1631 397 2203 397 
Q 2534 397 2845 478 
Q 3156 559 3463 722 
L 3463 178 
Q 3153 47 2828 -22 
Q 2503 -91 2169 -91 
Q 1331 -91 842 396 
Q 353 884 353 1716 
Q 353 2575 817 3079 
Q 1281 3584 2069 3584 
Q 2775 3584 3186 3129 
Q 3597 2675 3597 1894 
z
M 3022 2063 
Q 3016 2534 2758 2815 
Q 2500 3097 2075 3097 
Q 1594 3097 1305 2825 
Q 1016 2553 972 2059 
L 3022 2063 
z
" transform="scale(0.015625)"/>
       <path id="DejaVuSans-20" transform="scale(0.015625)"/>
       <path id="DejaVuSans-28" d="M 1984 4856 
Q 1566 4138 1362 3434 
Q 1159 2731 1159 2009 
Q 1159 1288 1364 580 
Q 1569 -128 1984 -844 
L 1484 -844 
Q 1016 -109 783 600 
Q 550 1309 550 2009 
Q 550 2706 781 3412 
Q 1013 4119 1484 4856 
L 1984 4856 
z
" transform="scale(0.015625)"/>
       <path id="DejaVuSans-68" d="M 3513 2113 
L 3513 0 
L 2938 0 
L 2938 2094 
Q 2938 2591 2744 2837 
Q 2550 3084 2163 3084 
Q 1697 3084 1428 2787 
Q 1159 2491 1159 1978 
L 1159 0 
L 581 0 
L 581 4863 
L 1159 4863 
L 1159 2956 
Q 1366 3272 1645 3428 
Q 1925 3584 2291 3584 
Q 2894 3584 3203 3211 
Q 3513 2838 3513 2113 
z
" transform="scale(0.015625)"/>
       <path id="DejaVuSans-29" d="M 513 4856 
L 1013 4856 
Q 1481 4119 1714 3412 
Q 1947 2706 1947 2009 
Q 1947 1309 1714 600 
Q 1481 -109 1013 -844 
L 513 -844 
Q 928 -128 1133 580 
Q 1338 1288 1338 2009 
Q 1338 2731 1133 3434 
Q 928 4138 513 4856 
z
" transform="scale(0.015625)"/>
      </defs>
      <use xlink:href="#DejaVuSans-74"/>
      <use xlink:href="#DejaVuSans-69" x="39.208984"/>
      <use xlink:href="#DejaVuSans-6d" x="66.992188"/>
      <use xlink:href="#DejaVuSans-65" x="164.404297"/>
      <use xlink:href="#DejaVuSans-20" x="225.927734"/>
      <use xlink:href="#DejaVuSans-28" x="257.714844"/>
      <use xlink:href="#DejaVuSans-68" x="296.728516"/>
      <use xlink:href="#DejaVuSans-29" x="360.107422"/>
     </g>
    </g>
   </g>
   <g id="matplotlib.axis_2">
    <g id="ytick_1">
     <g id="line2d_19">
      <path d="M 92.731771 177.677487 
L 496.952604 177.677487 
" clip-path="url(#p6f5759ad6b)" style="fill: none; stroke: #b0b0b0; stroke-width: 0.8; stroke-linecap: square"/>
     </g>
     <g id="line2d_20">
      <defs>
       <path id="m58ea8fecbc" d="M 0 0 
L -3.5 0 
" style="stroke: #000000; stroke-width: 0.8"/>
      </defs>
      <g>
       <use xlink:href="#m58ea8fecbc" x="92.731771" y="177.677487" style="stroke: #000000; stroke-width: 0.8"/>
      </g>
     </g>
     <g id="text_11">
      <!-- 0 -->
      <g transform="translate(79.369271 181.476706) scale(0.1 -0.1)">
       <use xlink:href="#DejaVuSans-30"/>
      </g>
     </g>
    </g>
    <g id="ytick_2">
     <g id="line2d_21">
      <path d="M 92.731771 146.240887 
L 496.952604 146.240887 
" clip-path="url(#p6f5759ad6b)" style="fill: none; stroke: #b0b0b0; stroke-width: 0.8; stroke-linecap: square"/>
     </g>
     <g id="line2d_22">
      <g>
       <use xlink:href="#m58ea8fecbc" x="92.731771" y="146.240887" style="stroke: #000000; stroke-width: 0.8"/>
      </g>
     </g>
     <g id="text_12">
      <!-- 20 -->
      <g transform="translate(73.006771 150.040106) scale(0.1 -0.1)">
       <use xlink:href="#DejaVuSans-32"/>
       <use xlink:href="#DejaVuSans-30" x="63.623047"/>
      </g>
     </g>
    </g>
    <g id="ytick_3">
     <g id="line2d_23">
      <path d="M 92.731771 114.804287 
L 496.952604 114.804287 
" clip-path="url(#p6f5759ad6b)" style="fill: none; stroke: #b0b0b0; stroke-width: 0.8; stroke-linecap: square"/>
     </g>
     <g id="line2d_24">
      <g>
       <use xlink:href="#m58ea8fecbc" x="92.731771" y="114.804287" style="stroke: #000000; stroke-width: 0.8"/>
      </g>
     </g>
     <g id="text_13">
      <!-- 40 -->
      <g transform="translate(73.006771 118.603505) scale(0.1 -0.1)">
       <use xlink:href="#DejaVuSans-34"/>
       <use xlink:href="#DejaVuSans-30" x="63.623047"/>
      </g>
     </g>
    </g>
    <g id="ytick_4">
     <g id="line2d_25">
      <path d="M 92.731771 83.367687 
L 496.952604 83.367687 
" clip-path="url(#p6f5759ad6b)" style="fill: none; stroke: #b0b0b0; stroke-width: 0.8; stroke-linecap: square"/>
     </g>
     <g id="line2d_26">
      <g>
       <use xlink:href="#m58ea8fecbc" x="92.731771" y="83.367687" style="stroke: #000000; stroke-width: 0.8"/>
      </g>
     </g>
     <g id="text_14">
      <!-- 60 -->
      <g transform="translate(73.006771 87.166905) scale(0.1 -0.1)">
       <use xlink:href="#DejaVuSans-36"/>
       <use xlink:href="#DejaVuSans-30" x="63.623047"/>
      </g>
     </g>
    </g>
    <g id="ytick_5">
     <g id="line2d_27">
      <path d="M 92.731771 51.931086 
L 496.952604 51.931086 
" clip-path="url(#p6f5759ad6b)" style="fill: none; stroke: #b0b0b0; stroke-width: 0.8; stroke-linecap: square"/>
     </g>
     <g id="line2d_28">
      <g>
       <use xlink:href="#m58ea8fecbc" x="92.731771" y="51.931086" style="stroke: #000000; stroke-width: 0.8"/>
      </g>
     </g>
     <g id="text_15">
      <!-- 80 -->
      <g transform="translate(73.006771 55.730305) scale(0.1 -0.1)">
       <use xlink:href="#DejaVuSans-38"/>
       <use xlink:href="#DejaVuSans-30" x="63.623047"/>
      </g>
     </g>
    </g>
    <g id="ytick_6">
     <g id="line2d_29">
      <path d="M 92.731771 20.494486 
L 496.952604 20.494486 
" clip-path="url(#p6f5759ad6b)" style="fill: none; stroke: #b0b0b0; stroke-width: 0.8; stroke-linecap: square"/>
     </g>
     <g id="line2d_30">
      <g>
       <use xlink:href="#m58ea8fecbc" x="92.731771" y="20.494486" style="stroke: #000000; stroke-width: 0.8"/>
      </g>
     </g>
     <g id="text_16">
      <!-- 100 -->
      <g transform="translate(66.644271 24.293705) scale(0.1 -0.1)">
       <use xlink:href="#DejaVuSans-31"/>
       <use xlink:href="#DejaVuSans-30" x="63.623047"/>
       <use xlink:href="#DejaVuSans-30" x="127.246094"/>
      </g>
     </g>
    </g>
    <g id="text_17">
     <!-- Temperature C / rH -->
     <g transform="translate(60.564583 150.553715) rotate(-90) scale(0.1 -0.1)">
      <defs>
       <path id="DejaVuSans-54" d="M -19 4666 
L 3928 4666 
L 3928 4134 
L 2272 4134 
L 2272 0 
L 1638 0 
L 1638 4134 
L -19 4134 
L -19 4666 
z
" transform="scale(0.015625)"/>
       <path id="DejaVuSans-70" d="M 1159 525 
L 1159 -1331 
L 581 -1331 
L 581 3500 
L 1159 3500 
L 1159 2969 
Q 1341 3281 1617 3432 
Q 1894 3584 2278 3584 
Q 2916 3584 3314 3078 
Q 3713 2572 3713 1747 
Q 3713 922 3314 415 
Q 2916 -91 2278 -91 
Q 1894 -91 1617 61 
Q 1341 213 1159 525 
z
M 3116 1747 
Q 3116 2381 2855 2742 
Q 2594 3103 2138 3103 
Q 1681 3103 1420 2742 
Q 1159 2381 1159 1747 
Q 1159 1113 1420 752 
Q 1681 391 2138 391 
Q 2594 391 2855 752 
Q 3116 1113 3116 1747 
z
" transform="scale(0.015625)"/>
       <path id="DejaVuSans-72" d="M 2631 2963 
Q 2534 3019 2420 3045 
Q 2306 3072 2169 3072 
Q 1681 3072 1420 2755 
Q 1159 2438 1159 1844 
L 1159 0 
L 581 0 
L 581 3500 
L 1159 3500 
L 1159 2956 
Q 1341 3275 1631 3429 
Q 1922 3584 2338 3584 
Q 2397 3584 2469 3576 
Q 2541 3569 2628 3553 
L 2631 2963 
z
" transform="scale(0.015625)"/>
       <path id="DejaVuSans-61" d="M 2194 1759 
Q 1497 1759 1228 1600 
Q 959 1441 959 1056 
Q 959 750 1161 570 
Q 1363 391 1709 391 
Q 2188 391 2477 730 
Q 2766 1069 2766 1631 
L 2766 1759 
L 2194 1759 
z
M 3341 1997 
L 3341 0 
L 2766 0 
L 2766 531 
Q 2569 213 2275 61 
Q 1981 -91 1556 -91 
Q 1019 -91 701 211 
Q 384 513 384 1019 
Q 384 1609 779 1909 
Q 1175 2209 1959 2209 
L 2766 2209 
L 2766 2266 
Q 2766 2663 2505 2880 
Q 2244 3097 1772 3097 
Q 1472 3097 1187 3025 
Q 903 2953 641 2809 
L 641 3341 
Q 956 3463 1253 3523 
Q 1550 3584 1831 3584 
Q 2591 3584 2966 3190 
Q 3341 2797 3341 1997 
z
" transform="scale(0.015625)"/>
       <path id="DejaVuSans-75" d="M 544 1381 
L 544 3500 
L 1119 3500 
L 1119 1403 
Q 1119 906 1312 657 
Q 1506 409 1894 409 
Q 2359 409 2629 706 
Q 2900 1003 2900 1516 
L 2900 3500 
L 3475 3500 
L 3475 0 
L 2900 0 
L 2900 538 
Q 2691 219 2414 64 
Q 2138 -91 1772 -91 
Q 1169 -91 856 284 
Q 544 659 544 1381 
z
M 1991 3584 
L 1991 3584 
z
" transform="scale(0.015625)"/>
       <path id="DejaVuSans-43" d="M 4122 4306 
L 4122 3641 
Q 3803 3938 3442 4084 
Q 3081 4231 2675 4231 
Q 1875 4231 1450 3742 
Q 1025 3253 1025 2328 
Q 1025 1406 1450 917 
Q 1875 428 2675 428 
Q 3081 428 3442 575 
Q 3803 722 4122 1019 
L 4122 359 
Q 3791 134 3420 21 
Q 3050 -91 2638 -91 
Q 1578 -91 968 557 
Q 359 1206 359 2328 
Q 359 3453 968 4101 
Q 1578 4750 2638 4750 
Q 3056 4750 3426 4639 
Q 3797 4528 4122 4306 
z
" transform="scale(0.015625)"/>
       <path id="DejaVuSans-2f" d="M 1625 4666 
L 2156 4666 
L 531 -594 
L 0 -594 
L 1625 4666 
z
" transform="scale(0.015625)"/>
       <path id="DejaVuSans-48" d="M 628 4666 
L 1259 4666 
L 1259 2753 
L 3553 2753 
L 3553 4666 
L 4184 4666 
L 4184 0 
L 3553 0 
L 3553 2222 
L 1259 2222 
L 1259 0 
L 628 0 
L 628 4666 
z
" transform="scale(0.015625)"/>
      </defs>
      <use xlink:href="#DejaVuSans-54"/>
      <use xlink:href="#DejaVuSans-65" x="44.083984"/>
      <use xlink:href="#DejaVuSans-6d" x="105.607422"/>
      <use xlink:href="#DejaVuSans-70" x="203.019531"/>
      <use xlink:href="#DejaVuSans-65" x="266.496094"/>
      <use xlink:href="#DejaVuSans-72" x="328.019531"/>
      <use xlink:href="#DejaVuSans-61" x="369.132812"/>
      <use xlink:href="#DejaVuSans-74" x="430.412109"/>
      <use xlink:href="#DejaVuSans-75" x="469.621094"/>
      <use xlink:href="#DejaVuSans-72" x="533"/>
      <use xlink:href="#DejaVuSans-65" x="571.863281"/>
      <use xlink:href="#DejaVuSans-20" x="633.386719"/>
      <use xlink:href="#DejaVuSans-43" x="665.173828"/>
      <use xlink:href="#DejaVuSans-20" x="734.998047"/>
      <use xlink:href="#DejaVuSans-2f" x="766.785156"/>
      <use xlink:href="#DejaVuSans-20" x="800.476562"/>
      <use xlink:href="#DejaVuSans-72" x="832.263672"/>
      <use xlink:href="#DejaVuSans-48" x="873.376953"/>
     </g>
    </g>
   </g>
   <g id="line2d_31">
    <path d="M 111.105445 131.041291 
L 117.430481 129.768108 
L 125.033727 128.164842 
L 131.36966 127.174589 
L 137.705467 126.671603 
L 142.774214 126.624448 
L 149.110147 126.781631 
L 155.44608 127.174589 
L 159.24802 127.504673 
L 164.316513 127.929067 
L 178.25544 129.249404 
L 190.927306 130.39684 
L 213.736793 132.047262 
L 225.141473 132.094417 
L 230.210093 131.732896 
L 240.347713 129.862418 
L 245.416586 128.620672 
L 247.950706 127.960504 
L 249.21916 127.551828 
L 250.485079 127.284617 
L 263.157072 123.46507 
L 270.760192 121.217353 
L 275.828812 119.692678 
L 282.164999 117.947947 
L 287.233492 116.580455 
L 296.103925 114.411329 
L 297.371112 114.049808 
L 298.638172 113.84547 
L 301.172545 113.216738 
L 303.707172 112.682316 
L 310.042852 110.670374 
L 313.844538 109.821586 
L 316.379038 109.082825 
L 317.645972 108.909924 
L 320.180472 108.406939 
L 327.783592 107.00801 
L 332.852465 106.237813 
L 337.920958 105.451898 
L 340.455458 105.137532 
L 342.989831 104.854603 
L 350.592825 104.005815 
L 356.928885 103.377083 
L 359.463258 103.109871 
L 365.799191 102.465421 
L 367.066251 102.433985 
L 370.867938 102.072464 
L 379.738244 101.317985 
L 382.272618 101.129366 
L 391.142797 100.484915 
L 392.409984 100.359169 
L 393.677297 100.374887 
L 397.478984 99.934775 
L 402.547604 99.573254 
L 422.82259 98.174325 
L 426.624024 97.954269 
L 429.158524 97.734213 
L 431.693024 97.57703 
L 438.028704 97.058326 
L 440.563077 96.964016 
L 457.03663 96.209538 
L 460.83819 96.130946 
L 469.70837 95.72227 
L 472.242743 95.565087 
L 474.777243 95.470778 
L 477.31149 95.439341 
L 478.57893 95.407904 
L 478.57893 95.407904 
" clip-path="url(#p6f5759ad6b)" style="fill: none; stroke: #0000ff; stroke-opacity: 0.95; stroke-linecap: square"/>
   </g>
   <g id="line2d_32">
    <path d="M 111.105445 138.067371 
L 112.361861 137.124273 
L 113.629301 137.595822 
L 114.896107 136.023992 
L 116.163294 134.766528 
L 117.430481 133.82343 
L 118.697794 133.037515 
L 119.964854 132.565966 
L 121.233054 132.2516 
L 122.499354 132.094417 
L 123.766414 132.2516 
L 126.300787 132.880332 
L 130.102347 134.294979 
L 131.36966 134.923711 
L 132.63672 135.39526 
L 133.903907 136.023992 
L 141.507027 138.853286 
L 142.774214 139.167652 
L 144.041907 139.796384 
L 145.308714 139.953567 
L 146.575774 140.267933 
L 147.84296 140.739482 
L 150.377333 141.368214 
L 151.6449 141.525397 
L 152.911707 141.839763 
L 154.178893 141.996946 
L 155.44608 142.311312 
L 156.713267 142.468495 
L 157.980453 142.782861 
L 159.24802 142.782861 
L 160.514827 143.097227 
L 163.0492 143.411593 
L 164.316513 143.411593 
L 166.85114 143.725959 
L 168.118073 143.725959 
L 169.38526 144.040325 
L 170.65232 144.197508 
L 171.919507 144.197508 
L 173.18682 144.354691 
L 174.45426 144.354691 
L 175.721067 144.511874 
L 179.522627 144.511874 
L 182.05738 144.82624 
L 183.324313 144.669057 
L 184.591373 144.82624 
L 185.858686 144.82624 
L 187.125873 144.983423 
L 188.392933 144.82624 
L 189.66088 144.983423 
L 193.461806 144.983423 
L 194.728993 145.140606 
L 201.0648 145.140606 
L 202.332113 145.297789 
L 203.5993 145.140606 
L 204.866993 145.297789 
L 206.133673 145.297789 
L 207.400733 145.140606 
L 208.668046 145.297789 
L 212.471127 145.297789 
L 213.736793 146.083704 
L 215.003979 146.39807 
L 216.271293 146.39807 
L 217.538226 146.555253 
L 218.805413 146.39807 
L 220.072599 146.39807 
L 221.339913 146.240887 
L 225.141473 145.297789 
L 226.408533 144.82624 
L 227.675719 144.197508 
L 228.943033 143.725959 
L 230.210093 143.097227 
L 231.477533 142.311312 
L 232.744593 141.68258 
L 234.011779 140.739482 
L 235.278966 140.11075 
L 236.546153 139.324835 
L 237.813339 138.381737 
L 240.347713 136.809907 
L 241.614899 135.866809 
L 242.882086 135.080894 
L 245.416586 133.194698 
L 247.950706 131.622868 
L 249.21916 130.67977 
L 250.485079 129.893855 
L 251.752392 129.265123 
L 253.019579 128.322025 
L 254.286639 127.693293 
L 258.088452 125.335548 
L 259.355512 124.706816 
L 260.622572 123.920901 
L 263.157072 122.663437 
L 264.424132 122.191888 
L 266.958632 120.934424 
L 268.225819 120.462875 
L 270.760192 119.205411 
L 274.561625 117.790764 
L 275.828812 117.162032 
L 280.897559 115.275836 
L 282.164999 114.96147 
L 283.432059 114.489921 
L 285.966305 113.861189 
L 287.233492 113.38964 
L 294.836739 111.503444 
L 297.371112 111.189078 
L 299.905358 110.560346 
L 301.172545 110.403163 
L 302.439732 110.088797 
L 304.974232 109.774431 
L 307.508605 114.96147 
L 308.775792 110.874712 
L 310.042852 115.433019 
L 311.310038 111.346261 
L 312.577352 116.376117 
L 313.844538 111.974993 
L 315.111725 117.162032 
L 316.379038 119.519777 
L 317.645972 113.704006 
L 318.913158 119.362594 
L 320.180472 114.018372 
L 321.447658 119.991326 
L 322.714845 114.647104 
L 323.982032 120.462875 
L 325.249092 122.506254 
L 326.516405 115.904568 
L 327.783592 122.191888 
L 329.050651 116.376117 
L 330.317838 122.506254 
L 331.585152 124.39245 
L 332.852465 117.476398 
L 334.119525 123.763718 
L 335.387979 125.492731 
L 336.653898 118.419496 
L 337.920958 124.863999 
L 339.188145 118.733862 
L 340.455458 124.863999 
L 341.722645 126.593012 
L 342.989831 119.519777 
L 344.257018 125.96428 
L 345.524078 119.67696 
L 346.791265 126.121463 
L 348.058451 127.53611 
L 349.325638 120.620058 
L 350.592825 126.907378 
L 351.860138 120.620058 
L 353.127325 126.907378 
L 354.394638 128.164842 
L 355.661698 121.405973 
L 356.928885 127.693293 
L 358.196071 128.793574 
L 359.463258 122.034705 
L 360.730445 128.322025 
L 361.997631 129.422306 
L 363.264818 122.506254 
L 364.531878 128.793574 
L 365.799191 129.893855 
L 367.066251 122.977803 
L 368.333564 129.265123 
L 369.600751 130.208221 
L 370.867938 123.449352 
L 372.135124 129.579489 
L 373.402311 130.522587 
L 374.669498 123.920901 
L 375.936558 129.893855 
L 377.203871 130.836953 
L 378.471058 124.235267 
L 379.738244 130.208221 
L 381.005431 131.151319 
L 382.272618 124.549633 
L 383.539804 130.522587 
L 384.806991 131.308502 
L 386.074178 124.863999 
L 387.341238 130.836953 
L 388.608424 131.622868 
L 389.875864 125.178365 
L 391.142797 130.994136 
L 392.409984 131.937234 
L 393.677297 125.649914 
L 394.944357 131.308502 
L 396.211544 132.2516 
L 397.478984 132.565966 
L 398.746044 133.037515 
L 400.013231 126.435829 
L 401.280417 132.2516 
L 402.547604 133.037515 
L 403.814791 133.194698 
L 405.081977 127.064561 
L 406.349164 132.565966 
L 407.616351 133.351881 
L 408.883537 133.666247 
L 410.150597 127.53611 
L 411.417784 133.037515 
L 412.684971 133.666247 
L 413.952157 133.980613 
L 417.753717 134.452162 
L 419.021157 134.766528 
L 420.288217 134.923711 
L 421.556544 128.950757 
L 422.82259 134.137796 
L 424.08965 134.766528 
L 426.624024 135.080894 
L 427.89121 135.39526 
L 429.158524 135.552443 
L 430.42571 135.552443 
L 432.960084 135.866809 
L 434.227144 135.866809 
L 436.761517 136.181175 
L 438.028704 136.181175 
L 440.563077 136.495541 
L 443.09745 136.495541 
L 444.364637 136.809907 
L 446.899137 136.809907 
L 448.16645 136.96709 
L 449.433383 136.96709 
L 450.700697 137.124273 
L 453.234943 137.124273 
L 455.769443 137.438639 
L 457.03663 132.565966 
L 458.303817 136.809907 
L 459.571003 136.96709 
L 460.83819 137.281456 
L 462.10525 137.438639 
L 463.372437 137.438639 
L 464.639623 137.595822 
L 465.90681 137.595822 
L 467.174123 137.753005 
L 469.70837 137.753005 
L 470.975557 137.910188 
L 472.242743 137.910188 
L 473.50993 138.067371 
L 474.777243 138.067371 
L 476.044303 138.224554 
L 477.31149 133.82343 
L 478.57893 137.595822 
L 478.57893 137.595822 
" clip-path="url(#p6f5759ad6b)" style="fill: none; stroke-dasharray: 1,1.65; stroke-dashoffset: 0; stroke: #0000ff; stroke-opacity: 0.95"/>
   </g>
   <g id="line2d_33">
    <path d="M 111.105445 165.574396 
L 112.361861 164.945664 
L 113.629301 164.945664 
L 114.896107 163.845383 
L 116.163294 162.902285 
L 117.430481 162.11637 
L 118.697794 161.487638 
L 119.964854 161.016089 
L 122.499354 160.387357 
L 125.033727 160.072991 
L 127.567974 160.072991 
L 133.903907 160.858906 
L 135.171094 161.173272 
L 137.705467 161.487638 
L 140.239967 162.11637 
L 141.507027 162.273553 
L 144.041907 162.902285 
L 145.308714 163.059468 
L 146.575774 163.373834 
L 147.84296 163.531017 
L 149.110147 163.845383 
L 150.377333 164.002566 
L 151.6449 164.316932 
L 152.911707 164.474115 
L 154.178893 164.788481 
L 156.713267 165.102847 
L 157.980453 165.417213 
L 159.24802 165.574396 
L 160.514827 165.888762 
L 165.5837 166.517494 
L 166.85114 166.83186 
L 168.118073 166.83186 
L 169.38526 167.146226 
L 178.25544 168.246507 
L 179.522627 168.246507 
L 182.05738 168.560873 
L 183.324313 168.560873 
L 184.591373 168.875239 
L 185.858686 168.875239 
L 187.125873 169.189605 
L 188.392933 169.189605 
L 190.927306 169.503971 
L 192.19462 169.503971 
L 194.728993 169.818337 
L 195.99618 169.818337 
L 197.263873 169.97552 
L 198.530553 169.97552 
L 199.797613 170.132703 
L 201.0648 170.132703 
L 204.866993 170.604252 
L 207.400733 170.604252 
L 208.668046 170.761435 
L 209.935106 170.761435 
L 211.202293 170.918618 
L 212.471127 170.918618 
L 213.736793 171.54735 
L 216.271293 171.861716 
L 220.072599 171.861716 
L 223.874286 171.390167 
L 225.141473 171.075801 
L 230.210093 169.189605 
L 236.546153 166.045945 
L 237.813339 165.26003 
L 239.080526 164.631298 
L 241.614899 163.059468 
L 242.882086 162.430736 
L 246.683519 160.072991 
L 247.950706 159.444259 
L 249.21916 158.658344 
L 250.485079 158.029612 
L 253.019579 156.457782 
L 255.553826 155.200318 
L 256.821012 154.414403 
L 265.691319 150.013279 
L 266.958632 149.54173 
L 269.493006 148.284266 
L 270.760192 147.812717 
L 272.027379 147.183985 
L 273.294566 146.712436 
L 275.828812 145.454972 
L 280.897559 143.568776 
L 282.164999 142.940044 
L 283.432059 142.468495 
L 284.699245 142.154129 
L 288.500679 140.739482 
L 289.767992 140.425116 
L 292.302365 139.482018 
L 293.569552 139.167652 
L 294.836739 138.696103 
L 298.638172 137.753005 
L 299.905358 137.281456 
L 303.707172 136.338358 
L 304.974232 135.866809 
L 306.241418 136.495541 
L 307.508605 137.281456 
L 308.775792 135.238077 
L 310.042852 136.809907 
L 311.310038 134.923711 
L 312.577352 136.652724 
L 313.844538 134.609345 
L 315.111725 136.495541 
L 316.379038 137.281456 
L 317.645972 134.452162 
L 318.913158 136.809907 
L 320.180472 134.137796 
L 321.447658 136.652724 
L 322.714845 133.980613 
L 323.982032 136.495541 
L 325.249092 137.124273 
L 326.516405 133.980613 
L 327.783592 136.652724 
L 329.050651 133.82343 
L 330.317838 136.495541 
L 331.585152 137.124273 
L 332.852465 133.82343 
L 334.119525 136.652724 
L 335.387979 137.124273 
L 336.653898 133.666247 
L 337.920958 136.652724 
L 339.188145 133.509064 
L 340.455458 136.338358 
L 341.722645 136.96709 
L 342.989831 133.509064 
L 344.257018 136.495541 
L 345.524078 133.351881 
L 346.791265 136.338358 
L 348.058451 136.96709 
L 349.325638 133.351881 
L 350.592825 136.338358 
L 351.860138 133.194698 
L 353.127325 136.181175 
L 354.394638 136.809907 
L 355.661698 133.194698 
L 356.928885 136.338358 
L 358.196071 136.809907 
L 359.463258 133.194698 
L 360.730445 136.181175 
L 361.997631 136.809907 
L 363.264818 133.194698 
L 364.531878 136.181175 
L 365.799191 136.652724 
L 367.066251 133.037515 
L 368.333564 136.181175 
L 369.600751 136.652724 
L 370.867938 133.037515 
L 372.135124 136.181175 
L 373.402311 136.495541 
L 374.669498 132.880332 
L 375.936558 136.023992 
L 377.203871 136.495541 
L 378.471058 132.880332 
L 379.738244 135.866809 
L 381.005431 136.338358 
L 382.272618 132.723149 
L 383.539804 135.866809 
L 384.806991 136.181175 
L 386.074178 132.723149 
L 387.341238 135.709626 
L 388.608424 136.181175 
L 389.875864 132.565966 
L 391.142797 135.709626 
L 392.409984 136.023992 
L 393.677297 132.565966 
L 394.944357 135.552443 
L 396.211544 136.023992 
L 398.746044 136.338358 
L 400.013231 132.565966 
L 401.280417 135.709626 
L 402.547604 136.023992 
L 403.814791 136.181175 
L 405.081977 132.565966 
L 406.349164 135.552443 
L 408.883537 136.181175 
L 410.150597 132.565966 
L 411.417784 135.552443 
L 412.684971 135.866809 
L 413.952157 136.023992 
L 420.288217 136.023992 
L 421.556544 132.565966 
L 422.82259 135.552443 
L 424.08965 135.866809 
L 425.356964 135.866809 
L 426.624024 136.023992 
L 441.830264 136.023992 
L 443.09745 135.866809 
L 444.364637 136.023992 
L 455.769443 136.023992 
L 457.03663 133.037515 
L 458.303817 135.552443 
L 460.83819 135.866809 
L 476.044303 135.866809 
L 477.31149 133.037515 
L 478.57893 135.552443 
L 478.57893 135.552443 
" clip-path="url(#p6f5759ad6b)" style="fill: none; stroke: #0000ff; stroke-opacity: 0.95; stroke-linecap: square"/>
   </g>
   <g id="line2d_34">
    <path d="M 111.105445 135.442415 
L 113.629301 135.332387 
L 117.430481 135.285232 
L 118.697794 135.348105 
L 121.233054 135.30095 
L 159.24802 135.410978 
L 160.514827 135.48957 
L 163.0492 135.458133 
L 170.65232 135.552443 
L 173.18682 135.521006 
L 179.522627 135.568161 
L 195.99618 135.678189 
L 199.797613 135.709626 
L 221.339913 135.615316 
L 225.141473 135.505288 
L 230.210093 135.410978 
L 239.080526 135.128049 
L 241.614899 135.002302 
L 255.553826 134.37357 
L 284.699245 133.037515 
L 315.111725 131.984389 
L 321.447658 131.890079 
L 323.982032 131.827206 
L 330.317838 131.701459 
L 425.356964 130.601178 
L 429.158524 130.601178 
L 443.09745 130.538305 
L 465.90681 130.428277 
L 478.57893 130.381122 
L 478.57893 130.381122 
" clip-path="url(#p6f5759ad6b)" style="fill: none; stroke: #ffd700; stroke-opacity: 0.95; stroke-linecap: square"/>
   </g>
   <g id="line2d_35">
    <path d="M 111.105445 151.899475 
L 112.361861 151.899475 
L 113.629301 151.427926 
L 116.163294 149.54173 
L 119.964854 147.655534 
L 121.233054 147.341168 
L 122.499354 146.712436 
L 125.033727 146.083704 
L 126.300787 145.926521 
L 127.567974 145.612155 
L 133.903907 144.82624 
L 138.97278 144.82624 
L 140.239967 144.669057 
L 141.507027 144.669057 
L 142.774214 144.82624 
L 149.110147 144.82624 
L 151.6449 145.140606 
L 152.911707 145.140606 
L 155.44608 145.454972 
L 156.713267 145.454972 
L 157.980453 145.612155 
L 159.24802 145.612155 
L 164.316513 146.240887 
L 165.5837 146.240887 
L 168.118073 146.555253 
L 169.38526 146.555253 
L 175.721067 147.341168 
L 176.988253 147.341168 
L 183.324313 148.127083 
L 184.591373 148.127083 
L 189.66088 148.755815 
L 190.927306 148.755815 
L 193.461806 149.070181 
L 194.728993 149.070181 
L 198.530553 149.54173 
L 199.797613 149.54173 
L 202.332113 149.856096 
L 203.5993 149.856096 
L 204.866993 150.013279 
L 207.400733 150.013279 
L 211.202293 150.484828 
L 213.736793 150.484828 
L 215.003979 150.642011 
L 218.805413 150.642011 
L 220.072599 150.484828 
L 222.607099 150.484828 
L 223.874286 150.327645 
L 227.675719 150.327645 
L 228.943033 150.170462 
L 230.210093 150.170462 
L 232.744593 149.856096 
L 234.011779 149.856096 
L 235.278966 149.698913 
L 236.546153 149.698913 
L 237.813339 149.54173 
L 239.080526 149.54173 
L 245.416586 148.755815 
L 246.683519 148.755815 
L 251.752392 148.127083 
L 253.019579 148.127083 
L 255.553826 147.812717 
L 256.821012 147.812717 
L 258.088452 147.655534 
L 259.355512 147.655534 
L 260.622572 147.341168 
L 261.889886 147.183985 
L 263.157072 147.183985 
L 266.958632 146.712436 
L 268.225819 146.712436 
L 277.095999 145.612155 
L 278.363312 145.612155 
L 280.897559 145.297789 
L 282.164999 144.983423 
L 284.699245 144.669057 
L 285.966305 144.669057 
L 287.233492 144.511874 
L 288.500679 144.197508 
L 289.767992 144.197508 
L 291.035179 144.040325 
L 292.302365 143.725959 
L 302.439732 142.468495 
L 304.974232 141.839763 
L 307.508605 137.595822 
L 308.775792 137.281456 
L 310.042852 137.910188 
L 311.310038 136.495541 
L 312.577352 136.652724 
L 313.844538 135.238077 
L 315.111725 135.552443 
L 316.379038 132.880332 
L 317.645972 132.565966 
L 318.913158 133.509064 
L 320.180472 131.937234 
L 321.447658 132.2516 
L 322.714845 130.994136 
L 323.982032 131.465685 
L 325.249092 128.793574 
L 326.516405 128.636391 
L 327.783592 129.579489 
L 329.050651 128.164842 
L 330.317838 128.636391 
L 331.585152 126.435829 
L 332.852465 126.121463 
L 334.119525 127.064561 
L 335.387979 125.021182 
L 336.653898 124.863999 
L 337.920958 125.492731 
L 339.188145 124.235267 
L 340.455458 124.863999 
L 341.722645 123.134986 
L 342.989831 122.977803 
L 344.257018 123.449352 
L 345.524078 122.506254 
L 346.791265 122.82062 
L 348.058451 121.405973 
L 349.325638 121.405973 
L 350.592825 121.720339 
L 351.860138 120.777241 
L 353.127325 121.24879 
L 354.394638 119.834143 
L 355.661698 119.67696 
L 356.928885 120.305692 
L 358.196071 118.891045 
L 359.463258 118.733862 
L 360.730445 119.205411 
L 361.997631 117.947947 
L 363.264818 117.947947 
L 364.531878 118.419496 
L 365.799191 117.162032 
L 367.066251 117.004849 
L 368.333564 117.476398 
L 369.600751 116.376117 
L 370.867938 116.218934 
L 372.135124 116.847666 
L 373.402311 115.747385 
L 374.669498 115.433019 
L 375.936558 116.061751 
L 377.203871 114.96147 
L 378.471058 114.804287 
L 379.738244 115.433019 
L 381.005431 114.489921 
L 382.272618 114.332738 
L 383.539804 114.96147 
L 384.806991 114.018372 
L 386.074178 113.861189 
L 387.341238 114.332738 
L 388.608424 113.38964 
L 389.875864 113.232457 
L 391.142797 113.704006 
L 392.409984 112.918091 
L 393.677297 112.760908 
L 394.944357 113.232457 
L 396.211544 112.446542 
L 398.746044 111.503444 
L 400.013231 111.660627 
L 401.280417 112.289359 
L 402.547604 111.503444 
L 403.814791 110.874712 
L 405.081977 111.031895 
L 406.349164 111.660627 
L 407.616351 110.874712 
L 408.883537 110.403163 
L 410.150597 110.403163 
L 411.417784 111.031895 
L 413.952157 109.774431 
L 415.219344 109.617248 
L 416.486531 109.302882 
L 420.288217 108.831333 
L 421.556544 108.988516 
L 422.82259 109.617248 
L 425.356964 108.67415 
L 427.89121 108.359784 
L 429.158524 108.359784 
L 431.693024 108.045418 
L 434.227144 108.045418 
L 436.761517 107.731052 
L 439.29589 107.731052 
L 440.563077 107.573869 
L 443.09745 107.573869 
L 444.364637 107.416686 
L 446.899137 107.416686 
L 448.16645 107.259503 
L 451.967884 107.259503 
L 453.234943 107.10232 
L 454.502257 107.259503 
L 455.769443 107.10232 
L 457.03663 107.259503 
L 458.303817 107.731052 
L 459.571003 107.416686 
L 462.10525 107.10232 
L 467.174123 107.10232 
L 468.44131 106.945137 
L 470.975557 106.945137 
L 472.242743 107.10232 
L 473.50993 106.945137 
L 477.31149 106.945137 
L 478.57893 107.416686 
L 478.57893 107.416686 
" clip-path="url(#p6f5759ad6b)" style="fill: none; stroke-dasharray: 1,1.65; stroke-dashoffset: 0; stroke: #ffd700; stroke-opacity: 0.95"/>
   </g>
   <g id="line2d_36">
    <path d="M 111.105445 178.777768 
L 112.361861 178.620585 
L 113.629301 178.306219 
L 114.896107 177.520304 
L 117.430481 176.26284 
L 119.964854 175.319742 
L 122.499354 174.69101 
L 123.766414 174.533827 
L 125.033727 174.219461 
L 130.102347 173.590729 
L 131.36966 173.590729 
L 132.63672 173.433546 
L 133.903907 173.433546 
L 135.171094 173.276363 
L 144.041907 173.276363 
L 145.308714 173.433546 
L 149.110147 173.433546 
L 150.377333 173.590729 
L 152.911707 173.590729 
L 155.44608 173.905095 
L 159.24802 173.905095 
L 160.514827 174.219461 
L 161.782013 174.219461 
L 164.316513 174.533827 
L 166.85114 174.533827 
L 168.118073 174.69101 
L 169.38526 174.69101 
L 173.18682 175.162559 
L 174.45426 175.162559 
L 175.721067 175.319742 
L 176.988253 175.319742 
L 178.25544 175.476925 
L 179.522627 175.476925 
L 182.05738 175.791291 
L 183.324313 175.791291 
L 185.858686 176.105657 
L 187.125873 176.105657 
L 189.66088 176.420023 
L 190.927306 176.420023 
L 193.461806 176.734389 
L 195.99618 176.734389 
L 198.530553 177.048755 
L 199.797613 177.048755 
L 202.332113 177.363121 
L 203.5993 177.363121 
L 204.866993 177.520304 
L 207.400733 177.520304 
L 209.935106 177.83467 
L 211.202293 177.83467 
L 212.471127 177.991853 
L 217.538226 177.991853 
L 218.805413 177.83467 
L 220.072599 177.83467 
L 221.339913 177.677487 
L 222.607099 177.677487 
L 223.874286 177.520304 
L 227.675719 177.520304 
L 228.943033 177.205938 
L 231.477533 177.205938 
L 234.011779 176.891572 
L 235.278966 176.891572 
L 237.813339 176.577206 
L 239.080526 176.577206 
L 245.416586 175.791291 
L 246.683519 175.791291 
L 247.950706 175.476925 
L 249.21916 175.319742 
L 250.485079 175.319742 
L 251.752392 175.005376 
L 253.019579 175.005376 
L 256.821012 174.533827 
L 258.088452 174.533827 
L 268.225819 173.276363 
L 269.493006 173.276363 
L 284.699245 171.390167 
L 285.966305 171.390167 
L 287.233492 171.075801 
L 288.500679 170.918618 
L 289.767992 170.918618 
L 303.707172 169.189605 
L 304.974232 168.875239 
L 307.508605 166.360311 
L 308.775792 166.045945 
L 310.042852 166.517494 
L 311.310038 165.574396 
L 312.577352 165.731579 
L 313.844538 164.788481 
L 315.111725 164.945664 
L 316.379038 163.531017 
L 317.645972 163.373834 
L 318.913158 163.845383 
L 320.180472 162.902285 
L 321.447658 163.216651 
L 322.714845 162.430736 
L 323.982032 162.587919 
L 325.249092 161.330455 
L 326.516405 161.173272 
L 327.783592 161.644821 
L 329.050651 161.016089 
L 330.317838 161.173272 
L 331.585152 160.072991 
L 332.852465 159.915808 
L 334.119525 160.387357 
L 335.387979 159.444259 
L 336.653898 159.287076 
L 337.920958 159.601442 
L 339.188145 158.97271 
L 340.455458 159.287076 
L 341.722645 158.501161 
L 342.989831 158.343978 
L 344.257018 158.501161 
L 345.524078 158.186795 
L 346.791265 158.343978 
L 348.058451 157.715246 
L 349.325638 157.558063 
L 350.592825 157.715246 
L 351.860138 157.40088 
L 353.127325 157.558063 
L 354.394638 156.929331 
L 355.661698 156.772148 
L 356.928885 157.086514 
L 358.196071 156.457782 
L 359.463258 156.457782 
L 360.730445 156.614965 
L 361.997631 155.986233 
L 363.264818 155.986233 
L 364.531878 156.143416 
L 365.799191 155.671867 
L 367.066251 155.671867 
L 368.333564 155.82905 
L 369.600751 155.357501 
L 370.867938 155.200318 
L 372.135124 155.514684 
L 373.402311 155.043135 
L 374.669498 154.885952 
L 375.936558 155.200318 
L 377.203871 154.728769 
L 378.471058 154.571586 
L 379.738244 154.885952 
L 381.005431 154.414403 
L 382.272618 154.414403 
L 383.539804 154.571586 
L 384.806991 154.25722 
L 386.074178 154.100037 
L 387.341238 154.25722 
L 388.608424 153.942854 
L 389.875864 153.942854 
L 391.142797 154.100037 
L 392.409984 153.785671 
L 393.677297 153.628488 
L 394.944357 153.785671 
L 396.211544 153.471305 
L 398.746044 153.156939 
L 400.013231 153.156939 
L 401.280417 153.471305 
L 403.814791 152.842573 
L 406.349164 153.156939 
L 407.616351 152.842573 
L 408.883537 152.68539 
L 410.150597 152.68539 
L 411.417784 152.842573 
L 412.684971 152.68539 
L 413.952157 152.371024 
L 415.219344 152.371024 
L 416.486531 152.213841 
L 417.753717 152.213841 
L 419.021157 152.056658 
L 421.556544 152.056658 
L 422.82259 152.213841 
L 425.356964 151.899475 
L 429.158524 151.899475 
L 430.42571 151.742292 
L 432.960084 151.742292 
L 434.227144 151.585109 
L 439.29589 151.585109 
L 440.563077 151.427926 
L 449.433383 151.427926 
L 450.700697 151.270743 
L 451.967884 151.427926 
L 453.234943 151.270743 
L 457.03663 151.270743 
L 458.303817 151.427926 
L 459.571003 151.427926 
L 460.83819 151.270743 
L 467.174123 151.270743 
L 468.44131 151.11356 
L 477.31149 151.11356 
L 478.57893 151.270743 
L 478.57893 151.270743 
" clip-path="url(#p6f5759ad6b)" style="fill: none; stroke: #ffd700; stroke-opacity: 0.95; stroke-linecap: square"/>
   </g>
   <g id="line2d_37">
    <path d="M 111.105445 139.010469 
L 114.896107 139.026187 
L 119.964854 138.931877 
L 144.041907 138.743258 
L 168.118073 138.648948 
L 170.65232 138.617511 
L 174.45426 138.617511 
L 176.988253 138.53892 
L 180.789813 138.601793 
L 183.324313 138.601793 
L 187.125873 138.696103 
L 189.66088 138.601793 
L 192.19462 138.601793 
L 202.332113 138.586075 
L 260.622572 138.476047 
L 264.424132 138.491765 
L 268.225819 138.53892 
L 275.828812 138.586075 
L 278.363312 138.554638 
L 308.775792 138.287427 
L 331.585152 138.177399 
L 335.387979 138.130244 
L 337.920958 138.114526 
L 341.722645 138.067371 
L 360.730445 137.925906 
L 364.531878 137.925906 
L 378.471058 137.815878 
L 392.409984 137.753005 
L 396.211544 137.753005 
L 446.899137 137.690132 
L 449.433383 137.627258 
L 478.57893 137.595822 
L 478.57893 137.595822 
" clip-path="url(#p6f5759ad6b)" style="fill: none; stroke: #00ff00; stroke-opacity: 0.95; stroke-linecap: square"/>
   </g>
   <g id="line2d_38">
    <path d="M 111.105445 86.825713 
L 112.361861 86.66853 
L 113.629301 86.982896 
L 114.896107 86.982896 
L 117.430481 87.297262 
L 119.964854 87.297262 
L 121.233054 87.454445 
L 122.499354 87.297262 
L 123.766414 87.454445 
L 125.033727 87.454445 
L 126.300787 87.611628 
L 133.903907 87.611628 
L 135.171094 87.925994 
L 136.43866 87.768811 
L 137.705467 87.768811 
L 138.97278 87.925994 
L 140.239967 87.925994 
L 141.507027 87.768811 
L 146.575774 87.768811 
L 147.84296 87.611628 
L 149.110147 87.925994 
L 151.6449 87.611628 
L 157.980453 87.611628 
L 159.24802 87.768811 
L 160.514827 87.611628 
L 161.782013 87.611628 
L 163.0492 87.454445 
L 164.316513 87.768811 
L 165.5837 87.611628 
L 166.85114 87.768811 
L 168.118073 88.083177 
L 169.38526 87.925994 
L 171.919507 88.24036 
L 173.18682 88.554726 
L 174.45426 88.083177 
L 175.721067 87.925994 
L 176.988253 88.24036 
L 178.25544 87.925994 
L 179.522627 87.768811 
L 183.324313 87.768811 
L 184.591373 87.611628 
L 185.858686 87.611628 
L 187.125873 87.454445 
L 188.392933 87.454445 
L 189.66088 87.611628 
L 190.927306 88.083177 
L 192.19462 88.083177 
L 193.461806 87.768811 
L 197.263873 87.768811 
L 198.530553 87.611628 
L 201.0648 87.611628 
L 202.332113 87.768811 
L 203.5993 87.768811 
L 204.866993 87.611628 
L 206.133673 87.611628 
L 207.400733 87.768811 
L 208.668046 87.611628 
L 209.935106 87.297262 
L 211.202293 87.297262 
L 212.471127 87.454445 
L 213.736793 87.454445 
L 215.003979 87.297262 
L 217.538226 87.297262 
L 218.805413 87.454445 
L 223.874286 87.454445 
L 225.141473 87.297262 
L 226.408533 87.611628 
L 227.675719 87.611628 
L 228.943033 87.454445 
L 231.477533 87.454445 
L 232.744593 87.611628 
L 234.011779 87.611628 
L 235.278966 87.454445 
L 241.614899 87.454445 
L 242.882086 87.611628 
L 244.149146 87.454445 
L 250.485079 87.454445 
L 251.752392 87.297262 
L 254.286639 87.297262 
L 255.553826 87.454445 
L 256.821012 87.454445 
L 258.088452 87.297262 
L 261.889886 87.297262 
L 263.157072 87.140079 
L 265.691319 87.140079 
L 266.958632 86.825713 
L 270.760192 86.825713 
L 272.027379 86.66853 
L 273.294566 86.825713 
L 274.561625 86.825713 
L 275.828812 86.66853 
L 277.095999 86.66853 
L 278.363312 86.825713 
L 280.897559 86.825713 
L 283.432059 87.140079 
L 291.035179 87.140079 
L 293.569552 86.825713 
L 297.371112 86.825713 
L 299.905358 87.140079 
L 301.172545 87.140079 
L 302.439732 86.982896 
L 303.707172 86.982896 
L 306.241418 87.297262 
L 307.508605 87.140079 
L 312.577352 87.140079 
L 313.844538 87.297262 
L 315.111725 87.140079 
L 320.180472 87.140079 
L 322.714845 87.454445 
L 323.982032 87.454445 
L 325.249092 87.297262 
L 326.516405 87.454445 
L 332.852465 87.454445 
L 334.119525 87.611628 
L 336.653898 87.297262 
L 337.920958 87.454445 
L 344.257018 87.454445 
L 345.524078 87.297262 
L 346.791265 87.454445 
L 350.592825 87.454445 
L 351.860138 87.611628 
L 353.127325 87.454445 
L 358.196071 87.454445 
L 359.463258 87.297262 
L 360.730445 87.297262 
L 361.997631 87.611628 
L 363.264818 87.454445 
L 367.066251 87.454445 
L 369.600751 87.768811 
L 374.669498 87.768811 
L 375.936558 87.611628 
L 377.203871 87.297262 
L 378.471058 87.297262 
L 379.738244 87.454445 
L 381.005431 87.297262 
L 387.341238 87.297262 
L 388.608424 87.140079 
L 393.677297 87.140079 
L 394.944357 87.454445 
L 396.211544 87.611628 
L 397.478984 87.454445 
L 398.746044 87.454445 
L 400.013231 86.982896 
L 401.280417 86.982896 
L 402.547604 87.140079 
L 403.814791 86.982896 
L 405.081977 86.982896 
L 406.349164 87.140079 
L 407.616351 87.140079 
L 408.883537 86.825713 
L 410.150597 86.825713 
L 411.417784 86.982896 
L 413.952157 86.982896 
L 415.219344 87.140079 
L 420.288217 87.140079 
L 421.556544 87.297262 
L 430.42571 87.297262 
L 431.693024 87.140079 
L 432.960084 87.297262 
L 438.028704 87.297262 
L 440.563077 87.611628 
L 444.364637 87.611628 
L 445.631824 87.454445 
L 449.433383 87.454445 
L 450.700697 87.611628 
L 454.502257 87.611628 
L 455.769443 87.454445 
L 457.03663 87.454445 
L 459.571003 87.768811 
L 465.90681 87.768811 
L 467.174123 87.611628 
L 469.70837 87.611628 
L 472.242743 87.297262 
L 473.50993 87.611628 
L 474.777243 87.297262 
L 476.044303 86.511347 
L 477.31149 84.153602 
L 478.57893 84.939517 
L 478.57893 84.939517 
" clip-path="url(#p6f5759ad6b)" style="fill: none; stroke-dasharray: 1,1.65; stroke-dashoffset: 0; stroke: #00ff00; stroke-opacity: 0.95"/>
   </g>
   <g id="line2d_39">
    <path d="M 111.105445 152.842573 
L 113.629301 152.842573 
L 114.896107 152.999756 
L 123.766414 152.999756 
L 125.033727 152.842573 
L 126.300787 152.999756 
L 127.567974 152.999756 
L 128.835667 152.842573 
L 130.102347 152.999756 
L 131.36966 152.999756 
L 132.63672 152.842573 
L 133.903907 152.842573 
L 135.171094 152.999756 
L 136.43866 152.842573 
L 137.705467 152.842573 
L 138.97278 152.999756 
L 140.239967 152.999756 
L 141.507027 152.842573 
L 170.65232 152.842573 
L 171.919507 152.999756 
L 173.18682 152.999756 
L 174.45426 152.842573 
L 178.25544 152.842573 
L 179.522627 152.68539 
L 180.789813 152.842573 
L 182.05738 152.68539 
L 183.324313 152.68539 
L 184.591373 152.842573 
L 187.125873 152.842573 
L 188.392933 152.68539 
L 189.66088 152.68539 
L 190.927306 152.842573 
L 192.19462 152.842573 
L 193.461806 152.68539 
L 206.133673 152.68539 
L 207.400733 152.842573 
L 208.668046 152.68539 
L 223.874286 152.68539 
L 225.141473 152.528207 
L 226.408533 152.68539 
L 242.882086 152.68539 
L 244.149146 152.528207 
L 245.416586 152.68539 
L 246.683519 152.68539 
L 247.950706 152.528207 
L 249.21916 152.528207 
L 250.485079 152.68539 
L 251.752392 152.528207 
L 265.691319 152.528207 
L 266.958632 152.371024 
L 268.225819 152.371024 
L 269.493006 152.528207 
L 270.760192 152.371024 
L 272.027379 152.528207 
L 274.561625 152.528207 
L 275.828812 152.371024 
L 277.095999 152.371024 
L 278.363312 152.528207 
L 279.630499 152.528207 
L 280.897559 152.371024 
L 282.164999 152.528207 
L 283.432059 152.371024 
L 284.699245 152.528207 
L 285.966305 152.528207 
L 287.233492 152.371024 
L 288.500679 152.528207 
L 289.767992 152.371024 
L 296.103925 152.371024 
L 297.371112 152.213841 
L 298.638172 152.213841 
L 299.905358 152.371024 
L 301.172545 152.371024 
L 302.439732 152.213841 
L 304.974232 152.213841 
L 306.241418 152.371024 
L 307.508605 152.213841 
L 312.577352 152.213841 
L 313.844538 152.371024 
L 315.111725 152.213841 
L 321.447658 152.213841 
L 322.714845 152.371024 
L 323.982032 152.213841 
L 325.249092 152.213841 
L 326.516405 152.371024 
L 327.783592 152.371024 
L 329.050651 152.213841 
L 330.317838 152.371024 
L 331.585152 152.213841 
L 332.852465 152.213841 
L 334.119525 152.371024 
L 335.387979 152.213841 
L 341.722645 152.213841 
L 342.989831 152.056658 
L 374.669498 152.056658 
L 375.936558 151.899475 
L 388.608424 151.899475 
L 389.875864 151.742292 
L 393.677297 151.742292 
L 394.944357 151.899475 
L 398.746044 151.899475 
L 400.013231 151.742292 
L 425.356964 151.742292 
L 426.624024 151.899475 
L 431.693024 151.899475 
L 432.960084 151.742292 
L 434.227144 151.899475 
L 435.49433 151.742292 
L 439.29589 151.742292 
L 440.563077 151.899475 
L 444.364637 151.899475 
L 445.631824 151.742292 
L 474.777243 151.742292 
L 476.044303 151.585109 
L 477.31149 150.956377 
L 478.57893 150.956377 
L 478.57893 150.956377 
" clip-path="url(#p6f5759ad6b)" style="fill: none; stroke: #00ff00; stroke-opacity: 0.95; stroke-linecap: square"/>
   </g>
   <g id="line2d_40">
    <path d="M 111.105445 60.088884 
L 112.361861 59.302969 
L 113.629301 60.576151 
L 114.896107 65.480261 
L 117.430481 76.483071 
L 118.697794 81.198561 
L 121.233054 88.963401 
L 122.499354 92.201371 
L 123.766414 95.062102 
L 126.300787 99.966211 
L 127.567974 102.135337 
L 130.102347 105.766264 
L 132.63672 108.815614 
L 133.903907 110.183106 
L 136.43866 112.540851 
L 140.239967 115.385864 
L 145.308714 118.435214 
L 149.110147 120.211382 
L 155.44608 122.569127 
L 160.514827 124.030929 
L 168.118073 125.807097 
L 170.65232 126.294364 
L 183.324313 128.259152 
L 187.125873 128.652109 
L 189.66088 128.950757 
L 192.19462 129.249404 
L 199.797613 129.925291 
L 206.133673 130.428277 
L 208.668046 130.522587 
L 212.471127 130.821234 
L 213.736793 126.891659 
L 216.271293 112.540851 
L 217.538226 106.646489 
L 218.805413 101.443732 
L 221.339913 92.500019 
L 223.874286 84.939517 
L 226.408533 78.557887 
L 228.943033 72.946454 
L 231.477533 68.136654 
L 232.744593 65.873219 
L 235.278966 62.147981 
L 236.546153 60.576151 
L 241.614899 55.467704 
L 246.683519 51.443819 
L 254.286639 46.822639 
L 258.088452 44.763542 
L 260.622572 43.678979 
L 269.493006 39.545066 
L 272.027379 38.869179 
L 274.561625 38.570531 
L 278.363312 37.784616 
L 280.897559 37.297349 
L 285.966305 36.212786 
L 288.500679 35.725519 
L 292.302365 34.640956 
L 296.103925 33.855041 
L 298.638172 33.462084 
L 301.172545 33.163436 
L 304.974232 32.676169 
L 310.042852 32.974817 
L 313.844538 32.864788 
L 316.379038 32.770479 
L 321.447658 32.864788 
L 325.249092 33.760732 
L 330.317838 33.257746 
L 331.585152 33.650703 
L 332.852465 33.760732 
L 335.387979 33.462084 
L 337.920958 33.760732 
L 339.188145 33.949351 
L 341.722645 33.650703 
L 342.989831 33.556394 
L 345.524078 33.650703 
L 348.058451 33.760732 
L 349.325638 33.949351 
L 350.592825 33.760732 
L 353.127325 32.974817 
L 355.661698 32.770479 
L 356.928885 32.471831 
L 359.463258 32.377521 
L 360.730445 32.188902 
L 363.264818 32.078873 
L 364.531878 31.890254 
L 367.066251 32.078873 
L 372.135124 31.402987 
L 384.806991 30.412734 
L 394.944357 29.721128 
L 400.013231 29.626819 
L 401.280417 29.438199 
L 406.349164 29.328171 
L 412.684971 28.935213 
L 421.556544 28.935213 
L 422.82259 28.746594 
L 444.364637 28.652284 
L 446.899137 28.542256 
L 457.03663 28.447946 
L 458.303817 28.149298 
L 460.83819 28.054989 
L 468.44131 27.960679 
L 470.975557 27.866369 
L 476.044303 27.756341 
L 478.57893 27.473412 
L 478.57893 27.473412 
" clip-path="url(#p6f5759ad6b)" style="fill: none; stroke: #ff0000; stroke-opacity: 0.95; stroke-linecap: square"/>
   </g>
   <g id="line2d_41">
    <path d="M 111.105445 138.680384 
L 112.361861 138.570356 
L 113.629301 138.680384 
L 116.163294 138.570356 
L 137.705467 138.476047 
L 138.97278 138.381737 
L 141.507027 138.476047 
L 152.911707 138.381737 
L 155.44608 138.287427 
L 156.713267 138.381737 
L 157.980453 138.287427 
L 160.514827 138.381737 
L 163.0492 138.287427 
L 164.316513 138.381737 
L 165.5837 138.287427 
L 166.85114 138.381737 
L 169.38526 138.287427 
L 280.897559 138.177399 
L 282.164999 138.083089 
L 283.432059 138.177399 
L 284.699245 138.083089 
L 287.233492 138.177399 
L 303.707172 138.083089 
L 304.974232 137.988779 
L 306.241418 138.083089 
L 308.775792 137.988779 
L 334.119525 137.894469 
L 335.387979 137.784441 
L 336.653898 137.894469 
L 339.188145 137.784441 
L 358.196071 137.690132 
L 359.463258 137.595822 
L 360.730445 137.690132 
L 364.531878 137.501512 
L 365.799191 137.690132 
L 369.600751 137.501512 
L 400.013231 137.391484 
L 402.547604 137.297174 
L 422.82259 137.202864 
L 424.08965 137.108554 
L 425.356964 137.297174 
L 427.89121 137.202864 
L 460.83819 137.108554 
L 463.372437 136.998526 
L 478.57893 136.998526 
L 478.57893 136.998526 
" clip-path="url(#p6f5759ad6b)" style="fill: none; stroke: #000000; stroke-opacity: 0.95; stroke-linecap: square"/>
   </g>
   <g id="patch_3">
    <path d="M 92.731771 186.342986 
L 92.731771 19.908194 
" style="fill: none; stroke: #000000; stroke-width: 0.8; stroke-linejoin: miter; stroke-linecap: square"/>
   </g>
   <g id="patch_4">
    <path d="M 496.952604 186.342986 
L 496.952604 19.908194 
" style="fill: none; stroke: #000000; stroke-width: 0.8; stroke-linejoin: miter; stroke-linecap: square"/>
   </g>
   <g id="patch_5">
    <path d="M 92.731771 186.342986 
L 496.952604 186.342986 
" style="fill: none; stroke: #000000; stroke-width: 0.8; stroke-linejoin: miter; stroke-linecap: square"/>
   </g>
   <g id="patch_6">
    <path d="M 92.731771 19.908194 
L 496.952604 19.908194 
" style="fill: none; stroke: #000000; stroke-width: 0.8; stroke-linejoin: miter; stroke-linecap: square"/>
   </g>
   <g id="legend_1">
    <g id="patch_7">
     <path d="M 524.163646 189.367569 
L 674.619896 189.367569 
Q 676.619896 189.367569 676.619896 187.367569 
L 676.619896 26.908194 
Q 676.619896 24.908194 674.619896 24.908194 
L 524.163646 24.908194 
Q 522.163646 24.908194 522.163646 26.908194 
L 522.163646 187.367569 
Q 522.163646 189.367569 524.163646 189.367569 
z
" style="fill: #ffffff; opacity: 0.8; stroke: #cccccc; stroke-linejoin: miter"/>
    </g>
    <g id="line2d_42">
     <path d="M 526.163646 33.006631 
L 536.163646 33.006631 
L 546.163646 33.006631 
" style="fill: none; stroke: #0000ff; stroke-opacity: 0.95; stroke-linecap: square"/>
    </g>
    <g id="text_18">
     <!-- silicagel-temperature-C -->
     <g transform="translate(554.163646 36.506631) scale(0.1 -0.1)">
      <defs>
       <path id="DejaVuSans-73" d="M 2834 3397 
L 2834 2853 
Q 2591 2978 2328 3040 
Q 2066 3103 1784 3103 
Q 1356 3103 1142 2972 
Q 928 2841 928 2578 
Q 928 2378 1081 2264 
Q 1234 2150 1697 2047 
L 1894 2003 
Q 2506 1872 2764 1633 
Q 3022 1394 3022 966 
Q 3022 478 2636 193 
Q 2250 -91 1575 -91 
Q 1294 -91 989 -36 
Q 684 19 347 128 
L 347 722 
Q 666 556 975 473 
Q 1284 391 1588 391 
Q 1994 391 2212 530 
Q 2431 669 2431 922 
Q 2431 1156 2273 1281 
Q 2116 1406 1581 1522 
L 1381 1569 
Q 847 1681 609 1914 
Q 372 2147 372 2553 
Q 372 3047 722 3315 
Q 1072 3584 1716 3584 
Q 2034 3584 2315 3537 
Q 2597 3491 2834 3397 
z
" transform="scale(0.015625)"/>
       <path id="DejaVuSans-6c" d="M 603 4863 
L 1178 4863 
L 1178 0 
L 603 0 
L 603 4863 
z
" transform="scale(0.015625)"/>
       <path id="DejaVuSans-63" d="M 3122 3366 
L 3122 2828 
Q 2878 2963 2633 3030 
Q 2388 3097 2138 3097 
Q 1578 3097 1268 2742 
Q 959 2388 959 1747 
Q 959 1106 1268 751 
Q 1578 397 2138 397 
Q 2388 397 2633 464 
Q 2878 531 3122 666 
L 3122 134 
Q 2881 22 2623 -34 
Q 2366 -91 2075 -91 
Q 1284 -91 818 406 
Q 353 903 353 1747 
Q 353 2603 823 3093 
Q 1294 3584 2113 3584 
Q 2378 3584 2631 3529 
Q 2884 3475 3122 3366 
z
" transform="scale(0.015625)"/>
       <path id="DejaVuSans-67" d="M 2906 1791 
Q 2906 2416 2648 2759 
Q 2391 3103 1925 3103 
Q 1463 3103 1205 2759 
Q 947 2416 947 1791 
Q 947 1169 1205 825 
Q 1463 481 1925 481 
Q 2391 481 2648 825 
Q 2906 1169 2906 1791 
z
M 3481 434 
Q 3481 -459 3084 -895 
Q 2688 -1331 1869 -1331 
Q 1566 -1331 1297 -1286 
Q 1028 -1241 775 -1147 
L 775 -588 
Q 1028 -725 1275 -790 
Q 1522 -856 1778 -856 
Q 2344 -856 2625 -561 
Q 2906 -266 2906 331 
L 2906 616 
Q 2728 306 2450 153 
Q 2172 0 1784 0 
Q 1141 0 747 490 
Q 353 981 353 1791 
Q 353 2603 747 3093 
Q 1141 3584 1784 3584 
Q 2172 3584 2450 3431 
Q 2728 3278 2906 2969 
L 2906 3500 
L 3481 3500 
L 3481 434 
z
" transform="scale(0.015625)"/>
       <path id="DejaVuSans-2d" d="M 313 2009 
L 1997 2009 
L 1997 1497 
L 313 1497 
L 313 2009 
z
" transform="scale(0.015625)"/>
      </defs>
      <use xlink:href="#DejaVuSans-73"/>
      <use xlink:href="#DejaVuSans-69" x="52.099609"/>
      <use xlink:href="#DejaVuSans-6c" x="79.882812"/>
      <use xlink:href="#DejaVuSans-69" x="107.666016"/>
      <use xlink:href="#DejaVuSans-63" x="135.449219"/>
      <use xlink:href="#DejaVuSans-61" x="190.429688"/>
      <use xlink:href="#DejaVuSans-67" x="251.708984"/>
      <use xlink:href="#DejaVuSans-65" x="315.185547"/>
      <use xlink:href="#DejaVuSans-6c" x="376.708984"/>
      <use xlink:href="#DejaVuSans-2d" x="404.492188"/>
      <use xlink:href="#DejaVuSans-74" x="440.576172"/>
      <use xlink:href="#DejaVuSans-65" x="479.785156"/>
      <use xlink:href="#DejaVuSans-6d" x="541.308594"/>
      <use xlink:href="#DejaVuSans-70" x="638.720703"/>
      <use xlink:href="#DejaVuSans-65" x="702.197266"/>
      <use xlink:href="#DejaVuSans-72" x="763.720703"/>
      <use xlink:href="#DejaVuSans-61" x="804.833984"/>
      <use xlink:href="#DejaVuSans-74" x="866.113281"/>
      <use xlink:href="#DejaVuSans-75" x="905.322266"/>
      <use xlink:href="#DejaVuSans-72" x="968.701172"/>
      <use xlink:href="#DejaVuSans-65" x="1007.564453"/>
      <use xlink:href="#DejaVuSans-2d" x="1069.087891"/>
      <use xlink:href="#DejaVuSans-43" x="1105.171875"/>
     </g>
    </g>
    <g id="line2d_43">
     <path d="M 526.163646 47.684756 
L 536.163646 47.684756 
L 546.163646 47.684756 
" style="fill: none; stroke-dasharray: 1,1.65; stroke-dashoffset: 0; stroke: #0000ff; stroke-opacity: 0.95"/>
    </g>
    <g id="text_19">
     <!-- silicagel-humidity-rH -->
     <g transform="translate(554.163646 51.184756) scale(0.1 -0.1)">
      <defs>
       <path id="DejaVuSans-64" d="M 2906 2969 
L 2906 4863 
L 3481 4863 
L 3481 0 
L 2906 0 
L 2906 525 
Q 2725 213 2448 61 
Q 2172 -91 1784 -91 
Q 1150 -91 751 415 
Q 353 922 353 1747 
Q 353 2572 751 3078 
Q 1150 3584 1784 3584 
Q 2172 3584 2448 3432 
Q 2725 3281 2906 2969 
z
M 947 1747 
Q 947 1113 1208 752 
Q 1469 391 1925 391 
Q 2381 391 2643 752 
Q 2906 1113 2906 1747 
Q 2906 2381 2643 2742 
Q 2381 3103 1925 3103 
Q 1469 3103 1208 2742 
Q 947 2381 947 1747 
z
" transform="scale(0.015625)"/>
       <path id="DejaVuSans-79" d="M 2059 -325 
Q 1816 -950 1584 -1140 
Q 1353 -1331 966 -1331 
L 506 -1331 
L 506 -850 
L 844 -850 
Q 1081 -850 1212 -737 
Q 1344 -625 1503 -206 
L 1606 56 
L 191 3500 
L 800 3500 
L 1894 763 
L 2988 3500 
L 3597 3500 
L 2059 -325 
z
" transform="scale(0.015625)"/>
      </defs>
      <use xlink:href="#DejaVuSans-73"/>
      <use xlink:href="#DejaVuSans-69" x="52.099609"/>
      <use xlink:href="#DejaVuSans-6c" x="79.882812"/>
      <use xlink:href="#DejaVuSans-69" x="107.666016"/>
      <use xlink:href="#DejaVuSans-63" x="135.449219"/>
      <use xlink:href="#DejaVuSans-61" x="190.429688"/>
      <use xlink:href="#DejaVuSans-67" x="251.708984"/>
      <use xlink:href="#DejaVuSans-65" x="315.185547"/>
      <use xlink:href="#DejaVuSans-6c" x="376.708984"/>
      <use xlink:href="#DejaVuSans-2d" x="404.492188"/>
      <use xlink:href="#DejaVuSans-68" x="440.576172"/>
      <use xlink:href="#DejaVuSans-75" x="503.955078"/>
      <use xlink:href="#DejaVuSans-6d" x="567.333984"/>
      <use xlink:href="#DejaVuSans-69" x="664.746094"/>
      <use xlink:href="#DejaVuSans-64" x="692.529297"/>
      <use xlink:href="#DejaVuSans-69" x="756.005859"/>
      <use xlink:href="#DejaVuSans-74" x="783.789062"/>
      <use xlink:href="#DejaVuSans-79" x="822.998047"/>
      <use xlink:href="#DejaVuSans-2d" x="880.427734"/>
      <use xlink:href="#DejaVuSans-72" x="916.511719"/>
      <use xlink:href="#DejaVuSans-48" x="957.625"/>
     </g>
    </g>
    <g id="line2d_44">
     <path d="M 526.163646 62.362881 
L 536.163646 62.362881 
L 546.163646 62.362881 
" style="fill: none; stroke: #0000ff; stroke-opacity: 0.95; stroke-linecap: square"/>
    </g>
    <g id="text_20">
     <!-- silicagel-dew-C -->
     <g transform="translate(554.163646 65.862881) scale(0.1 -0.1)">
      <defs>
       <path id="DejaVuSans-77" d="M 269 3500 
L 844 3500 
L 1563 769 
L 2278 3500 
L 2956 3500 
L 3675 769 
L 4391 3500 
L 4966 3500 
L 4050 0 
L 3372 0 
L 2619 2869 
L 1863 0 
L 1184 0 
L 269 3500 
z
" transform="scale(0.015625)"/>
      </defs>
      <use xlink:href="#DejaVuSans-73"/>
      <use xlink:href="#DejaVuSans-69" x="52.099609"/>
      <use xlink:href="#DejaVuSans-6c" x="79.882812"/>
      <use xlink:href="#DejaVuSans-69" x="107.666016"/>
      <use xlink:href="#DejaVuSans-63" x="135.449219"/>
      <use xlink:href="#DejaVuSans-61" x="190.429688"/>
      <use xlink:href="#DejaVuSans-67" x="251.708984"/>
      <use xlink:href="#DejaVuSans-65" x="315.185547"/>
      <use xlink:href="#DejaVuSans-6c" x="376.708984"/>
      <use xlink:href="#DejaVuSans-2d" x="404.492188"/>
      <use xlink:href="#DejaVuSans-64" x="440.576172"/>
      <use xlink:href="#DejaVuSans-65" x="504.052734"/>
      <use xlink:href="#DejaVuSans-77" x="565.576172"/>
      <use xlink:href="#DejaVuSans-2d" x="647.363281"/>
      <use xlink:href="#DejaVuSans-43" x="683.447266"/>
     </g>
    </g>
    <g id="line2d_45">
     <path d="M 526.163646 77.041006 
L 536.163646 77.041006 
L 546.163646 77.041006 
" style="fill: none; stroke: #ffd700; stroke-opacity: 0.95; stroke-linecap: square"/>
    </g>
    <g id="text_21">
     <!-- filament-temperature-C -->
     <g transform="translate(554.163646 80.541006) scale(0.1 -0.1)">
      <defs>
       <path id="DejaVuSans-66" d="M 2375 4863 
L 2375 4384 
L 1825 4384 
Q 1516 4384 1395 4259 
Q 1275 4134 1275 3809 
L 1275 3500 
L 2222 3500 
L 2222 3053 
L 1275 3053 
L 1275 0 
L 697 0 
L 697 3053 
L 147 3053 
L 147 3500 
L 697 3500 
L 697 3744 
Q 697 4328 969 4595 
Q 1241 4863 1831 4863 
L 2375 4863 
z
" transform="scale(0.015625)"/>
       <path id="DejaVuSans-6e" d="M 3513 2113 
L 3513 0 
L 2938 0 
L 2938 2094 
Q 2938 2591 2744 2837 
Q 2550 3084 2163 3084 
Q 1697 3084 1428 2787 
Q 1159 2491 1159 1978 
L 1159 0 
L 581 0 
L 581 3500 
L 1159 3500 
L 1159 2956 
Q 1366 3272 1645 3428 
Q 1925 3584 2291 3584 
Q 2894 3584 3203 3211 
Q 3513 2838 3513 2113 
z
" transform="scale(0.015625)"/>
      </defs>
      <use xlink:href="#DejaVuSans-66"/>
      <use xlink:href="#DejaVuSans-69" x="35.205078"/>
      <use xlink:href="#DejaVuSans-6c" x="62.988281"/>
      <use xlink:href="#DejaVuSans-61" x="90.771484"/>
      <use xlink:href="#DejaVuSans-6d" x="152.050781"/>
      <use xlink:href="#DejaVuSans-65" x="249.462891"/>
      <use xlink:href="#DejaVuSans-6e" x="310.986328"/>
      <use xlink:href="#DejaVuSans-74" x="374.365234"/>
      <use xlink:href="#DejaVuSans-2d" x="413.574219"/>
      <use xlink:href="#DejaVuSans-74" x="449.658203"/>
      <use xlink:href="#DejaVuSans-65" x="488.867188"/>
      <use xlink:href="#DejaVuSans-6d" x="550.390625"/>
      <use xlink:href="#DejaVuSans-70" x="647.802734"/>
      <use xlink:href="#DejaVuSans-65" x="711.279297"/>
      <use xlink:href="#DejaVuSans-72" x="772.802734"/>
      <use xlink:href="#DejaVuSans-61" x="813.916016"/>
      <use xlink:href="#DejaVuSans-74" x="875.195312"/>
      <use xlink:href="#DejaVuSans-75" x="914.404297"/>
      <use xlink:href="#DejaVuSans-72" x="977.783203"/>
      <use xlink:href="#DejaVuSans-65" x="1016.646484"/>
      <use xlink:href="#DejaVuSans-2d" x="1078.169922"/>
      <use xlink:href="#DejaVuSans-43" x="1114.253906"/>
     </g>
    </g>
    <g id="line2d_46">
     <path d="M 526.163646 91.719131 
L 536.163646 91.719131 
L 546.163646 91.719131 
" style="fill: none; stroke-dasharray: 1,1.65; stroke-dashoffset: 0; stroke: #ffd700; stroke-opacity: 0.95"/>
    </g>
    <g id="text_22">
     <!-- filament-humidity-rH -->
     <g transform="translate(554.163646 95.219131) scale(0.1 -0.1)">
      <use xlink:href="#DejaVuSans-66"/>
      <use xlink:href="#DejaVuSans-69" x="35.205078"/>
      <use xlink:href="#DejaVuSans-6c" x="62.988281"/>
      <use xlink:href="#DejaVuSans-61" x="90.771484"/>
      <use xlink:href="#DejaVuSans-6d" x="152.050781"/>
      <use xlink:href="#DejaVuSans-65" x="249.462891"/>
      <use xlink:href="#DejaVuSans-6e" x="310.986328"/>
      <use xlink:href="#DejaVuSans-74" x="374.365234"/>
      <use xlink:href="#DejaVuSans-2d" x="413.574219"/>
      <use xlink:href="#DejaVuSans-68" x="449.658203"/>
      <use xlink:href="#DejaVuSans-75" x="513.037109"/>
      <use xlink:href="#DejaVuSans-6d" x="576.416016"/>
      <use xlink:href="#DejaVuSans-69" x="673.828125"/>
      <use xlink:href="#DejaVuSans-64" x="701.611328"/>
      <use xlink:href="#DejaVuSans-69" x="765.087891"/>
      <use xlink:href="#DejaVuSans-74" x="792.871094"/>
      <use xlink:href="#DejaVuSans-79" x="832.080078"/>
      <use xlink:href="#DejaVuSans-2d" x="889.509766"/>
      <use xlink:href="#DejaVuSans-72" x="925.59375"/>
      <use xlink:href="#DejaVuSans-48" x="966.707031"/>
     </g>
    </g>
    <g id="line2d_47">
     <path d="M 526.163646 106.397256 
L 536.163646 106.397256 
L 546.163646 106.397256 
" style="fill: none; stroke: #ffd700; stroke-opacity: 0.95; stroke-linecap: square"/>
    </g>
    <g id="text_23">
     <!-- filament-dew-C -->
     <g transform="translate(554.163646 109.897256) scale(0.1 -0.1)">
      <use xlink:href="#DejaVuSans-66"/>
      <use xlink:href="#DejaVuSans-69" x="35.205078"/>
      <use xlink:href="#DejaVuSans-6c" x="62.988281"/>
      <use xlink:href="#DejaVuSans-61" x="90.771484"/>
      <use xlink:href="#DejaVuSans-6d" x="152.050781"/>
      <use xlink:href="#DejaVuSans-65" x="249.462891"/>
      <use xlink:href="#DejaVuSans-6e" x="310.986328"/>
      <use xlink:href="#DejaVuSans-74" x="374.365234"/>
      <use xlink:href="#DejaVuSans-2d" x="413.574219"/>
      <use xlink:href="#DejaVuSans-64" x="449.658203"/>
      <use xlink:href="#DejaVuSans-65" x="513.134766"/>
      <use xlink:href="#DejaVuSans-77" x="574.658203"/>
      <use xlink:href="#DejaVuSans-2d" x="656.445312"/>
      <use xlink:href="#DejaVuSans-43" x="692.529297"/>
     </g>
    </g>
    <g id="line2d_48">
     <path d="M 526.163646 121.075381 
L 536.163646 121.075381 
L 546.163646 121.075381 
" style="fill: none; stroke: #00ff00; stroke-opacity: 0.95; stroke-linecap: square"/>
    </g>
    <g id="text_24">
     <!-- ambient-temperature-C -->
     <g transform="translate(554.163646 124.575381) scale(0.1 -0.1)">
      <defs>
       <path id="DejaVuSans-62" d="M 3116 1747 
Q 3116 2381 2855 2742 
Q 2594 3103 2138 3103 
Q 1681 3103 1420 2742 
Q 1159 2381 1159 1747 
Q 1159 1113 1420 752 
Q 1681 391 2138 391 
Q 2594 391 2855 752 
Q 3116 1113 3116 1747 
z
M 1159 2969 
Q 1341 3281 1617 3432 
Q 1894 3584 2278 3584 
Q 2916 3584 3314 3078 
Q 3713 2572 3713 1747 
Q 3713 922 3314 415 
Q 2916 -91 2278 -91 
Q 1894 -91 1617 61 
Q 1341 213 1159 525 
L 1159 0 
L 581 0 
L 581 4863 
L 1159 4863 
L 1159 2969 
z
" transform="scale(0.015625)"/>
      </defs>
      <use xlink:href="#DejaVuSans-61"/>
      <use xlink:href="#DejaVuSans-6d" x="61.279297"/>
      <use xlink:href="#DejaVuSans-62" x="158.691406"/>
      <use xlink:href="#DejaVuSans-69" x="222.167969"/>
      <use xlink:href="#DejaVuSans-65" x="249.951172"/>
      <use xlink:href="#DejaVuSans-6e" x="311.474609"/>
      <use xlink:href="#DejaVuSans-74" x="374.853516"/>
      <use xlink:href="#DejaVuSans-2d" x="414.0625"/>
      <use xlink:href="#DejaVuSans-74" x="450.146484"/>
      <use xlink:href="#DejaVuSans-65" x="489.355469"/>
      <use xlink:href="#DejaVuSans-6d" x="550.878906"/>
      <use xlink:href="#DejaVuSans-70" x="648.291016"/>
      <use xlink:href="#DejaVuSans-65" x="711.767578"/>
      <use xlink:href="#DejaVuSans-72" x="773.291016"/>
      <use xlink:href="#DejaVuSans-61" x="814.404297"/>
      <use xlink:href="#DejaVuSans-74" x="875.683594"/>
      <use xlink:href="#DejaVuSans-75" x="914.892578"/>
      <use xlink:href="#DejaVuSans-72" x="978.271484"/>
      <use xlink:href="#DejaVuSans-65" x="1017.134766"/>
      <use xlink:href="#DejaVuSans-2d" x="1078.658203"/>
      <use xlink:href="#DejaVuSans-43" x="1114.742188"/>
     </g>
    </g>
    <g id="line2d_49">
     <path d="M 526.163646 135.753506 
L 536.163646 135.753506 
L 546.163646 135.753506 
" style="fill: none; stroke-dasharray: 1,1.65; stroke-dashoffset: 0; stroke: #00ff00; stroke-opacity: 0.95"/>
    </g>
    <g id="text_25">
     <!-- ambient-humidity-rH -->
     <g transform="translate(554.163646 139.253506) scale(0.1 -0.1)">
      <use xlink:href="#DejaVuSans-61"/>
      <use xlink:href="#DejaVuSans-6d" x="61.279297"/>
      <use xlink:href="#DejaVuSans-62" x="158.691406"/>
      <use xlink:href="#DejaVuSans-69" x="222.167969"/>
      <use xlink:href="#DejaVuSans-65" x="249.951172"/>
      <use xlink:href="#DejaVuSans-6e" x="311.474609"/>
      <use xlink:href="#DejaVuSans-74" x="374.853516"/>
      <use xlink:href="#DejaVuSans-2d" x="414.0625"/>
      <use xlink:href="#DejaVuSans-68" x="450.146484"/>
      <use xlink:href="#DejaVuSans-75" x="513.525391"/>
      <use xlink:href="#DejaVuSans-6d" x="576.904297"/>
      <use xlink:href="#DejaVuSans-69" x="674.316406"/>
      <use xlink:href="#DejaVuSans-64" x="702.099609"/>
      <use xlink:href="#DejaVuSans-69" x="765.576172"/>
      <use xlink:href="#DejaVuSans-74" x="793.359375"/>
      <use xlink:href="#DejaVuSans-79" x="832.568359"/>
      <use xlink:href="#DejaVuSans-2d" x="889.998047"/>
      <use xlink:href="#DejaVuSans-72" x="926.082031"/>
      <use xlink:href="#DejaVuSans-48" x="967.195312"/>
     </g>
    </g>
    <g id="line2d_50">
     <path d="M 526.163646 150.431631 
L 536.163646 150.431631 
L 546.163646 150.431631 
" style="fill: none; stroke: #00ff00; stroke-opacity: 0.95; stroke-linecap: square"/>
    </g>
    <g id="text_26">
     <!-- ambient-dew-C -->
     <g transform="translate(554.163646 153.931631) scale(0.1 -0.1)">
      <use xlink:href="#DejaVuSans-61"/>
      <use xlink:href="#DejaVuSans-6d" x="61.279297"/>
      <use xlink:href="#DejaVuSans-62" x="158.691406"/>
      <use xlink:href="#DejaVuSans-69" x="222.167969"/>
      <use xlink:href="#DejaVuSans-65" x="249.951172"/>
      <use xlink:href="#DejaVuSans-6e" x="311.474609"/>
      <use xlink:href="#DejaVuSans-74" x="374.853516"/>
      <use xlink:href="#DejaVuSans-2d" x="414.0625"/>
      <use xlink:href="#DejaVuSans-64" x="450.146484"/>
      <use xlink:href="#DejaVuSans-65" x="513.623047"/>
      <use xlink:href="#DejaVuSans-77" x="575.146484"/>
      <use xlink:href="#DejaVuSans-2d" x="656.933594"/>
      <use xlink:href="#DejaVuSans-43" x="693.017578"/>
     </g>
    </g>
    <g id="line2d_51">
     <path d="M 526.163646 165.109756 
L 536.163646 165.109756 
L 546.163646 165.109756 
" style="fill: none; stroke: #ff0000; stroke-opacity: 0.95; stroke-linecap: square"/>
    </g>
    <g id="text_27">
     <!-- heater-temperature-C -->
     <g transform="translate(554.163646 168.609756) scale(0.1 -0.1)">
      <use xlink:href="#DejaVuSans-68"/>
      <use xlink:href="#DejaVuSans-65" x="63.378906"/>
      <use xlink:href="#DejaVuSans-61" x="124.902344"/>
      <use xlink:href="#DejaVuSans-74" x="186.181641"/>
      <use xlink:href="#DejaVuSans-65" x="225.390625"/>
      <use xlink:href="#DejaVuSans-72" x="286.914062"/>
      <use xlink:href="#DejaVuSans-2d" x="321.652344"/>
      <use xlink:href="#DejaVuSans-74" x="357.736328"/>
      <use xlink:href="#DejaVuSans-65" x="396.945312"/>
      <use xlink:href="#DejaVuSans-6d" x="458.46875"/>
      <use xlink:href="#DejaVuSans-70" x="555.880859"/>
      <use xlink:href="#DejaVuSans-65" x="619.357422"/>
      <use xlink:href="#DejaVuSans-72" x="680.880859"/>
      <use xlink:href="#DejaVuSans-61" x="721.994141"/>
      <use xlink:href="#DejaVuSans-74" x="783.273438"/>
      <use xlink:href="#DejaVuSans-75" x="822.482422"/>
      <use xlink:href="#DejaVuSans-72" x="885.861328"/>
      <use xlink:href="#DejaVuSans-65" x="924.724609"/>
      <use xlink:href="#DejaVuSans-2d" x="986.248047"/>
      <use xlink:href="#DejaVuSans-43" x="1022.332031"/>
     </g>
    </g>
    <g id="line2d_52">
     <path d="M 526.163646 179.787881 
L 536.163646 179.787881 
L 546.163646 179.787881 
" style="fill: none; stroke: #000000; stroke-opacity: 0.95; stroke-linecap: square"/>
    </g>
    <g id="text_28">
     <!-- aux-temperature-C -->
     <g transform="translate(554.163646 183.287881) scale(0.1 -0.1)">
      <defs>
       <path id="DejaVuSans-78" d="M 3513 3500 
L 2247 1797 
L 3578 0 
L 2900 0 
L 1881 1375 
L 863 0 
L 184 0 
L 1544 1831 
L 300 3500 
L 978 3500 
L 1906 2253 
L 2834 3500 
L 3513 3500 
z
" transform="scale(0.015625)"/>
      </defs>
      <use xlink:href="#DejaVuSans-61"/>
      <use xlink:href="#DejaVuSans-75" x="61.279297"/>
      <use xlink:href="#DejaVuSans-78" x="124.658203"/>
      <use xlink:href="#DejaVuSans-2d" x="183.837891"/>
      <use xlink:href="#DejaVuSans-74" x="219.921875"/>
      <use xlink:href="#DejaVuSans-65" x="259.130859"/>
      <use xlink:href="#DejaVuSans-6d" x="320.654297"/>
      <use xlink:href="#DejaVuSans-70" x="418.066406"/>
      <use xlink:href="#DejaVuSans-65" x="481.542969"/>
      <use xlink:href="#DejaVuSans-72" x="543.066406"/>
      <use xlink:href="#DejaVuSans-61" x="584.179688"/>
      <use xlink:href="#DejaVuSans-74" x="645.458984"/>
      <use xlink:href="#DejaVuSans-75" x="684.667969"/>
      <use xlink:href="#DejaVuSans-72" x="748.046875"/>
      <use xlink:href="#DejaVuSans-65" x="786.910156"/>
      <use xlink:href="#DejaVuSans-2d" x="848.433594"/>
      <use xlink:href="#DejaVuSans-43" x="884.517578"/>
     </g>
    </g>
   </g>
  </g>
  <g id="axes_2">
   <g id="patch_8">
    <path d="M 92.731771 441.277778 
L 496.952604 441.277778 
L 496.952604 274.842986 
L 92.731771 274.842986 
z
" style="fill: #ffffff"/>
   </g>
   <g id="matplotlib.axis_3">
    <g id="xtick_10">
     <g id="line2d_53">
      <g>
       <use xlink:href="#m814d506696" x="110.994313" y="441.277778" style="stroke: #000000; stroke-width: 0.8"/>
      </g>
     </g>
     <g id="text_29">
      <!-- 0.0 -->
      <g transform="translate(103.04275 455.876215) scale(0.1 -0.1)">
       <use xlink:href="#DejaVuSans-30"/>
       <use xlink:href="#DejaVuSans-2e" x="63.623047"/>
       <use xlink:href="#DejaVuSans-30" x="95.410156"/>
      </g>
     </g>
    </g>
    <g id="xtick_11">
     <g id="line2d_54">
      <g>
       <use xlink:href="#m814d506696" x="156.613032" y="441.277778" style="stroke: #000000; stroke-width: 0.8"/>
      </g>
     </g>
     <g id="text_30">
      <!-- 0.1 -->
      <g transform="translate(148.66147 455.876215) scale(0.1 -0.1)">
       <use xlink:href="#DejaVuSans-30"/>
       <use xlink:href="#DejaVuSans-2e" x="63.623047"/>
       <use xlink:href="#DejaVuSans-31" x="95.410156"/>
      </g>
     </g>
    </g>
    <g id="xtick_12">
     <g id="line2d_55">
      <g>
       <use xlink:href="#m814d506696" x="202.231752" y="441.277778" style="stroke: #000000; stroke-width: 0.8"/>
      </g>
     </g>
     <g id="text_31">
      <!-- 0.2 -->
      <g transform="translate(194.280189 455.876215) scale(0.1 -0.1)">
       <use xlink:href="#DejaVuSans-30"/>
       <use xlink:href="#DejaVuSans-2e" x="63.623047"/>
       <use xlink:href="#DejaVuSans-32" x="95.410156"/>
      </g>
     </g>
    </g>
    <g id="xtick_13">
     <g id="line2d_56">
      <g>
       <use xlink:href="#m814d506696" x="247.850471" y="441.277778" style="stroke: #000000; stroke-width: 0.8"/>
      </g>
     </g>
     <g id="text_32">
      <!-- 0.3 -->
      <g transform="translate(239.898909 455.876215) scale(0.1 -0.1)">
       <use xlink:href="#DejaVuSans-30"/>
       <use xlink:href="#DejaVuSans-2e" x="63.623047"/>
       <use xlink:href="#DejaVuSans-33" x="95.410156"/>
      </g>
     </g>
    </g>
    <g id="xtick_14">
     <g id="line2d_57">
      <g>
       <use xlink:href="#m814d506696" x="293.469191" y="441.277778" style="stroke: #000000; stroke-width: 0.8"/>
      </g>
     </g>
     <g id="text_33">
      <!-- 0.4 -->
      <g transform="translate(285.517628 455.876215) scale(0.1 -0.1)">
       <use xlink:href="#DejaVuSans-30"/>
       <use xlink:href="#DejaVuSans-2e" x="63.623047"/>
       <use xlink:href="#DejaVuSans-34" x="95.410156"/>
      </g>
     </g>
    </g>
    <g id="xtick_15">
     <g id="line2d_58">
      <g>
       <use xlink:href="#m814d506696" x="339.08791" y="441.277778" style="stroke: #000000; stroke-width: 0.8"/>
      </g>
     </g>
     <g id="text_34">
      <!-- 0.5 -->
      <g transform="translate(331.136348 455.876215) scale(0.1 -0.1)">
       <use xlink:href="#DejaVuSans-30"/>
       <use xlink:href="#DejaVuSans-2e" x="63.623047"/>
       <use xlink:href="#DejaVuSans-35" x="95.410156"/>
      </g>
     </g>
    </g>
    <g id="xtick_16">
     <g id="line2d_59">
      <g>
       <use xlink:href="#m814d506696" x="384.70663" y="441.277778" style="stroke: #000000; stroke-width: 0.8"/>
      </g>
     </g>
     <g id="text_35">
      <!-- 0.6 -->
      <g transform="translate(376.755067 455.876215) scale(0.1 -0.1)">
       <use xlink:href="#DejaVuSans-30"/>
       <use xlink:href="#DejaVuSans-2e" x="63.623047"/>
       <use xlink:href="#DejaVuSans-36" x="95.410156"/>
      </g>
     </g>
    </g>
    <g id="xtick_17">
     <g id="line2d_60">
      <g>
       <use xlink:href="#m814d506696" x="430.325349" y="441.277778" style="stroke: #000000; stroke-width: 0.8"/>
      </g>
     </g>
     <g id="text_36">
      <!-- 0.7 -->
      <g transform="translate(422.373787 455.876215) scale(0.1 -0.1)">
       <use xlink:href="#DejaVuSans-30"/>
       <use xlink:href="#DejaVuSans-2e" x="63.623047"/>
       <use xlink:href="#DejaVuSans-37" x="95.410156"/>
      </g>
     </g>
    </g>
    <g id="xtick_18">
     <g id="line2d_61">
      <g>
       <use xlink:href="#m814d506696" x="475.944069" y="441.277778" style="stroke: #000000; stroke-width: 0.8"/>
      </g>
     </g>
     <g id="text_37">
      <!-- 0.8 -->
      <g transform="translate(467.992506 455.876215) scale(0.1 -0.1)">
       <use xlink:href="#DejaVuSans-30"/>
       <use xlink:href="#DejaVuSans-2e" x="63.623047"/>
       <use xlink:href="#DejaVuSans-38" x="95.410156"/>
      </g>
     </g>
    </g>
   </g>
   <g id="matplotlib.axis_4">
    <g id="ytick_7">
     <g id="line2d_62">
      <g>
       <use xlink:href="#m58ea8fecbc" x="92.731771" y="433.71256" style="stroke: #000000; stroke-width: 0.8"/>
      </g>
     </g>
     <g id="text_38">
      <!-- 0.0 -->
      <g transform="translate(69.828646 437.511779) scale(0.1 -0.1)">
       <use xlink:href="#DejaVuSans-30"/>
       <use xlink:href="#DejaVuSans-2e" x="63.623047"/>
       <use xlink:href="#DejaVuSans-30" x="95.410156"/>
      </g>
     </g>
    </g>
    <g id="ytick_8">
     <g id="line2d_63">
      <g>
       <use xlink:href="#m58ea8fecbc" x="92.731771" y="403.451689" style="stroke: #000000; stroke-width: 0.8"/>
      </g>
     </g>
     <g id="text_39">
      <!-- 0.2 -->
      <g transform="translate(69.828646 407.250907) scale(0.1 -0.1)">
       <use xlink:href="#DejaVuSans-30"/>
       <use xlink:href="#DejaVuSans-2e" x="63.623047"/>
       <use xlink:href="#DejaVuSans-32" x="95.410156"/>
      </g>
     </g>
    </g>
    <g id="ytick_9">
     <g id="line2d_64">
      <g>
       <use xlink:href="#m58ea8fecbc" x="92.731771" y="373.190817" style="stroke: #000000; stroke-width: 0.8"/>
      </g>
     </g>
     <g id="text_40">
      <!-- 0.4 -->
      <g transform="translate(69.828646 376.990036) scale(0.1 -0.1)">
       <use xlink:href="#DejaVuSans-30"/>
       <use xlink:href="#DejaVuSans-2e" x="63.623047"/>
       <use xlink:href="#DejaVuSans-34" x="95.410156"/>
      </g>
     </g>
    </g>
    <g id="ytick_10">
     <g id="line2d_65">
      <g>
       <use xlink:href="#m58ea8fecbc" x="92.731771" y="342.929946" style="stroke: #000000; stroke-width: 0.8"/>
      </g>
     </g>
     <g id="text_41">
      <!-- 0.6 -->
      <g transform="translate(69.828646 346.729165) scale(0.1 -0.1)">
       <use xlink:href="#DejaVuSans-30"/>
       <use xlink:href="#DejaVuSans-2e" x="63.623047"/>
       <use xlink:href="#DejaVuSans-36" x="95.410156"/>
      </g>
     </g>
    </g>
    <g id="ytick_11">
     <g id="line2d_66">
      <g>
       <use xlink:href="#m58ea8fecbc" x="92.731771" y="312.669075" style="stroke: #000000; stroke-width: 0.8"/>
      </g>
     </g>
     <g id="text_42">
      <!-- 0.8 -->
      <g transform="translate(69.828646 316.468294) scale(0.1 -0.1)">
       <use xlink:href="#DejaVuSans-30"/>
       <use xlink:href="#DejaVuSans-2e" x="63.623047"/>
       <use xlink:href="#DejaVuSans-38" x="95.410156"/>
      </g>
     </g>
    </g>
    <g id="ytick_12">
     <g id="line2d_67">
      <g>
       <use xlink:href="#m58ea8fecbc" x="92.731771" y="282.408204" style="stroke: #000000; stroke-width: 0.8"/>
      </g>
     </g>
     <g id="text_43">
      <!-- 1.0 -->
      <g transform="translate(69.828646 286.207422) scale(0.1 -0.1)">
       <use xlink:href="#DejaVuSans-31"/>
       <use xlink:href="#DejaVuSans-2e" x="63.623047"/>
       <use xlink:href="#DejaVuSans-30" x="95.410156"/>
      </g>
     </g>
    </g>
    <g id="text_44">
     <!-- Power -->
     <g transform="translate(63.748958 373.174444) rotate(-90) scale(0.1 -0.1)">
      <defs>
       <path id="DejaVuSans-50" d="M 1259 4147 
L 1259 2394 
L 2053 2394 
Q 2494 2394 2734 2622 
Q 2975 2850 2975 3272 
Q 2975 3691 2734 3919 
Q 2494 4147 2053 4147 
L 1259 4147 
z
M 628 4666 
L 2053 4666 
Q 2838 4666 3239 4311 
Q 3641 3956 3641 3272 
Q 3641 2581 3239 2228 
Q 2838 1875 2053 1875 
L 1259 1875 
L 1259 0 
L 628 0 
L 628 4666 
z
" transform="scale(0.015625)"/>
       <path id="DejaVuSans-6f" d="M 1959 3097 
Q 1497 3097 1228 2736 
Q 959 2375 959 1747 
Q 959 1119 1226 758 
Q 1494 397 1959 397 
Q 2419 397 2687 759 
Q 2956 1122 2956 1747 
Q 2956 2369 2687 2733 
Q 2419 3097 1959 3097 
z
M 1959 3584 
Q 2709 3584 3137 3096 
Q 3566 2609 3566 1747 
Q 3566 888 3137 398 
Q 2709 -91 1959 -91 
Q 1206 -91 779 398 
Q 353 888 353 1747 
Q 353 2609 779 3096 
Q 1206 3584 1959 3584 
z
" transform="scale(0.015625)"/>
      </defs>
      <use xlink:href="#DejaVuSans-50"/>
      <use xlink:href="#DejaVuSans-6f" x="56.677734"/>
      <use xlink:href="#DejaVuSans-77" x="117.859375"/>
      <use xlink:href="#DejaVuSans-65" x="199.646484"/>
      <use xlink:href="#DejaVuSans-72" x="261.169922"/>
     </g>
    </g>
   </g>
   <g id="line2d_68">
    <path d="M 111.105445 433.71256 
L 303.707172 433.71256 
L 304.974232 282.408204 
L 307.508605 282.408204 
L 308.775792 433.71256 
L 310.042852 282.408204 
L 311.310038 433.71256 
L 312.577352 282.408204 
L 313.844538 433.71256 
L 315.111725 282.408204 
L 316.379038 282.408204 
L 317.645972 433.71256 
L 318.913158 282.408204 
L 320.180472 433.71256 
L 321.447658 282.408204 
L 322.714845 433.71256 
L 323.982032 282.408204 
L 325.249092 282.408204 
L 326.516405 433.71256 
L 327.783592 282.408204 
L 329.050651 433.71256 
L 330.317838 282.408204 
L 331.585152 282.408204 
L 332.852465 433.71256 
L 334.119525 282.408204 
L 335.387979 282.408204 
L 336.653898 433.71256 
L 337.920958 282.408204 
L 339.188145 433.71256 
L 340.455458 282.408204 
L 341.722645 282.408204 
L 342.989831 433.71256 
L 344.257018 282.408204 
L 345.524078 433.71256 
L 346.791265 282.408204 
L 348.058451 282.408204 
L 349.325638 433.71256 
L 350.592825 282.408204 
L 351.860138 433.71256 
L 353.127325 282.408204 
L 354.394638 282.408204 
L 355.661698 433.71256 
L 356.928885 282.408204 
L 358.196071 282.408204 
L 359.463258 433.71256 
L 360.730445 282.408204 
L 361.997631 282.408204 
L 363.264818 433.71256 
L 364.531878 282.408204 
L 365.799191 282.408204 
L 367.066251 433.71256 
L 368.333564 282.408204 
L 369.600751 282.408204 
L 370.867938 433.71256 
L 372.135124 282.408204 
L 373.402311 282.408204 
L 374.669498 433.71256 
L 375.936558 282.408204 
L 377.203871 282.408204 
L 378.471058 433.71256 
L 379.738244 282.408204 
L 381.005431 282.408204 
L 382.272618 433.71256 
L 383.539804 282.408204 
L 384.806991 282.408204 
L 386.074178 433.71256 
L 387.341238 282.408204 
L 388.608424 282.408204 
L 389.875864 433.71256 
L 391.142797 282.408204 
L 392.409984 282.408204 
L 393.677297 433.71256 
L 394.944357 282.408204 
L 398.746044 282.408204 
L 400.013231 433.71256 
L 401.280417 282.408204 
L 403.814791 282.408204 
L 405.081977 433.71256 
L 406.349164 282.408204 
L 408.883537 282.408204 
L 410.150597 433.71256 
L 411.417784 282.408204 
L 420.288217 282.408204 
L 421.556544 433.71256 
L 422.82259 282.408204 
L 455.769443 282.408204 
L 457.03663 433.71256 
L 458.303817 282.408204 
L 476.044303 282.408204 
L 477.31149 433.71256 
L 478.57893 282.408204 
L 478.57893 282.408204 
" clip-path="url(#p6d9397df8a)" style="fill: none; stroke: #00ff00; stroke-opacity: 0.95; stroke-linecap: square"/>
   </g>
   <g id="line2d_69">
    <path d="M 111.105445 433.71256 
L 112.361861 433.71256 
L 113.629301 282.408204 
L 212.471127 282.408204 
L 213.736793 433.71256 
L 478.57893 433.71256 
L 478.57893 433.71256 
" clip-path="url(#p6d9397df8a)" style="fill: none; stroke: #ffd700; stroke-opacity: 0.95; stroke-linecap: square"/>
   </g>
   <g id="line2d_70">
    <path d="M 111.105445 340.785475 
L 112.361861 340.785475 
L 113.629301 433.71256 
L 212.471127 433.71256 
L 213.736793 340.785475 
L 478.57893 340.785475 
L 478.57893 340.785475 
" clip-path="url(#p6d9397df8a)" style="fill: none; stroke: #ff0000; stroke-opacity: 0.95; stroke-linecap: square"/>
   </g>
   <g id="patch_9">
    <path d="M 92.731771 441.277778 
L 92.731771 274.842986 
" style="fill: none; stroke: #000000; stroke-width: 0.8; stroke-linejoin: miter; stroke-linecap: square"/>
   </g>
   <g id="patch_10">
    <path d="M 496.952604 441.277778 
L 496.952604 274.842986 
" style="fill: none; stroke: #000000; stroke-width: 0.8; stroke-linejoin: miter; stroke-linecap: square"/>
   </g>
   <g id="patch_11">
    <path d="M 92.731771 441.277778 
L 496.952604 441.277778 
" style="fill: none; stroke: #000000; stroke-width: 0.8; stroke-linejoin: miter; stroke-linecap: square"/>
   </g>
   <g id="patch_12">
    <path d="M 92.731771 274.842986 
L 496.952604 274.842986 
" style="fill: none; stroke: #000000; stroke-width: 0.8; stroke-linejoin: miter; stroke-linecap: square"/>
   </g>
   <g id="legend_2">
    <g id="patch_13">
     <path d="M 524.163646 326.877361 
L 635.255833 326.877361 
Q 637.255833 326.877361 637.255833 324.877361 
L 637.255833 281.842986 
Q 637.255833 279.842986 635.255833 279.842986 
L 524.163646 279.842986 
Q 522.163646 279.842986 522.163646 281.842986 
L 522.163646 324.877361 
Q 522.163646 326.877361 524.163646 326.877361 
z
" style="fill: #ffffff; opacity: 0.8; stroke: #cccccc; stroke-linejoin: miter"/>
    </g>
    <g id="line2d_71">
     <path d="M 526.163646 287.941423 
L 536.163646 287.941423 
L 546.163646 287.941423 
" style="fill: none; stroke: #00ff00; stroke-opacity: 0.95; stroke-linecap: square"/>
    </g>
    <g id="text_45">
     <!-- ambient-Fan-1 -->
     <g transform="translate(554.163646 291.441423) scale(0.1 -0.1)">
      <defs>
       <path id="DejaVuSans-46" d="M 628 4666 
L 3309 4666 
L 3309 4134 
L 1259 4134 
L 1259 2759 
L 3109 2759 
L 3109 2228 
L 1259 2228 
L 1259 0 
L 628 0 
L 628 4666 
z
" transform="scale(0.015625)"/>
      </defs>
      <use xlink:href="#DejaVuSans-61"/>
      <use xlink:href="#DejaVuSans-6d" x="61.279297"/>
      <use xlink:href="#DejaVuSans-62" x="158.691406"/>
      <use xlink:href="#DejaVuSans-69" x="222.167969"/>
      <use xlink:href="#DejaVuSans-65" x="249.951172"/>
      <use xlink:href="#DejaVuSans-6e" x="311.474609"/>
      <use xlink:href="#DejaVuSans-74" x="374.853516"/>
      <use xlink:href="#DejaVuSans-2d" x="414.0625"/>
      <use xlink:href="#DejaVuSans-46" x="450.146484"/>
      <use xlink:href="#DejaVuSans-61" x="498.541016"/>
      <use xlink:href="#DejaVuSans-6e" x="559.820312"/>
      <use xlink:href="#DejaVuSans-2d" x="623.199219"/>
      <use xlink:href="#DejaVuSans-31" x="659.283203"/>
     </g>
    </g>
    <g id="line2d_72">
     <path d="M 526.163646 302.619548 
L 536.163646 302.619548 
L 546.163646 302.619548 
" style="fill: none; stroke: #ffd700; stroke-opacity: 0.95; stroke-linecap: square"/>
    </g>
    <g id="text_46">
     <!-- filament-Fan-1 -->
     <g transform="translate(554.163646 306.119548) scale(0.1 -0.1)">
      <use xlink:href="#DejaVuSans-66"/>
      <use xlink:href="#DejaVuSans-69" x="35.205078"/>
      <use xlink:href="#DejaVuSans-6c" x="62.988281"/>
      <use xlink:href="#DejaVuSans-61" x="90.771484"/>
      <use xlink:href="#DejaVuSans-6d" x="152.050781"/>
      <use xlink:href="#DejaVuSans-65" x="249.462891"/>
      <use xlink:href="#DejaVuSans-6e" x="310.986328"/>
      <use xlink:href="#DejaVuSans-74" x="374.365234"/>
      <use xlink:href="#DejaVuSans-2d" x="413.574219"/>
      <use xlink:href="#DejaVuSans-46" x="449.658203"/>
      <use xlink:href="#DejaVuSans-61" x="498.052734"/>
      <use xlink:href="#DejaVuSans-6e" x="559.332031"/>
      <use xlink:href="#DejaVuSans-2d" x="622.710938"/>
      <use xlink:href="#DejaVuSans-31" x="658.794922"/>
     </g>
    </g>
    <g id="line2d_73">
     <path d="M 526.163646 317.297673 
L 536.163646 317.297673 
L 546.163646 317.297673 
" style="fill: none; stroke: #ff0000; stroke-opacity: 0.95; stroke-linecap: square"/>
    </g>
    <g id="text_47">
     <!-- heater-Heater-1 -->
     <g transform="translate(554.163646 320.797673) scale(0.1 -0.1)">
      <use xlink:href="#DejaVuSans-68"/>
      <use xlink:href="#DejaVuSans-65" x="63.378906"/>
      <use xlink:href="#DejaVuSans-61" x="124.902344"/>
      <use xlink:href="#DejaVuSans-74" x="186.181641"/>
      <use xlink:href="#DejaVuSans-65" x="225.390625"/>
      <use xlink:href="#DejaVuSans-72" x="286.914062"/>
      <use xlink:href="#DejaVuSans-2d" x="321.652344"/>
      <use xlink:href="#DejaVuSans-48" x="357.736328"/>
      <use xlink:href="#DejaVuSans-65" x="432.931641"/>
      <use xlink:href="#DejaVuSans-61" x="494.455078"/>
      <use xlink:href="#DejaVuSans-74" x="555.734375"/>
      <use xlink:href="#DejaVuSans-65" x="594.943359"/>
      <use xlink:href="#DejaVuSans-72" x="656.466797"/>
      <use xlink:href="#DejaVuSans-2d" x="691.205078"/>
      <use xlink:href="#DejaVuSans-31" x="727.289062"/>
     </g>
    </g>
   </g>
  </g>
 </g>
 <defs>
  <clipPath id="p6f5759ad6b">
   <rect x="92.731771" y="19.908194" width="404.220833" height="166.434792"/>
  </clipPath>
  <clipPath id="p6d9397df8a">
   <rect x="92.731771" y="274.842986" width="404.220833" height="166.434792"/>
  </clipPath>
 </defs>
</svg>
