<?xml version="1.0" encoding="utf-8" standalone="no"?>
<!DOCTYPE svg PUBLIC "-//W3C//DTD SVG 1.1//EN"
  "http://www.w3.org/Graphics/SVG/1.1/DTD/svg11.dtd">
<svg xmlns:xlink="http://www.w3.org/1999/xlink" width="460.8pt" height="345.6pt" viewBox="0 0 460.8 345.6" xmlns="http://www.w3.org/2000/svg" version="1.1">
 <metadata>
  <rdf:RDF xmlns:dc="http://purl.org/dc/elements/1.1/" xmlns:cc="http://creativecommons.org/ns#" xmlns:rdf="http://www.w3.org/1999/02/22-rdf-syntax-ns#">
   <cc:Work>
    <dc:type rdf:resource="http://purl.org/dc/dcmitype/StillImage"/>
    <dc:date>2023-09-14T07:03:32.843400</dc:date>
    <dc:format>image/svg+xml</dc:format>
    <dc:creator>
     <cc:Agent>
      <dc:title>Matplotlib v3.7.2, https://matplotlib.org/</dc:title>
     </cc:Agent>
    </dc:creator>
   </cc:Work>
  </rdf:RDF>
 </metadata>
 <defs>
  <style type="text/css">*{stroke-linejoin: round; stroke-linecap: butt}</style>
 </defs>
 <g id="figure_1">
  <g id="patch_1">
   <path d="M 0 345.6 
L 460.8 345.6 
L 460.8 0 
L 0 0 
z
" style="fill: #ffffff"/>
  </g>
  <g id="axes_1">
   <g id="patch_2">
    <path d="M 50.87 303.64 
L 272.614 303.64 
L 272.614 10.8 
L 50.87 10.8 
z
" style="fill: #ffffff"/>
   </g>
   <g id="matplotlib.axis_1">
    <g id="xtick_1">
     <g id="line2d_1">
      <path d="M 60.888309 303.64 
L 60.888309 10.8 
" clip-path="url(#pe7ed950237)" style="fill: none; stroke: #b0b0b0; stroke-width: 0.8; stroke-linecap: square"/>
     </g>
     <g id="line2d_2">
      <defs>
       <path id="m554d6ca688" d="M 0 0 
L 0 3.5 
" style="stroke: #000000; stroke-width: 0.8"/>
      </defs>
      <g>
       <use xlink:href="#m554d6ca688" x="60.888309" y="303.64" style="stroke: #000000; stroke-width: 0.8"/>
      </g>
     </g>
     <g id="text_1">
      <!-- 0.0 -->
      <g transform="translate(52.936746 318.238437) scale(0.1 -0.1)">
       <defs>
        <path id="DejaVuSans-30" d="M 2034 4250 
Q 1547 4250 1301 3770 
Q 1056 3291 1056 2328 
Q 1056 1369 1301 889 
Q 1547 409 2034 409 
Q 2525 409 2770 889 
Q 3016 1369 3016 2328 
Q 3016 3291 2770 3770 
Q 2525 4250 2034 4250 
z
M 2034 4750 
Q 2819 4750 3233 4129 
Q 3647 3509 3647 2328 
Q 3647 1150 3233 529 
Q 2819 -91 2034 -91 
Q 1250 -91 836 529 
Q 422 1150 422 2328 
Q 422 3509 836 4129 
Q 1250 4750 2034 4750 
z
" transform="scale(0.015625)"/>
        <path id="DejaVuSans-2e" d="M 684 794 
L 1344 794 
L 1344 0 
L 684 0 
L 684 794 
z
" transform="scale(0.015625)"/>
       </defs>
       <use xlink:href="#DejaVuSans-30"/>
       <use xlink:href="#DejaVuSans-2e" x="63.623047"/>
       <use xlink:href="#DejaVuSans-30" x="95.410156"/>
      </g>
     </g>
    </g>
    <g id="xtick_2">
     <g id="line2d_3">
      <path d="M 110.938561 303.64 
L 110.938561 10.8 
" clip-path="url(#pe7ed950237)" style="fill: none; stroke: #b0b0b0; stroke-width: 0.8; stroke-linecap: square"/>
     </g>
     <g id="line2d_4">
      <g>
       <use xlink:href="#m554d6ca688" x="110.938561" y="303.64" style="stroke: #000000; stroke-width: 0.8"/>
      </g>
     </g>
     <g id="text_2">
      <!-- 0.2 -->
      <g transform="translate(102.986998 318.238437) scale(0.1 -0.1)">
       <defs>
        <path id="DejaVuSans-32" d="M 1228 531 
L 3431 531 
L 3431 0 
L 469 0 
L 469 531 
Q 828 903 1448 1529 
Q 2069 2156 2228 2338 
Q 2531 2678 2651 2914 
Q 2772 3150 2772 3378 
Q 2772 3750 2511 3984 
Q 2250 4219 1831 4219 
Q 1534 4219 1204 4116 
Q 875 4013 500 3803 
L 500 4441 
Q 881 4594 1212 4672 
Q 1544 4750 1819 4750 
Q 2544 4750 2975 4387 
Q 3406 4025 3406 3419 
Q 3406 3131 3298 2873 
Q 3191 2616 2906 2266 
Q 2828 2175 2409 1742 
Q 1991 1309 1228 531 
z
" transform="scale(0.015625)"/>
       </defs>
       <use xlink:href="#DejaVuSans-30"/>
       <use xlink:href="#DejaVuSans-2e" x="63.623047"/>
       <use xlink:href="#DejaVuSans-32" x="95.410156"/>
      </g>
     </g>
    </g>
    <g id="xtick_3">
     <g id="line2d_5">
      <path d="M 160.988813 303.64 
L 160.988813 10.8 
" clip-path="url(#pe7ed950237)" style="fill: none; stroke: #b0b0b0; stroke-width: 0.8; stroke-linecap: square"/>
     </g>
     <g id="line2d_6">
      <g>
       <use xlink:href="#m554d6ca688" x="160.988813" y="303.64" style="stroke: #000000; stroke-width: 0.8"/>
      </g>
     </g>
     <g id="text_3">
      <!-- 0.4 -->
      <g transform="translate(153.037251 318.238437) scale(0.1 -0.1)">
       <defs>
        <path id="DejaVuSans-34" d="M 2419 4116 
L 825 1625 
L 2419 1625 
L 2419 4116 
z
M 2253 4666 
L 3047 4666 
L 3047 1625 
L 3713 1625 
L 3713 1100 
L 3047 1100 
L 3047 0 
L 2419 0 
L 2419 1100 
L 313 1100 
L 313 1709 
L 2253 4666 
z
" transform="scale(0.015625)"/>
       </defs>
       <use xlink:href="#DejaVuSans-30"/>
       <use xlink:href="#DejaVuSans-2e" x="63.623047"/>
       <use xlink:href="#DejaVuSans-34" x="95.410156"/>
      </g>
     </g>
    </g>
    <g id="xtick_4">
     <g id="line2d_7">
      <path d="M 211.039065 303.64 
L 211.039065 10.8 
" clip-path="url(#pe7ed950237)" style="fill: none; stroke: #b0b0b0; stroke-width: 0.8; stroke-linecap: square"/>
     </g>
     <g id="line2d_8">
      <g>
       <use xlink:href="#m554d6ca688" x="211.039065" y="303.64" style="stroke: #000000; stroke-width: 0.8"/>
      </g>
     </g>
     <g id="text_4">
      <!-- 0.6 -->
      <g transform="translate(203.087503 318.238437) scale(0.1 -0.1)">
       <defs>
        <path id="DejaVuSans-36" d="M 2113 2584 
Q 1688 2584 1439 2293 
Q 1191 2003 1191 1497 
Q 1191 994 1439 701 
Q 1688 409 2113 409 
Q 2538 409 2786 701 
Q 3034 994 3034 1497 
Q 3034 2003 2786 2293 
Q 2538 2584 2113 2584 
z
M 3366 4563 
L 3366 3988 
Q 3128 4100 2886 4159 
Q 2644 4219 2406 4219 
Q 1781 4219 1451 3797 
Q 1122 3375 1075 2522 
Q 1259 2794 1537 2939 
Q 1816 3084 2150 3084 
Q 2853 3084 3261 2657 
Q 3669 2231 3669 1497 
Q 3669 778 3244 343 
Q 2819 -91 2113 -91 
Q 1303 -91 875 529 
Q 447 1150 447 2328 
Q 447 3434 972 4092 
Q 1497 4750 2381 4750 
Q 2619 4750 2861 4703 
Q 3103 4656 3366 4563 
z
" transform="scale(0.015625)"/>
       </defs>
       <use xlink:href="#DejaVuSans-30"/>
       <use xlink:href="#DejaVuSans-2e" x="63.623047"/>
       <use xlink:href="#DejaVuSans-36" x="95.410156"/>
      </g>
     </g>
    </g>
    <g id="xtick_5">
     <g id="line2d_9">
      <path d="M 261.089318 303.64 
L 261.089318 10.8 
" clip-path="url(#pe7ed950237)" style="fill: none; stroke: #b0b0b0; stroke-width: 0.8; stroke-linecap: square"/>
     </g>
     <g id="line2d_10">
      <g>
       <use xlink:href="#m554d6ca688" x="261.089318" y="303.64" style="stroke: #000000; stroke-width: 0.8"/>
      </g>
     </g>
     <g id="text_5">
      <!-- 0.8 -->
      <g transform="translate(253.137755 318.238437) scale(0.1 -0.1)">
       <defs>
        <path id="DejaVuSans-38" d="M 2034 2216 
Q 1584 2216 1326 1975 
Q 1069 1734 1069 1313 
Q 1069 891 1326 650 
Q 1584 409 2034 409 
Q 2484 409 2743 651 
Q 3003 894 3003 1313 
Q 3003 1734 2745 1975 
Q 2488 2216 2034 2216 
z
M 1403 2484 
Q 997 2584 770 2862 
Q 544 3141 544 3541 
Q 544 4100 942 4425 
Q 1341 4750 2034 4750 
Q 2731 4750 3128 4425 
Q 3525 4100 3525 3541 
Q 3525 3141 3298 2862 
Q 3072 2584 2669 2484 
Q 3125 2378 3379 2068 
Q 3634 1759 3634 1313 
Q 3634 634 3220 271 
Q 2806 -91 2034 -91 
Q 1263 -91 848 271 
Q 434 634 434 1313 
Q 434 1759 690 2068 
Q 947 2378 1403 2484 
z
M 1172 3481 
Q 1172 3119 1398 2916 
Q 1625 2713 2034 2713 
Q 2441 2713 2670 2916 
Q 2900 3119 2900 3481 
Q 2900 3844 2670 4047 
Q 2441 4250 2034 4250 
Q 1625 4250 1398 4047 
Q 1172 3844 1172 3481 
z
" transform="scale(0.015625)"/>
       </defs>
       <use xlink:href="#DejaVuSans-30"/>
       <use xlink:href="#DejaVuSans-2e" x="63.623047"/>
       <use xlink:href="#DejaVuSans-38" x="95.410156"/>
      </g>
     </g>
    </g>
    <g id="text_6">
     <!-- time (h) -->
     <g transform="translate(141.786531 331.916562) scale(0.1 -0.1)">
      <defs>
       <path id="DejaVuSans-74" d="M 1172 4494 
L 1172 3500 
L 2356 3500 
L 2356 3053 
L 1172 3053 
L 1172 1153 
Q 1172 725 1289 603 
Q 1406 481 1766 481 
L 2356 481 
L 2356 0 
L 1766 0 
Q 1100 0 847 248 
Q 594 497 594 1153 
L 594 3053 
L 172 3053 
L 172 3500 
L 594 3500 
L 594 4494 
L 1172 4494 
z
" transform="scale(0.015625)"/>
       <path id="DejaVuSans-69" d="M 603 3500 
L 1178 3500 
L 1178 0 
L 603 0 
L 603 3500 
z
M 603 4863 
L 1178 4863 
L 1178 4134 
L 603 4134 
L 603 4863 
z
" transform="scale(0.015625)"/>
       <path id="DejaVuSans-6d" d="M 3328 2828 
Q 3544 3216 3844 3400 
Q 4144 3584 4550 3584 
Q 5097 3584 5394 3201 
Q 5691 2819 5691 2113 
L 5691 0 
L 5113 0 
L 5113 2094 
Q 5113 2597 4934 2840 
Q 4756 3084 4391 3084 
Q 3944 3084 3684 2787 
Q 3425 2491 3425 1978 
L 3425 0 
L 2847 0 
L 2847 2094 
Q 2847 2600 2669 2842 
Q 2491 3084 2119 3084 
Q 1678 3084 1418 2786 
Q 1159 2488 1159 1978 
L 1159 0 
L 581 0 
L 581 3500 
L 1159 3500 
L 1159 2956 
Q 1356 3278 1631 3431 
Q 1906 3584 2284 3584 
Q 2666 3584 2933 3390 
Q 3200 3197 3328 2828 
z
" transform="scale(0.015625)"/>
       <path id="DejaVuSans-65" d="M 3597 1894 
L 3597 1613 
L 953 1613 
Q 991 1019 1311 708 
Q 1631 397 2203 397 
Q 2534 397 2845 478 
Q 3156 559 3463 722 
L 3463 178 
Q 3153 47 2828 -22 
Q 2503 -91 2169 -91 
Q 1331 -91 842 396 
Q 353 884 353 1716 
Q 353 2575 817 3079 
Q 1281 3584 2069 3584 
Q 2775 3584 3186 3129 
Q 3597 2675 3597 1894 
z
M 3022 2063 
Q 3016 2534 2758 2815 
Q 2500 3097 2075 3097 
Q 1594 3097 1305 2825 
Q 1016 2553 972 2059 
L 3022 2063 
z
" transform="scale(0.015625)"/>
       <path id="DejaVuSans-20" transform="scale(0.015625)"/>
       <path id="DejaVuSans-28" d="M 1984 4856 
Q 1566 4138 1362 3434 
Q 1159 2731 1159 2009 
Q 1159 1288 1364 580 
Q 1569 -128 1984 -844 
L 1484 -844 
Q 1016 -109 783 600 
Q 550 1309 550 2009 
Q 550 2706 781 3412 
Q 1013 4119 1484 4856 
L 1984 4856 
z
" transform="scale(0.015625)"/>
       <path id="DejaVuSans-68" d="M 3513 2113 
L 3513 0 
L 2938 0 
L 2938 2094 
Q 2938 2591 2744 2837 
Q 2550 3084 2163 3084 
Q 1697 3084 1428 2787 
Q 1159 2491 1159 1978 
L 1159 0 
L 581 0 
L 581 4863 
L 1159 4863 
L 1159 2956 
Q 1366 3272 1645 3428 
Q 1925 3584 2291 3584 
Q 2894 3584 3203 3211 
Q 3513 2838 3513 2113 
z
" transform="scale(0.015625)"/>
       <path id="DejaVuSans-29" d="M 513 4856 
L 1013 4856 
Q 1481 4119 1714 3412 
Q 1947 2706 1947 2009 
Q 1947 1309 1714 600 
Q 1481 -109 1013 -844 
L 513 -844 
Q 928 -128 1133 580 
Q 1338 1288 1338 2009 
Q 1338 2731 1133 3434 
Q 928 4138 513 4856 
z
" transform="scale(0.015625)"/>
      </defs>
      <use xlink:href="#DejaVuSans-74"/>
      <use xlink:href="#DejaVuSans-69" x="39.208984"/>
      <use xlink:href="#DejaVuSans-6d" x="66.992188"/>
      <use xlink:href="#DejaVuSans-65" x="164.404297"/>
      <use xlink:href="#DejaVuSans-20" x="225.927734"/>
      <use xlink:href="#DejaVuSans-28" x="257.714844"/>
      <use xlink:href="#DejaVuSans-68" x="296.728516"/>
      <use xlink:href="#DejaVuSans-29" x="360.107422"/>
     </g>
    </g>
   </g>
   <g id="matplotlib.axis_2">
    <g id="ytick_1">
     <g id="line2d_11">
      <path d="M 50.87 288.808372 
L 272.614 288.808372 
" clip-path="url(#pe7ed950237)" style="fill: none; stroke: #b0b0b0; stroke-width: 0.8; stroke-linecap: square"/>
     </g>
     <g id="line2d_12">
      <defs>
       <path id="m381f521f92" d="M 0 0 
L -3.5 0 
" style="stroke: #000000; stroke-width: 0.8"/>
      </defs>
      <g>
       <use xlink:href="#m381f521f92" x="50.87" y="288.808372" style="stroke: #000000; stroke-width: 0.8"/>
      </g>
     </g>
     <g id="text_7">
      <!-- 0 -->
      <g transform="translate(37.5075 292.607591) scale(0.1 -0.1)">
       <use xlink:href="#DejaVuSans-30"/>
      </g>
     </g>
    </g>
    <g id="ytick_2">
     <g id="line2d_13">
      <path d="M 50.87 245.35926 
L 272.614 245.35926 
" clip-path="url(#pe7ed950237)" style="fill: none; stroke: #b0b0b0; stroke-width: 0.8; stroke-linecap: square"/>
     </g>
     <g id="line2d_14">
      <g>
       <use xlink:href="#m381f521f92" x="50.87" y="245.35926" style="stroke: #000000; stroke-width: 0.8"/>
      </g>
     </g>
     <g id="text_8">
      <!-- 20 -->
      <g transform="translate(31.145 249.158479) scale(0.1 -0.1)">
       <use xlink:href="#DejaVuSans-32"/>
       <use xlink:href="#DejaVuSans-30" x="63.623047"/>
      </g>
     </g>
    </g>
    <g id="ytick_3">
     <g id="line2d_15">
      <path d="M 50.87 201.910148 
L 272.614 201.910148 
" clip-path="url(#pe7ed950237)" style="fill: none; stroke: #b0b0b0; stroke-width: 0.8; stroke-linecap: square"/>
     </g>
     <g id="line2d_16">
      <g>
       <use xlink:href="#m381f521f92" x="50.87" y="201.910148" style="stroke: #000000; stroke-width: 0.8"/>
      </g>
     </g>
     <g id="text_9">
      <!-- 40 -->
      <g transform="translate(31.145 205.709367) scale(0.1 -0.1)">
       <use xlink:href="#DejaVuSans-34"/>
       <use xlink:href="#DejaVuSans-30" x="63.623047"/>
      </g>
     </g>
    </g>
    <g id="ytick_4">
     <g id="line2d_17">
      <path d="M 50.87 158.461037 
L 272.614 158.461037 
" clip-path="url(#pe7ed950237)" style="fill: none; stroke: #b0b0b0; stroke-width: 0.8; stroke-linecap: square"/>
     </g>
     <g id="line2d_18">
      <g>
       <use xlink:href="#m381f521f92" x="50.87" y="158.461037" style="stroke: #000000; stroke-width: 0.8"/>
      </g>
     </g>
     <g id="text_10">
      <!-- 60 -->
      <g transform="translate(31.145 162.260255) scale(0.1 -0.1)">
       <use xlink:href="#DejaVuSans-36"/>
       <use xlink:href="#DejaVuSans-30" x="63.623047"/>
      </g>
     </g>
    </g>
    <g id="ytick_5">
     <g id="line2d_19">
      <path d="M 50.87 115.011925 
L 272.614 115.011925 
" clip-path="url(#pe7ed950237)" style="fill: none; stroke: #b0b0b0; stroke-width: 0.8; stroke-linecap: square"/>
     </g>
     <g id="line2d_20">
      <g>
       <use xlink:href="#m381f521f92" x="50.87" y="115.011925" style="stroke: #000000; stroke-width: 0.8"/>
      </g>
     </g>
     <g id="text_11">
      <!-- 80 -->
      <g transform="translate(31.145 118.811144) scale(0.1 -0.1)">
       <use xlink:href="#DejaVuSans-38"/>
       <use xlink:href="#DejaVuSans-30" x="63.623047"/>
      </g>
     </g>
    </g>
    <g id="ytick_6">
     <g id="line2d_21">
      <path d="M 50.87 71.562813 
L 272.614 71.562813 
" clip-path="url(#pe7ed950237)" style="fill: none; stroke: #b0b0b0; stroke-width: 0.8; stroke-linecap: square"/>
     </g>
     <g id="line2d_22">
      <g>
       <use xlink:href="#m381f521f92" x="50.87" y="71.562813" style="stroke: #000000; stroke-width: 0.8"/>
      </g>
     </g>
     <g id="text_12">
      <!-- 100 -->
      <g transform="translate(24.7825 75.362032) scale(0.1 -0.1)">
       <defs>
        <path id="DejaVuSans-31" d="M 794 531 
L 1825 531 
L 1825 4091 
L 703 3866 
L 703 4441 
L 1819 4666 
L 2450 4666 
L 2450 531 
L 3481 531 
L 3481 0 
L 794 0 
L 794 531 
z
" transform="scale(0.015625)"/>
       </defs>
       <use xlink:href="#DejaVuSans-31"/>
       <use xlink:href="#DejaVuSans-30" x="63.623047"/>
       <use xlink:href="#DejaVuSans-30" x="127.246094"/>
      </g>
     </g>
    </g>
    <g id="ytick_7">
     <g id="line2d_23">
      <path d="M 50.87 28.113701 
L 272.614 28.113701 
" clip-path="url(#pe7ed950237)" style="fill: none; stroke: #b0b0b0; stroke-width: 0.8; stroke-linecap: square"/>
     </g>
     <g id="line2d_24">
      <g>
       <use xlink:href="#m381f521f92" x="50.87" y="28.113701" style="stroke: #000000; stroke-width: 0.8"/>
      </g>
     </g>
     <g id="text_13">
      <!-- 120 -->
      <g transform="translate(24.7825 31.91292) scale(0.1 -0.1)">
       <use xlink:href="#DejaVuSans-31"/>
       <use xlink:href="#DejaVuSans-32" x="63.623047"/>
       <use xlink:href="#DejaVuSans-30" x="127.246094"/>
      </g>
     </g>
    </g>
    <g id="text_14">
     <!-- Temperature C / rH -->
     <g transform="translate(18.702813 204.648125) rotate(-90) scale(0.1 -0.1)">
      <defs>
       <path id="DejaVuSans-54" d="M -19 4666 
L 3928 4666 
L 3928 4134 
L 2272 4134 
L 2272 0 
L 1638 0 
L 1638 4134 
L -19 4134 
L -19 4666 
z
" transform="scale(0.015625)"/>
       <path id="DejaVuSans-70" d="M 1159 525 
L 1159 -1331 
L 581 -1331 
L 581 3500 
L 1159 3500 
L 1159 2969 
Q 1341 3281 1617 3432 
Q 1894 3584 2278 3584 
Q 2916 3584 3314 3078 
Q 3713 2572 3713 1747 
Q 3713 922 3314 415 
Q 2916 -91 2278 -91 
Q 1894 -91 1617 61 
Q 1341 213 1159 525 
z
M 3116 1747 
Q 3116 2381 2855 2742 
Q 2594 3103 2138 3103 
Q 1681 3103 1420 2742 
Q 1159 2381 1159 1747 
Q 1159 1113 1420 752 
Q 1681 391 2138 391 
Q 2594 391 2855 752 
Q 3116 1113 3116 1747 
z
" transform="scale(0.015625)"/>
       <path id="DejaVuSans-72" d="M 2631 2963 
Q 2534 3019 2420 3045 
Q 2306 3072 2169 3072 
Q 1681 3072 1420 2755 
Q 1159 2438 1159 1844 
L 1159 0 
L 581 0 
L 581 3500 
L 1159 3500 
L 1159 2956 
Q 1341 3275 1631 3429 
Q 1922 3584 2338 3584 
Q 2397 3584 2469 3576 
Q 2541 3569 2628 3553 
L 2631 2963 
z
" transform="scale(0.015625)"/>
       <path id="DejaVuSans-61" d="M 2194 1759 
Q 1497 1759 1228 1600 
Q 959 1441 959 1056 
Q 959 750 1161 570 
Q 1363 391 1709 391 
Q 2188 391 2477 730 
Q 2766 1069 2766 1631 
L 2766 1759 
L 2194 1759 
z
M 3341 1997 
L 3341 0 
L 2766 0 
L 2766 531 
Q 2569 213 2275 61 
Q 1981 -91 1556 -91 
Q 1019 -91 701 211 
Q 384 513 384 1019 
Q 384 1609 779 1909 
Q 1175 2209 1959 2209 
L 2766 2209 
L 2766 2266 
Q 2766 2663 2505 2880 
Q 2244 3097 1772 3097 
Q 1472 3097 1187 3025 
Q 903 2953 641 2809 
L 641 3341 
Q 956 3463 1253 3523 
Q 1550 3584 1831 3584 
Q 2591 3584 2966 3190 
Q 3341 2797 3341 1997 
z
" transform="scale(0.015625)"/>
       <path id="DejaVuSans-75" d="M 544 1381 
L 544 3500 
L 1119 3500 
L 1119 1403 
Q 1119 906 1312 657 
Q 1506 409 1894 409 
Q 2359 409 2629 706 
Q 2900 1003 2900 1516 
L 2900 3500 
L 3475 3500 
L 3475 0 
L 2900 0 
L 2900 538 
Q 2691 219 2414 64 
Q 2138 -91 1772 -91 
Q 1169 -91 856 284 
Q 544 659 544 1381 
z
M 1991 3584 
L 1991 3584 
z
" transform="scale(0.015625)"/>
       <path id="DejaVuSans-43" d="M 4122 4306 
L 4122 3641 
Q 3803 3938 3442 4084 
Q 3081 4231 2675 4231 
Q 1875 4231 1450 3742 
Q 1025 3253 1025 2328 
Q 1025 1406 1450 917 
Q 1875 428 2675 428 
Q 3081 428 3442 575 
Q 3803 722 4122 1019 
L 4122 359 
Q 3791 134 3420 21 
Q 3050 -91 2638 -91 
Q 1578 -91 968 557 
Q 359 1206 359 2328 
Q 359 3453 968 4101 
Q 1578 4750 2638 4750 
Q 3056 4750 3426 4639 
Q 3797 4528 4122 4306 
z
" transform="scale(0.015625)"/>
       <path id="DejaVuSans-2f" d="M 1625 4666 
L 2156 4666 
L 531 -594 
L 0 -594 
L 1625 4666 
z
" transform="scale(0.015625)"/>
       <path id="DejaVuSans-48" d="M 628 4666 
L 1259 4666 
L 1259 2753 
L 3553 2753 
L 3553 4666 
L 4184 4666 
L 4184 0 
L 3553 0 
L 3553 2222 
L 1259 2222 
L 1259 0 
L 628 0 
L 628 4666 
z
" transform="scale(0.015625)"/>
      </defs>
      <use xlink:href="#DejaVuSans-54"/>
      <use xlink:href="#DejaVuSans-65" x="44.083984"/>
      <use xlink:href="#DejaVuSans-6d" x="105.607422"/>
      <use xlink:href="#DejaVuSans-70" x="203.019531"/>
      <use xlink:href="#DejaVuSans-65" x="266.496094"/>
      <use xlink:href="#DejaVuSans-72" x="328.019531"/>
      <use xlink:href="#DejaVuSans-61" x="369.132812"/>
      <use xlink:href="#DejaVuSans-74" x="430.412109"/>
      <use xlink:href="#DejaVuSans-75" x="469.621094"/>
      <use xlink:href="#DejaVuSans-72" x="533"/>
      <use xlink:href="#DejaVuSans-65" x="571.863281"/>
      <use xlink:href="#DejaVuSans-20" x="633.386719"/>
      <use xlink:href="#DejaVuSans-43" x="665.173828"/>
      <use xlink:href="#DejaVuSans-20" x="734.998047"/>
      <use xlink:href="#DejaVuSans-2f" x="766.785156"/>
      <use xlink:href="#DejaVuSans-20" x="800.476562"/>
      <use xlink:href="#DejaVuSans-72" x="832.263672"/>
      <use xlink:href="#DejaVuSans-48" x="873.376953"/>
     </g>
    </g>
   </g>
   <g id="line2d_25">
    <path d="M 60.949273 49.838257 
L 166.605077 49.838257 
L 167.30015 43.32089 
L 168.690435 43.32089 
L 169.385577 49.838257 
L 170.08065 43.32089 
L 170.775792 49.838257 
L 171.471004 43.32089 
L 172.166147 49.838257 
L 172.861289 43.32089 
L 173.556501 43.32089 
L 174.251504 49.838257 
L 174.946647 43.32089 
L 175.641859 49.838257 
L 176.337001 43.32089 
L 177.032144 49.838257 
L 177.727286 43.32089 
L 178.422359 43.32089 
L 179.117571 49.838257 
L 179.812713 43.32089 
L 180.507786 49.838257 
L 181.202928 43.32089 
L 181.89814 43.32089 
L 182.593352 49.838257 
L 183.288425 43.32089 
L 183.984263 43.32089 
L 184.67871 49.838257 
L 185.373783 43.32089 
L 186.068925 49.838257 
L 186.764137 43.32089 
L 187.459279 43.32089 
L 188.154422 49.838257 
L 188.849564 43.32089 
L 189.544637 49.838257 
L 190.239779 43.32089 
L 190.934922 43.32089 
L 191.630064 49.838257 
L 192.325207 43.32089 
L 193.020419 49.838257 
L 193.715561 43.32089 
L 194.410773 43.32089 
L 195.105846 49.838257 
L 195.800988 43.32089 
L 196.49613 43.32089 
L 197.191273 49.838257 
L 197.886415 43.32089 
L 198.581558 43.32089 
L 199.2767 49.838257 
L 199.971773 43.32089 
L 200.666985 43.32089 
L 201.362058 49.838257 
L 202.05727 43.32089 
L 202.752412 43.32089 
L 203.447554 49.838257 
L 204.142697 43.32089 
L 204.837839 43.32089 
L 205.532982 49.838257 
L 206.228054 43.32089 
L 206.923266 43.32089 
L 207.618409 49.838257 
L 208.313551 43.32089 
L 209.008694 43.32089 
L 209.703836 49.838257 
L 210.398978 43.32089 
L 211.094121 43.32089 
L 211.789263 49.838257 
L 212.484336 43.32089 
L 213.179478 43.32089 
L 213.87476 49.838257 
L 214.569763 43.32089 
L 215.264906 43.32089 
L 215.960117 49.838257 
L 216.65519 43.32089 
L 218.740687 43.32089 
L 219.435829 49.838257 
L 220.130972 43.32089 
L 221.521257 43.32089 
L 222.216399 49.838257 
L 222.911541 43.32089 
L 224.301826 43.32089 
L 224.996899 49.838257 
L 225.692041 43.32089 
L 230.558108 43.32089 
L 231.253876 49.838257 
L 231.948393 43.32089 
L 250.022095 43.32089 
L 250.717237 49.838257 
L 251.412379 43.32089 
L 261.144303 43.32089 
L 261.839446 49.838257 
L 262.534727 43.32089 
L 262.534727 43.32089 
" clip-path="url(#pe7ed950237)" style="fill: none; stroke: #00ff00; stroke-opacity: 0.95; stroke-linecap: square"/>
   </g>
   <g id="line2d_26">
    <path d="M 60.949273 38.975979 
L 61.638506 38.975979 
L 62.333788 32.458612 
L 116.55559 32.458612 
L 117.249898 38.975979 
L 262.534727 38.975979 
L 262.534727 38.975979 
" clip-path="url(#pe7ed950237)" style="fill: none; stroke: #ffd700; stroke-opacity: 0.95; stroke-linecap: square"/>
   </g>
   <g id="line2d_27">
    <path d="M 60.949273 24.110909 
L 61.638506 24.110909 
L 62.333788 28.113701 
L 116.55559 28.113701 
L 117.249898 24.110909 
L 262.534727 24.110909 
L 262.534727 24.110909 
" clip-path="url(#pe7ed950237)" style="fill: none; stroke: #ff0000; stroke-opacity: 0.95; stroke-linecap: square"/>
   </g>
   <g id="line2d_28">
    <path d="M 60.949273 224.351615 
L 64.419006 222.591926 
L 67.894718 220.745338 
L 69.980146 219.746009 
L 72.760715 218.855302 
L 74.846351 218.420811 
L 76.236497 218.268739 
L 79.712209 218.247014 
L 80.407281 218.399086 
L 81.797566 218.46426 
L 85.273278 219.007374 
L 86.663563 219.311518 
L 95.700623 221.375351 
L 99.176126 222.244333 
L 110.298404 224.612309 
L 111.688759 224.851279 
L 113.774116 225.220597 
L 120.72554 225.980956 
L 125.591606 225.416118 
L 126.286679 225.307495 
L 128.372176 224.481962 
L 129.067318 224.242992 
L 133.238173 221.940189 
L 138.10417 218.616332 
L 139.494385 217.573553 
L 142.970097 214.944882 
L 154.092375 206.733 
L 159.653584 203.039825 
L 162.434153 201.367035 
L 163.129296 200.86737 
L 163.824369 200.584951 
L 165.214653 199.715968 
L 166.605077 198.977333 
L 170.08065 196.19659 
L 170.775792 195.827273 
L 171.471004 195.327608 
L 172.166147 195.023464 
L 173.556501 194.00241 
L 174.251504 193.76344 
L 174.946647 193.350673 
L 176.337001 192.720661 
L 178.422359 191.699607 
L 180.507786 190.895799 
L 185.373783 188.984038 
L 186.764137 188.549547 
L 187.459279 188.288852 
L 188.849564 187.941259 
L 195.800988 186.116396 
L 196.49613 185.855702 
L 197.886415 185.551558 
L 212.484336 182.423222 
L 214.569763 182.119078 
L 215.264906 181.945282 
L 215.960117 181.967006 
L 216.65519 181.728036 
L 217.350333 181.641138 
L 218.045614 181.358719 
L 220.130972 181.011126 
L 221.521257 180.728706 
L 222.911541 180.55491 
L 224.301826 180.272491 
L 224.996899 180.229042 
L 227.082326 179.816275 
L 227.777469 179.685928 
L 228.472611 179.425233 
L 237.509532 177.926239 
L 240.290032 177.383125 
L 240.985174 177.383125 
L 243.765744 176.948634 
L 246.546313 176.579316 
L 250.022095 176.253448 
L 254.888022 175.840681 
L 256.973519 175.558262 
L 258.363734 175.40619 
L 261.144303 175.102046 
L 262.534727 175.102046 
L 262.534727 175.102046 
" clip-path="url(#pe7ed950237)" style="fill: none; stroke: #0000ff; stroke-opacity: 0.95; stroke-linecap: square"/>
   </g>
   <g id="line2d_29">
    <path d="M 60.949273 234.062491 
L 61.638506 232.759018 
L 62.333788 233.410754 
L 63.028722 231.238299 
L 63.723864 229.500334 
L 65.114218 227.110633 
L 65.809291 226.458897 
L 66.50499 226.024405 
L 67.199646 225.80716 
L 67.894718 226.024405 
L 69.285003 226.893388 
L 71.37043 228.848598 
L 72.065642 229.71758 
L 72.760715 230.369317 
L 73.455858 231.238299 
L 77.626712 235.148719 
L 78.321854 235.58321 
L 79.017275 236.452192 
L 79.712209 236.669438 
L 80.407281 237.103929 
L 81.102424 237.755666 
L 82.492709 238.624648 
L 83.18806 238.841893 
L 83.882993 239.276385 
L 84.578136 239.49363 
L 85.273278 239.928121 
L 85.968421 240.145367 
L 86.663563 240.579858 
L 87.358914 240.579858 
L 88.053848 241.014349 
L 89.444133 241.44884 
L 90.139344 241.44884 
L 91.529768 241.883331 
L 92.224772 241.883331 
L 92.919914 242.317822 
L 93.614987 242.535068 
L 94.310129 242.535068 
L 95.005341 242.752314 
L 95.700623 242.752314 
L 96.395557 242.969559 
L 98.480984 242.969559 
L 99.871477 243.40405 
L 100.56648 243.186805 
L 101.261553 243.40405 
L 101.956765 243.40405 
L 102.651908 243.621296 
L 103.34698 243.40405 
L 104.04254 243.621296 
L 106.12762 243.621296 
L 106.822762 243.838541 
L 110.298404 243.838541 
L 110.993616 244.055787 
L 111.688759 243.838541 
L 112.384179 244.055787 
L 113.079043 244.055787 
L 113.774116 243.838541 
L 114.469328 244.055787 
L 116.55559 244.055787 
L 117.249898 245.142015 
L 117.94504 245.576506 
L 118.640252 245.576506 
L 119.335255 245.793751 
L 120.030398 245.576506 
L 120.72554 245.576506 
L 121.420752 245.35926 
L 123.506179 244.055787 
L 124.201252 243.40405 
L 124.896395 242.535068 
L 125.591606 241.883331 
L 126.286679 241.014349 
L 126.981961 239.928121 
L 127.677034 239.059139 
L 128.372176 237.755666 
L 129.067318 236.886683 
L 129.762461 235.800456 
L 131.152746 233.410754 
L 131.847888 232.324527 
L 134.628527 227.327879 
L 136.018673 225.155423 
L 137.408958 222.765722 
L 138.10417 221.89674 
L 138.799312 220.593266 
L 139.494385 219.724284 
L 141.579951 216.465601 
L 142.275024 215.596619 
L 142.970097 214.510391 
L 144.360451 212.772426 
L 145.055524 212.12069 
L 146.445878 210.382725 
L 147.141021 209.730989 
L 148.531305 207.993024 
L 150.616663 206.037814 
L 151.311805 205.168832 
L 154.092375 202.561885 
L 154.787656 202.127394 
L 155.482729 201.475657 
L 156.872945 200.606675 
L 157.568087 199.954938 
L 161.739011 197.347992 
L 163.129296 196.913501 
L 164.519511 196.044518 
L 165.214653 195.827273 
L 165.909796 195.392782 
L 167.30015 194.958291 
L 168.690435 202.127394 
L 169.385577 196.479009 
L 170.08065 202.779131 
L 170.775792 197.130746 
L 171.471004 204.082604 
L 172.166147 197.999728 
L 172.861289 205.168832 
L 173.556501 208.427515 
L 174.251504 200.38943 
L 174.946647 208.21027 
L 175.641859 200.823921 
L 176.337001 209.079252 
L 177.032144 201.692903 
L 177.727286 209.730989 
L 178.422359 212.555181 
L 179.117571 203.430867 
L 179.812713 212.12069 
L 180.507786 204.082604 
L 181.202928 212.555181 
L 181.89814 215.162128 
L 182.593352 205.603323 
L 183.288425 214.293145 
L 183.984263 216.682846 
L 184.67871 206.906796 
L 185.373783 215.813864 
L 186.068925 207.341287 
L 186.764137 215.813864 
L 187.459279 218.203565 
L 188.154422 208.427515 
L 188.849564 217.334583 
L 189.544637 208.644761 
L 190.239779 217.551829 
L 190.934922 219.507039 
L 191.630064 209.948234 
L 192.325207 218.638056 
L 193.020419 209.948234 
L 193.715561 218.638056 
L 194.410773 220.376021 
L 195.105846 211.034462 
L 195.800988 219.724284 
L 196.49613 221.245003 
L 197.191273 211.903444 
L 197.886415 220.593266 
L 198.581558 222.113985 
L 199.2767 212.555181 
L 199.971773 221.245003 
L 200.666985 222.765722 
L 201.362058 213.206917 
L 202.05727 221.89674 
L 202.752412 223.200213 
L 203.447554 213.858654 
L 204.142697 222.331231 
L 204.837839 223.634704 
L 205.532982 214.510391 
L 206.228054 222.765722 
L 206.923266 224.069195 
L 207.618409 214.944882 
L 208.313551 223.200213 
L 209.008694 224.503687 
L 209.703836 215.379373 
L 210.398978 223.634704 
L 211.094121 224.720932 
L 211.789263 215.813864 
L 212.484336 224.069195 
L 213.179478 225.155423 
L 213.87476 216.248355 
L 214.569763 224.286441 
L 215.264906 225.589914 
L 215.960117 216.900092 
L 216.65519 224.720932 
L 217.350333 226.024405 
L 218.045614 226.458897 
L 218.740687 227.110633 
L 219.435829 217.98632 
L 220.130972 226.024405 
L 220.826114 227.110633 
L 221.521257 227.327879 
L 222.216399 218.855302 
L 222.911541 226.458897 
L 223.606684 227.545124 
L 224.301826 227.979615 
L 224.996899 219.507039 
L 225.692041 227.110633 
L 226.387184 227.979615 
L 227.082326 228.414107 
L 229.167753 229.065843 
L 229.863035 229.500334 
L 230.558108 229.71758 
L 231.253876 221.462249 
L 231.948393 228.631352 
L 232.643465 229.500334 
L 234.03375 229.934826 
L 234.728893 230.369317 
L 235.424104 230.586562 
L 236.119247 230.586562 
L 237.509532 231.021053 
L 238.204605 231.021053 
L 239.594889 231.455544 
L 240.290032 231.455544 
L 241.680316 231.890036 
L 243.070601 231.890036 
L 243.765744 232.324527 
L 245.156098 232.324527 
L 245.85131 232.541772 
L 246.546313 232.541772 
L 247.241525 232.759018 
L 248.63174 232.759018 
L 250.022095 233.193509 
L 250.717237 226.458897 
L 251.412379 232.324527 
L 252.107522 232.541772 
L 252.802664 232.976263 
L 253.497737 233.193509 
L 254.19288 233.193509 
L 254.888022 233.410754 
L 255.583164 233.410754 
L 256.278376 233.628 
L 257.668591 233.628 
L 258.363734 233.845246 
L 259.058876 233.845246 
L 259.754019 234.062491 
L 260.449231 234.062491 
L 261.144303 234.279737 
L 261.839446 228.196861 
L 262.534727 233.410754 
L 262.534727 233.410754 
" clip-path="url(#pe7ed950237)" style="fill: none; stroke-dasharray: 1,1.65; stroke-dashoffset: 0; stroke: #0000ff; stroke-opacity: 0.95"/>
   </g>
   <g id="line2d_30">
    <path d="M 60.949273 272.080464 
L 61.638506 271.211482 
L 62.333788 271.211482 
L 63.723864 268.387289 
L 64.419006 267.301062 
L 65.114218 266.432079 
L 65.809291 265.780343 
L 67.199646 264.911361 
L 68.58993 264.476869 
L 69.980146 264.476869 
L 73.455858 265.563097 
L 74.151 265.997588 
L 75.541285 266.432079 
L 76.931639 267.301062 
L 77.626712 267.518307 
L 79.017275 268.387289 
L 79.712209 268.604535 
L 80.407281 269.039026 
L 81.102424 269.256272 
L 81.797566 269.690763 
L 82.492709 269.908008 
L 83.18806 270.342499 
L 83.882993 270.559745 
L 84.578136 270.994236 
L 85.968421 271.428727 
L 86.663563 271.863218 
L 87.358914 272.080464 
L 88.053848 272.514955 
L 90.834487 273.383937 
L 91.529768 273.818428 
L 92.224772 273.818428 
L 92.919914 274.25292 
L 97.785841 275.773638 
L 98.480984 275.773638 
L 99.871477 276.20813 
L 100.56648 276.20813 
L 101.261553 276.642621 
L 101.956765 276.642621 
L 102.651908 277.077112 
L 103.34698 277.077112 
L 104.737265 277.511603 
L 105.432477 277.511603 
L 106.822762 277.946094 
L 107.517904 277.946094 
L 108.213325 278.16334 
L 108.908189 278.16334 
L 109.603262 278.380585 
L 110.298404 278.380585 
L 112.384179 279.032322 
L 113.774116 279.032322 
L 114.469328 279.249567 
L 115.164401 279.249567 
L 115.859543 279.466813 
L 116.55559 279.466813 
L 117.249898 280.335795 
L 118.640252 280.770286 
L 120.72554 280.770286 
L 122.811037 280.11855 
L 123.506179 279.684059 
L 126.286679 277.077112 
L 129.762461 272.732201 
L 130.457603 271.645973 
L 131.152746 270.776991 
L 132.54303 268.604535 
L 133.238173 267.735553 
L 135.32353 264.476869 
L 136.018673 263.607887 
L 136.71451 262.521659 
L 137.408958 261.652677 
L 138.799312 259.480222 
L 140.189527 257.742257 
L 140.88467 256.656029 
L 145.750666 250.573154 
L 146.445878 249.921417 
L 147.836163 248.183452 
L 148.531305 247.531716 
L 149.226448 246.662734 
L 149.92159 246.010997 
L 151.311805 244.273032 
L 154.092375 241.666086 
L 154.787656 240.797103 
L 155.482729 240.145367 
L 156.177872 239.710876 
L 158.263229 237.755666 
L 158.958441 237.321175 
L 160.348726 236.017701 
L 161.043868 235.58321 
L 161.739011 234.931473 
L 163.824369 233.628 
L 164.519511 232.976263 
L 166.605077 231.67279 
L 167.30015 231.021053 
L 167.995292 231.890036 
L 168.690435 232.976263 
L 169.385577 230.152071 
L 170.08065 232.324527 
L 170.775792 229.71758 
L 171.471004 232.107281 
L 172.166147 229.283089 
L 172.861289 231.890036 
L 173.556501 232.976263 
L 174.251504 229.065843 
L 174.946647 232.324527 
L 175.641859 228.631352 
L 176.337001 232.107281 
L 177.032144 228.414107 
L 177.727286 231.890036 
L 178.422359 232.759018 
L 179.117571 228.414107 
L 179.812713 232.107281 
L 180.507786 228.196861 
L 181.202928 231.890036 
L 181.89814 232.759018 
L 182.593352 228.196861 
L 183.288425 232.107281 
L 183.984263 232.759018 
L 184.67871 227.979615 
L 185.373783 232.107281 
L 186.068925 227.76237 
L 186.764137 231.67279 
L 187.459279 232.541772 
L 188.154422 227.76237 
L 188.849564 231.890036 
L 189.544637 227.545124 
L 190.239779 231.67279 
L 190.934922 232.541772 
L 191.630064 227.545124 
L 192.325207 231.67279 
L 193.020419 227.327879 
L 193.715561 231.455544 
L 194.410773 232.324527 
L 195.105846 227.327879 
L 195.800988 231.67279 
L 196.49613 232.324527 
L 197.191273 227.327879 
L 197.886415 231.455544 
L 198.581558 232.324527 
L 199.2767 227.327879 
L 199.971773 231.455544 
L 200.666985 232.107281 
L 201.362058 227.110633 
L 202.05727 231.455544 
L 202.752412 232.107281 
L 203.447554 227.110633 
L 204.142697 231.455544 
L 204.837839 231.890036 
L 205.532982 226.893388 
L 206.228054 231.238299 
L 206.923266 231.890036 
L 207.618409 226.893388 
L 208.313551 231.021053 
L 209.008694 231.67279 
L 209.703836 226.676142 
L 210.398978 231.021053 
L 211.094121 231.455544 
L 211.789263 226.676142 
L 212.484336 230.803808 
L 213.179478 231.455544 
L 213.87476 226.458897 
L 214.569763 230.803808 
L 215.264906 231.238299 
L 215.960117 226.458897 
L 216.65519 230.586562 
L 217.350333 231.238299 
L 218.740687 231.67279 
L 219.435829 226.458897 
L 220.130972 230.803808 
L 220.826114 231.238299 
L 221.521257 231.455544 
L 222.216399 226.458897 
L 222.911541 230.586562 
L 224.301826 231.455544 
L 224.996899 226.458897 
L 225.692041 230.586562 
L 226.387184 231.021053 
L 227.082326 231.238299 
L 230.558108 231.238299 
L 231.253876 226.458897 
L 231.948393 230.586562 
L 232.643465 231.021053 
L 233.338677 231.021053 
L 234.03375 231.238299 
L 242.375459 231.238299 
L 243.070601 231.021053 
L 243.765744 231.238299 
L 250.022095 231.238299 
L 250.717237 227.110633 
L 251.412379 230.586562 
L 252.802664 231.021053 
L 261.144303 231.021053 
L 261.839446 227.110633 
L 262.534727 230.586562 
L 262.534727 230.586562 
" clip-path="url(#pe7ed950237)" style="fill: none; stroke: #0000ff; stroke-opacity: 0.5; stroke-width: 3; stroke-linecap: square"/>
   </g>
   <g id="line2d_31">
    <path d="M 60.949273 230.43449 
L 62.333788 230.282418 
L 63.028722 230.217245 
L 63.723864 230.282418 
L 64.419006 230.217245 
L 65.114218 230.304143 
L 66.50499 230.238969 
L 82.492709 230.347592 
L 90.834487 230.521389 
L 92.919914 230.521389 
L 93.614987 230.586562 
L 95.005341 230.543113 
L 97.785841 230.608287 
L 103.34698 230.71691 
L 108.213325 230.825532 
L 109.603262 230.803808 
L 115.164401 230.890706 
L 115.859543 230.95588 
L 117.94504 230.825532 
L 120.72554 230.71691 
L 131.152746 229.999999 
L 131.847888 229.847927 
L 133.933246 229.71758 
L 153.397302 227.393052 
L 156.177872 227.110633 
L 170.775792 225.850609 
L 183.984263 225.133699 
L 230.558108 223.786776 
L 237.509532 223.699878 
L 238.899747 223.699878 
L 248.63174 223.634704 
L 250.022095 223.526082 
L 252.107522 223.569531 
L 253.497737 223.504357 
L 256.278376 223.482632 
L 262.534727 223.439183 
L 262.534727 223.439183 
" clip-path="url(#pe7ed950237)" style="fill: none; stroke: #ffd700; stroke-opacity: 0.95; stroke-linecap: square"/>
   </g>
   <g id="line2d_32">
    <path d="M 60.949273 253.1801 
L 61.638506 253.1801 
L 62.333788 252.528364 
L 63.723864 249.921417 
L 65.809291 247.31447 
L 66.50499 246.879979 
L 67.199646 246.010997 
L 68.58993 245.142015 
L 69.285003 244.924769 
L 69.980146 244.490278 
L 73.455858 243.40405 
L 76.236497 243.40405 
L 76.931639 243.186805 
L 77.626712 243.186805 
L 78.321854 243.40405 
L 81.797566 243.40405 
L 83.18806 243.838541 
L 83.882993 243.838541 
L 85.273278 244.273032 
L 85.968421 244.273032 
L 86.663563 244.490278 
L 87.358914 244.490278 
L 90.139344 245.35926 
L 90.834487 245.35926 
L 92.224772 245.793751 
L 92.919914 245.793751 
L 96.395557 246.879979 
L 97.090699 246.879979 
L 100.56648 247.966207 
L 101.261553 247.966207 
L 104.04254 248.835189 
L 104.737265 248.835189 
L 106.12762 249.26968 
L 106.822762 249.26968 
L 108.908189 249.921417 
L 109.603262 249.921417 
L 110.993616 250.355908 
L 111.688759 250.355908 
L 112.384179 250.573154 
L 113.774116 250.573154 
L 115.859543 251.22489 
L 117.249898 251.22489 
L 117.94504 251.442136 
L 120.030398 251.442136 
L 120.72554 251.22489 
L 122.115895 251.22489 
L 122.811037 251.007645 
L 124.896395 251.007645 
L 125.591606 250.790399 
L 126.286679 250.790399 
L 127.677034 250.355908 
L 128.372176 250.355908 
L 129.067318 250.138663 
L 129.762461 250.138663 
L 130.457603 249.921417 
L 131.152746 249.921417 
L 134.628527 248.835189 
L 135.32353 248.835189 
L 138.10417 247.966207 
L 138.799312 247.966207 
L 140.189527 247.531716 
L 140.88467 247.531716 
L 141.579951 247.31447 
L 142.275024 247.31447 
L 142.970097 246.879979 
L 143.665309 246.662734 
L 144.360451 246.662734 
L 146.445878 246.010997 
L 147.141021 246.010997 
L 152.006948 244.490278 
L 152.70216 244.490278 
L 154.092375 244.055787 
L 154.787656 243.621296 
L 156.177872 243.186805 
L 156.872945 243.186805 
L 157.568087 242.969559 
L 158.263229 242.535068 
L 158.958441 242.535068 
L 159.653584 242.317822 
L 160.348726 241.883331 
L 165.909796 240.145367 
L 167.30015 239.276385 
L 168.690435 233.410754 
L 169.385577 232.976263 
L 170.08065 233.845246 
L 170.775792 231.890036 
L 171.471004 232.107281 
L 172.166147 230.152071 
L 172.861289 230.586562 
L 173.556501 226.893388 
L 174.251504 226.458897 
L 174.946647 227.76237 
L 175.641859 225.589914 
L 176.337001 226.024405 
L 177.032144 224.286441 
L 177.727286 224.938178 
L 178.422359 221.245003 
L 179.117571 221.027758 
L 179.812713 222.331231 
L 180.507786 220.376021 
L 181.202928 221.027758 
L 181.89814 217.98632 
L 182.593352 217.551829 
L 183.288425 218.855302 
L 183.984263 216.03111 
L 184.67871 215.813864 
L 185.373783 216.682846 
L 186.068925 214.944882 
L 186.764137 215.813864 
L 187.459279 213.424163 
L 188.154422 213.206917 
L 188.849564 213.858654 
L 189.544637 212.555181 
L 190.239779 212.989672 
L 190.934922 211.034462 
L 191.630064 211.034462 
L 192.325207 211.468953 
L 193.020419 210.16548 
L 193.715561 210.817216 
L 194.410773 208.862006 
L 195.105846 208.644761 
L 195.800988 209.513743 
L 196.49613 207.558533 
L 197.191273 207.341287 
L 197.886415 207.993024 
L 198.581558 206.25506 
L 199.2767 206.25506 
L 199.971773 206.906796 
L 200.666985 205.168832 
L 201.362058 204.951586 
L 202.05727 205.603323 
L 202.752412 204.082604 
L 203.447554 203.865358 
L 204.142697 204.734341 
L 204.837839 203.213622 
L 205.532982 202.779131 
L 206.228054 203.648113 
L 206.923266 202.127394 
L 207.618409 201.910148 
L 208.313551 202.779131 
L 209.008694 201.475657 
L 209.703836 201.258412 
L 210.398978 202.127394 
L 211.094121 200.823921 
L 211.789263 200.606675 
L 212.484336 201.258412 
L 213.179478 199.954938 
L 213.87476 199.737693 
L 214.569763 200.38943 
L 215.264906 199.303202 
L 215.960117 199.085956 
L 216.65519 199.737693 
L 217.350333 198.651465 
L 218.740687 197.347992 
L 219.435829 197.565237 
L 220.130972 198.434219 
L 220.826114 197.347992 
L 221.521257 196.479009 
L 222.216399 196.696255 
L 222.911541 197.565237 
L 223.606684 196.479009 
L 224.301826 195.827273 
L 224.996899 195.827273 
L 225.692041 196.696255 
L 227.082326 194.958291 
L 227.777469 194.741045 
L 228.472611 194.306554 
L 230.558108 193.654817 
L 231.253876 193.872063 
L 231.948393 194.741045 
L 233.338677 193.437572 
L 234.728893 193.003081 
L 235.424104 193.003081 
L 236.814459 192.568589 
L 238.204605 192.568589 
L 239.594889 192.134098 
L 240.985174 192.134098 
L 241.680316 191.916853 
L 243.070601 191.916853 
L 243.765744 191.699607 
L 245.156098 191.699607 
L 245.85131 191.482362 
L 247.936668 191.482362 
L 248.63174 191.265116 
L 249.326952 191.482362 
L 250.022095 191.265116 
L 250.717237 191.482362 
L 251.412379 192.134098 
L 252.107522 191.699607 
L 253.497737 191.265116 
L 256.278376 191.265116 
L 256.973519 191.04787 
L 258.363734 191.04787 
L 259.058876 191.265116 
L 259.754019 191.04787 
L 261.839446 191.04787 
L 262.534727 191.699607 
L 262.534727 191.699607 
" clip-path="url(#pe7ed950237)" style="fill: none; stroke-dasharray: 1,1.65; stroke-dashoffset: 0; stroke: #ffd700; stroke-opacity: 0.95"/>
   </g>
   <g id="line2d_33">
    <path d="M 60.949273 290.329091 
L 61.638506 290.111845 
L 62.333788 289.677354 
L 63.028722 288.591126 
L 64.419006 286.853162 
L 65.809291 285.549689 
L 67.199646 284.680706 
L 67.894718 284.463461 
L 68.58993 284.02897 
L 71.37043 283.159987 
L 72.065642 283.159987 
L 72.760715 282.942742 
L 73.455858 282.942742 
L 74.151 282.725496 
L 79.017275 282.725496 
L 79.712209 282.942742 
L 81.797566 282.942742 
L 82.492709 283.159987 
L 83.882993 283.159987 
L 85.273278 283.594479 
L 87.358914 283.594479 
L 88.053848 284.02897 
L 88.74899 284.02897 
L 90.139344 284.463461 
L 91.529768 284.463461 
L 92.224772 284.680706 
L 92.919914 284.680706 
L 95.005341 285.332443 
L 95.700623 285.332443 
L 96.395557 285.549689 
L 97.090699 285.549689 
L 97.785841 285.766934 
L 98.480984 285.766934 
L 99.871477 286.201425 
L 100.56648 286.201425 
L 101.956765 286.635916 
L 102.651908 286.635916 
L 104.04254 287.070408 
L 104.737265 287.070408 
L 106.12762 287.504899 
L 107.517904 287.504899 
L 108.908189 287.93939 
L 109.603262 287.93939 
L 110.993616 288.373881 
L 111.688759 288.373881 
L 112.384179 288.591126 
L 113.774116 288.591126 
L 115.164401 289.025618 
L 115.859543 289.025618 
L 116.55559 289.242863 
L 119.335255 289.242863 
L 120.030398 289.025618 
L 120.72554 289.025618 
L 121.420752 288.808372 
L 122.115895 288.808372 
L 122.811037 288.591126 
L 124.896395 288.591126 
L 125.591606 288.156635 
L 126.981961 288.156635 
L 128.372176 287.722144 
L 129.067318 287.722144 
L 130.457603 287.287653 
L 131.152746 287.287653 
L 134.628527 286.201425 
L 135.32353 286.201425 
L 136.018673 285.766934 
L 136.71451 285.549689 
L 137.408958 285.549689 
L 138.10417 285.115197 
L 138.799312 285.115197 
L 140.88467 284.463461 
L 141.579951 284.463461 
L 147.141021 282.725496 
L 147.836163 282.725496 
L 156.177872 280.11855 
L 156.872945 280.11855 
L 157.568087 279.684059 
L 158.263229 279.466813 
L 158.958441 279.466813 
L 166.605077 277.077112 
L 167.30015 276.642621 
L 168.690435 273.166692 
L 169.385577 272.732201 
L 170.08065 273.383937 
L 170.775792 272.080464 
L 171.471004 272.29771 
L 172.166147 270.994236 
L 172.861289 271.211482 
L 173.556501 269.256272 
L 174.251504 269.039026 
L 174.946647 269.690763 
L 175.641859 268.387289 
L 176.337001 268.821781 
L 177.032144 267.735553 
L 177.727286 267.952798 
L 178.422359 266.214834 
L 179.117571 265.997588 
L 179.812713 266.649325 
L 180.507786 265.780343 
L 181.202928 265.997588 
L 181.89814 264.476869 
L 182.593352 264.259624 
L 183.288425 264.911361 
L 183.984263 263.607887 
L 184.67871 263.390642 
L 185.373783 263.825133 
L 186.068925 262.95615 
L 186.764137 263.390642 
L 187.459279 262.304414 
L 188.154422 262.087168 
L 188.849564 262.304414 
L 189.544637 261.869923 
L 190.239779 262.087168 
L 190.934922 261.218186 
L 191.630064 261.00094 
L 192.325207 261.218186 
L 193.020419 260.783695 
L 193.715561 261.00094 
L 194.410773 260.131958 
L 195.105846 259.914713 
L 195.800988 260.349204 
L 196.49613 259.480222 
L 197.191273 259.480222 
L 197.886415 259.697467 
L 198.581558 258.828485 
L 199.2767 258.828485 
L 199.971773 259.04573 
L 200.666985 258.393994 
L 201.362058 258.393994 
L 202.05727 258.611239 
L 202.752412 257.959503 
L 203.447554 257.742257 
L 204.142697 258.176748 
L 204.837839 257.525012 
L 205.532982 257.307766 
L 206.228054 257.742257 
L 206.923266 257.09052 
L 207.618409 256.873275 
L 208.313551 257.307766 
L 209.008694 256.656029 
L 209.703836 256.656029 
L 210.398978 256.873275 
L 211.094121 256.438784 
L 211.789263 256.221538 
L 212.484336 256.438784 
L 213.179478 256.004293 
L 213.87476 256.004293 
L 214.569763 256.221538 
L 215.264906 255.787047 
L 215.960117 255.569801 
L 216.65519 255.787047 
L 217.350333 255.352556 
L 218.740687 254.918065 
L 219.435829 254.918065 
L 220.130972 255.352556 
L 221.521257 254.483574 
L 222.911541 254.918065 
L 223.606684 254.483574 
L 224.301826 254.266328 
L 224.996899 254.266328 
L 225.692041 254.483574 
L 226.387184 254.266328 
L 227.082326 253.831837 
L 227.777469 253.831837 
L 228.472611 253.614591 
L 229.167753 253.614591 
L 229.863035 253.397346 
L 231.253876 253.397346 
L 231.948393 253.614591 
L 233.338677 253.1801 
L 235.424104 253.1801 
L 236.119247 252.962855 
L 237.509532 252.962855 
L 238.204605 252.745609 
L 240.985174 252.745609 
L 241.680316 252.528364 
L 246.546313 252.528364 
L 247.241525 252.311118 
L 247.936668 252.528364 
L 248.63174 252.311118 
L 250.717237 252.311118 
L 251.412379 252.528364 
L 252.107522 252.528364 
L 252.802664 252.311118 
L 256.278376 252.311118 
L 256.973519 252.093873 
L 261.839446 252.093873 
L 262.534727 252.311118 
L 262.534727 252.311118 
" clip-path="url(#pe7ed950237)" style="fill: none; stroke: #ffd700; stroke-opacity: 0.5; stroke-width: 3; stroke-linecap: square"/>
   </g>
   <g id="line2d_34">
    <path d="M 60.949273 235.365964 
L 63.028722 235.387689 
L 64.419006 235.365964 
L 69.285003 235.170443 
L 73.455858 235.083545 
L 74.151 234.996647 
L 75.541285 235.018372 
L 79.712209 234.996647 
L 80.407281 235.040096 
L 81.797566 234.888024 
L 83.18806 234.996647 
L 88.053848 235.040096 
L 88.74899 234.953198 
L 89.444133 235.018372 
L 92.919914 234.801126 
L 95.700623 234.822851 
L 97.090699 234.714228 
L 99.176126 234.801126 
L 99.871477 234.735952 
L 102.651908 234.931473 
L 104.04254 234.801126 
L 104.737265 234.8663 
L 106.12762 234.779401 
L 109.603262 234.779401 
L 110.993616 234.779401 
L 140.189527 234.692503 
L 143.665309 234.58388 
L 144.360451 234.692503 
L 145.750666 234.714228 
L 151.311805 234.779401 
L 152.006948 234.692503 
L 153.397302 234.714228 
L 161.739011 234.518707 
L 162.434153 234.562156 
L 163.824369 234.388359 
L 165.214653 234.496982 
L 165.909796 234.366635 
L 175.641859 234.301461 
L 176.337001 234.214563 
L 177.032144 234.301461 
L 178.422359 234.258012 
L 179.812713 234.279737 
L 181.202928 234.258012 
L 183.984263 234.149389 
L 185.373783 234.127665 
L 186.764137 234.084216 
L 195.800988 233.910419 
L 201.362058 233.86697 
L 202.05727 233.758347 
L 203.447554 233.823521 
L 207.618409 233.714898 
L 212.484336 233.671449 
L 239.594889 233.584551 
L 241.680316 233.519377 
L 245.156098 233.541102 
L 246.546313 233.454204 
L 252.802664 233.38903 
L 254.888022 233.302132 
L 259.058876 233.367305 
L 259.754019 233.454204 
L 260.449231 233.410754 
L 261.144303 233.606275 
L 262.534727 233.410754 
L 262.534727 233.410754 
" clip-path="url(#pe7ed950237)" style="fill: none; stroke: #00ff00; stroke-opacity: 0.95; stroke-linecap: square"/>
   </g>
   <g id="line2d_35">
    <path d="M 60.949273 163.240439 
L 61.638506 163.023193 
L 62.333788 163.457684 
L 63.028722 163.457684 
L 64.419006 163.892176 
L 65.809291 163.892176 
L 66.50499 164.109421 
L 67.199646 163.892176 
L 67.894718 164.109421 
L 68.58993 164.109421 
L 69.285003 164.326667 
L 73.455858 164.326667 
L 74.151 164.761158 
L 74.846351 164.543912 
L 75.541285 164.543912 
L 76.236497 164.761158 
L 76.931639 164.761158 
L 77.626712 164.543912 
L 80.407281 164.543912 
L 81.102424 164.326667 
L 81.797566 164.761158 
L 83.18806 164.326667 
L 86.663563 164.326667 
L 87.358914 164.543912 
L 88.053848 164.326667 
L 88.74899 164.326667 
L 89.444133 164.109421 
L 90.139344 164.543912 
L 90.834487 164.326667 
L 91.529768 164.543912 
L 92.224772 164.978403 
L 92.919914 164.761158 
L 94.310129 165.195649 
L 95.005341 165.63014 
L 95.700623 164.978403 
L 96.395557 164.761158 
L 97.090699 165.195649 
L 97.785841 164.761158 
L 98.480984 164.543912 
L 100.56648 164.543912 
L 101.261553 164.326667 
L 101.956765 164.326667 
L 102.651908 164.109421 
L 103.34698 164.109421 
L 104.04254 164.326667 
L 104.737265 164.978403 
L 105.432477 164.978403 
L 106.12762 164.543912 
L 108.213325 164.543912 
L 108.908189 164.326667 
L 110.298404 164.326667 
L 110.993616 164.543912 
L 111.688759 164.543912 
L 112.384179 164.326667 
L 113.079043 164.326667 
L 113.774116 164.543912 
L 114.469328 164.326667 
L 115.164401 163.892176 
L 115.859543 163.892176 
L 116.55559 164.109421 
L 117.249898 164.109421 
L 117.94504 163.892176 
L 119.335255 163.892176 
L 120.030398 164.109421 
L 122.811037 164.109421 
L 123.506179 163.892176 
L 124.201252 164.326667 
L 124.896395 164.326667 
L 125.591606 164.109421 
L 126.981961 164.109421 
L 127.677034 164.326667 
L 128.372176 164.326667 
L 129.067318 164.109421 
L 132.54303 164.109421 
L 133.238173 164.326667 
L 133.933246 164.109421 
L 137.408958 164.109421 
L 138.10417 163.892176 
L 139.494385 163.892176 
L 140.189527 164.109421 
L 140.88467 164.109421 
L 141.579951 163.892176 
L 143.665309 163.892176 
L 144.360451 163.67493 
L 145.750666 163.67493 
L 146.445878 163.240439 
L 148.531305 163.240439 
L 149.226448 163.023193 
L 149.92159 163.240439 
L 150.616663 163.240439 
L 151.311805 163.023193 
L 152.006948 163.023193 
L 152.70216 163.240439 
L 154.092375 163.240439 
L 155.482729 163.67493 
L 159.653584 163.67493 
L 161.043868 163.240439 
L 163.129296 163.240439 
L 164.519511 163.67493 
L 165.214653 163.67493 
L 165.909796 163.457684 
L 166.605077 163.457684 
L 167.995292 163.892176 
L 168.690435 163.67493 
L 171.471004 163.67493 
L 172.166147 163.892176 
L 172.861289 163.67493 
L 175.641859 163.67493 
L 177.032144 164.109421 
L 177.727286 164.109421 
L 178.422359 163.892176 
L 179.117571 164.109421 
L 182.593352 164.109421 
L 183.288425 164.326667 
L 184.67871 163.892176 
L 185.373783 164.109421 
L 188.849564 164.109421 
L 189.544637 163.892176 
L 190.239779 164.109421 
L 192.325207 164.109421 
L 193.020419 164.326667 
L 193.715561 164.109421 
L 196.49613 164.109421 
L 197.191273 163.892176 
L 197.886415 163.892176 
L 198.581558 164.326667 
L 199.2767 164.109421 
L 201.362058 164.109421 
L 202.752412 164.543912 
L 205.532982 164.543912 
L 206.228054 164.326667 
L 206.923266 163.892176 
L 207.618409 163.892176 
L 208.313551 164.109421 
L 209.008694 163.892176 
L 212.484336 163.892176 
L 213.179478 163.67493 
L 215.960117 163.67493 
L 216.65519 164.109421 
L 217.350333 164.326667 
L 218.045614 164.109421 
L 218.740687 164.109421 
L 219.435829 163.457684 
L 220.130972 163.457684 
L 220.826114 163.67493 
L 221.521257 163.457684 
L 222.216399 163.457684 
L 222.911541 163.67493 
L 223.606684 163.67493 
L 224.301826 163.240439 
L 224.996899 163.240439 
L 225.692041 163.457684 
L 227.082326 163.457684 
L 227.777469 163.67493 
L 230.558108 163.67493 
L 231.253876 163.892176 
L 236.119247 163.892176 
L 236.814459 163.67493 
L 237.509532 163.892176 
L 240.290032 163.892176 
L 241.680316 164.326667 
L 243.765744 164.326667 
L 244.460886 164.109421 
L 246.546313 164.109421 
L 247.241525 164.326667 
L 249.326952 164.326667 
L 250.022095 164.109421 
L 250.717237 164.109421 
L 252.107522 164.543912 
L 255.583164 164.543912 
L 256.278376 164.326667 
L 257.668591 164.326667 
L 259.058876 163.892176 
L 259.754019 164.326667 
L 260.449231 163.892176 
L 261.144303 162.805948 
L 261.839446 159.547264 
L 262.534727 160.633492 
L 262.534727 160.633492 
" clip-path="url(#pe7ed950237)" style="fill: none; stroke-dasharray: 1,1.65; stroke-dashoffset: 0; stroke: #00ff00; stroke-opacity: 0.95"/>
   </g>
   <g id="line2d_36">
    <path d="M 60.949273 254.483574 
L 62.333788 254.483574 
L 63.028722 254.700819 
L 67.894718 254.700819 
L 68.58993 254.483574 
L 69.285003 254.700819 
L 69.980146 254.700819 
L 70.675566 254.483574 
L 71.37043 254.700819 
L 72.065642 254.700819 
L 72.760715 254.483574 
L 73.455858 254.483574 
L 74.151 254.700819 
L 74.846351 254.483574 
L 75.541285 254.483574 
L 76.236497 254.700819 
L 76.931639 254.700819 
L 77.626712 254.483574 
L 93.614987 254.483574 
L 94.310129 254.700819 
L 95.005341 254.700819 
L 95.700623 254.483574 
L 97.785841 254.483574 
L 98.480984 254.266328 
L 99.176126 254.483574 
L 99.871477 254.266328 
L 100.56648 254.266328 
L 101.261553 254.483574 
L 102.651908 254.483574 
L 103.34698 254.266328 
L 104.04254 254.266328 
L 104.737265 254.483574 
L 105.432477 254.483574 
L 106.12762 254.266328 
L 113.079043 254.266328 
L 113.774116 254.483574 
L 114.469328 254.266328 
L 122.811037 254.266328 
L 123.506179 254.049083 
L 124.201252 254.266328 
L 133.238173 254.266328 
L 133.933246 254.049083 
L 134.628527 254.266328 
L 135.32353 254.266328 
L 136.018673 254.049083 
L 136.71451 254.049083 
L 137.408958 254.266328 
L 138.10417 254.049083 
L 145.750666 254.049083 
L 146.445878 253.831837 
L 147.141021 253.831837 
L 147.836163 254.049083 
L 148.531305 253.831837 
L 149.226448 254.049083 
L 150.616663 254.049083 
L 151.311805 253.831837 
L 152.006948 253.831837 
L 152.70216 254.049083 
L 153.397302 254.049083 
L 154.092375 253.831837 
L 154.787656 254.049083 
L 155.482729 253.831837 
L 156.177872 254.049083 
L 156.872945 254.049083 
L 157.568087 253.831837 
L 158.263229 254.049083 
L 158.958441 253.831837 
L 162.434153 253.831837 
L 163.129296 253.614591 
L 163.824369 253.614591 
L 164.519511 253.831837 
L 165.214653 253.831837 
L 165.909796 253.614591 
L 167.30015 253.614591 
L 167.995292 253.831837 
L 168.690435 253.614591 
L 171.471004 253.614591 
L 172.166147 253.831837 
L 172.861289 253.614591 
L 176.337001 253.614591 
L 177.032144 253.831837 
L 177.727286 253.614591 
L 178.422359 253.614591 
L 179.117571 253.831837 
L 179.812713 253.831837 
L 180.507786 253.614591 
L 181.202928 253.831837 
L 181.89814 253.614591 
L 182.593352 253.614591 
L 183.288425 253.831837 
L 183.984263 253.614591 
L 187.459279 253.614591 
L 188.154422 253.397346 
L 205.532982 253.397346 
L 206.228054 253.1801 
L 213.179478 253.1801 
L 213.87476 252.962855 
L 215.960117 252.962855 
L 216.65519 253.1801 
L 218.740687 253.1801 
L 219.435829 252.962855 
L 233.338677 252.962855 
L 234.03375 253.1801 
L 236.814459 253.1801 
L 237.509532 252.962855 
L 238.204605 253.1801 
L 238.899747 252.962855 
L 240.985174 252.962855 
L 241.680316 253.1801 
L 243.765744 253.1801 
L 244.460886 252.962855 
L 260.449231 252.962855 
L 261.144303 252.745609 
L 261.839446 251.876627 
L 262.534727 251.876627 
L 262.534727 251.876627 
" clip-path="url(#pe7ed950237)" style="fill: none; stroke: #00ff00; stroke-opacity: 0.5; stroke-width: 3; stroke-linecap: square"/>
   </g>
   <g id="line2d_37">
    <path d="M 60.949273 126.286969 
L 61.638506 125.200742 
L 62.333788 126.960431 
L 63.028722 133.738492 
L 64.419006 148.945681 
L 65.809291 161.046259 
L 67.199646 170.670237 
L 68.58993 178.143484 
L 69.980146 184.400156 
L 71.37043 189.418529 
L 72.760715 193.633093 
L 74.151 197.152471 
L 75.541285 200.150459 
L 76.931639 202.713957 
L 79.712209 206.928521 
L 81.797566 209.383396 
L 85.273278 212.642079 
L 87.358914 214.271421 
L 89.444133 215.487996 
L 90.834487 216.443876 
L 91.529768 216.704571 
L 92.224772 217.117338 
L 92.919914 217.378032 
L 93.614987 217.790799 
L 100.56648 220.506368 
L 101.261553 220.636716 
L 101.956765 220.919135 
L 102.651908 221.049482 
L 103.34698 221.331901 
L 104.04254 221.462249 
L 105.432477 221.875015 
L 107.517904 222.266057 
L 108.213325 222.548477 
L 116.55559 224.047471 
L 117.249898 218.616332 
L 118.640252 198.781812 
L 120.030398 183.444276 
L 121.420752 171.083004 
L 122.811037 160.633492 
L 124.896395 147.859453 
L 126.286679 140.668625 
L 127.677034 134.281606 
L 129.067318 129.132886 
L 129.762461 126.960431 
L 132.54303 119.89995 
L 136.018673 113.252236 
L 139.494385 107.951444 
L 141.579951 105.105527 
L 142.970097 103.606533 
L 147.836163 97.892975 
L 148.531305 97.349861 
L 149.226448 96.958819 
L 150.616663 96.546052 
L 151.311805 96.133286 
L 152.006948 95.872591 
L 152.70216 95.459825 
L 154.092375 94.786363 
L 154.787656 94.373597 
L 156.177872 93.700136 
L 156.872945 93.287369 
L 158.263229 92.613908 
L 160.348726 91.114913 
L 161.043868 90.702147 
L 161.739011 90.159033 
L 162.434153 90.028686 
L 163.824369 89.485572 
L 164.519511 89.355224 
L 166.605077 88.529691 
L 167.30015 88.399344 
L 170.08065 88.81211 
L 171.471004 88.81211 
L 172.861289 88.529691 
L 174.946647 88.529691 
L 175.641859 88.660039 
L 176.337001 88.660039 
L 177.032144 89.072805 
L 177.727286 89.615919 
L 178.422359 89.898338 
L 181.202928 89.203152 
L 181.89814 89.746266 
L 182.593352 89.898338 
L 183.288425 89.615919 
L 183.984263 89.485572 
L 184.67871 89.615919 
L 186.068925 90.159033 
L 187.459279 89.746266 
L 188.154422 89.615919 
L 188.849564 89.746266 
L 190.239779 89.746266 
L 191.630064 90.159033 
L 192.325207 89.898338 
L 193.715561 88.81211 
L 195.105846 88.529691 
L 195.800988 88.116925 
L 196.49613 88.116925 
L 197.191273 87.986577 
L 197.886415 87.725883 
L 198.581558 87.725883 
L 199.971773 87.313116 
L 201.362058 87.573811 
L 202.05727 87.313116 
L 202.752412 87.182769 
L 204.142697 86.639655 
L 210.398978 85.271008 
L 211.094121 85.271008 
L 211.789263 85.14066 
L 212.484336 84.858241 
L 213.179478 84.858241 
L 214.569763 84.597547 
L 215.264906 84.597547 
L 217.350333 84.315127 
L 218.740687 84.315127 
L 219.435829 84.18478 
L 220.130972 83.924085 
L 222.216399 83.924085 
L 223.606684 83.641666 
L 224.301826 83.641666 
L 224.996899 83.511319 
L 225.692041 83.2289 
L 227.082326 83.2289 
L 227.777469 83.380971 
L 230.558108 83.380971 
L 232.643465 82.968205 
L 238.204605 82.968205 
L 238.899747 82.837858 
L 239.594889 82.837858 
L 240.290032 82.968205 
L 240.985174 82.837858 
L 243.765744 82.837858 
L 244.460886 82.685786 
L 247.936668 82.685786 
L 248.63174 82.555438 
L 249.326952 82.555438 
L 250.022095 82.685786 
L 250.717237 82.555438 
L 251.412379 82.142672 
L 252.107522 82.012324 
L 253.497737 82.012324 
L 254.19288 81.881977 
L 256.973519 81.881977 
L 257.668591 81.75163 
L 259.058876 81.75163 
L 259.754019 81.599558 
L 261.144303 81.599558 
L 261.839446 81.469211 
L 262.534727 81.208516 
L 262.534727 81.208516 
" clip-path="url(#pe7ed950237)" style="fill: none; stroke: #ff0000; stroke-opacity: 0.95; stroke-linecap: square"/>
   </g>
   <g id="line2d_38">
    <path d="M 60.949273 234.909749 
L 61.638506 234.757677 
L 62.333788 234.909749 
L 63.028722 234.757677 
L 65.809291 234.757677 
L 66.50499 234.909749 
L 67.199646 234.909749 
L 67.894718 234.757677 
L 68.58993 234.757677 
L 69.285003 234.62733 
L 69.980146 234.757677 
L 72.065642 234.757677 
L 72.760715 234.62733 
L 75.541285 234.62733 
L 76.236497 234.496982 
L 76.931639 234.62733 
L 78.321854 234.62733 
L 79.017275 234.496982 
L 83.882993 234.496982 
L 84.578136 234.366635 
L 85.273278 234.366635 
L 85.968421 234.496982 
L 86.663563 234.366635 
L 87.358914 234.496982 
L 88.053848 234.496982 
L 88.74899 234.366635 
L 89.444133 234.366635 
L 90.139344 234.496982 
L 90.834487 234.366635 
L 91.529768 234.496982 
L 92.224772 234.366635 
L 101.956765 234.366635 
L 102.651908 234.214563 
L 103.34698 234.366635 
L 104.04254 234.366635 
L 104.737265 234.214563 
L 105.432477 234.366635 
L 106.822762 234.366635 
L 107.517904 234.214563 
L 108.213325 234.366635 
L 108.908189 234.366635 
L 109.603262 234.214563 
L 111.688759 234.214563 
L 112.384179 234.366635 
L 115.164401 234.366635 
L 115.859543 234.214563 
L 117.249898 234.214563 
L 117.94504 234.366635 
L 118.640252 234.214563 
L 119.335255 234.214563 
L 120.030398 234.366635 
L 120.72554 234.214563 
L 121.420752 234.214563 
L 122.115895 234.366635 
L 126.286679 234.366635 
L 126.981961 234.214563 
L 127.677034 234.214563 
L 128.372176 234.366635 
L 129.067318 234.214563 
L 129.762461 234.214563 
L 130.457603 234.366635 
L 131.152746 234.214563 
L 131.847888 234.366635 
L 142.275024 234.366635 
L 142.970097 234.214563 
L 143.665309 234.366635 
L 145.750666 234.366635 
L 146.445878 234.214563 
L 147.141021 234.366635 
L 148.531305 234.366635 
L 149.226448 234.214563 
L 154.092375 234.214563 
L 154.787656 234.084216 
L 155.482729 234.214563 
L 156.177872 234.084216 
L 156.872945 234.214563 
L 160.348726 234.214563 
L 161.043868 234.084216 
L 166.605077 234.084216 
L 167.30015 233.953868 
L 167.995292 234.084216 
L 168.690435 233.953868 
L 172.861289 233.953868 
L 173.556501 233.823521 
L 174.251504 233.953868 
L 175.641859 233.953868 
L 176.337001 233.823521 
L 183.288425 233.823521 
L 183.984263 233.671449 
L 184.67871 233.823521 
L 185.373783 233.671449 
L 187.459279 233.671449 
L 188.154422 233.541102 
L 188.849564 233.671449 
L 189.544637 233.541102 
L 190.934922 233.541102 
L 191.630064 233.671449 
L 192.325207 233.541102 
L 196.49613 233.541102 
L 197.191273 233.410754 
L 197.886415 233.541102 
L 198.581558 233.410754 
L 199.2767 233.410754 
L 199.971773 233.280407 
L 200.666985 233.541102 
L 201.362058 233.410754 
L 202.05727 233.410754 
L 202.752412 233.280407 
L 204.142697 233.280407 
L 204.837839 233.410754 
L 206.923266 233.410754 
L 207.618409 233.280407 
L 212.484336 233.280407 
L 213.179478 233.128335 
L 215.264906 233.128335 
L 215.960117 233.280407 
L 216.65519 233.128335 
L 219.435829 233.128335 
L 220.130972 232.997988 
L 226.387184 232.997988 
L 227.082326 232.867641 
L 227.777469 232.997988 
L 228.472611 232.997988 
L 229.167753 232.867641 
L 229.863035 232.997988 
L 230.558108 232.867641 
L 231.253876 232.997988 
L 232.643465 232.737293 
L 233.338677 232.997988 
L 234.03375 232.867641 
L 236.119247 232.867641 
L 236.814459 232.737293 
L 237.509532 232.867641 
L 238.204605 232.867641 
L 238.899747 232.737293 
L 243.070601 232.737293 
L 243.765744 232.867641 
L 244.460886 232.867641 
L 245.156098 232.737293 
L 245.85131 232.867641 
L 246.546313 232.737293 
L 252.802664 232.737293 
L 253.497737 232.585221 
L 254.888022 232.585221 
L 255.583164 232.737293 
L 256.973519 232.737293 
L 257.668591 232.585221 
L 260.449231 232.585221 
L 261.144303 232.737293 
L 261.839446 232.585221 
L 262.534727 232.585221 
L 262.534727 232.585221 
" clip-path="url(#pe7ed950237)" style="fill: none; stroke: #000000; stroke-opacity: 0.95; stroke-linecap: square"/>
   </g>
   <g id="patch_3">
    <path d="M 50.87 303.64 
L 50.87 10.8 
" style="fill: none; stroke: #000000; stroke-width: 0.8; stroke-linejoin: miter; stroke-linecap: square"/>
   </g>
   <g id="patch_4">
    <path d="M 272.614 303.64 
L 272.614 10.8 
" style="fill: none; stroke: #000000; stroke-width: 0.8; stroke-linejoin: miter; stroke-linecap: square"/>
   </g>
   <g id="patch_5">
    <path d="M 50.87 303.64 
L 272.614 303.64 
" style="fill: none; stroke: #000000; stroke-width: 0.8; stroke-linejoin: miter; stroke-linecap: square"/>
   </g>
   <g id="patch_6">
    <path d="M 50.87 10.8 
L 272.614 10.8 
" style="fill: none; stroke: #000000; stroke-width: 0.8; stroke-linejoin: miter; stroke-linecap: square"/>
   </g>
   <g id="legend_1">
    <g id="patch_7">
     <path d="M 290.7012 224.29375 
L 441.15745 224.29375 
Q 443.15745 224.29375 443.15745 222.29375 
L 443.15745 17.8 
Q 443.15745 15.8 441.15745 15.8 
L 290.7012 15.8 
Q 288.7012 15.8 288.7012 17.8 
L 288.7012 222.29375 
Q 288.7012 224.29375 290.7012 224.29375 
z
" style="fill: #ffffff; opacity: 0.8; stroke: #cccccc; stroke-linejoin: miter"/>
    </g>
    <g id="line2d_39">
     <path d="M 292.7012 23.898438 
L 302.7012 23.898438 
L 312.7012 23.898438 
" style="fill: none; stroke: #00ff00; stroke-opacity: 0.95; stroke-linecap: square"/>
    </g>
    <g id="text_15">
     <!-- ambient-Fan-1 -->
     <g transform="translate(320.7012 27.398438) scale(0.1 -0.1)">
      <defs>
       <path id="DejaVuSans-62" d="M 3116 1747 
Q 3116 2381 2855 2742 
Q 2594 3103 2138 3103 
Q 1681 3103 1420 2742 
Q 1159 2381 1159 1747 
Q 1159 1113 1420 752 
Q 1681 391 2138 391 
Q 2594 391 2855 752 
Q 3116 1113 3116 1747 
z
M 1159 2969 
Q 1341 3281 1617 3432 
Q 1894 3584 2278 3584 
Q 2916 3584 3314 3078 
Q 3713 2572 3713 1747 
Q 3713 922 3314 415 
Q 2916 -91 2278 -91 
Q 1894 -91 1617 61 
Q 1341 213 1159 525 
L 1159 0 
L 581 0 
L 581 4863 
L 1159 4863 
L 1159 2969 
z
" transform="scale(0.015625)"/>
       <path id="DejaVuSans-6e" d="M 3513 2113 
L 3513 0 
L 2938 0 
L 2938 2094 
Q 2938 2591 2744 2837 
Q 2550 3084 2163 3084 
Q 1697 3084 1428 2787 
Q 1159 2491 1159 1978 
L 1159 0 
L 581 0 
L 581 3500 
L 1159 3500 
L 1159 2956 
Q 1366 3272 1645 3428 
Q 1925 3584 2291 3584 
Q 2894 3584 3203 3211 
Q 3513 2838 3513 2113 
z
" transform="scale(0.015625)"/>
       <path id="DejaVuSans-2d" d="M 313 2009 
L 1997 2009 
L 1997 1497 
L 313 1497 
L 313 2009 
z
" transform="scale(0.015625)"/>
       <path id="DejaVuSans-46" d="M 628 4666 
L 3309 4666 
L 3309 4134 
L 1259 4134 
L 1259 2759 
L 3109 2759 
L 3109 2228 
L 1259 2228 
L 1259 0 
L 628 0 
L 628 4666 
z
" transform="scale(0.015625)"/>
      </defs>
      <use xlink:href="#DejaVuSans-61"/>
      <use xlink:href="#DejaVuSans-6d" x="61.279297"/>
      <use xlink:href="#DejaVuSans-62" x="158.691406"/>
      <use xlink:href="#DejaVuSans-69" x="222.167969"/>
      <use xlink:href="#DejaVuSans-65" x="249.951172"/>
      <use xlink:href="#DejaVuSans-6e" x="311.474609"/>
      <use xlink:href="#DejaVuSans-74" x="374.853516"/>
      <use xlink:href="#DejaVuSans-2d" x="414.0625"/>
      <use xlink:href="#DejaVuSans-46" x="450.146484"/>
      <use xlink:href="#DejaVuSans-61" x="498.541016"/>
      <use xlink:href="#DejaVuSans-6e" x="559.820312"/>
      <use xlink:href="#DejaVuSans-2d" x="623.199219"/>
      <use xlink:href="#DejaVuSans-31" x="659.283203"/>
     </g>
    </g>
    <g id="line2d_40">
     <path d="M 292.7012 38.576563 
L 302.7012 38.576563 
L 312.7012 38.576563 
" style="fill: none; stroke: #ffd700; stroke-opacity: 0.95; stroke-linecap: square"/>
    </g>
    <g id="text_16">
     <!-- filament-Fan-1 -->
     <g transform="translate(320.7012 42.076563) scale(0.1 -0.1)">
      <defs>
       <path id="DejaVuSans-66" d="M 2375 4863 
L 2375 4384 
L 1825 4384 
Q 1516 4384 1395 4259 
Q 1275 4134 1275 3809 
L 1275 3500 
L 2222 3500 
L 2222 3053 
L 1275 3053 
L 1275 0 
L 697 0 
L 697 3053 
L 147 3053 
L 147 3500 
L 697 3500 
L 697 3744 
Q 697 4328 969 4595 
Q 1241 4863 1831 4863 
L 2375 4863 
z
" transform="scale(0.015625)"/>
       <path id="DejaVuSans-6c" d="M 603 4863 
L 1178 4863 
L 1178 0 
L 603 0 
L 603 4863 
z
" transform="scale(0.015625)"/>
      </defs>
      <use xlink:href="#DejaVuSans-66"/>
      <use xlink:href="#DejaVuSans-69" x="35.205078"/>
      <use xlink:href="#DejaVuSans-6c" x="62.988281"/>
      <use xlink:href="#DejaVuSans-61" x="90.771484"/>
      <use xlink:href="#DejaVuSans-6d" x="152.050781"/>
      <use xlink:href="#DejaVuSans-65" x="249.462891"/>
      <use xlink:href="#DejaVuSans-6e" x="310.986328"/>
      <use xlink:href="#DejaVuSans-74" x="374.365234"/>
      <use xlink:href="#DejaVuSans-2d" x="413.574219"/>
      <use xlink:href="#DejaVuSans-46" x="449.658203"/>
      <use xlink:href="#DejaVuSans-61" x="498.052734"/>
      <use xlink:href="#DejaVuSans-6e" x="559.332031"/>
      <use xlink:href="#DejaVuSans-2d" x="622.710938"/>
      <use xlink:href="#DejaVuSans-31" x="658.794922"/>
     </g>
    </g>
    <g id="line2d_41">
     <path d="M 292.7012 53.254687 
L 302.7012 53.254687 
L 312.7012 53.254687 
" style="fill: none; stroke: #ff0000; stroke-opacity: 0.95; stroke-linecap: square"/>
    </g>
    <g id="text_17">
     <!-- heater-Heater-1 -->
     <g transform="translate(320.7012 56.754687) scale(0.1 -0.1)">
      <use xlink:href="#DejaVuSans-68"/>
      <use xlink:href="#DejaVuSans-65" x="63.378906"/>
      <use xlink:href="#DejaVuSans-61" x="124.902344"/>
      <use xlink:href="#DejaVuSans-74" x="186.181641"/>
      <use xlink:href="#DejaVuSans-65" x="225.390625"/>
      <use xlink:href="#DejaVuSans-72" x="286.914062"/>
      <use xlink:href="#DejaVuSans-2d" x="321.652344"/>
      <use xlink:href="#DejaVuSans-48" x="357.736328"/>
      <use xlink:href="#DejaVuSans-65" x="432.931641"/>
      <use xlink:href="#DejaVuSans-61" x="494.455078"/>
      <use xlink:href="#DejaVuSans-74" x="555.734375"/>
      <use xlink:href="#DejaVuSans-65" x="594.943359"/>
      <use xlink:href="#DejaVuSans-72" x="656.466797"/>
      <use xlink:href="#DejaVuSans-2d" x="691.205078"/>
      <use xlink:href="#DejaVuSans-31" x="727.289062"/>
     </g>
    </g>
    <g id="line2d_42">
     <path d="M 292.7012 67.932813 
L 302.7012 67.932813 
L 312.7012 67.932813 
" style="fill: none; stroke: #0000ff; stroke-opacity: 0.95; stroke-linecap: square"/>
    </g>
    <g id="text_18">
     <!-- silicagel-temperature-C -->
     <g transform="translate(320.7012 71.432813) scale(0.1 -0.1)">
      <defs>
       <path id="DejaVuSans-73" d="M 2834 3397 
L 2834 2853 
Q 2591 2978 2328 3040 
Q 2066 3103 1784 3103 
Q 1356 3103 1142 2972 
Q 928 2841 928 2578 
Q 928 2378 1081 2264 
Q 1234 2150 1697 2047 
L 1894 2003 
Q 2506 1872 2764 1633 
Q 3022 1394 3022 966 
Q 3022 478 2636 193 
Q 2250 -91 1575 -91 
Q 1294 -91 989 -36 
Q 684 19 347 128 
L 347 722 
Q 666 556 975 473 
Q 1284 391 1588 391 
Q 1994 391 2212 530 
Q 2431 669 2431 922 
Q 2431 1156 2273 1281 
Q 2116 1406 1581 1522 
L 1381 1569 
Q 847 1681 609 1914 
Q 372 2147 372 2553 
Q 372 3047 722 3315 
Q 1072 3584 1716 3584 
Q 2034 3584 2315 3537 
Q 2597 3491 2834 3397 
z
" transform="scale(0.015625)"/>
       <path id="DejaVuSans-63" d="M 3122 3366 
L 3122 2828 
Q 2878 2963 2633 3030 
Q 2388 3097 2138 3097 
Q 1578 3097 1268 2742 
Q 959 2388 959 1747 
Q 959 1106 1268 751 
Q 1578 397 2138 397 
Q 2388 397 2633 464 
Q 2878 531 3122 666 
L 3122 134 
Q 2881 22 2623 -34 
Q 2366 -91 2075 -91 
Q 1284 -91 818 406 
Q 353 903 353 1747 
Q 353 2603 823 3093 
Q 1294 3584 2113 3584 
Q 2378 3584 2631 3529 
Q 2884 3475 3122 3366 
z
" transform="scale(0.015625)"/>
       <path id="DejaVuSans-67" d="M 2906 1791 
Q 2906 2416 2648 2759 
Q 2391 3103 1925 3103 
Q 1463 3103 1205 2759 
Q 947 2416 947 1791 
Q 947 1169 1205 825 
Q 1463 481 1925 481 
Q 2391 481 2648 825 
Q 2906 1169 2906 1791 
z
M 3481 434 
Q 3481 -459 3084 -895 
Q 2688 -1331 1869 -1331 
Q 1566 -1331 1297 -1286 
Q 1028 -1241 775 -1147 
L 775 -588 
Q 1028 -725 1275 -790 
Q 1522 -856 1778 -856 
Q 2344 -856 2625 -561 
Q 2906 -266 2906 331 
L 2906 616 
Q 2728 306 2450 153 
Q 2172 0 1784 0 
Q 1141 0 747 490 
Q 353 981 353 1791 
Q 353 2603 747 3093 
Q 1141 3584 1784 3584 
Q 2172 3584 2450 3431 
Q 2728 3278 2906 2969 
L 2906 3500 
L 3481 3500 
L 3481 434 
z
" transform="scale(0.015625)"/>
      </defs>
      <use xlink:href="#DejaVuSans-73"/>
      <use xlink:href="#DejaVuSans-69" x="52.099609"/>
      <use xlink:href="#DejaVuSans-6c" x="79.882812"/>
      <use xlink:href="#DejaVuSans-69" x="107.666016"/>
      <use xlink:href="#DejaVuSans-63" x="135.449219"/>
      <use xlink:href="#DejaVuSans-61" x="190.429688"/>
      <use xlink:href="#DejaVuSans-67" x="251.708984"/>
      <use xlink:href="#DejaVuSans-65" x="315.185547"/>
      <use xlink:href="#DejaVuSans-6c" x="376.708984"/>
      <use xlink:href="#DejaVuSans-2d" x="404.492188"/>
      <use xlink:href="#DejaVuSans-74" x="440.576172"/>
      <use xlink:href="#DejaVuSans-65" x="479.785156"/>
      <use xlink:href="#DejaVuSans-6d" x="541.308594"/>
      <use xlink:href="#DejaVuSans-70" x="638.720703"/>
      <use xlink:href="#DejaVuSans-65" x="702.197266"/>
      <use xlink:href="#DejaVuSans-72" x="763.720703"/>
      <use xlink:href="#DejaVuSans-61" x="804.833984"/>
      <use xlink:href="#DejaVuSans-74" x="866.113281"/>
      <use xlink:href="#DejaVuSans-75" x="905.322266"/>
      <use xlink:href="#DejaVuSans-72" x="968.701172"/>
      <use xlink:href="#DejaVuSans-65" x="1007.564453"/>
      <use xlink:href="#DejaVuSans-2d" x="1069.087891"/>
      <use xlink:href="#DejaVuSans-43" x="1105.171875"/>
     </g>
    </g>
    <g id="line2d_43">
     <path d="M 292.7012 82.610938 
L 302.7012 82.610938 
L 312.7012 82.610938 
" style="fill: none; stroke-dasharray: 1,1.65; stroke-dashoffset: 0; stroke: #0000ff; stroke-opacity: 0.95"/>
    </g>
    <g id="text_19">
     <!-- silicagel-humidity-rH -->
     <g transform="translate(320.7012 86.110938) scale(0.1 -0.1)">
      <defs>
       <path id="DejaVuSans-64" d="M 2906 2969 
L 2906 4863 
L 3481 4863 
L 3481 0 
L 2906 0 
L 2906 525 
Q 2725 213 2448 61 
Q 2172 -91 1784 -91 
Q 1150 -91 751 415 
Q 353 922 353 1747 
Q 353 2572 751 3078 
Q 1150 3584 1784 3584 
Q 2172 3584 2448 3432 
Q 2725 3281 2906 2969 
z
M 947 1747 
Q 947 1113 1208 752 
Q 1469 391 1925 391 
Q 2381 391 2643 752 
Q 2906 1113 2906 1747 
Q 2906 2381 2643 2742 
Q 2381 3103 1925 3103 
Q 1469 3103 1208 2742 
Q 947 2381 947 1747 
z
" transform="scale(0.015625)"/>
       <path id="DejaVuSans-79" d="M 2059 -325 
Q 1816 -950 1584 -1140 
Q 1353 -1331 966 -1331 
L 506 -1331 
L 506 -850 
L 844 -850 
Q 1081 -850 1212 -737 
Q 1344 -625 1503 -206 
L 1606 56 
L 191 3500 
L 800 3500 
L 1894 763 
L 2988 3500 
L 3597 3500 
L 2059 -325 
z
" transform="scale(0.015625)"/>
      </defs>
      <use xlink:href="#DejaVuSans-73"/>
      <use xlink:href="#DejaVuSans-69" x="52.099609"/>
      <use xlink:href="#DejaVuSans-6c" x="79.882812"/>
      <use xlink:href="#DejaVuSans-69" x="107.666016"/>
      <use xlink:href="#DejaVuSans-63" x="135.449219"/>
      <use xlink:href="#DejaVuSans-61" x="190.429688"/>
      <use xlink:href="#DejaVuSans-67" x="251.708984"/>
      <use xlink:href="#DejaVuSans-65" x="315.185547"/>
      <use xlink:href="#DejaVuSans-6c" x="376.708984"/>
      <use xlink:href="#DejaVuSans-2d" x="404.492188"/>
      <use xlink:href="#DejaVuSans-68" x="440.576172"/>
      <use xlink:href="#DejaVuSans-75" x="503.955078"/>
      <use xlink:href="#DejaVuSans-6d" x="567.333984"/>
      <use xlink:href="#DejaVuSans-69" x="664.746094"/>
      <use xlink:href="#DejaVuSans-64" x="692.529297"/>
      <use xlink:href="#DejaVuSans-69" x="756.005859"/>
      <use xlink:href="#DejaVuSans-74" x="783.789062"/>
      <use xlink:href="#DejaVuSans-79" x="822.998047"/>
      <use xlink:href="#DejaVuSans-2d" x="880.427734"/>
      <use xlink:href="#DejaVuSans-72" x="916.511719"/>
      <use xlink:href="#DejaVuSans-48" x="957.625"/>
     </g>
    </g>
    <g id="line2d_44">
     <path d="M 292.7012 97.289062 
L 302.7012 97.289062 
L 312.7012 97.289062 
" style="fill: none; stroke: #0000ff; stroke-opacity: 0.5; stroke-width: 3; stroke-linecap: square"/>
    </g>
    <g id="text_20">
     <!-- silicagel-dew-C -->
     <g transform="translate(320.7012 100.789062) scale(0.1 -0.1)">
      <defs>
       <path id="DejaVuSans-77" d="M 269 3500 
L 844 3500 
L 1563 769 
L 2278 3500 
L 2956 3500 
L 3675 769 
L 4391 3500 
L 4966 3500 
L 4050 0 
L 3372 0 
L 2619 2869 
L 1863 0 
L 1184 0 
L 269 3500 
z
" transform="scale(0.015625)"/>
      </defs>
      <use xlink:href="#DejaVuSans-73"/>
      <use xlink:href="#DejaVuSans-69" x="52.099609"/>
      <use xlink:href="#DejaVuSans-6c" x="79.882812"/>
      <use xlink:href="#DejaVuSans-69" x="107.666016"/>
      <use xlink:href="#DejaVuSans-63" x="135.449219"/>
      <use xlink:href="#DejaVuSans-61" x="190.429688"/>
      <use xlink:href="#DejaVuSans-67" x="251.708984"/>
      <use xlink:href="#DejaVuSans-65" x="315.185547"/>
      <use xlink:href="#DejaVuSans-6c" x="376.708984"/>
      <use xlink:href="#DejaVuSans-2d" x="404.492188"/>
      <use xlink:href="#DejaVuSans-64" x="440.576172"/>
      <use xlink:href="#DejaVuSans-65" x="504.052734"/>
      <use xlink:href="#DejaVuSans-77" x="565.576172"/>
      <use xlink:href="#DejaVuSans-2d" x="647.363281"/>
      <use xlink:href="#DejaVuSans-43" x="683.447266"/>
     </g>
    </g>
    <g id="line2d_45">
     <path d="M 292.7012 111.967188 
L 302.7012 111.967188 
L 312.7012 111.967188 
" style="fill: none; stroke: #ffd700; stroke-opacity: 0.95; stroke-linecap: square"/>
    </g>
    <g id="text_21">
     <!-- filament-temperature-C -->
     <g transform="translate(320.7012 115.467188) scale(0.1 -0.1)">
      <use xlink:href="#DejaVuSans-66"/>
      <use xlink:href="#DejaVuSans-69" x="35.205078"/>
      <use xlink:href="#DejaVuSans-6c" x="62.988281"/>
      <use xlink:href="#DejaVuSans-61" x="90.771484"/>
      <use xlink:href="#DejaVuSans-6d" x="152.050781"/>
      <use xlink:href="#DejaVuSans-65" x="249.462891"/>
      <use xlink:href="#DejaVuSans-6e" x="310.986328"/>
      <use xlink:href="#DejaVuSans-74" x="374.365234"/>
      <use xlink:href="#DejaVuSans-2d" x="413.574219"/>
      <use xlink:href="#DejaVuSans-74" x="449.658203"/>
      <use xlink:href="#DejaVuSans-65" x="488.867188"/>
      <use xlink:href="#DejaVuSans-6d" x="550.390625"/>
      <use xlink:href="#DejaVuSans-70" x="647.802734"/>
      <use xlink:href="#DejaVuSans-65" x="711.279297"/>
      <use xlink:href="#DejaVuSans-72" x="772.802734"/>
      <use xlink:href="#DejaVuSans-61" x="813.916016"/>
      <use xlink:href="#DejaVuSans-74" x="875.195312"/>
      <use xlink:href="#DejaVuSans-75" x="914.404297"/>
      <use xlink:href="#DejaVuSans-72" x="977.783203"/>
      <use xlink:href="#DejaVuSans-65" x="1016.646484"/>
      <use xlink:href="#DejaVuSans-2d" x="1078.169922"/>
      <use xlink:href="#DejaVuSans-43" x="1114.253906"/>
     </g>
    </g>
    <g id="line2d_46">
     <path d="M 292.7012 126.645312 
L 302.7012 126.645312 
L 312.7012 126.645312 
" style="fill: none; stroke-dasharray: 1,1.65; stroke-dashoffset: 0; stroke: #ffd700; stroke-opacity: 0.95"/>
    </g>
    <g id="text_22">
     <!-- filament-humidity-rH -->
     <g transform="translate(320.7012 130.145312) scale(0.1 -0.1)">
      <use xlink:href="#DejaVuSans-66"/>
      <use xlink:href="#DejaVuSans-69" x="35.205078"/>
      <use xlink:href="#DejaVuSans-6c" x="62.988281"/>
      <use xlink:href="#DejaVuSans-61" x="90.771484"/>
      <use xlink:href="#DejaVuSans-6d" x="152.050781"/>
      <use xlink:href="#DejaVuSans-65" x="249.462891"/>
      <use xlink:href="#DejaVuSans-6e" x="310.986328"/>
      <use xlink:href="#DejaVuSans-74" x="374.365234"/>
      <use xlink:href="#DejaVuSans-2d" x="413.574219"/>
      <use xlink:href="#DejaVuSans-68" x="449.658203"/>
      <use xlink:href="#DejaVuSans-75" x="513.037109"/>
      <use xlink:href="#DejaVuSans-6d" x="576.416016"/>
      <use xlink:href="#DejaVuSans-69" x="673.828125"/>
      <use xlink:href="#DejaVuSans-64" x="701.611328"/>
      <use xlink:href="#DejaVuSans-69" x="765.087891"/>
      <use xlink:href="#DejaVuSans-74" x="792.871094"/>
      <use xlink:href="#DejaVuSans-79" x="832.080078"/>
      <use xlink:href="#DejaVuSans-2d" x="889.509766"/>
      <use xlink:href="#DejaVuSans-72" x="925.59375"/>
      <use xlink:href="#DejaVuSans-48" x="966.707031"/>
     </g>
    </g>
    <g id="line2d_47">
     <path d="M 292.7012 141.323438 
L 302.7012 141.323438 
L 312.7012 141.323438 
" style="fill: none; stroke: #ffd700; stroke-opacity: 0.5; stroke-width: 3; stroke-linecap: square"/>
    </g>
    <g id="text_23">
     <!-- filament-dew-C -->
     <g transform="translate(320.7012 144.823438) scale(0.1 -0.1)">
      <use xlink:href="#DejaVuSans-66"/>
      <use xlink:href="#DejaVuSans-69" x="35.205078"/>
      <use xlink:href="#DejaVuSans-6c" x="62.988281"/>
      <use xlink:href="#DejaVuSans-61" x="90.771484"/>
      <use xlink:href="#DejaVuSans-6d" x="152.050781"/>
      <use xlink:href="#DejaVuSans-65" x="249.462891"/>
      <use xlink:href="#DejaVuSans-6e" x="310.986328"/>
      <use xlink:href="#DejaVuSans-74" x="374.365234"/>
      <use xlink:href="#DejaVuSans-2d" x="413.574219"/>
      <use xlink:href="#DejaVuSans-64" x="449.658203"/>
      <use xlink:href="#DejaVuSans-65" x="513.134766"/>
      <use xlink:href="#DejaVuSans-77" x="574.658203"/>
      <use xlink:href="#DejaVuSans-2d" x="656.445312"/>
      <use xlink:href="#DejaVuSans-43" x="692.529297"/>
     </g>
    </g>
    <g id="line2d_48">
     <path d="M 292.7012 156.001562 
L 302.7012 156.001562 
L 312.7012 156.001562 
" style="fill: none; stroke: #00ff00; stroke-opacity: 0.95; stroke-linecap: square"/>
    </g>
    <g id="text_24">
     <!-- ambient-temperature-C -->
     <g transform="translate(320.7012 159.501562) scale(0.1 -0.1)">
      <use xlink:href="#DejaVuSans-61"/>
      <use xlink:href="#DejaVuSans-6d" x="61.279297"/>
      <use xlink:href="#DejaVuSans-62" x="158.691406"/>
      <use xlink:href="#DejaVuSans-69" x="222.167969"/>
      <use xlink:href="#DejaVuSans-65" x="249.951172"/>
      <use xlink:href="#DejaVuSans-6e" x="311.474609"/>
      <use xlink:href="#DejaVuSans-74" x="374.853516"/>
      <use xlink:href="#DejaVuSans-2d" x="414.0625"/>
      <use xlink:href="#DejaVuSans-74" x="450.146484"/>
      <use xlink:href="#DejaVuSans-65" x="489.355469"/>
      <use xlink:href="#DejaVuSans-6d" x="550.878906"/>
      <use xlink:href="#DejaVuSans-70" x="648.291016"/>
      <use xlink:href="#DejaVuSans-65" x="711.767578"/>
      <use xlink:href="#DejaVuSans-72" x="773.291016"/>
      <use xlink:href="#DejaVuSans-61" x="814.404297"/>
      <use xlink:href="#DejaVuSans-74" x="875.683594"/>
      <use xlink:href="#DejaVuSans-75" x="914.892578"/>
      <use xlink:href="#DejaVuSans-72" x="978.271484"/>
      <use xlink:href="#DejaVuSans-65" x="1017.134766"/>
      <use xlink:href="#DejaVuSans-2d" x="1078.658203"/>
      <use xlink:href="#DejaVuSans-43" x="1114.742188"/>
     </g>
    </g>
    <g id="line2d_49">
     <path d="M 292.7012 170.679687 
L 302.7012 170.679687 
L 312.7012 170.679687 
" style="fill: none; stroke-dasharray: 1,1.65; stroke-dashoffset: 0; stroke: #00ff00; stroke-opacity: 0.95"/>
    </g>
    <g id="text_25">
     <!-- ambient-humidity-rH -->
     <g transform="translate(320.7012 174.179687) scale(0.1 -0.1)">
      <use xlink:href="#DejaVuSans-61"/>
      <use xlink:href="#DejaVuSans-6d" x="61.279297"/>
      <use xlink:href="#DejaVuSans-62" x="158.691406"/>
      <use xlink:href="#DejaVuSans-69" x="222.167969"/>
      <use xlink:href="#DejaVuSans-65" x="249.951172"/>
      <use xlink:href="#DejaVuSans-6e" x="311.474609"/>
      <use xlink:href="#DejaVuSans-74" x="374.853516"/>
      <use xlink:href="#DejaVuSans-2d" x="414.0625"/>
      <use xlink:href="#DejaVuSans-68" x="450.146484"/>
      <use xlink:href="#DejaVuSans-75" x="513.525391"/>
      <use xlink:href="#DejaVuSans-6d" x="576.904297"/>
      <use xlink:href="#DejaVuSans-69" x="674.316406"/>
      <use xlink:href="#DejaVuSans-64" x="702.099609"/>
      <use xlink:href="#DejaVuSans-69" x="765.576172"/>
      <use xlink:href="#DejaVuSans-74" x="793.359375"/>
      <use xlink:href="#DejaVuSans-79" x="832.568359"/>
      <use xlink:href="#DejaVuSans-2d" x="889.998047"/>
      <use xlink:href="#DejaVuSans-72" x="926.082031"/>
      <use xlink:href="#DejaVuSans-48" x="967.195312"/>
     </g>
    </g>
    <g id="line2d_50">
     <path d="M 292.7012 185.357812 
L 302.7012 185.357812 
L 312.7012 185.357812 
" style="fill: none; stroke: #00ff00; stroke-opacity: 0.5; stroke-width: 3; stroke-linecap: square"/>
    </g>
    <g id="text_26">
     <!-- ambient-dew-C -->
     <g transform="translate(320.7012 188.857812) scale(0.1 -0.1)">
      <use xlink:href="#DejaVuSans-61"/>
      <use xlink:href="#DejaVuSans-6d" x="61.279297"/>
      <use xlink:href="#DejaVuSans-62" x="158.691406"/>
      <use xlink:href="#DejaVuSans-69" x="222.167969"/>
      <use xlink:href="#DejaVuSans-65" x="249.951172"/>
      <use xlink:href="#DejaVuSans-6e" x="311.474609"/>
      <use xlink:href="#DejaVuSans-74" x="374.853516"/>
      <use xlink:href="#DejaVuSans-2d" x="414.0625"/>
      <use xlink:href="#DejaVuSans-64" x="450.146484"/>
      <use xlink:href="#DejaVuSans-65" x="513.623047"/>
      <use xlink:href="#DejaVuSans-77" x="575.146484"/>
      <use xlink:href="#DejaVuSans-2d" x="656.933594"/>
      <use xlink:href="#DejaVuSans-43" x="693.017578"/>
     </g>
    </g>
    <g id="line2d_51">
     <path d="M 292.7012 200.035937 
L 302.7012 200.035937 
L 312.7012 200.035937 
" style="fill: none; stroke: #ff0000; stroke-opacity: 0.95; stroke-linecap: square"/>
    </g>
    <g id="text_27">
     <!-- heater-temperature-C -->
     <g transform="translate(320.7012 203.535937) scale(0.1 -0.1)">
      <use xlink:href="#DejaVuSans-68"/>
      <use xlink:href="#DejaVuSans-65" x="63.378906"/>
      <use xlink:href="#DejaVuSans-61" x="124.902344"/>
      <use xlink:href="#DejaVuSans-74" x="186.181641"/>
      <use xlink:href="#DejaVuSans-65" x="225.390625"/>
      <use xlink:href="#DejaVuSans-72" x="286.914062"/>
      <use xlink:href="#DejaVuSans-2d" x="321.652344"/>
      <use xlink:href="#DejaVuSans-74" x="357.736328"/>
      <use xlink:href="#DejaVuSans-65" x="396.945312"/>
      <use xlink:href="#DejaVuSans-6d" x="458.46875"/>
      <use xlink:href="#DejaVuSans-70" x="555.880859"/>
      <use xlink:href="#DejaVuSans-65" x="619.357422"/>
      <use xlink:href="#DejaVuSans-72" x="680.880859"/>
      <use xlink:href="#DejaVuSans-61" x="721.994141"/>
      <use xlink:href="#DejaVuSans-74" x="783.273438"/>
      <use xlink:href="#DejaVuSans-75" x="822.482422"/>
      <use xlink:href="#DejaVuSans-72" x="885.861328"/>
      <use xlink:href="#DejaVuSans-65" x="924.724609"/>
      <use xlink:href="#DejaVuSans-2d" x="986.248047"/>
      <use xlink:href="#DejaVuSans-43" x="1022.332031"/>
     </g>
    </g>
    <g id="line2d_52">
     <path d="M 292.7012 214.714062 
L 302.7012 214.714062 
L 312.7012 214.714062 
" style="fill: none; stroke: #000000; stroke-opacity: 0.95; stroke-linecap: square"/>
    </g>
    <g id="text_28">
     <!-- aux-temperature-C -->
     <g transform="translate(320.7012 218.214062) scale(0.1 -0.1)">
      <defs>
       <path id="DejaVuSans-78" d="M 3513 3500 
L 2247 1797 
L 3578 0 
L 2900 0 
L 1881 1375 
L 863 0 
L 184 0 
L 1544 1831 
L 300 3500 
L 978 3500 
L 1906 2253 
L 2834 3500 
L 3513 3500 
z
" transform="scale(0.015625)"/>
      </defs>
      <use xlink:href="#DejaVuSans-61"/>
      <use xlink:href="#DejaVuSans-75" x="61.279297"/>
      <use xlink:href="#DejaVuSans-78" x="124.658203"/>
      <use xlink:href="#DejaVuSans-2d" x="183.837891"/>
      <use xlink:href="#DejaVuSans-74" x="219.921875"/>
      <use xlink:href="#DejaVuSans-65" x="259.130859"/>
      <use xlink:href="#DejaVuSans-6d" x="320.654297"/>
      <use xlink:href="#DejaVuSans-70" x="418.066406"/>
      <use xlink:href="#DejaVuSans-65" x="481.542969"/>
      <use xlink:href="#DejaVuSans-72" x="543.066406"/>
      <use xlink:href="#DejaVuSans-61" x="584.179688"/>
      <use xlink:href="#DejaVuSans-74" x="645.458984"/>
      <use xlink:href="#DejaVuSans-75" x="684.667969"/>
      <use xlink:href="#DejaVuSans-72" x="748.046875"/>
      <use xlink:href="#DejaVuSans-65" x="786.910156"/>
      <use xlink:href="#DejaVuSans-2d" x="848.433594"/>
      <use xlink:href="#DejaVuSans-43" x="884.517578"/>
     </g>
    </g>
   </g>
  </g>
 </g>
 <defs>
  <clipPath id="pe7ed950237">
   <rect x="50.87" y="10.8" width="221.744" height="292.84"/>
  </clipPath>
 </defs>
</svg>
