  0
SECTION
  2
HEADER
  9
$ACADVER
  1
AC1014
  9
$ACADMAINTVER
 70
     9
  9
$DWGCODEPAGE
  3
ANSI_1252
  9
$INSBASE
 10
0.0
 20
0.0
 30
0.0
  9
$EXTMIN
 10
-35.0
 20
-16.6545
 30
-1.6
  9
$EXTMAX
 10
35.0
 20
92.0
 30
0.0
  9
$LIMMIN
 10
0.0
 20
0.0
  9
$LIMMAX
 10
12.0
 20
9.0
  9
$ORTHOMODE
 70
     0
  9
$REGENMODE
 70
     1
  9
$FILLMODE
 70
     1
  9
$QTEXTMODE
 70
     0
  9
$MIRRTEXT
 70
     1
  9
$DRAGMODE
 70
     2
  9
$LTSCALE
 40
1.0
  9
$OSMODE
 70
    37
  9
$ATTMODE
 70
     1
  9
$TEXTSIZE
 40
2.5
  9
$TRACEWID
 40
0.05
  9
$TEXTSTYLE
  7
STANDARD
  9
$CLAYER
  8
0
  9
$CELTYPE
  6
BYLAYER
  9
$CECOLOR
 62
   256
  9
$CELTSCALE
 40
1.0
  9
$DELOBJ
 70
     1
  9
$DISPSILH
 70
     0
  9
$DIMSCALE
 40
1.0
  9
$DIMASZ
 40
0.18
  9
$DIMEXO
 40
0.0625
  9
$DIMDLI
 40
0.38
  9
$DIMRND
 40
0.0
  9
$DIMDLE
 40
0.0
  9
$DIMEXE
 40
0.18
  9
$DIMTP
 40
0.0
  9
$DIMTM
 40
0.0
  9
$DIMTXT
 40
0.18
  9
$DIMCEN
 40
0.09
  9
$DIMTSZ
 40
0.0
  9
$DIMTOL
 70
     0
  9
$DIMLIM
 70
     0
  9
$DIMTIH
 70
     1
  9
$DIMTOH
 70
     1
  9
$DIMSE1
 70
     0
  9
$DIMSE2
 70
     0
  9
$DIMTAD
 70
     0
  9
$DIMZIN
 70
     0
  9
$DIMBLK
  1

  9
$DIMASO
 70
     1
  9
$DIMSHO
 70
     1
  9
$DIMPOST
  1

  9
$DIMAPOST
  1

  9
$DIMALT
 70
     0
  9
$DIMALTD
 70
     2
  9
$DIMALTF
 40
25.4
  9
$DIMLFAC
 40
1.0
  9
$DIMTOFL
 70
     0
  9
$DIMTVP
 40
0.0
  9
$DIMTIX
 70
     0
  9
$DIMSOXD
 70
     0
  9
$DIMSAH
 70
     0
  9
$DIMBLK1
  1

  9
$DIMBLK2
  1

  9
$DIMSTYLE
  2
STANDARD
  9
$DIMCLRD
 70
     0
  9
$DIMCLRE
 70
     0
  9
$DIMCLRT
 70
     0
  9
$DIMTFAC
 40
1.0
  9
$DIMGAP
 40
0.09
  9
$DIMJUST
 70
     0
  9
$DIMSD1
 70
     0
  9
$DIMSD2
 70
     0
  9
$DIMTOLJ
 70
     1
  9
$DIMTZIN
 70
     0
  9
$DIMALTZ
 70
     0
  9
$DIMALTTZ
 70
     0
  9
$DIMFIT
 70
     3
  9
$DIMUPT
 70
     0
  9
$DIMUNIT
 70
     2
  9
$DIMDEC
 70
     4
  9
$DIMTDEC
 70
     4
  9
$DIMALTU
 70
     2
  9
$DIMALTTD
 70
     2
  9
$DIMTXSTY
  7
STANDARD
  9
$DIMAUNIT
 70
     0
  9
$LUNITS
 70
     2
  9
$LUPREC
 70
     4
  9
$SKETCHINC
 40
0.1
  9
$FILLETRAD
 40
0.0
  9
$AUNITS
 70
     0
  9
$AUPREC
 70
     0
  9
$MENU
  1
.
  9
$ELEVATION
 40
0.0
  9
$PELEVATION
 40
0.0
  9
$THICKNESS
 40
0.0
  9
$LIMCHECK
 70
     0
  9
$CHAMFERA
 40
0.0
  9
$CHAMFERB
 40
0.0
  9
$CHAMFERC
 40
0.0
  9
$CHAMFERD
 40
0.0
  9
$SKPOLY
 70
     0
  9
$TDCREATE
 40
2460207.04270735
  9
$TDUPDATE
 40
2460207.042707905
  9
$TDINDWG
 40
0.0000000116
  9
$TDUSRTIMER
 40
0.0000000116
  9
$USRTIMER
 70
     1
  9
$ANGBASE
 50
0.0
  9
$ANGDIR
 70
     0
  9
$PDMODE
 70
     0
  9
$PDSIZE
 40
0.0
  9
$PLINEWID
 40
0.0
  9
$COORDS
 70
     1
  9
$SPLFRAME
 70
     0
  9
$SPLINETYPE
 70
     6
  9
$SPLINESEGS
 70
     8
  9
$ATTDIA
 70
     0
  9
$ATTREQ
 70
     1
  9
$HANDLING
 70
     1
  9
$HANDSEED
  5
1022E
  9
$SURFTAB1
 70
     6
  9
$SURFTAB2
 70
     6
  9
$SURFTYPE
 70
     6
  9
$SURFU
 70
     6
  9
$SURFV
 70
     6
  9
$UCSNAME
  2

  9
$UCSORG
 10
0.0
 20
0.0
 30
0.0
  9
$UCSXDIR
 10
1.0
 20
0.0
 30
0.0
  9
$UCSYDIR
 10
0.0
 20
1.0
 30
0.0
  9
$PUCSNAME
  2

  9
$PUCSORG
 10
0.0
 20
0.0
 30
0.0
  9
$PUCSXDIR
 10
1.0
 20
0.0
 30
0.0
  9
$PUCSYDIR
 10
0.0
 20
1.0
 30
0.0
  9
$USERI1
 70
     0
  9
$USERI2
 70
     0
  9
$USERI3
 70
     0
  9
$USERI4
 70
     0
  9
$USERI5
 70
     0
  9
$USERR1
 40
0.0
  9
$USERR2
 40
0.0
  9
$USERR3
 40
0.0
  9
$USERR4
 40
0.0
  9
$USERR5
 40
0.0
  9
$WORLDVIEW
 70
     1
  9
$SHADEDGE
 70
     3
  9
$SHADEDIF
 70
    70
  9
$TILEMODE
 70
     1
  9
$MAXACTVP
 70
    64
  9
$PINSBASE
 10
0.0
 20
0.0
 30
0.0
  9
$PLIMCHECK
 70
     0
  9
$PEXTMIN
 10
0.0
 20
0.0
 30
0.0
  9
$PEXTMAX
 10
50.0
 20
50.0
 30
50.0
  9
$PLIMMIN
 10
-0.25
 20
-0.25
  9
$PLIMMAX
 10
10.75
 20
8.25
  9
$UNITMODE
 70
     0
  9
$VISRETAIN
 70
     1
  9
$PLINEGEN
 70
     0
  9
$PSLTSCALE
 70
     1
  9
$TREEDEPTH
 70
  3020
  9
$PICKSTYLE
 70
     1
  9
$CMLSTYLE
  2
STANDARD
  9
$CMLJUST
 70
     0
  9
$CMLSCALE
 40
1.0
  9
$PROXYGRAPHICS
 70
     1
  9
$MEASUREMENT
 70
     0
  0
ENDSEC
  0
SECTION
  2
CLASSES
  0
CLASS
  1
ACDBDICTIONARYWDFLT
  2
AcDbDictionaryWithDefault
  3
ObjectDBX Classes
 90
        0
280
     0
281
     0
  0
CLASS
  1
VISUALSTYLE
  2
AcDbVisualStyle
  3
ObjectDBX Classes
 90
     4095
280
     0
281
     0
  0
CLASS
  1
MATERIAL
  2
AcDbMaterial
  3
ObjectDBX Classes
 90
     1153
280
     0
281
     0
  0
CLASS
  1
SCALE
  2
AcDbScale
  3
ObjectDBX Classes
 90
     1153
280
     0
281
     0
  0
CLASS
  1
TABLESTYLE
  2
AcDbTableStyle
  3
ObjectDBX Classes
 90
     4095
280
     0
281
     0
  0
CLASS
  1
MLEADERSTYLE
  2
AcDbMLeaderStyle
  3
ACDB_MLEADERSTYLE_CLASS
 90
     4095
280
     0
281
     0
  0
CLASS
  1
SUN
  2
AcDbSun
  3
SCENEOE
 90
     1153
280
     0
281
     0
  0
CLASS
  1
DICTIONARYVAR
  2
AcDbDictionaryVar
  3
ObjectDBX Classes
 90
        0
280
     0
281
     0
  0
CLASS
  1
XRECORD
  2
AcDbXrecord
  3
ObjectDBX Classes
 90
        0
280
     0
281
     0
  0
CLASS
  1
LWPOLYLINE
  2
AcDbPolyline
  3
ObjectDBX Classes
 90
        0
280
     0
281
     1
  0
CLASS
  1
HATCH
  2
AcDbHatch
  3
ObjectDBX Classes
 90
        0
280
     0
281
     1
  0
CLASS
  1
ACDBPLACEHOLDER
  2
AcDbPlaceHolder
  3
ObjectDBX Classes
 90
        0
280
     0
281
     0
  0
CLASS
  1
LAYOUT
  2
AcDbLayout
  3
ObjectDBX Classes
 90
        0
280
     0
281
     0
  0
ENDSEC
  0
SECTION
  2
TABLES
  0
TABLE
  2
VPORT
  5
10130
102
{ACAD_XDICTIONARY
360
10223
102
}
330
0
100
AcDbSymbolTable
 70
     1
  0
VPORT
  5
10150
330
10130
100
AcDbSymbolTableRecord
100
AcDbViewportTableRecord
  2
*ACTIVE
 70
     0
 10
0.0
 20
0.0
 11
1.0
 21
1.0
 12
24.64587596025954
 22
44.58431086711627
 13
0.0
 23
0.0
 14
0.5
 24
0.5
 15
0.5
 25
0.5
 16
0.0
 26
0.0
 36
1.0
 17
0.0
 27
0.0
 37
0.0
 40
32.39758606228668
 41
1.825864276568502
 42
50.0
 43
0.0
 44
0.0
 50
0.0
 51
0.0
 71
     0
 72
   100
 73
     1
 74
     3
 75
     0
 76
     0
 77
     0
 78
     0
  0
ENDTAB
  0
TABLE
  2
LTYPE
  5
1012D
330
0
100
AcDbSymbolTable
 70
    48
  0
LTYPE
  5
1013B
330
1012D
100
AcDbSymbolTableRecord
100
AcDbLinetypeTableRecord
  2
BYBLOCK
 70
     0
  3

 72
    65
 73
     0
 40
0.0
  0
LTYPE
  5
1013C
330
1012D
100
AcDbSymbolTableRecord
100
AcDbLinetypeTableRecord
  2
BYLAYER
 70
     0
  3

 72
    65
 73
     0
 40
0.0
  0
LTYPE
  5
1013D
330
1012D
100
AcDbSymbolTableRecord
100
AcDbLinetypeTableRecord
  2
CONTINUOUS
 70
     0
  3
Solid line
 72
    65
 73
     0
 40
0.0
  0
LTYPE
  5
101C4
330
1012D
100
AcDbSymbolTableRecord
100
AcDbLinetypeTableRecord
  2
ACAD_ISO09W100
 70
     0
  3
ISO long-dash double-short-dash ____ __ __ ____
 72
    65
 73
     6
 40
45.0
 49
24.0
 74
     0
 49
-3.0
 74
     0
 49
6.0
 74
     0
 49
-3.0
 74
     0
 49
6.0
 74
     0
 49
-3.0
 74
     0
  0
LTYPE
  5
101C5
330
1012D
100
AcDbSymbolTableRecord
100
AcDbLinetypeTableRecord
  2
ACAD_ISO08W100
 70
     0
  3
ISO long-dash short-dash ____ __ ____ __ ____ _
 72
    65
 73
     4
 40
36.0
 49
24.0
 74
     0
 49
-3.0
 74
     0
 49
6.0
 74
     0
 49
-3.0
 74
     0
  0
LTYPE
  5
101C6
330
1012D
100
AcDbSymbolTableRecord
100
AcDbLinetypeTableRecord
  2
ACAD_ISO07W100
 70
     0
  3
ISO dot . . . . . . . . . . . . . . . . . . . . 
 72
    65
 73
     2
 40
3.0
 49
0.0
 74
     0
 49
-3.0
 74
     0
  0
LTYPE
  5
101C7
330
1012D
100
AcDbSymbolTableRecord
100
AcDbLinetypeTableRecord
  2
ACAD_ISO06W100
 70
     0
  3
ISO long-dash triple-dot ____ ... ____ ... ____
 72
    65
 73
     8
 40
36.0
 49
24.0
 74
     0
 49
-3.0
 74
     0
 49
0.0
 74
     0
 49
-3.0
 74
     0
 49
0.0
 74
     0
 49
-3.0
 74
     0
 49
0.0
 74
     0
 49
-3.0
 74
     0
  0
LTYPE
  5
101C8
330
1012D
100
AcDbSymbolTableRecord
100
AcDbLinetypeTableRecord
  2
ACAD_ISO13W100
 70
     0
  3
ISO double-dash double-dot __ __ . . __ __ . . _
 72
    65
 73
     8
 40
36.0
 49
12.0
 74
     0
 49
-3.0
 74
     0
 49
12.0
 74
     0
 49
-3.0
 74
     0
 49
0.0
 74
     0
 49
-3.0
 74
     0
 49
0.0
 74
     0
 49
-3.0
 74
     0
  0
LTYPE
  5
101C9
330
1012D
100
AcDbSymbolTableRecord
100
AcDbLinetypeTableRecord
  2
ACAD_ISO12W100
 70
     0
  3
ISO dash double-dot __ . . __ . . __ . . __ . . 
 72
    65
 73
     6
 40
21.0
 49
12.0
 74
     0
 49
-3.0
 74
     0
 49
0.0
 74
     0
 49
-3.0
 74
     0
 49
0.0
 74
     0
 49
-3.0
 74
     0
  0
LTYPE
  5
101CA
330
1012D
100
AcDbSymbolTableRecord
100
AcDbLinetypeTableRecord
  2
ACAD_ISO11W100
 70
     0
  3
ISO double-dash dot __ __ . __ __ . __ __ . __ _
 72
    65
 73
     6
 40
33.0
 49
12.0
 74
     0
 49
-3.0
 74
     0
 49
12.0
 74
     0
 49
-3.0
 74
     0
 49
0.0
 74
     0
 49
-3.0
 74
     0
  0
LTYPE
  5
101CB
330
1012D
100
AcDbSymbolTableRecord
100
AcDbLinetypeTableRecord
  2
ACAD_ISO10W100
 70
     0
  3
ISO dash dot __ . __ . __ . __ . __ . __ . __ . 
 72
    65
 73
     4
 40
18.0
 49
12.0
 74
     0
 49
-3.0
 74
     0
 49
0.0
 74
     0
 49
-3.0
 74
     0
  0
LTYPE
  5
101CC
330
1012D
100
AcDbSymbolTableRecord
100
AcDbLinetypeTableRecord
  2
BORDER
 70
     0
  3
Border __ __ . __ __ . __ __ . __ __ . __ __ .
 72
    65
 73
     6
 40
44.45
 49
12.7
 74
     0
 49
-6.35
 74
     0
 49
12.7
 74
     0
 49
-6.35
 74
     0
 49
0.0
 74
     0
 49
-6.35
 74
     0
  0
LTYPE
  5
101CE
330
1012D
100
AcDbSymbolTableRecord
100
AcDbLinetypeTableRecord
  2
BATTING
 70
     0
  3
Batting SSSSSSSSSSSSSSSSSSSSSSSSSSSSSSSSSSSSSSSSSSSSSSS
 72
    65
 73
     4
 40
10.16254
 49
0.00254
 74
     0
 49
-2.54
 74
     2
 75
     0
340
101CD
 46
2.54
 50
0.0
 44
-2.54
 45
0.0
  9
BAT
 49
-5.08
 74
     2
 75
     0
340
101CD
 46
2.54
 50
180.0
 44
2.54
 45
0.0
  9
BAT
 49
-2.54
 74
     0
  0
LTYPE
  5
101CF
330
1012D
100
AcDbSymbolTableRecord
100
AcDbLinetypeTableRecord
  2
ACAD_ISO15W100
 70
     0
  3
ISO double-dash triple-dot __ __ . . . __ __ . .
 72
    65
 73
    10
 40
39.0
 49
12.0
 74
     0
 49
-3.0
 74
     0
 49
12.0
 74
     0
 49
-3.0
 74
     0
 49
0.0
 74
     0
 49
-3.0
 74
     0
 49
0.0
 74
     0
 49
-3.0
 74
     0
 49
0.0
 74
     0
 49
-3.0
 74
     0
  0
LTYPE
  5
101D0
330
1012D
100
AcDbSymbolTableRecord
100
AcDbLinetypeTableRecord
  2
ACAD_ISO14W100
 70
     0
  3
ISO dash triple-dot __ . . . __ . . . __ . . . _
 72
    65
 73
     8
 40
24.0
 49
12.0
 74
     0
 49
-3.0
 74
     0
 49
0.0
 74
     0
 49
-3.0
 74
     0
 49
0.0
 74
     0
 49
-3.0
 74
     0
 49
0.0
 74
     0
 49
-3.0
 74
     0
  0
LTYPE
  5
101D1
330
1012D
100
AcDbSymbolTableRecord
100
AcDbLinetypeTableRecord
  2
CENTER2
 70
     0
  3
Center (.5x) ___ _ ___ _ ___ _ ___ _ ___ _ ___
 72
    65
 73
     4
 40
28.575
 49
19.05
 74
     0
 49
-3.175
 74
     0
 49
3.175
 74
     0
 49
-3.175
 74
     0
  0
LTYPE
  5
101D2
330
1012D
100
AcDbSymbolTableRecord
100
AcDbLinetypeTableRecord
  2
CENTER
 70
     0
  3
Center ____ _ ____ _ ____ _ ____ _ ____ _ ____
 72
    65
 73
     4
 40
50.8
 49
31.75
 74
     0
 49
-6.35
 74
     0
 49
6.35
 74
     0
 49
-6.35
 74
     0
  0
LTYPE
  5
101D3
330
1012D
100
AcDbSymbolTableRecord
100
AcDbLinetypeTableRecord
  2
BORDERX2
 70
     0
  3
Border (2x) ____  ____  .  ____  ____  .  ___
 72
    65
 73
     6
 40
88.89999999999999
 49
25.4
 74
     0
 49
-12.7
 74
     0
 49
25.4
 74
     0
 49
-12.7
 74
     0
 49
0.0
 74
     0
 49
-12.7
 74
     0
  0
LTYPE
  5
101D4
330
1012D
100
AcDbSymbolTableRecord
100
AcDbLinetypeTableRecord
  2
BORDER2
 70
     0
  3
Border (.5x) __.__.__.__.__.__.__.__.__.__.__.
 72
    65
 73
     6
 40
22.225
 49
6.35
 74
     0
 49
-3.175
 74
     0
 49
6.35
 74
     0
 49
-3.175
 74
     0
 49
0.0
 74
     0
 49
-3.175
 74
     0
  0
LTYPE
  5
101D5
330
1012D
100
AcDbSymbolTableRecord
100
AcDbLinetypeTableRecord
  2
DASHDOTX2
 70
     0
  3
Dash dot (2x) ____  .  ____  .  ____  .  ___
 72
    65
 73
     4
 40
50.8
 49
25.4
 74
     0
 49
-12.7
 74
     0
 49
0.0
 74
     0
 49
-12.7
 74
     0
  0
LTYPE
  5
101D6
330
1012D
100
AcDbSymbolTableRecord
100
AcDbLinetypeTableRecord
  2
DASHDOT2
 70
     0
  3
Dash dot (.5x) _._._._._._._._._._._._._._._.
 72
    65
 73
     4
 40
12.7
 49
6.35
 74
     0
 49
-3.175
 74
     0
 49
0.0
 74
     0
 49
-3.175
 74
     0
  0
LTYPE
  5
101D7
330
1012D
100
AcDbSymbolTableRecord
100
AcDbLinetypeTableRecord
  2
DASHDOT
 70
     0
  3
Dash dot __ . __ . __ . __ . __ . __ . __ . __
 72
    65
 73
     4
 40
25.4
 49
12.7
 74
     0
 49
-6.35
 74
     0
 49
0.0
 74
     0
 49
-6.35
 74
     0
  0
LTYPE
  5
101D8
330
1012D
100
AcDbSymbolTableRecord
100
AcDbLinetypeTableRecord
  2
CENTERX2
 70
     0
  3
Center (2x) ________  __  ________  __  _____
 72
    65
 73
     4
 40
101.6
 49
63.5
 74
     0
 49
-12.7
 74
     0
 49
12.7
 74
     0
 49
-12.7
 74
     0
  0
LTYPE
  5
101D9
330
1012D
100
AcDbSymbolTableRecord
100
AcDbLinetypeTableRecord
  2
DIVIDE
 70
     0
  3
Divide ____ . . ____ . . ____ . . ____ . . ____
 72
    65
 73
     6
 40
31.75
 49
12.7
 74
     0
 49
-6.35
 74
     0
 49
0.0
 74
     0
 49
-6.35
 74
     0
 49
0.0
 74
     0
 49
-6.35
 74
     0
  0
LTYPE
  5
101DA
330
1012D
100
AcDbSymbolTableRecord
100
AcDbLinetypeTableRecord
  2
DASHEDX2
 70
     0
  3
Dashed (2x) ____  ____  ____  ____  ____  ___
 72
    65
 73
     2
 40
38.09999999999999
 49
25.4
 74
     0
 49
-12.7
 74
     0
  0
LTYPE
  5
101DB
330
1012D
100
AcDbSymbolTableRecord
100
AcDbLinetypeTableRecord
  2
DASHED2
 70
     0
  3
Dashed (.5x) _ _ _ _ _ _ _ _ _ _ _ _ _ _ _ _ _ 
 72
    65
 73
     2
 40
9.524999999999999
 49
6.35
 74
     0
 49
-3.175
 74
     0
  0
LTYPE
  5
101DC
330
1012D
100
AcDbSymbolTableRecord
100
AcDbLinetypeTableRecord
  2
DASHED
 70
     0
  3
Dashed __ __ __ __ __ __ __ __ __ __ __ __ __ _
 72
    65
 73
     2
 40
19.05
 49
12.7
 74
     0
 49
-6.35
 74
     0
  0
LTYPE
  5
101DD
330
1012D
100
AcDbSymbolTableRecord
100
AcDbLinetypeTableRecord
  2
DOT2
 70
     0
  3
Dot (.5x) ........................................
 72
    65
 73
     2
 40
3.175
 49
0.0
 74
     0
 49
-3.175
 74
     0
  0
LTYPE
  5
101DE
330
1012D
100
AcDbSymbolTableRecord
100
AcDbLinetypeTableRecord
  2
DOT
 70
     0
  3
Dot . . . . . . . . . . . . . . . . . . . . . . . .
 72
    65
 73
     2
 40
6.35
 49
0.0
 74
     0
 49
-6.35
 74
     0
  0
LTYPE
  5
101DF
330
1012D
100
AcDbSymbolTableRecord
100
AcDbLinetypeTableRecord
  2
DIVIDEX2
 70
     0
  3
Divide (2x) ________  .  .  ________  .  .  _
 72
    65
 73
     6
 40
63.5
 49
25.4
 74
     0
 49
-12.7
 74
     0
 49
0.0
 74
     0
 49
-12.7
 74
     0
 49
0.0
 74
     0
 49
-12.7
 74
     0
  0
LTYPE
  5
101E0
330
1012D
100
AcDbSymbolTableRecord
100
AcDbLinetypeTableRecord
  2
DIVIDE2
 70
     0
  3
Divide (.5x) __..__..__..__..__..__..__..__.._
 72
    65
 73
     6
 40
15.875
 49
6.35
 74
     0
 49
-3.175
 74
     0
 49
0.0
 74
     0
 49
-3.175
 74
     0
 49
0.0
 74
     0
 49
-3.175
 74
     0
  0
LTYPE
  5
101E1
330
1012D
100
AcDbSymbolTableRecord
100
AcDbLinetypeTableRecord
  2
FENCELINE1
 70
     0
  3
Fenceline circle ----0-----0----0-----0----0-----0--
 72
    65
 73
     4
 40
36.83
 49
6.35
 74
     0
 49
-2.54
 74
     2
 75
     0
340
101CD
 46
2.54
 50
0.0
 44
-2.54
 45
0.0
  9
CIRC1
 49
-2.54
 74
     0
 49
25.4
 74
     0
  0
LTYPE
  5
101E3
330
1012D
100
AcDbSymbolTableRecord
100
AcDbLinetypeTableRecord
  2
DRAINAGE2
 70
     0
  3
Drainage reversed----<----<----<----
 72
    65
 73
     2
 40
10.16
 49
5.08
 74
     2
 75
     0
340
101E2
 46
2.54
 50
0.0
 44
0.0
 45
0.0
  9
RIGHT_ARROW
 49
5.08
 74
     0
  0
LTYPE
  5
101E4
330
1012D
100
AcDbSymbolTableRecord
100
AcDbLinetypeTableRecord
  2
DRAINAGE
 70
     0
  3
Drainage ---->---->---->----
 72
    65
 73
     2
 40
10.16
 49
5.08
 74
     2
 75
     0
340
101E2
 46
2.54
 50
180.0
 44
0.0
 45
0.0
  9
RIGHT_ARROW
 49
5.08
 74
     0
  0
LTYPE
  5
101E5
330
1012D
100
AcDbSymbolTableRecord
100
AcDbLinetypeTableRecord
  2
DOTX2
 70
     0
  3
Dot (2x) .  .  .  .  .  .  .  .  .  .  .  .  .  .
 72
    65
 73
     2
 40
12.7
 49
0.0
 74
     0
 49
-12.7
 74
     0
  0
LTYPE
  5
101E6
330
1012D
100
AcDbSymbolTableRecord
100
AcDbLinetypeTableRecord
  2
HIDDEN2
 70
     0
  3
Hidden (.5x) _ _ _ _ _ _ _ _ _ _ _ _ _ _ _ _ _ 
 72
    65
 73
     2
 40
4.762499999999999
 49
3.175
 74
     0
 49
-1.5875
 74
     0
  0
LTYPE
  5
101E7
330
1012D
100
AcDbSymbolTableRecord
100
AcDbLinetypeTableRecord
  2
HIDDEN
 70
     0
  3
Hidden __ __ __ __ __ __ __ __ __ __ __ __ __ __
 72
    65
 73
     2
 40
9.524999999999999
 49
6.35
 74
     0
 49
-3.175
 74
     0
  0
LTYPE
  5
101E9
330
1012D
100
AcDbSymbolTableRecord
100
AcDbLinetypeTableRecord
  2
GAS_LINE
 70
     0
  3
Gas line ----GAS----GAS----GAS----GAS----GAS----GAS--
 72
    65
 73
     3
 40
24.13
 49
12.7
 74
     0
 49
-5.08
 74
     2
 75
     0
340
101E8
 46
2.54
 50
0.0
 44
-2.54
 45
-1.27
  9
GAS
 49
-6.35
 74
     0
  0
LTYPE
  5
101EA
330
1012D
100
AcDbSymbolTableRecord
100
AcDbLinetypeTableRecord
  2
FENCELINE2
 70
     0
  3
Fenceline square ----[]-----[]----[]-----[]----[]---
 72
    65
 73
     4
 40
36.83
 49
6.35
 74
     0
 49
-2.54
 74
     2
 75
     0
340
101CD
 46
2.54
 50
0.0
 44
-2.54
 45
0.0
  9
BOX
 49
-2.54
 74
     0
 49
25.4
 74
     0
  0
LTYPE
  5
101EB
330
1012D
100
AcDbSymbolTableRecord
100
AcDbLinetypeTableRecord
  2
PHANTOM2
 70
     0
  3
Phantom (.5x) ___ _ _ ___ _ _ ___ _ _ ___ _ _
 72
    65
 73
     6
 40
31.75
 49
15.875
 74
     0
 49
-3.175
 74
     0
 49
3.175
 74
     0
 49
-3.175
 74
     0
 49
3.175
 74
     0
 49
-3.175
 74
     0
  0
LTYPE
  5
101EC
330
1012D
100
AcDbSymbolTableRecord
100
AcDbLinetypeTableRecord
  2
PHANTOM
 70
     0
  3
Phantom ______  __  __  ______  __  __  ______ 
 72
    65
 73
     6
 40
63.50000000000001
 49
31.75
 74
     0
 49
-6.35
 74
     0
 49
6.35
 74
     0
 49
-6.35
 74
     0
 49
6.35
 74
     0
 49
-6.35
 74
     0
  0
LTYPE
  5
101ED
330
1012D
100
AcDbSymbolTableRecord
100
AcDbLinetypeTableRecord
  2
HOT_WATER_SUPPLY
 70
     0
  3
Hot water supply ---- HW ---- HW ---- HW ----
 72
    65
 73
     3
 40
22.86
 49
12.7
 74
     0
 49
-5.08
 74
     2
 75
     0
340
101E8
 46
2.54
 50
0.0
 44
-2.54
 45
-1.27
  9
HW
 49
-5.08
 74
     0
  0
LTYPE
  5
101EE
330
1012D
100
AcDbSymbolTableRecord
100
AcDbLinetypeTableRecord
  2
HIDDENX2
 70
     0
  3
Hidden (2x) ____ ____ ____ ____ ____ ____ ____ 
 72
    65
 73
     2
 40
19.05
 49
12.7
 74
     0
 49
-6.35
 74
     0
  0
LTYPE
  5
101EF
330
1012D
100
AcDbSymbolTableRecord
100
AcDbLinetypeTableRecord
  2
ZIGZAG
 70
     0
  3
Zig zag /\/\/\/\/\/\/\/\/\/\/\/\/\/\/\/\/\/\/\/\/\/\/\/
 72
    65
 73
     4
 40
20.32254
 49
0.00254
 74
     0
 49
-5.08
 74
     2
 75
     0
340
101CD
 46
5.08
 50
0.0
 44
-5.08
 45
0.0
  9
ZIG
 49
-10.16
 74
     2
 75
     0
340
101CD
 46
5.08
 50
180.0
 44
5.08
 45
0.0
  9
ZIG
 49
-5.08
 74
     0
  0
LTYPE
  5
101F0
330
1012D
100
AcDbSymbolTableRecord
100
AcDbLinetypeTableRecord
  2
TRACKS
 70
     0
  3
Tracks -|-|-|-|-|-|-|-|-|-|-|-|-|-|-|-|-|-|-|-|-|-|-|-|-
 72
    65
 73
     2
 40
7.62
 49
3.81
 74
     2
 75
     0
340
101CD
 46
6.35
 50
0.0
 44
0.0
 45
0.0
  9
TRACK1
 49
3.81
 74
     0
  0
LTYPE
  5
101F1
330
1012D
100
AcDbSymbolTableRecord
100
AcDbLinetypeTableRecord
  2
PHANTOMX2
 70
     0
  3
Phantom (2x) ____________    ____    ____   _
 72
    65
 73
     6
 40
127.0
 49
63.5
 74
     0
 49
-12.7
 74
     0
 49
12.7
 74
     0
 49
-12.7
 74
     0
 49
12.7
 74
     0
 49
-12.7
 74
     0
  0
LTYPE
  5
101F2
330
1012D
100
AcDbSymbolTableRecord
100
AcDbLinetypeTableRecord
  2
ACAD_ISO05W100
 70
     0
  3
ISO long-dash double-dot ____ .. ____ .. ____ . 
 72
    65
 73
     6
 40
33.0
 49
24.0
 74
     0
 49
-3.0
 74
     0
 49
0.0
 74
     0
 49
-3.0
 74
     0
 49
0.0
 74
     0
 49
-3.0
 74
     0
  0
LTYPE
  5
101F3
330
1012D
100
AcDbSymbolTableRecord
100
AcDbLinetypeTableRecord
  2
ACAD_ISO04W100
 70
     0
  3
ISO long-dash dot ____ . ____ . ____ . ____ . _
 72
    65
 73
     4
 40
30.0
 49
24.0
 74
     0
 49
-3.0
 74
     0
 49
0.0
 74
     0
 49
-3.0
 74
     0
  0
LTYPE
  5
101F4
330
1012D
100
AcDbSymbolTableRecord
100
AcDbLinetypeTableRecord
  2
ACAD_ISO03W100
 70
     0
  3
ISO dash space __    __    __    __    __    __
 72
    65
 73
     2
 40
30.0
 49
12.0
 74
     0
 49
-18.0
 74
     0
  0
LTYPE
  5
101F5
330
1012D
100
AcDbSymbolTableRecord
100
AcDbLinetypeTableRecord
  2
ACAD_ISO02W100
 70
     0
  3
ISO dash __ __ __ __ __ __ __ __ __ __ __ __ __
 72
    65
 73
     2
 40
15.0
 49
12.0
 74
     0
 49
-3.0
 74
     0
  0
ENDTAB
  0
TABLE
  2
LAYER
  5
1012B
330
0
100
AcDbSymbolTable
 70
     3
  0
LAYER
  5
10138
330
1012B
100
AcDbSymbolTableRecord
100
AcDbLayerTableRecord
  2
0
 70
     0
 62
     7
  6
CONTINUOUS
  0
LAYER
  5
101F6
330
1012B
100
AcDbSymbolTableRecord
100
AcDbLayerTableRecord
  2
BODY002
 70
     0
 62
     7
  6
CONTINUOUS
  0
LAYER
  5
101F7
330
1012B
100
AcDbSymbolTableRecord
100
AcDbLayerTableRecord
  2
NONE
 70
     0
 62
     7
  6
CONTINUOUS
  0
ENDTAB
  0
TABLE
  2
STYLE
  5
1012C
330
0
100
AcDbSymbolTable
 70
     5
  0
STYLE
  5
10139
330
1012C
100
AcDbSymbolTableRecord
100
AcDbTextStyleTableRecord
  2
STANDARD
 70
     0
 40
0.0
 41
1.0
 50
0.0
 71
     0
 42
2.5
  3
txt
  4

  0
STYLE
  5
101C2
330
1012C
100
AcDbSymbolTableRecord
100
AcDbTextStyleTableRecord
  2
QCADDIMTEXTSTYLE
 70
     0
 40
0.0
 41
1.0
 50
0.0
 71
     0
 42
2.5
  3

  4

  0
STYLE
  5
101CD
330
1012C
100
AcDbSymbolTableRecord
100
AcDbTextStyleTableRecord
  2
TEXTSTYLE0
 70
     0
 40
0.0
 41
1.0
 50
0.0
 71
     0
 42
2.5
  3
ltypeshp.shx
  4

  0
STYLE
  5
101E2
330
1012C
100
AcDbSymbolTableRecord
100
AcDbTextStyleTableRecord
  2
TEXTSTYLE1
 70
     0
 40
0.0
 41
1.0
 50
0.0
 71
     0
 42
2.5
  3
qcadshp.shx
  4

  0
STYLE
  5
101E8
330
1012C
100
AcDbSymbolTableRecord
100
AcDbTextStyleTableRecord
  2
TEXTSTYLE2
 70
     0
 40
0.0
 41
1.0
 50
0.0
 71
     0
 42
2.5
  3
STANDARD
  4

  0
ENDTAB
  0
TABLE
  2
VIEW
  5
1012E
330
0
100
AcDbSymbolTable
 70
     0
  0
ENDTAB
  0
TABLE
  2
UCS
  5
1012F
330
0
100
AcDbSymbolTable
 70
     0
  0
ENDTAB
  0
TABLE
  2
APPID
  5
10131
330
0
100
AcDbSymbolTable
 70
     3
  0
APPID
  5
1013A
330
10131
100
AcDbSymbolTableRecord
100
AcDbRegAppTableRecord
  2
ACAD
 70
     0
  0
APPID
  5
10185
330
10131
100
AcDbSymbolTableRecord
100
AcDbRegAppTableRecord
  2
QCAD
 70
     0
  0
APPID
  5
1022D
330
10131
100
AcDbSymbolTableRecord
100
AcDbRegAppTableRecord
  2
ACAD_MLEADERVER
 70
     0
  0
ENDTAB
  0
TABLE
  2
DIMSTYLE
  5
10132
330
0
100
AcDbSymbolTable
 70
     2
  0
DIMSTYLE
105
1014E
330
10132
100
AcDbSymbolTableRecord
100
AcDbDimStyleTableRecord
  2
STANDARD
 70
     0
  3

  4

  5

  6

  7

 40
1.0
 41
0.18
 42
0.0625
 43
0.38
 44
0.18
 45
0.0
 46
0.0
 47
0.0
 48
0.0
140
0.18
141
0.09
142
0.0
143
25.4
144
1.0
145
0.0
146
1.0
147
0.09
 71
     0
 72
     0
 73
     1
 74
     1
 75
     0
 76
     0
 77
     0
 78
     0
170
     0
171
     2
172
     0
173
     0
174
     0
175
     0
176
     0
177
     0
178
     0
270
     2
271
     4
272
     4
273
     2
274
     2
340
10139
275
     0
280
     0
281
     0
282
     0
283
     1
284
     0
285
     0
286
     0
287
     3
288
     0
  0
DIMSTYLE
105
101C3
330
10132
100
AcDbSymbolTableRecord
100
AcDbDimStyleTableRecord
  2
QCADDIMSTYLE
 70
     0
  3

  4

  5

  6

  7

 40
1.0
 41
0.18
 42
0.0625
 43
0.38
 44
0.18
 45
0.0
 46
0.0
 47
0.0
 48
0.0
140
0.18
141
0.09
142
0.0
143
25.4
144
1.0
145
0.0
146
1.0
147
0.09
 71
     0
 72
     0
 73
     1
 74
     1
 75
     0
 76
     0
 77
     0
 78
     0
170
     0
171
     2
172
     0
173
     0
174
     0
175
     0
176
     0
177
     0
178
     0
270
     2
271
     4
272
     4
273
     2
274
     2
340
101C2
275
     0
280
     0
281
     0
282
     0
283
     1
284
     0
285
     0
286
     0
287
     5
288
     0
  0
ENDTAB
  0
TABLE
  2
BLOCK_RECORD
  5
1012A
330
0
100
AcDbSymbolTable
 70
     0
  0
BLOCK_RECORD
  5
10146
330
1012A
100
AcDbSymbolTableRecord
100
AcDbBlockTableRecord
  2
*MODEL_SPACE
  0
BLOCK_RECORD
  5
10142
330
1012A
100
AcDbSymbolTableRecord
100
AcDbBlockTableRecord
  2
*PAPER_SPACE
  0
ENDTAB
  0
ENDSEC
  0
SECTION
  2
BLOCKS
  0
BLOCK
  5
10147
330
10146
100
AcDbEntity
  8
0
100
AcDbBlockBegin
  2
*MODEL_SPACE
 70
     0
 10
0.0
 20
0.0
 30
0.0
  3
*MODEL_SPACE
  1

  0
ENDBLK
  5
10148
330
10146
100
AcDbEntity
  8
0
100
AcDbBlockEnd
  0
BLOCK
  5
10143
330
10142
100
AcDbEntity
 67
     1
  8
0
100
AcDbBlockBegin
  2
*PAPER_SPACE
 70
     0
 10
0.0
 20
0.0
 30
0.0
  3
*PAPER_SPACE
  1

  0
ENDBLK
  5
10144
330
10142
100
AcDbEntity
 67
     1
  8
0
100
AcDbBlockEnd
  0
ENDSEC
  0
SECTION
  2
ENTITIES
  0
LINE
  5
A08
330
10146
100
AcDbEntity
  8
BODY002
100
AcDbLine
 10
35.0
 20
12.0
 30
0.0
 11
35.0
 21
12.0
 31
-1.6
  0
LINE
  5
A09
330
10146
100
AcDbEntity
  8
BODY002
100
AcDbLine
 10
35.0
 20
92.0
 30
0.0
 11
35.0
 21
92.0
 31
-1.6
  0
LINE
  5
A0A
330
10146
100
AcDbEntity
  8
BODY002
100
AcDbLine
 10
35.0
 20
12.0
 30
0.0
 11
35.0
 21
92.0
 31
0.0
  0
LINE
  5
A0B
330
10146
100
AcDbEntity
  8
BODY002
100
AcDbLine
 10
35.0
 20
12.0
 30
-1.6
 11
35.0
 21
92.0
 31
-1.6
  0
LINE
  5
A0C
330
10146
100
AcDbEntity
  8
BODY002
100
AcDbLine
 10
35.0
 20
12.0
 30
0.0
 11
35.0
 21
12.0
 31
-1.6
  0
LINE
  5
A0D
330
10146
100
AcDbEntity
  8
BODY002
100
AcDbLine
 10
23.0
 20
0.0
 30
0.0
 11
23.0
 21
0.0
 31
-1.6
  0
ARC
  5
A0E
330
10146
100
AcDbEntity
  8
BODY002
100
AcDbCircle
 10
23.0
 20
12.0
 30
0.0
 40
12.0
100
AcDbArc
 50
270.0
 51
0.0000000000000085
  0
ARC
  5
A0F
330
10146
100
AcDbEntity
  8
BODY002
100
AcDbCircle
 10
23.0
 20
12.0
 30
-1.6
 40
12.0
100
AcDbArc
 50
270.0
 51
0.0000000000000085
  0
LINE
  5
A10
330
10146
100
AcDbEntity
  8
BODY002
100
AcDbLine
 10
35.0
 20
92.0
 30
0.0
 11
35.0
 21
92.0
 31
-1.6
  0
LINE
  5
A11
330
10146
100
AcDbEntity
  8
BODY002
100
AcDbLine
 10
-35.0
 20
92.0
 30
0.0
 11
-35.0
 21
92.0
 31
-1.6
  0
LINE
  5
A12
330
10146
100
AcDbEntity
  8
BODY002
100
AcDbLine
 10
35.0
 20
92.0
 30
0.0
 11
-35.0
 21
92.0
 31
0.0
  0
LINE
  5
A13
330
10146
100
AcDbEntity
  8
BODY002
100
AcDbLine
 10
35.0
 20
92.0
 30
-1.6
 11
-35.0
 21
92.0
 31
-1.6
  0
LINE
  5
A14
330
10146
100
AcDbEntity
  8
BODY002
100
AcDbLine
 10
35.0
 20
12.0
 30
0.0
 11
35.0
 21
92.0
 31
0.0
  0
ARC
  5
A15
330
10146
100
AcDbEntity
  8
BODY002
100
AcDbCircle
 10
23.0
 20
12.0
 30
0.0
 40
12.0
100
AcDbArc
 50
270.0
 51
0.0000000000000085
  0
LINE
  5
A16
330
10146
100
AcDbEntity
  8
BODY002
100
AcDbLine
 10
35.0
 20
92.0
 30
0.0
 11
-35.0
 21
92.0
 31
0.0
  0
LINE
  5
A17
330
10146
100
AcDbEntity
  8
BODY002
100
AcDbLine
 10
-23.0
 20
0.0
 30
0.0
 11
-12.85
 21
0.0
 31
0.0
  0
LINE
  5
A19
330
10146
100
AcDbEntity
  8
BODY002
100
AcDbLine
 10
12.85
 20
0.0
 30
0.0
 11
23.0
 21
0.0
 31
0.0
  0
LINE
  5
A1A
330
10146
100
AcDbEntity
  8
BODY002
100
AcDbLine
 10
-35.0
 20
92.0
 30
0.0
 11
-35.0
 21
12.0
 31
0.0
  0
ARC
  5
A1B
330
10146
100
AcDbEntity
  8
BODY002
100
AcDbCircle
 10
-23.0
 20
12.0
 30
0.0
 40
12.0
100
AcDbArc
 50
180.0
 51
270.0
  0
CIRCLE
  5
A1C
330
10146
100
AcDbEntity
  8
BODY002
100
AcDbCircle
 10
20.0
 20
5.0
 30
0.0
 40
1.55
  0
ARC
  5
A1D
330
10146
100
AcDbEntity
  8
BODY002
100
AcDbCircle
 10
-13.0
 20
17.0
 30
0.0
 40
0.5
100
AcDbArc
 50
90.0
 51
270.0
  0
LINE
  5
A1E
330
10146
100
AcDbEntity
  8
BODY002
100
AcDbLine
 10
-13.0
 20
16.5
 30
0.0
 11
13.0
 21
16.5
 31
0.0
  0
LINE
  5
A1F
330
10146
100
AcDbEntity
  8
BODY002
100
AcDbLine
 10
-13.0
 20
17.5
 30
0.0
 11
13.0
 21
17.5
 31
0.0
  0
ARC
  5
A20
330
10146
100
AcDbEntity
  8
BODY002
100
AcDbCircle
 10
13.0
 20
17.0
 30
0.0
 40
0.5
100
AcDbArc
 50
270.0
 51
90.0
  0
ARC
  5
A2D
330
10146
100
AcDbEntity
  8
BODY002
100
AcDbCircle
 10
16.5
 20
21.5
 30
0.0
 40
1.0
100
AcDbArc
 50
270.0
 51
0.0
  0
LINE
  5
A2E
330
10146
100
AcDbEntity
  8
BODY002
100
AcDbLine
 10
17.5
 20
21.5
 30
0.0
 11
17.5
 21
35.5
 31
0.0
  0
LINE
  5
A2F
330
10146
100
AcDbEntity
  8
BODY002
100
AcDbLine
 10
16.5
 20
20.5
 30
0.0
 11
2.5
 21
20.5
 31
0.0
  0
ARC
  5
A30
330
10146
100
AcDbEntity
  8
BODY002
100
AcDbCircle
 10
17.0
 20
35.5
 30
0.0
 40
0.5
100
AcDbArc
 50
0.0000000000016284
 51
180.0
  0
ARC
  5
A31
330
10146
100
AcDbEntity
  8
BODY002
100
AcDbCircle
 10
2.5
 20
21.0
 30
0.0
 40
0.5
100
AcDbArc
 50
90.0
 51
270.0
  0
LINE
  5
A32
330
10146
100
AcDbEntity
  8
BODY002
100
AcDbLine
 10
16.5
 20
35.5
 30
0.0
 11
16.5
 21
21.5
 31
0.0
  0
LINE
  5
A33
330
10146
100
AcDbEntity
  8
BODY002
100
AcDbLine
 10
2.5
 20
21.5
 30
0.0
 11
16.5
 21
21.5
 31
0.0
  0
CIRCLE
  5
A38
330
10146
100
AcDbEntity
  8
BODY002
100
AcDbCircle
 10
-20.0
 20
5.0
 30
0.0
 40
1.55
  0
LINE
  5
A3D
330
10146
100
AcDbEntity
  8
BODY002
100
AcDbLine
 10
-2.5
 20
21.5
 30
0.0
 11
-16.5
 21
21.5
 31
0.0
  0
ARC
  5
A3E
330
10146
100
AcDbEntity
  8
BODY002
100
AcDbCircle
 10
-2.5
 20
21.0
 30
0.0
 40
0.5
100
AcDbArc
 50
270.0
 51
90.0
  0
LINE
  5
A3F
330
10146
100
AcDbEntity
  8
BODY002
100
AcDbLine
 10
-16.5
 20
21.5
 30
0.0
 11
-16.5
 21
35.5
 31
0.0
  0
LINE
  5
A40
330
10146
100
AcDbEntity
  8
BODY002
100
AcDbLine
 10
-16.5
 20
20.5
 30
0.0
 11
-2.5
 21
20.5
 31
0.0
  0
ARC
  5
A41
330
10146
100
AcDbEntity
  8
BODY002
100
AcDbCircle
 10
-17.0
 20
35.5
 30
0.0
 40
0.5
100
AcDbArc
 50
0.0000000000040711
 51
180.0
  0
ARC
  5
A42
330
10146
100
AcDbEntity
  8
BODY002
100
AcDbCircle
 10
-16.5
 20
21.5
 30
0.0
 40
1.0
100
AcDbArc
 50
180.0
 51
270.0
  0
LINE
  5
A43
330
10146
100
AcDbEntity
  8
BODY002
100
AcDbLine
 10
-17.5
 20
35.5
 30
0.0
 11
-17.5
 21
21.5
 31
0.0
  0
CIRCLE
  5
A50
330
10146
100
AcDbEntity
  8
BODY002
100
AcDbCircle
 10
-29.0
 20
20.0
 30
0.0
 40
1.55
  0
ARC
  5
A51
330
10146
100
AcDbEntity
  8
BODY002
100
AcDbCircle
 10
21.0
 20
51.0
 30
0.0
 40
0.5
100
AcDbArc
 50
0.0000000000195413
 51
180.0
  0
LINE
  5
A52
330
10146
100
AcDbEntity
  8
BODY002
100
AcDbLine
 10
20.5
 20
51.0
 30
0.0
 11
20.5
 21
25.0
 31
0.0
  0
LINE
  5
A53
330
10146
100
AcDbEntity
  8
BODY002
100
AcDbLine
 10
21.5
 20
51.0
 30
0.0
 11
21.5
 21
25.0
 31
0.0
  0
ARC
  5
A54
330
10146
100
AcDbEntity
  8
BODY002
100
AcDbCircle
 10
21.0
 20
25.0
 30
0.0
 40
0.5
100
AcDbArc
 50
180.0
 51
0.0000000000105849
  0
LINE
  5
A65
330
10146
100
AcDbEntity
  8
BODY002
100
AcDbLine
 10
2.5
 20
54.5
 30
0.0
 11
16.5
 21
54.5
 31
0.0
  0
ARC
  5
A66
330
10146
100
AcDbEntity
  8
BODY002
100
AcDbCircle
 10
2.5
 20
55.0
 30
0.0
 40
0.5
100
AcDbArc
 50
90.0
 51
270.0
  0
LINE
  5
A67
330
10146
100
AcDbEntity
  8
BODY002
100
AcDbLine
 10
16.5
 20
54.5
 30
0.0
 11
16.5
 21
40.5
 31
0.0
  0
LINE
  5
A68
330
10146
100
AcDbEntity
  8
BODY002
100
AcDbLine
 10
16.5
 20
55.5
 30
0.0
 11
2.5
 21
55.5
 31
0.0
  0
ARC
  5
A69
330
10146
100
AcDbEntity
  8
BODY002
100
AcDbCircle
 10
17.0
 20
40.5
 30
0.0
 40
0.5
100
AcDbArc
 50
180.0
 51
0.0000000000056996
  0
ARC
  5
A6A
330
10146
100
AcDbEntity
  8
BODY002
100
AcDbCircle
 10
16.5
 20
54.5
 30
0.0
 40
1.0
100
AcDbArc
 50
0.0
 51
90.0
  0
LINE
  5
A6B
330
10146
100
AcDbEntity
  8
BODY002
100
AcDbLine
 10
17.5
 20
40.5
 30
0.0
 11
17.5
 21
54.5
 31
0.0
  0
CIRCLE
  5
A7C
330
10146
100
AcDbEntity
  8
BODY002
100
AcDbCircle
 10
23.0
 20
60.0
 30
0.0
 40
1.55
  0
ARC
  5
A7D
330
10146
100
AcDbEntity
  8
BODY002
100
AcDbCircle
 10
13.0
 20
59.0
 30
0.0
 40
0.5
100
AcDbArc
 50
270.0
 51
90.0
  0
LINE
  5
A7E
330
10146
100
AcDbEntity
  8
BODY002
100
AcDbLine
 10
13.0
 20
59.5
 30
0.0
 11
-13.0
 21
59.5
 31
0.0
  0
LINE
  5
A7F
330
10146
100
AcDbEntity
  8
BODY002
100
AcDbLine
 10
13.0
 20
58.5
 30
0.0
 11
-13.0
 21
58.5
 31
0.0
  0
ARC
  5
A80
330
10146
100
AcDbEntity
  8
BODY002
100
AcDbCircle
 10
-13.0
 20
59.0
 30
0.0
 40
0.5
100
AcDbArc
 50
90.0
 51
270.0
  0
ARC
  5
A91
330
10146
100
AcDbEntity
  8
BODY002
100
AcDbCircle
 10
-16.5
 20
54.5
 30
0.0
 40
1.0
100
AcDbArc
 50
90.0
 51
180.0
  0
LINE
  5
A92
330
10146
100
AcDbEntity
  8
BODY002
100
AcDbLine
 10
-17.5
 20
54.5
 30
0.0
 11
-17.5
 21
40.5
 31
0.0
  0
LINE
  5
A93
330
10146
100
AcDbEntity
  8
BODY002
100
AcDbLine
 10
-16.5
 20
55.5
 30
0.0
 11
-2.5
 21
55.5
 31
0.0
  0
ARC
  5
A94
330
10146
100
AcDbEntity
  8
BODY002
100
AcDbCircle
 10
-17.0
 20
40.5
 30
0.0
 40
0.5
100
AcDbArc
 50
180.0
 51
0.0000000000016284
  0
ARC
  5
A95
330
10146
100
AcDbEntity
  8
BODY002
100
AcDbCircle
 10
-2.5
 20
55.0
 30
0.0
 40
0.5
100
AcDbArc
 50
270.0
 51
90.0
  0
LINE
  5
A96
330
10146
100
AcDbEntity
  8
BODY002
100
AcDbLine
 10
-16.5
 20
40.5
 30
0.0
 11
-16.5
 21
54.5
 31
0.0
  0
LINE
  5
A97
330
10146
100
AcDbEntity
  8
BODY002
100
AcDbLine
 10
-2.5
 20
54.5
 30
0.0
 11
-16.5
 21
54.5
 31
0.0
  0
ARC
  5
AA0
330
10146
100
AcDbEntity
  8
BODY002
100
AcDbCircle
 10
-21.0
 20
25.0
 30
0.0
 40
0.5
100
AcDbArc
 50
180.0
 51
0.0
  0
LINE
  5
AA1
330
10146
100
AcDbEntity
  8
BODY002
100
AcDbLine
 10
-20.5
 20
25.0
 30
0.0
 11
-20.5
 21
51.0
 31
0.0
  0
LINE
  5
AA2
330
10146
100
AcDbEntity
  8
BODY002
100
AcDbLine
 10
-21.5
 20
25.0
 30
0.0
 11
-21.5
 21
51.0
 31
0.0
  0
ARC
  5
AA3
330
10146
100
AcDbEntity
  8
BODY002
100
AcDbCircle
 10
-21.0
 20
51.0
 30
0.0
 40
0.5
100
AcDbArc
 50
0.0
 51
180.0
  0
CIRCLE
  5
AA4
330
10146
100
AcDbEntity
  8
BODY002
100
AcDbCircle
 10
-29.0
 20
56.0
 30
0.0
 40
1.55
  0
CIRCLE
  5
10019
330
10146
100
AcDbEntity
  8
BODY002
100
AcDbCircle
 10
-30.0
 20
89.0
 30
0.0
 40
1.3
  0
CIRCLE
  5
1001A
330
10146
100
AcDbEntity
  8
BODY002
100
AcDbCircle
 10
30.0
 20
89.0
 30
0.0
 40
1.3
  0
LINE
  5
AA5
330
10146
100
AcDbEntity
  8
BODY002
100
AcDbLine
 10
35.0
 20
12.0
 30
-1.6
 11
35.0
 21
92.0
 31
-1.6
  0
LINE
  5
AA6
330
10146
100
AcDbEntity
  8
BODY002
100
AcDbLine
 10
35.0
 20
92.0
 30
-1.6
 11
-35.0
 21
92.0
 31
-1.6
  0
LINE
  5
AA7
330
10146
100
AcDbEntity
  8
BODY002
100
AcDbLine
 10
-35.0
 20
92.0
 30
-1.6
 11
-35.0
 21
12.0
 31
-1.6
  0
ARC
  5
AA8
330
10146
100
AcDbEntity
  8
BODY002
100
AcDbCircle
 10
-23.0
 20
12.0
 30
-1.6
 40
12.0
100
AcDbArc
 50
180.0
 51
270.0
  0
LINE
  5
AA9
330
10146
100
AcDbEntity
  8
BODY002
100
AcDbLine
 10
-23.0
 20
0.0
 30
-1.6
 11
-12.85
 21
0.0
 31
-1.6
  0
LINE
  5
AAB
330
10146
100
AcDbEntity
  8
BODY002
100
AcDbLine
 10
12.85
 20
0.0
 30
-1.6
 11
23.0
 21
0.0
 31
-1.6
  0
ARC
  5
AAC
330
10146
100
AcDbEntity
  8
BODY002
100
AcDbCircle
 10
23.0
 20
12.0
 30
-1.6
 40
12.0
100
AcDbArc
 50
270.0
 51
0.0000000000000085
  0
ARC
  5
AAD
330
10146
100
AcDbEntity
  8
BODY002
100
AcDbCircle
 10
-21.0
 20
25.0
 30
-1.6
 40
0.5
100
AcDbArc
 50
180.0
 51
0.0
  0
LINE
  5
AAE
330
10146
100
AcDbEntity
  8
BODY002
100
AcDbLine
 10
-21.5
 20
25.0
 30
-1.6
 11
-21.5
 21
51.0
 31
-1.6
  0
ARC
  5
AAF
330
10146
100
AcDbEntity
  8
BODY002
100
AcDbCircle
 10
-21.0
 20
51.0
 30
-1.6
 40
0.5
100
AcDbArc
 50
0.0
 51
180.0
  0
LINE
  5
AB0
330
10146
100
AcDbEntity
  8
BODY002
100
AcDbLine
 10
-20.5
 20
25.0
 30
-1.6
 11
-20.5
 21
51.0
 31
-1.6
  0
ARC
  5
AB1
330
10146
100
AcDbEntity
  8
BODY002
100
AcDbCircle
 10
21.0
 20
51.0
 30
-1.6
 40
0.5
100
AcDbArc
 50
0.0000000000195413
 51
180.0
  0
LINE
  5
AB2
330
10146
100
AcDbEntity
  8
BODY002
100
AcDbLine
 10
21.5
 20
51.0
 30
-1.6
 11
21.5
 21
25.0
 31
-1.6
  0
ARC
  5
AB3
330
10146
100
AcDbEntity
  8
BODY002
100
AcDbCircle
 10
21.0
 20
25.0
 30
-1.6
 40
0.5
100
AcDbArc
 50
180.0
 51
0.0000000000105849
  0
LINE
  5
AB4
330
10146
100
AcDbEntity
  8
BODY002
100
AcDbLine
 10
20.5
 20
51.0
 30
-1.6
 11
20.5
 21
25.0
 31
-1.6
  0
ARC
  5
AB5
330
10146
100
AcDbEntity
  8
BODY002
100
AcDbCircle
 10
-13.0
 20
17.0
 30
-1.6
 40
0.5
100
AcDbArc
 50
90.0
 51
270.0
  0
LINE
  5
AB6
330
10146
100
AcDbEntity
  8
BODY002
100
AcDbLine
 10
-13.0
 20
16.5
 30
-1.6
 11
13.0
 21
16.5
 31
-1.6
  0
ARC
  5
AB7
330
10146
100
AcDbEntity
  8
BODY002
100
AcDbCircle
 10
13.0
 20
17.0
 30
-1.6
 40
0.5
100
AcDbArc
 50
270.0
 51
90.0
  0
LINE
  5
AB8
330
10146
100
AcDbEntity
  8
BODY002
100
AcDbLine
 10
-13.0
 20
17.5
 30
-1.6
 11
13.0
 21
17.5
 31
-1.6
  0
ARC
  5
AB9
330
10146
100
AcDbEntity
  8
BODY002
100
AcDbCircle
 10
13.0
 20
59.0
 30
-1.6
 40
0.5
100
AcDbArc
 50
270.0
 51
90.0
  0
LINE
  5
ABA
330
10146
100
AcDbEntity
  8
BODY002
100
AcDbLine
 10
13.0
 20
59.5
 30
-1.6
 11
-13.0
 21
59.5
 31
-1.6
  0
ARC
  5
ABB
330
10146
100
AcDbEntity
  8
BODY002
100
AcDbCircle
 10
-13.0
 20
59.0
 30
-1.6
 40
0.5
100
AcDbArc
 50
90.0
 51
270.0
  0
LINE
  5
ABC
330
10146
100
AcDbEntity
  8
BODY002
100
AcDbLine
 10
13.0
 20
58.5
 30
-1.6
 11
-13.0
 21
58.5
 31
-1.6
  0
ARC
  5
ABD
330
10146
100
AcDbEntity
  8
BODY002
100
AcDbCircle
 10
-16.5
 20
54.5
 30
-1.6
 40
1.0
100
AcDbArc
 50
90.0
 51
180.0
  0
LINE
  5
ABE
330
10146
100
AcDbEntity
  8
BODY002
100
AcDbLine
 10
-16.5
 20
55.5
 30
-1.6
 11
-2.5
 21
55.5
 31
-1.6
  0
ARC
  5
ABF
330
10146
100
AcDbEntity
  8
BODY002
100
AcDbCircle
 10
-2.5
 20
55.0
 30
-1.6
 40
0.5
100
AcDbArc
 50
270.0
 51
90.0
  0
LINE
  5
AC0
330
10146
100
AcDbEntity
  8
BODY002
100
AcDbLine
 10
-2.5
 20
54.5
 30
-1.6
 11
-16.5
 21
54.5
 31
-1.6
  0
LINE
  5
AC1
330
10146
100
AcDbEntity
  8
BODY002
100
AcDbLine
 10
-16.5
 20
40.5
 30
-1.6
 11
-16.5
 21
54.5
 31
-1.6
  0
ARC
  5
AC2
330
10146
100
AcDbEntity
  8
BODY002
100
AcDbCircle
 10
-17.0
 20
40.5
 30
-1.6
 40
0.5
100
AcDbArc
 50
180.0
 51
0.0000000000016284
  0
LINE
  5
AC3
330
10146
100
AcDbEntity
  8
BODY002
100
AcDbLine
 10
-17.5
 20
54.5
 30
-1.6
 11
-17.5
 21
40.5
 31
-1.6
  0
ARC
  5
AC4
330
10146
100
AcDbEntity
  8
BODY002
100
AcDbCircle
 10
16.5
 20
21.5
 30
-1.6
 40
1.0
100
AcDbArc
 50
270.0
 51
0.0
  0
LINE
  5
AC5
330
10146
100
AcDbEntity
  8
BODY002
100
AcDbLine
 10
16.5
 20
20.5
 30
-1.6
 11
2.5
 21
20.5
 31
-1.6
  0
ARC
  5
AC6
330
10146
100
AcDbEntity
  8
BODY002
100
AcDbCircle
 10
2.5
 20
21.0
 30
-1.6
 40
0.5
100
AcDbArc
 50
90.0
 51
270.0
  0
LINE
  5
AC7
330
10146
100
AcDbEntity
  8
BODY002
100
AcDbLine
 10
2.5
 20
21.5
 30
-1.6
 11
16.5
 21
21.5
 31
-1.6
  0
LINE
  5
AC8
330
10146
100
AcDbEntity
  8
BODY002
100
AcDbLine
 10
16.5
 20
35.5
 30
-1.6
 11
16.5
 21
21.5
 31
-1.6
  0
ARC
  5
AC9
330
10146
100
AcDbEntity
  8
BODY002
100
AcDbCircle
 10
17.0
 20
35.5
 30
-1.6
 40
0.5
100
AcDbArc
 50
0.0000000000016284
 51
180.0
  0
LINE
  5
ACA
330
10146
100
AcDbEntity
  8
BODY002
100
AcDbLine
 10
17.5
 20
21.5
 30
-1.6
 11
17.5
 21
35.5
 31
-1.6
  0
LINE
  5
ACB
330
10146
100
AcDbEntity
  8
BODY002
100
AcDbLine
 10
-2.5
 20
21.5
 30
-1.6
 11
-16.5
 21
21.5
 31
-1.6
  0
LINE
  5
ACC
330
10146
100
AcDbEntity
  8
BODY002
100
AcDbLine
 10
-16.5
 20
21.5
 30
-1.6
 11
-16.5
 21
35.5
 31
-1.6
  0
ARC
  5
ACD
330
10146
100
AcDbEntity
  8
BODY002
100
AcDbCircle
 10
-17.0
 20
35.5
 30
-1.6
 40
0.5
100
AcDbArc
 50
0.0000000000040711
 51
180.0
  0
LINE
  5
ACE
330
10146
100
AcDbEntity
  8
BODY002
100
AcDbLine
 10
-17.5
 20
35.5
 30
-1.6
 11
-17.5
 21
21.5
 31
-1.6
  0
ARC
  5
ACF
330
10146
100
AcDbEntity
  8
BODY002
100
AcDbCircle
 10
-16.5
 20
21.5
 30
-1.6
 40
1.0
100
AcDbArc
 50
180.0
 51
270.0
  0
LINE
  5
AD0
330
10146
100
AcDbEntity
  8
BODY002
100
AcDbLine
 10
-16.5
 20
20.5
 30
-1.6
 11
-2.5
 21
20.5
 31
-1.6
  0
ARC
  5
AD1
330
10146
100
AcDbEntity
  8
BODY002
100
AcDbCircle
 10
-2.5
 20
21.0
 30
-1.6
 40
0.5
100
AcDbArc
 50
270.0
 51
90.0
  0
LINE
  5
AD2
330
10146
100
AcDbEntity
  8
BODY002
100
AcDbLine
 10
2.5
 20
54.5
 30
-1.6
 11
16.5
 21
54.5
 31
-1.6
  0
LINE
  5
AD3
330
10146
100
AcDbEntity
  8
BODY002
100
AcDbLine
 10
16.5
 20
54.5
 30
-1.6
 11
16.5
 21
40.5
 31
-1.6
  0
ARC
  5
AD4
330
10146
100
AcDbEntity
  8
BODY002
100
AcDbCircle
 10
17.0
 20
40.5
 30
-1.6
 40
0.5
100
AcDbArc
 50
180.0
 51
0.0000000000056996
  0
LINE
  5
AD5
330
10146
100
AcDbEntity
  8
BODY002
100
AcDbLine
 10
17.5
 20
40.5
 30
-1.6
 11
17.5
 21
54.5
 31
-1.6
  0
ARC
  5
AD6
330
10146
100
AcDbEntity
  8
BODY002
100
AcDbCircle
 10
16.5
 20
54.5
 30
-1.6
 40
1.0
100
AcDbArc
 50
0.0
 51
90.0
  0
LINE
  5
AD7
330
10146
100
AcDbEntity
  8
BODY002
100
AcDbLine
 10
16.5
 20
55.5
 30
-1.6
 11
2.5
 21
55.5
 31
-1.6
  0
ARC
  5
AD8
330
10146
100
AcDbEntity
  8
BODY002
100
AcDbCircle
 10
2.5
 20
55.0
 30
-1.6
 40
0.5
100
AcDbArc
 50
90.0
 51
270.0
  0
CIRCLE
  5
AD9
330
10146
100
AcDbEntity
  8
BODY002
100
AcDbCircle
 10
-29.0
 20
20.0
 30
0.0
 40
1.55
  0
CIRCLE
  5
ADA
330
10146
100
AcDbEntity
  8
BODY002
100
AcDbCircle
 10
20.0
 20
5.0
 30
0.0
 40
1.55
  0
CIRCLE
  5
ADB
330
10146
100
AcDbEntity
  8
BODY002
100
AcDbCircle
 10
-20.0
 20
5.0
 30
0.0
 40
1.55
  0
CIRCLE
  5
ADC
330
10146
100
AcDbEntity
  8
BODY002
100
AcDbCircle
 10
-29.0
 20
56.0
 30
0.0
 40
1.55
  0
CIRCLE
  5
ADD
330
10146
100
AcDbEntity
  8
BODY002
100
AcDbCircle
 10
23.0
 20
60.0
 30
0.0
 40
1.55
  0
LINE
  5
ADE
330
10146
100
AcDbEntity
  8
BODY002
100
AcDbLine
 10
12.85
 20
0.0
 30
0.0
 11
23.0
 21
0.0
 31
0.0
  0
LINE
  5
ADF
330
10146
100
AcDbEntity
  8
BODY002
100
AcDbLine
 10
23.0
 20
0.0
 30
0.0
 11
23.0
 21
0.0
 31
-1.6
  0
LINE
  5
AE0
330
10146
100
AcDbEntity
  8
BODY002
100
AcDbLine
 10
12.85
 20
0.0
 30
-1.6
 11
23.0
 21
0.0
 31
-1.6
  0
LINE
  5
AE1
330
10146
100
AcDbEntity
  8
BODY002
100
AcDbLine
 10
12.85
 20
0.0
 30
0.0
 11
12.85
 21
0.0
 31
-1.6
  0
LINE
  5
AE2
330
10146
100
AcDbEntity
  8
BODY002
100
AcDbLine
 10
-35.0
 20
92.0
 30
0.0
 11
-35.0
 21
92.0
 31
-1.6
  0
LINE
  5
AE3
330
10146
100
AcDbEntity
  8
BODY002
100
AcDbLine
 10
-35.0
 20
12.0
 30
0.0
 11
-35.0
 21
12.0
 31
-1.6
  0
LINE
  5
AE4
330
10146
100
AcDbEntity
  8
BODY002
100
AcDbLine
 10
-35.0
 20
92.0
 30
0.0
 11
-35.0
 21
12.0
 31
0.0
  0
LINE
  5
AE5
330
10146
100
AcDbEntity
  8
BODY002
100
AcDbLine
 10
-35.0
 20
92.0
 30
-1.6
 11
-35.0
 21
12.0
 31
-1.6
  0
LINE
  5
AE6
330
10146
100
AcDbEntity
  8
BODY002
100
AcDbLine
 10
-23.0
 20
0.0
 30
0.0
 11
-12.85
 21
0.0
 31
0.0
  0
LINE
  5
AE7
330
10146
100
AcDbEntity
  8
BODY002
100
AcDbLine
 10
-12.85
 20
0.0
 30
0.0
 11
-12.85
 21
0.0
 31
-1.6
  0
LINE
  5
AE8
330
10146
100
AcDbEntity
  8
BODY002
100
AcDbLine
 10
-23.0
 20
0.0
 30
-1.6
 11
-12.85
 21
0.0
 31
-1.6
  0
LINE
  5
AE9
330
10146
100
AcDbEntity
  8
BODY002
100
AcDbLine
 10
-23.0
 20
0.0
 30
0.0
 11
-23.0
 21
0.0
 31
-1.6
  0
LINE
  5
AEC
330
10146
100
AcDbEntity
  8
BODY002
100
AcDbLine
 10
-12.85
 20
0.0
 30
0.0
 11
-12.85
 21
-10.0
 31
0.0
  0
LINE
  5
AEE
330
10146
100
AcDbEntity
  8
BODY002
100
AcDbLine
 10
-7.850000000000001
 20
-15.0
 30
0.0
 11
7.849999999999999
 21
-15.0
 31
0.0
  0
ARC
  5
AEF
330
10146
100
AcDbEntity
  8
BODY002
100
AcDbCircle
 10
7.85
 20
-10.0
 30
0.0
 40
5.0
100
AcDbArc
 50
270.0
 51
0.0
  0
LINE
  5
AF0
330
10146
100
AcDbEntity
  8
BODY002
100
AcDbLine
 10
-23.0
 20
0.0
 30
0.0
 11
-23.0
 21
0.0
 31
-1.6
  0
LINE
  5
AF1
330
10146
100
AcDbEntity
  8
BODY002
100
AcDbLine
 10
-35.0
 20
12.0
 30
0.0
 11
-35.0
 21
12.0
 31
-1.6
  0
ARC
  5
AF2
330
10146
100
AcDbEntity
  8
BODY002
100
AcDbCircle
 10
-23.0
 20
12.0
 30
0.0
 40
12.0
100
AcDbArc
 50
180.0
 51
270.0
  0
ARC
  5
AF3
330
10146
100
AcDbEntity
  8
BODY002
100
AcDbCircle
 10
-23.0
 20
12.0
 30
-1.6
 40
12.0
100
AcDbArc
 50
180.0
 51
270.0
  0
LINE
  5
AF4
330
10146
100
AcDbEntity
  8
BODY002
100
AcDbLine
 10
18.45
 20
5.0
 30
0.0
 11
18.45
 21
5.0
 31
-1.6
  0
LINE
  5
AF5
330
10146
100
AcDbEntity
  8
BODY002
100
AcDbLine
 10
18.45
 20
5.0
 30
0.0
 11
18.45
 21
5.0
 31
-1.6
  0
CIRCLE
  5
AF6
330
10146
100
AcDbEntity
  8
BODY002
100
AcDbCircle
 10
20.0
 20
5.0
 30
0.0
 40
1.55
  0
CIRCLE
  5
AF7
330
10146
100
AcDbEntity
  8
BODY002
100
AcDbCircle
 10
20.0
 20
5.0
 30
0.0
 40
1.55
  0
LINE
  5
AF8
330
10146
100
AcDbEntity
  8
BODY002
100
AcDbLine
 10
-13.0
 20
16.5
 30
0.0
 11
-13.0
 21
16.5
 31
-1.6
  0
LINE
  5
AF9
330
10146
100
AcDbEntity
  8
BODY002
100
AcDbLine
 10
-13.0
 20
17.5
 30
0.0
 11
-13.0
 21
17.5
 31
-1.6
  0
ARC
  5
AFA
330
10146
100
AcDbEntity
  8
BODY002
100
AcDbCircle
 10
-13.0
 20
17.0
 30
0.0
 40
0.5
100
AcDbArc
 50
90.0
 51
270.0
  0
ARC
  5
AFB
330
10146
100
AcDbEntity
  8
BODY002
100
AcDbCircle
 10
-13.0
 20
17.0
 30
-1.6
 40
0.5
100
AcDbArc
 50
90.0
 51
270.0
  0
LINE
  5
AFC
330
10146
100
AcDbEntity
  8
BODY002
100
AcDbLine
 10
-13.0
 20
16.5
 30
0.0
 11
-13.0
 21
16.5
 31
-1.6
  0
LINE
  5
AFD
330
10146
100
AcDbEntity
  8
BODY002
100
AcDbLine
 10
13.0
 20
16.5
 30
0.0
 11
13.0
 21
16.5
 31
-1.6
  0
LINE
  5
AFE
330
10146
100
AcDbEntity
  8
BODY002
100
AcDbLine
 10
-13.0
 20
16.5
 30
0.0
 11
13.0
 21
16.5
 31
0.0
  0
LINE
  5
AFF
330
10146
100
AcDbEntity
  8
BODY002
100
AcDbLine
 10
-13.0
 20
16.5
 30
-1.6
 11
13.0
 21
16.5
 31
-1.6
  0
LINE
  5
B00
330
10146
100
AcDbEntity
  8
BODY002
100
AcDbLine
 10
-13.0
 20
17.5
 30
0.0
 11
-13.0
 21
17.5
 31
-1.6
  0
LINE
  5
B01
330
10146
100
AcDbEntity
  8
BODY002
100
AcDbLine
 10
13.0
 20
17.5
 30
0.0
 11
13.0
 21
17.5
 31
-1.6
  0
LINE
  5
B02
330
10146
100
AcDbEntity
  8
BODY002
100
AcDbLine
 10
-13.0
 20
17.5
 30
0.0
 11
13.0
 21
17.5
 31
0.0
  0
LINE
  5
B03
330
10146
100
AcDbEntity
  8
BODY002
100
AcDbLine
 10
-13.0
 20
17.5
 30
-1.6
 11
13.0
 21
17.5
 31
-1.6
  0
LINE
  5
B04
330
10146
100
AcDbEntity
  8
BODY002
100
AcDbLine
 10
13.0
 20
17.5
 30
0.0
 11
13.0
 21
17.5
 31
-1.6
  0
LINE
  5
B05
330
10146
100
AcDbEntity
  8
BODY002
100
AcDbLine
 10
13.0
 20
16.5
 30
0.0
 11
13.0
 21
16.5
 31
-1.6
  0
ARC
  5
B06
330
10146
100
AcDbEntity
  8
BODY002
100
AcDbCircle
 10
13.0
 20
17.0
 30
0.0
 40
0.5
100
AcDbArc
 50
270.0
 51
90.0
  0
ARC
  5
B07
330
10146
100
AcDbEntity
  8
BODY002
100
AcDbCircle
 10
13.0
 20
17.0
 30
-1.6
 40
0.5
100
AcDbArc
 50
270.0
 51
90.0
  0
LINE
  5
B38
330
10146
100
AcDbEntity
  8
BODY002
100
AcDbLine
 10
17.5
 20
21.5
 30
0.0
 11
17.5
 21
21.5
 31
-1.6
  0
LINE
  5
B39
330
10146
100
AcDbEntity
  8
BODY002
100
AcDbLine
 10
16.5
 20
20.5
 30
0.0
 11
16.5
 21
20.5
 31
-1.6
  0
ARC
  5
B3A
330
10146
100
AcDbEntity
  8
BODY002
100
AcDbCircle
 10
16.5
 20
21.5
 30
0.0
 40
1.0
100
AcDbArc
 50
270.0
 51
0.0
  0
ARC
  5
B3B
330
10146
100
AcDbEntity
  8
BODY002
100
AcDbCircle
 10
16.5
 20
21.5
 30
-1.6
 40
1.0
100
AcDbArc
 50
270.0
 51
0.0
  0
LINE
  5
B3C
330
10146
100
AcDbEntity
  8
BODY002
100
AcDbLine
 10
17.5
 20
21.5
 30
0.0
 11
17.5
 21
21.5
 31
-1.6
  0
LINE
  5
B3D
330
10146
100
AcDbEntity
  8
BODY002
100
AcDbLine
 10
17.5
 20
35.5
 30
0.0
 11
17.5
 21
35.5
 31
-1.6
  0
LINE
  5
B3E
330
10146
100
AcDbEntity
  8
BODY002
100
AcDbLine
 10
17.5
 20
21.5
 30
0.0
 11
17.5
 21
35.5
 31
0.0
  0
LINE
  5
B3F
330
10146
100
AcDbEntity
  8
BODY002
100
AcDbLine
 10
17.5
 20
21.5
 30
-1.6
 11
17.5
 21
35.5
 31
-1.6
  0
LINE
  5
B40
330
10146
100
AcDbEntity
  8
BODY002
100
AcDbLine
 10
16.5
 20
20.5
 30
0.0
 11
16.5
 21
20.5
 31
-1.6
  0
LINE
  5
B41
330
10146
100
AcDbEntity
  8
BODY002
100
AcDbLine
 10
2.5
 20
20.5
 30
0.0
 11
2.5
 21
20.5
 31
-1.6
  0
LINE
  5
B42
330
10146
100
AcDbEntity
  8
BODY002
100
AcDbLine
 10
16.5
 20
20.5
 30
0.0
 11
2.5
 21
20.5
 31
0.0
  0
LINE
  5
B43
330
10146
100
AcDbEntity
  8
BODY002
100
AcDbLine
 10
16.5
 20
20.5
 30
-1.6
 11
2.5
 21
20.5
 31
-1.6
  0
LINE
  5
B44
330
10146
100
AcDbEntity
  8
BODY002
100
AcDbLine
 10
16.5
 20
35.5
 30
0.0
 11
16.5
 21
35.5
 31
-1.6
  0
LINE
  5
B45
330
10146
100
AcDbEntity
  8
BODY002
100
AcDbLine
 10
17.5
 20
35.5
 30
0.0
 11
17.5
 21
35.5
 31
-1.6
  0
ARC
  5
B46
330
10146
100
AcDbEntity
  8
BODY002
100
AcDbCircle
 10
17.0
 20
35.5
 30
0.0
 40
0.5
100
AcDbArc
 50
0.0000000000016284
 51
180.0
  0
ARC
  5
B47
330
10146
100
AcDbEntity
  8
BODY002
100
AcDbCircle
 10
17.0
 20
35.5
 30
-1.6
 40
0.5
100
AcDbArc
 50
0.0000000000016284
 51
180.0
  0
LINE
  5
B48
330
10146
100
AcDbEntity
  8
BODY002
100
AcDbLine
 10
2.5
 20
20.5
 30
0.0
 11
2.5
 21
20.5
 31
-1.6
  0
LINE
  5
B49
330
10146
100
AcDbEntity
  8
BODY002
100
AcDbLine
 10
2.5
 20
21.5
 30
0.0
 11
2.5
 21
21.5
 31
-1.6
  0
ARC
  5
B4A
330
10146
100
AcDbEntity
  8
BODY002
100
AcDbCircle
 10
2.5
 20
21.0
 30
0.0
 40
0.5
100
AcDbArc
 50
90.0
 51
270.0
  0
ARC
  5
B4B
330
10146
100
AcDbEntity
  8
BODY002
100
AcDbCircle
 10
2.5
 20
21.0
 30
-1.6
 40
0.5
100
AcDbArc
 50
90.0
 51
270.0
  0
LINE
  5
B4C
330
10146
100
AcDbEntity
  8
BODY002
100
AcDbLine
 10
16.5
 20
35.5
 30
0.0
 11
16.5
 21
35.5
 31
-1.6
  0
LINE
  5
B4D
330
10146
100
AcDbEntity
  8
BODY002
100
AcDbLine
 10
16.5
 20
21.5
 30
0.0
 11
16.5
 21
21.5
 31
-1.6
  0
LINE
  5
B4E
330
10146
100
AcDbEntity
  8
BODY002
100
AcDbLine
 10
16.5
 20
35.5
 30
0.0
 11
16.5
 21
21.5
 31
0.0
  0
LINE
  5
B4F
330
10146
100
AcDbEntity
  8
BODY002
100
AcDbLine
 10
16.5
 20
35.5
 30
-1.6
 11
16.5
 21
21.5
 31
-1.6
  0
LINE
  5
B50
330
10146
100
AcDbEntity
  8
BODY002
100
AcDbLine
 10
2.5
 20
21.5
 30
0.0
 11
2.5
 21
21.5
 31
-1.6
  0
LINE
  5
B51
330
10146
100
AcDbEntity
  8
BODY002
100
AcDbLine
 10
16.5
 20
21.5
 30
0.0
 11
16.5
 21
21.5
 31
-1.6
  0
LINE
  5
B52
330
10146
100
AcDbEntity
  8
BODY002
100
AcDbLine
 10
2.5
 20
21.5
 30
0.0
 11
16.5
 21
21.5
 31
0.0
  0
LINE
  5
B53
330
10146
100
AcDbEntity
  8
BODY002
100
AcDbLine
 10
2.5
 20
21.5
 30
-1.6
 11
16.5
 21
21.5
 31
-1.6
  0
LINE
  5
B64
330
10146
100
AcDbEntity
  8
BODY002
100
AcDbLine
 10
-21.55
 20
5.0
 30
0.0
 11
-21.55
 21
5.0
 31
-1.6
  0
LINE
  5
B65
330
10146
100
AcDbEntity
  8
BODY002
100
AcDbLine
 10
-21.55
 20
5.0
 30
0.0
 11
-21.55
 21
5.0
 31
-1.6
  0
CIRCLE
  5
B66
330
10146
100
AcDbEntity
  8
BODY002
100
AcDbCircle
 10
-20.0
 20
5.0
 30
0.0
 40
1.55
  0
CIRCLE
  5
B67
330
10146
100
AcDbEntity
  8
BODY002
100
AcDbCircle
 10
-20.0
 20
5.0
 30
0.0
 40
1.55
  0
LINE
  5
B78
330
10146
100
AcDbEntity
  8
BODY002
100
AcDbLine
 10
-2.5
 20
21.5
 30
0.0
 11
-2.5
 21
21.5
 31
-1.6
  0
LINE
  5
B79
330
10146
100
AcDbEntity
  8
BODY002
100
AcDbLine
 10
-16.5
 20
21.5
 30
0.0
 11
-16.5
 21
21.5
 31
-1.6
  0
LINE
  5
B7A
330
10146
100
AcDbEntity
  8
BODY002
100
AcDbLine
 10
-2.5
 20
21.5
 30
0.0
 11
-16.5
 21
21.5
 31
0.0
  0
LINE
  5
B7B
330
10146
100
AcDbEntity
  8
BODY002
100
AcDbLine
 10
-2.5
 20
21.5
 30
-1.6
 11
-16.5
 21
21.5
 31
-1.6
  0
LINE
  5
B7C
330
10146
100
AcDbEntity
  8
BODY002
100
AcDbLine
 10
-2.5
 20
21.5
 30
0.0
 11
-2.5
 21
21.5
 31
-1.6
  0
LINE
  5
B7D
330
10146
100
AcDbEntity
  8
BODY002
100
AcDbLine
 10
-2.5
 20
20.5
 30
0.0
 11
-2.5
 21
20.5
 31
-1.6
  0
ARC
  5
B7E
330
10146
100
AcDbEntity
  8
BODY002
100
AcDbCircle
 10
-2.5
 20
21.0
 30
0.0
 40
0.5
100
AcDbArc
 50
270.0
 51
90.0
  0
ARC
  5
B7F
330
10146
100
AcDbEntity
  8
BODY002
100
AcDbCircle
 10
-2.5
 20
21.0
 30
-1.6
 40
0.5
100
AcDbArc
 50
270.0
 51
90.0
  0
LINE
  5
B80
330
10146
100
AcDbEntity
  8
BODY002
100
AcDbLine
 10
-16.5
 20
21.5
 30
0.0
 11
-16.5
 21
21.5
 31
-1.6
  0
LINE
  5
B81
330
10146
100
AcDbEntity
  8
BODY002
100
AcDbLine
 10
-16.5
 20
35.5
 30
0.0
 11
-16.5
 21
35.5
 31
-1.6
  0
LINE
  5
B82
330
10146
100
AcDbEntity
  8
BODY002
100
AcDbLine
 10
-16.5
 20
21.5
 30
0.0
 11
-16.5
 21
35.5
 31
0.0
  0
LINE
  5
B83
330
10146
100
AcDbEntity
  8
BODY002
100
AcDbLine
 10
-16.5
 20
21.5
 30
-1.6
 11
-16.5
 21
35.5
 31
-1.6
  0
LINE
  5
B84
330
10146
100
AcDbEntity
  8
BODY002
100
AcDbLine
 10
-16.5
 20
20.5
 30
0.0
 11
-16.5
 21
20.5
 31
-1.6
  0
LINE
  5
B85
330
10146
100
AcDbEntity
  8
BODY002
100
AcDbLine
 10
-2.5
 20
20.5
 30
0.0
 11
-2.5
 21
20.5
 31
-1.6
  0
LINE
  5
B86
330
10146
100
AcDbEntity
  8
BODY002
100
AcDbLine
 10
-16.5
 20
20.5
 30
0.0
 11
-2.5
 21
20.5
 31
0.0
  0
LINE
  5
B87
330
10146
100
AcDbEntity
  8
BODY002
100
AcDbLine
 10
-16.5
 20
20.5
 30
-1.6
 11
-2.5
 21
20.5
 31
-1.6
  0
LINE
  5
B88
330
10146
100
AcDbEntity
  8
BODY002
100
AcDbLine
 10
-17.5
 20
35.5
 30
0.0
 11
-17.5
 21
35.5
 31
-1.6
  0
LINE
  5
B89
330
10146
100
AcDbEntity
  8
BODY002
100
AcDbLine
 10
-16.5
 20
35.5
 30
0.0
 11
-16.5
 21
35.5
 31
-1.6
  0
ARC
  5
B8A
330
10146
100
AcDbEntity
  8
BODY002
100
AcDbCircle
 10
-17.0
 20
35.5
 30
0.0
 40
0.5
100
AcDbArc
 50
0.0000000000040711
 51
180.0
  0
ARC
  5
B8B
330
10146
100
AcDbEntity
  8
BODY002
100
AcDbCircle
 10
-17.0
 20
35.5
 30
-1.6
 40
0.5
100
AcDbArc
 50
0.0000000000040711
 51
180.0
  0
LINE
  5
B8C
330
10146
100
AcDbEntity
  8
BODY002
100
AcDbLine
 10
-16.5
 20
20.5
 30
0.0
 11
-16.5
 21
20.5
 31
-1.6
  0
LINE
  5
B8D
330
10146
100
AcDbEntity
  8
BODY002
100
AcDbLine
 10
-17.5
 20
21.5
 30
0.0
 11
-17.5
 21
21.5
 31
-1.6
  0
ARC
  5
B8E
330
10146
100
AcDbEntity
  8
BODY002
100
AcDbCircle
 10
-16.5
 20
21.5
 30
0.0
 40
1.0
100
AcDbArc
 50
180.0
 51
270.0
  0
ARC
  5
B8F
330
10146
100
AcDbEntity
  8
BODY002
100
AcDbCircle
 10
-16.5
 20
21.5
 30
-1.6
 40
1.0
100
AcDbArc
 50
180.0
 51
270.0
  0
LINE
  5
B90
330
10146
100
AcDbEntity
  8
BODY002
100
AcDbLine
 10
-17.5
 20
35.5
 30
0.0
 11
-17.5
 21
35.5
 31
-1.6
  0
LINE
  5
B91
330
10146
100
AcDbEntity
  8
BODY002
100
AcDbLine
 10
-17.5
 20
21.5
 30
0.0
 11
-17.5
 21
21.5
 31
-1.6
  0
LINE
  5
B92
330
10146
100
AcDbEntity
  8
BODY002
100
AcDbLine
 10
-17.5
 20
35.5
 30
0.0
 11
-17.5
 21
21.5
 31
0.0
  0
LINE
  5
B93
330
10146
100
AcDbEntity
  8
BODY002
100
AcDbLine
 10
-17.5
 20
35.5
 30
-1.6
 11
-17.5
 21
21.5
 31
-1.6
  0
LINE
  5
BC4
330
10146
100
AcDbEntity
  8
BODY002
100
AcDbLine
 10
-30.55
 20
20.0
 30
0.0
 11
-30.55
 21
20.0
 31
-1.6
  0
LINE
  5
BC5
330
10146
100
AcDbEntity
  8
BODY002
100
AcDbLine
 10
-30.55
 20
20.0
 30
0.0
 11
-30.55
 21
20.0
 31
-1.6
  0
CIRCLE
  5
BC6
330
10146
100
AcDbEntity
  8
BODY002
100
AcDbCircle
 10
-29.0
 20
20.0
 30
0.0
 40
1.55
  0
CIRCLE
  5
BC7
330
10146
100
AcDbEntity
  8
BODY002
100
AcDbCircle
 10
-29.0
 20
20.0
 30
0.0
 40
1.55
  0
LINE
  5
BC8
330
10146
100
AcDbEntity
  8
BODY002
100
AcDbLine
 10
20.5
 20
51.0
 30
0.0
 11
20.5
 21
51.0
 31
-1.6
  0
LINE
  5
BC9
330
10146
100
AcDbEntity
  8
BODY002
100
AcDbLine
 10
21.5
 20
51.0
 30
0.0
 11
21.5
 21
51.0
 31
-1.6
  0
ARC
  5
BCA
330
10146
100
AcDbEntity
  8
BODY002
100
AcDbCircle
 10
21.0
 20
51.0
 30
0.0
 40
0.5
100
AcDbArc
 50
0.0000000000195413
 51
180.0
  0
ARC
  5
BCB
330
10146
100
AcDbEntity
  8
BODY002
100
AcDbCircle
 10
21.0
 20
51.0
 30
-1.6
 40
0.5
100
AcDbArc
 50
0.0000000000195413
 51
180.0
  0
LINE
  5
BCC
330
10146
100
AcDbEntity
  8
BODY002
100
AcDbLine
 10
20.5
 20
51.0
 30
0.0
 11
20.5
 21
51.0
 31
-1.6
  0
LINE
  5
BCD
330
10146
100
AcDbEntity
  8
BODY002
100
AcDbLine
 10
20.5
 20
25.0
 30
0.0
 11
20.5
 21
25.0
 31
-1.6
  0
LINE
  5
BCE
330
10146
100
AcDbEntity
  8
BODY002
100
AcDbLine
 10
20.5
 20
51.0
 30
0.0
 11
20.5
 21
25.0
 31
0.0
  0
LINE
  5
BCF
330
10146
100
AcDbEntity
  8
BODY002
100
AcDbLine
 10
20.5
 20
51.0
 30
-1.6
 11
20.5
 21
25.0
 31
-1.6
  0
LINE
  5
BD0
330
10146
100
AcDbEntity
  8
BODY002
100
AcDbLine
 10
21.5
 20
51.0
 30
0.0
 11
21.5
 21
51.0
 31
-1.6
  0
LINE
  5
BD1
330
10146
100
AcDbEntity
  8
BODY002
100
AcDbLine
 10
21.5
 20
25.0
 30
0.0
 11
21.5
 21
25.0
 31
-1.6
  0
LINE
  5
BD2
330
10146
100
AcDbEntity
  8
BODY002
100
AcDbLine
 10
21.5
 20
51.0
 30
0.0
 11
21.5
 21
25.0
 31
0.0
  0
LINE
  5
BD3
330
10146
100
AcDbEntity
  8
BODY002
100
AcDbLine
 10
21.5
 20
51.0
 30
-1.6
 11
21.5
 21
25.0
 31
-1.6
  0
LINE
  5
BD4
330
10146
100
AcDbEntity
  8
BODY002
100
AcDbLine
 10
21.5
 20
25.0
 30
0.0
 11
21.5
 21
25.0
 31
-1.6
  0
LINE
  5
BD5
330
10146
100
AcDbEntity
  8
BODY002
100
AcDbLine
 10
20.5
 20
25.0
 30
0.0
 11
20.5
 21
25.0
 31
-1.6
  0
ARC
  5
BD6
330
10146
100
AcDbEntity
  8
BODY002
100
AcDbCircle
 10
21.0
 20
25.0
 30
0.0
 40
0.5
100
AcDbArc
 50
180.0
 51
0.0000000000105849
  0
ARC
  5
BD7
330
10146
100
AcDbEntity
  8
BODY002
100
AcDbCircle
 10
21.0
 20
25.0
 30
-1.6
 40
0.5
100
AcDbArc
 50
180.0
 51
0.0000000000105849
  0
LINE
  5
C18
330
10146
100
AcDbEntity
  8
BODY002
100
AcDbLine
 10
2.5
 20
54.5
 30
0.0
 11
2.5
 21
54.5
 31
-1.6
  0
LINE
  5
C19
330
10146
100
AcDbEntity
  8
BODY002
100
AcDbLine
 10
16.5
 20
54.5
 30
0.0
 11
16.5
 21
54.5
 31
-1.6
  0
LINE
  5
C1A
330
10146
100
AcDbEntity
  8
BODY002
100
AcDbLine
 10
2.5
 20
54.5
 30
0.0
 11
16.5
 21
54.5
 31
0.0
  0
LINE
  5
C1B
330
10146
100
AcDbEntity
  8
BODY002
100
AcDbLine
 10
2.5
 20
54.5
 30
-1.6
 11
16.5
 21
54.5
 31
-1.6
  0
LINE
  5
C1C
330
10146
100
AcDbEntity
  8
BODY002
100
AcDbLine
 10
2.5
 20
54.5
 30
0.0
 11
2.5
 21
54.5
 31
-1.6
  0
LINE
  5
C1D
330
10146
100
AcDbEntity
  8
BODY002
100
AcDbLine
 10
2.5
 20
55.5
 30
0.0
 11
2.5
 21
55.5
 31
-1.6
  0
ARC
  5
C1E
330
10146
100
AcDbEntity
  8
BODY002
100
AcDbCircle
 10
2.5
 20
55.0
 30
0.0
 40
0.5
100
AcDbArc
 50
90.0
 51
270.0
  0
ARC
  5
C1F
330
10146
100
AcDbEntity
  8
BODY002
100
AcDbCircle
 10
2.5
 20
55.0
 30
-1.6
 40
0.5
100
AcDbArc
 50
90.0
 51
270.0
  0
LINE
  5
C20
330
10146
100
AcDbEntity
  8
BODY002
100
AcDbLine
 10
16.5
 20
54.5
 30
0.0
 11
16.5
 21
54.5
 31
-1.6
  0
LINE
  5
C21
330
10146
100
AcDbEntity
  8
BODY002
100
AcDbLine
 10
16.5
 20
40.5
 30
0.0
 11
16.5
 21
40.5
 31
-1.6
  0
LINE
  5
C22
330
10146
100
AcDbEntity
  8
BODY002
100
AcDbLine
 10
16.5
 20
54.5
 30
0.0
 11
16.5
 21
40.5
 31
0.0
  0
LINE
  5
C23
330
10146
100
AcDbEntity
  8
BODY002
100
AcDbLine
 10
16.5
 20
54.5
 30
-1.6
 11
16.5
 21
40.5
 31
-1.6
  0
LINE
  5
C24
330
10146
100
AcDbEntity
  8
BODY002
100
AcDbLine
 10
16.5
 20
55.5
 30
0.0
 11
16.5
 21
55.5
 31
-1.6
  0
LINE
  5
C25
330
10146
100
AcDbEntity
  8
BODY002
100
AcDbLine
 10
2.5
 20
55.5
 30
0.0
 11
2.5
 21
55.5
 31
-1.6
  0
LINE
  5
C26
330
10146
100
AcDbEntity
  8
BODY002
100
AcDbLine
 10
16.5
 20
55.5
 30
0.0
 11
2.5
 21
55.5
 31
0.0
  0
LINE
  5
C27
330
10146
100
AcDbEntity
  8
BODY002
100
AcDbLine
 10
16.5
 20
55.5
 30
-1.6
 11
2.5
 21
55.5
 31
-1.6
  0
LINE
  5
C28
330
10146
100
AcDbEntity
  8
BODY002
100
AcDbLine
 10
17.5
 20
40.5
 30
0.0
 11
17.5
 21
40.5
 31
-1.6
  0
LINE
  5
C29
330
10146
100
AcDbEntity
  8
BODY002
100
AcDbLine
 10
16.5
 20
40.5
 30
0.0
 11
16.5
 21
40.5
 31
-1.6
  0
ARC
  5
C2A
330
10146
100
AcDbEntity
  8
BODY002
100
AcDbCircle
 10
17.0
 20
40.5
 30
0.0
 40
0.5
100
AcDbArc
 50
180.0
 51
0.0000000000056996
  0
ARC
  5
C2B
330
10146
100
AcDbEntity
  8
BODY002
100
AcDbCircle
 10
17.0
 20
40.5
 30
-1.6
 40
0.5
100
AcDbArc
 50
180.0
 51
0.0000000000056996
  0
LINE
  5
C2C
330
10146
100
AcDbEntity
  8
BODY002
100
AcDbLine
 10
16.5
 20
55.5
 30
0.0
 11
16.5
 21
55.5
 31
-1.6
  0
LINE
  5
C2D
330
10146
100
AcDbEntity
  8
BODY002
100
AcDbLine
 10
17.5
 20
54.5
 30
0.0
 11
17.5
 21
54.5
 31
-1.6
  0
ARC
  5
C2E
330
10146
100
AcDbEntity
  8
BODY002
100
AcDbCircle
 10
16.5
 20
54.5
 30
0.0
 40
1.0
100
AcDbArc
 50
0.0
 51
90.0
  0
ARC
  5
C2F
330
10146
100
AcDbEntity
  8
BODY002
100
AcDbCircle
 10
16.5
 20
54.5
 30
-1.6
 40
1.0
100
AcDbArc
 50
0.0
 51
90.0
  0
LINE
  5
C30
330
10146
100
AcDbEntity
  8
BODY002
100
AcDbLine
 10
17.5
 20
40.5
 30
0.0
 11
17.5
 21
40.5
 31
-1.6
  0
LINE
  5
C31
330
10146
100
AcDbEntity
  8
BODY002
100
AcDbLine
 10
17.5
 20
54.5
 30
0.0
 11
17.5
 21
54.5
 31
-1.6
  0
LINE
  5
C32
330
10146
100
AcDbEntity
  8
BODY002
100
AcDbLine
 10
17.5
 20
40.5
 30
0.0
 11
17.5
 21
54.5
 31
0.0
  0
LINE
  5
C33
330
10146
100
AcDbEntity
  8
BODY002
100
AcDbLine
 10
17.5
 20
40.5
 30
-1.6
 11
17.5
 21
54.5
 31
-1.6
  0
LINE
  5
C74
330
10146
100
AcDbEntity
  8
BODY002
100
AcDbLine
 10
21.45
 20
60.0
 30
0.0
 11
21.45
 21
60.0
 31
-1.6
  0
LINE
  5
C75
330
10146
100
AcDbEntity
  8
BODY002
100
AcDbLine
 10
21.45
 20
60.0
 30
0.0
 11
21.45
 21
60.0
 31
-1.6
  0
CIRCLE
  5
C76
330
10146
100
AcDbEntity
  8
BODY002
100
AcDbCircle
 10
23.0
 20
60.0
 30
0.0
 40
1.55
  0
CIRCLE
  5
C77
330
10146
100
AcDbEntity
  8
BODY002
100
AcDbCircle
 10
23.0
 20
60.0
 30
0.0
 40
1.55
  0
LINE
  5
C78
330
10146
100
AcDbEntity
  8
BODY002
100
AcDbLine
 10
13.0
 20
59.5
 30
0.0
 11
13.0
 21
59.5
 31
-1.6
  0
LINE
  5
C79
330
10146
100
AcDbEntity
  8
BODY002
100
AcDbLine
 10
13.0
 20
58.5
 30
0.0
 11
13.0
 21
58.5
 31
-1.6
  0
ARC
  5
C7A
330
10146
100
AcDbEntity
  8
BODY002
100
AcDbCircle
 10
13.0
 20
59.0
 30
0.0
 40
0.5
100
AcDbArc
 50
270.0
 51
90.0
  0
ARC
  5
C7B
330
10146
100
AcDbEntity
  8
BODY002
100
AcDbCircle
 10
13.0
 20
59.0
 30
-1.6
 40
0.5
100
AcDbArc
 50
270.0
 51
90.0
  0
LINE
  5
C7C
330
10146
100
AcDbEntity
  8
BODY002
100
AcDbLine
 10
13.0
 20
59.5
 30
0.0
 11
13.0
 21
59.5
 31
-1.6
  0
LINE
  5
C7D
330
10146
100
AcDbEntity
  8
BODY002
100
AcDbLine
 10
-13.0
 20
59.5
 30
0.0
 11
-13.0
 21
59.5
 31
-1.6
  0
LINE
  5
C7E
330
10146
100
AcDbEntity
  8
BODY002
100
AcDbLine
 10
13.0
 20
59.5
 30
0.0
 11
-13.0
 21
59.5
 31
0.0
  0
LINE
  5
C7F
330
10146
100
AcDbEntity
  8
BODY002
100
AcDbLine
 10
13.0
 20
59.5
 30
-1.6
 11
-13.0
 21
59.5
 31
-1.6
  0
LINE
  5
C80
330
10146
100
AcDbEntity
  8
BODY002
100
AcDbLine
 10
13.0
 20
58.5
 30
0.0
 11
13.0
 21
58.5
 31
-1.6
  0
LINE
  5
C81
330
10146
100
AcDbEntity
  8
BODY002
100
AcDbLine
 10
-13.0
 20
58.5
 30
0.0
 11
-13.0
 21
58.5
 31
-1.6
  0
LINE
  5
C82
330
10146
100
AcDbEntity
  8
BODY002
100
AcDbLine
 10
13.0
 20
58.5
 30
0.0
 11
-13.0
 21
58.5
 31
0.0
  0
LINE
  5
C83
330
10146
100
AcDbEntity
  8
BODY002
100
AcDbLine
 10
13.0
 20
58.5
 30
-1.6
 11
-13.0
 21
58.5
 31
-1.6
  0
LINE
  5
C84
330
10146
100
AcDbEntity
  8
BODY002
100
AcDbLine
 10
-13.0
 20
58.5
 30
0.0
 11
-13.0
 21
58.5
 31
-1.6
  0
LINE
  5
C85
330
10146
100
AcDbEntity
  8
BODY002
100
AcDbLine
 10
-13.0
 20
59.5
 30
0.0
 11
-13.0
 21
59.5
 31
-1.6
  0
ARC
  5
C86
330
10146
100
AcDbEntity
  8
BODY002
100
AcDbCircle
 10
-13.0
 20
59.0
 30
0.0
 40
0.5
100
AcDbArc
 50
90.0
 51
270.0
  0
ARC
  5
C87
330
10146
100
AcDbEntity
  8
BODY002
100
AcDbCircle
 10
-13.0
 20
59.0
 30
-1.6
 40
0.5
100
AcDbArc
 50
90.0
 51
270.0
  0
LINE
  5
CC8
330
10146
100
AcDbEntity
  8
BODY002
100
AcDbLine
 10
-17.5
 20
54.5
 30
0.0
 11
-17.5
 21
54.5
 31
-1.6
  0
LINE
  5
CC9
330
10146
100
AcDbEntity
  8
BODY002
100
AcDbLine
 10
-16.5
 20
55.5
 30
0.0
 11
-16.5
 21
55.5
 31
-1.6
  0
ARC
  5
CCA
330
10146
100
AcDbEntity
  8
BODY002
100
AcDbCircle
 10
-16.5
 20
54.5
 30
0.0
 40
1.0
100
AcDbArc
 50
90.0
 51
180.0
  0
ARC
  5
CCB
330
10146
100
AcDbEntity
  8
BODY002
100
AcDbCircle
 10
-16.5
 20
54.5
 30
-1.6
 40
1.0
100
AcDbArc
 50
90.0
 51
180.0
  0
LINE
  5
CCC
330
10146
100
AcDbEntity
  8
BODY002
100
AcDbLine
 10
-17.5
 20
54.5
 30
0.0
 11
-17.5
 21
54.5
 31
-1.6
  0
LINE
  5
CCD
330
10146
100
AcDbEntity
  8
BODY002
100
AcDbLine
 10
-17.5
 20
40.5
 30
0.0
 11
-17.5
 21
40.5
 31
-1.6
  0
LINE
  5
CCE
330
10146
100
AcDbEntity
  8
BODY002
100
AcDbLine
 10
-17.5
 20
54.5
 30
0.0
 11
-17.5
 21
40.5
 31
0.0
  0
LINE
  5
CCF
330
10146
100
AcDbEntity
  8
BODY002
100
AcDbLine
 10
-17.5
 20
54.5
 30
-1.6
 11
-17.5
 21
40.5
 31
-1.6
  0
LINE
  5
CD0
330
10146
100
AcDbEntity
  8
BODY002
100
AcDbLine
 10
-16.5
 20
55.5
 30
0.0
 11
-16.5
 21
55.5
 31
-1.6
  0
LINE
  5
CD1
330
10146
100
AcDbEntity
  8
BODY002
100
AcDbLine
 10
-2.5
 20
55.5
 30
0.0
 11
-2.5
 21
55.5
 31
-1.6
  0
LINE
  5
CD2
330
10146
100
AcDbEntity
  8
BODY002
100
AcDbLine
 10
-16.5
 20
55.5
 30
0.0
 11
-2.5
 21
55.5
 31
0.0
  0
LINE
  5
CD3
330
10146
100
AcDbEntity
  8
BODY002
100
AcDbLine
 10
-16.5
 20
55.5
 30
-1.6
 11
-2.5
 21
55.5
 31
-1.6
  0
LINE
  5
CD4
330
10146
100
AcDbEntity
  8
BODY002
100
AcDbLine
 10
-16.5
 20
40.5
 30
0.0
 11
-16.5
 21
40.5
 31
-1.6
  0
LINE
  5
CD5
330
10146
100
AcDbEntity
  8
BODY002
100
AcDbLine
 10
-17.5
 20
40.5
 30
0.0
 11
-17.5
 21
40.5
 31
-1.6
  0
ARC
  5
CD6
330
10146
100
AcDbEntity
  8
BODY002
100
AcDbCircle
 10
-17.0
 20
40.5
 30
0.0
 40
0.5
100
AcDbArc
 50
180.0
 51
0.0000000000016284
  0
ARC
  5
CD7
330
10146
100
AcDbEntity
  8
BODY002
100
AcDbCircle
 10
-17.0
 20
40.5
 30
-1.6
 40
0.5
100
AcDbArc
 50
180.0
 51
0.0000000000016284
  0
LINE
  5
CD8
330
10146
100
AcDbEntity
  8
BODY002
100
AcDbLine
 10
-2.5
 20
55.5
 30
0.0
 11
-2.5
 21
55.5
 31
-1.6
  0
LINE
  5
CD9
330
10146
100
AcDbEntity
  8
BODY002
100
AcDbLine
 10
-2.5
 20
54.5
 30
0.0
 11
-2.5
 21
54.5
 31
-1.6
  0
ARC
  5
CDA
330
10146
100
AcDbEntity
  8
BODY002
100
AcDbCircle
 10
-2.5
 20
55.0
 30
0.0
 40
0.5
100
AcDbArc
 50
270.0
 51
90.0
  0
ARC
  5
CDB
330
10146
100
AcDbEntity
  8
BODY002
100
AcDbCircle
 10
-2.5
 20
55.0
 30
-1.6
 40
0.5
100
AcDbArc
 50
270.0
 51
90.0
  0
LINE
  5
CDC
330
10146
100
AcDbEntity
  8
BODY002
100
AcDbLine
 10
-16.5
 20
40.5
 30
0.0
 11
-16.5
 21
40.5
 31
-1.6
  0
LINE
  5
CDD
330
10146
100
AcDbEntity
  8
BODY002
100
AcDbLine
 10
-16.5
 20
54.5
 30
0.0
 11
-16.5
 21
54.5
 31
-1.6
  0
LINE
  5
CDE
330
10146
100
AcDbEntity
  8
BODY002
100
AcDbLine
 10
-16.5
 20
40.5
 30
0.0
 11
-16.5
 21
54.5
 31
0.0
  0
LINE
  5
CDF
330
10146
100
AcDbEntity
  8
BODY002
100
AcDbLine
 10
-16.5
 20
40.5
 30
-1.6
 11
-16.5
 21
54.5
 31
-1.6
  0
LINE
  5
CE0
330
10146
100
AcDbEntity
  8
BODY002
100
AcDbLine
 10
-2.5
 20
54.5
 30
0.0
 11
-2.5
 21
54.5
 31
-1.6
  0
LINE
  5
CE1
330
10146
100
AcDbEntity
  8
BODY002
100
AcDbLine
 10
-16.5
 20
54.5
 30
0.0
 11
-16.5
 21
54.5
 31
-1.6
  0
LINE
  5
CE2
330
10146
100
AcDbEntity
  8
BODY002
100
AcDbLine
 10
-2.5
 20
54.5
 30
0.0
 11
-16.5
 21
54.5
 31
0.0
  0
LINE
  5
CE3
330
10146
100
AcDbEntity
  8
BODY002
100
AcDbLine
 10
-2.5
 20
54.5
 30
-1.6
 11
-16.5
 21
54.5
 31
-1.6
  0
LINE
  5
D04
330
10146
100
AcDbEntity
  8
BODY002
100
AcDbLine
 10
-20.5
 20
25.0
 30
0.0
 11
-20.5
 21
25.0
 31
-1.6
  0
LINE
  5
D05
330
10146
100
AcDbEntity
  8
BODY002
100
AcDbLine
 10
-21.5
 20
25.0
 30
0.0
 11
-21.5
 21
25.0
 31
-1.6
  0
ARC
  5
D06
330
10146
100
AcDbEntity
  8
BODY002
100
AcDbCircle
 10
-21.0
 20
25.0
 30
0.0
 40
0.5
100
AcDbArc
 50
180.0
 51
0.0
  0
ARC
  5
D07
330
10146
100
AcDbEntity
  8
BODY002
100
AcDbCircle
 10
-21.0
 20
25.0
 30
-1.6
 40
0.5
100
AcDbArc
 50
180.0
 51
0.0
  0
LINE
  5
D08
330
10146
100
AcDbEntity
  8
BODY002
100
AcDbLine
 10
-20.5
 20
25.0
 30
0.0
 11
-20.5
 21
25.0
 31
-1.6
  0
LINE
  5
D09
330
10146
100
AcDbEntity
  8
BODY002
100
AcDbLine
 10
-20.5
 20
51.0
 30
0.0
 11
-20.5
 21
51.0
 31
-1.6
  0
LINE
  5
D0A
330
10146
100
AcDbEntity
  8
BODY002
100
AcDbLine
 10
-20.5
 20
25.0
 30
0.0
 11
-20.5
 21
51.0
 31
0.0
  0
LINE
  5
D0B
330
10146
100
AcDbEntity
  8
BODY002
100
AcDbLine
 10
-20.5
 20
25.0
 30
-1.6
 11
-20.5
 21
51.0
 31
-1.6
  0
LINE
  5
D0C
330
10146
100
AcDbEntity
  8
BODY002
100
AcDbLine
 10
-21.5
 20
25.0
 30
0.0
 11
-21.5
 21
25.0
 31
-1.6
  0
LINE
  5
D0D
330
10146
100
AcDbEntity
  8
BODY002
100
AcDbLine
 10
-21.5
 20
51.0
 30
0.0
 11
-21.5
 21
51.0
 31
-1.6
  0
LINE
  5
D0E
330
10146
100
AcDbEntity
  8
BODY002
100
AcDbLine
 10
-21.5
 20
25.0
 30
0.0
 11
-21.5
 21
51.0
 31
0.0
  0
LINE
  5
D0F
330
10146
100
AcDbEntity
  8
BODY002
100
AcDbLine
 10
-21.5
 20
25.0
 30
-1.6
 11
-21.5
 21
51.0
 31
-1.6
  0
LINE
  5
D10
330
10146
100
AcDbEntity
  8
BODY002
100
AcDbLine
 10
-21.5
 20
51.0
 30
0.0
 11
-21.5
 21
51.0
 31
-1.6
  0
LINE
  5
D11
330
10146
100
AcDbEntity
  8
BODY002
100
AcDbLine
 10
-20.5
 20
51.0
 30
0.0
 11
-20.5
 21
51.0
 31
-1.6
  0
ARC
  5
D12
330
10146
100
AcDbEntity
  8
BODY002
100
AcDbCircle
 10
-21.0
 20
51.0
 30
0.0
 40
0.5
100
AcDbArc
 50
0.0
 51
180.0
  0
ARC
  5
D13
330
10146
100
AcDbEntity
  8
BODY002
100
AcDbCircle
 10
-21.0
 20
51.0
 30
-1.6
 40
0.5
100
AcDbArc
 50
0.0
 51
180.0
  0
LINE
  5
D14
330
10146
100
AcDbEntity
  8
BODY002
100
AcDbLine
 10
-30.55
 20
56.0
 30
0.0
 11
-30.55
 21
56.0
 31
-1.6
  0
LINE
  5
D15
330
10146
100
AcDbEntity
  8
BODY002
100
AcDbLine
 10
-30.55
 20
56.0
 30
0.0
 11
-30.55
 21
56.0
 31
-1.6
  0
CIRCLE
  5
D16
330
10146
100
AcDbEntity
  8
BODY002
100
AcDbCircle
 10
-29.0
 20
56.0
 30
0.0
 40
1.55
  0
CIRCLE
  5
D17
330
10146
100
AcDbEntity
  8
BODY002
100
AcDbCircle
 10
-29.0
 20
56.0
 30
0.0
 40
1.55
  0
LINE
  5
D1E
330
10146
100
AcDbEntity
  8
BODY002
100
AcDbLine
 10
12.85
 20
-11.6545
 30
0.0
 11
12.85
 21
-11.6545
 31
-1.6
  0
LINE
  5
D1F
330
10146
100
AcDbEntity
  8
BODY002
100
AcDbLine
 10
12.85
 20
0.0
 30
0.0
 11
12.85
 21
0.0
 31
-1.6
  0
LINE
  5
D21
330
10146
100
AcDbEntity
  8
BODY002
100
AcDbLine
 10
12.85
 20
0.0
 30
-1.6
 11
12.85
 21
-10.0
 31
-1.6
  0
LINE
  5
D22
330
10146
100
AcDbEntity
  8
BODY002
100
AcDbLine
 10
-12.85
 20
0.0
 30
0.0
 11
-12.85
 21
0.0
 31
-1.6
  0
LINE
  5
D23
330
10146
100
AcDbEntity
  8
BODY002
100
AcDbLine
 10
-12.85
 20
-11.6545
 30
0.0
 11
-12.85
 21
-11.6545
 31
-1.6
  0
LINE
  5
D26
330
10146
100
AcDbEntity
  8
BODY002
100
AcDbLine
 10
-7.85
 20
-16.6545
 30
0.0
 11
-7.85
 21
-16.6545
 31
-1.6
  0
LINE
  5
D27
330
10146
100
AcDbEntity
  8
BODY002
100
AcDbLine
 10
-12.85
 20
-11.6545
 30
0.0
 11
-12.85
 21
-11.6545
 31
-1.6
  0
ARC
  5
D28
330
10146
100
AcDbEntity
  8
BODY002
100
AcDbCircle
 10
-7.85
 20
-10.0
 30
0.0
 40
5.0
100
AcDbArc
 50
180.0
 51
270.0
  0
LINE
  5
D2A
330
10146
100
AcDbEntity
  8
BODY002
100
AcDbLine
 10
-7.85
 20
-16.6545
 30
0.0
 11
-7.85
 21
-16.6545
 31
-1.6
  0
LINE
  5
D2B
330
10146
100
AcDbEntity
  8
BODY002
100
AcDbLine
 10
7.85
 20
-16.6545
 30
0.0
 11
7.85
 21
-16.6545
 31
-1.6
  0
LINE
  5
D2E
330
10146
100
AcDbEntity
  8
BODY002
100
AcDbLine
 10
12.85
 20
-11.6545
 30
0.0
 11
12.85
 21
-11.6545
 31
-1.6
  0
LINE
  5
D2F
330
10146
100
AcDbEntity
  8
BODY002
100
AcDbLine
 10
7.85
 20
-16.6545
 30
0.0
 11
7.85
 21
-16.6545
 31
-1.6
  0
ARC
  5
1001E
330
10146
100
AcDbEntity
  8
0
100
AcDbCircle
 10
28.99999999999999
 20
52.0
 30
0.0
 40
4.0
100
AcDbArc
 50
0.0
 51
180.0
  0
ARC
  5
1001F
330
10146
100
AcDbEntity
  8
0
100
AcDbCircle
 10
28.99999999999999
 20
44.0
 30
0.0
 40
4.0
100
AcDbArc
 50
180.0
 51
0.0
  0
LINE
  5
10022
330
10146
100
AcDbEntity
  8
0
100
AcDbLine
 10
24.99999999999999
 20
52.0
 30
0.0
 11
25.0
 21
44.0
 31
0.0
  0
LINE
  5
10023
330
10146
100
AcDbEntity
  8
0
100
AcDbLine
 10
32.99999999999999
 20
52.0
 30
0.0
 11
32.99999999999999
 21
44.0
 31
0.0
  0
VIEWPORT
  5
101F8
330
10142
100
AcDbEntity
 67
     1
  8
0
100
AcDbViewport
 10
5.25
 20
4.0
 30
0.0
 40
11.638
 41
8.993
 68
     1
 69
     1
1001
ACAD
1000
MVIEW
1002
{
1070
    16
1010
0.0
1020
0.0
1030
0.0
1010
0.0
1020
0.0
1030
1.0
1040
0.0
1040
8.993
1040
5.25
1040
4.0
1040
50.0
1040
0.0
1040
0.0
1070
     0
1070
   100
1070
     0
1070
     3
1070
     0
1070
     0
1070
     0
1070
     0
1040
0.0
1040
0.0
1040
0.0
1040
0.5
1040
0.5
1040
0.5
1040
0.5
1070
     0
1002
{
1002
}
1002
}
  0
ENDSEC
  0
SECTION
  2
OBJECTS
  0
DICTIONARY
  5
10134
330
0
100
AcDbDictionary
  3
ACAD_GROUP
350
10135
  3
ACAD_LAYOUT
350
10141
  3
ACAD_MATERIAL
350
1016A
  3
ACAD_MLEADERSTYLE
350
10182
  3
ACAD_MLINESTYLE
350
1013E
  3
ACAD_PLOTSETTINGS
350
10140
  3
ACAD_SCALELIST
350
1016E
  3
ACAD_VISUALSTYLE
350
10151
  3
ACDBHEADERROUNDTRIPXREC
350
101FA
  3
ACDBVARIABLEDICTIONARY
350
1021B
  3
DWGPROPS
350
10222
  3
QCAD_OBJECTS
350
10186
  0
DICTIONARY
  5
10223
330
10130
100
AcDbDictionary
280
     1
  3
ACAD_XREC_ROUNDTRIP
360
10224
  0
DICTIONARY
  5
10135
102
{ACAD_REACTORS
330
10134
102
}
330
10134
100
AcDbDictionary
  0
DICTIONARY
  5
10141
102
{ACAD_REACTORS
330
10134
102
}
330
10134
100
AcDbDictionary
  0
DICTIONARY
  5
1016A
102
{ACAD_REACTORS
330
10134
102
}
330
10134
100
AcDbDictionary
  3
BYBLOCK
350
1016C
  3
BYLAYER
350
1016B
  3
GLOBAL
350
1016D
  0
DICTIONARY
  5
10182
102
{ACAD_REACTORS
330
10134
102
}
330
10134
100
AcDbDictionary
  3
STANDARD
350
10183
  0
DICTIONARY
  5
1013E
102
{ACAD_REACTORS
330
10134
102
}
330
10134
100
AcDbDictionary
  3
STANDARD
350
1013F
  0
DICTIONARY
  5
10140
102
{ACAD_REACTORS
330
10134
102
}
330
10134
100
AcDbDictionary
  0
DICTIONARY
  5
1016E
102
{ACAD_REACTORS
330
10134
102
}
330
10134
100
AcDbDictionary
  3
A0
350
1016F
  3
A1
350
10170
  3
A2
350
10171
  3
A3
350
10172
  3
A4
350
10173
  3
A5
350
10174
  3
A6
350
10175
  3
A7
350
10176
  3
A8
350
10177
  3
A9
350
10178
  3
B1
350
10179
  3
B2
350
1017A
  3
B3
350
1017B
  3
B4
350
1017C
  3
B5
350
1017D
  3
B6
350
1017E
  3
B7
350
1017F
  0
DICTIONARY
  5
10151
102
{ACAD_REACTORS
330
10134
102
}
330
10134
100
AcDbDictionary
  3
2DWIREFRAME
350
10156
  3
BASIC
350
10159
  3
BRIGHTEN
350
1015D
  3
COLORCHANGE
350
10161
  3
CONCEPTUAL
350
1015B
  3
DIM
350
1015C
  3
EDGECOLOROFF
350
10164
  3
FACEPATTERN
350
10160
  3
FLAT
350
10152
  3
FLATWITHEDGES
350
10153
  3
GOURAUD
350
10154
  3
GOURAUDWITHEDGES
350
10155
  3
HIDDEN
350
10158
  3
JITTEROFF
350
10162
  3
LINEPATTERN
350
1015F
  3
OVERHANGOFF
350
10163
  3
REALISTIC
350
1015A
  3
SHADED
350
10169
  3
SHADED_WITH_EDGES
350
10168
  3
SHADES_OF_GRAY
350
10165
  3
SKETCHY
350
10166
  3
THICKEN
350
1015E
  3
WIREFRAME
350
10157
  3
X-RAY
350
10167
  0
DICTIONARY
  5
101FA
102
{ACAD_REACTORS
330
10134
102
}
330
10134
100
AcDbDictionary
  3
CEPSNID
350
10204
  3
CEPSNTYPE
350
10203
  3
DIMSTYLEDATA
350
1021A
  3
FINGERPRINTGUID
350
10205
  3
HYPERLINKBASE
350
101FD
  3
INSUNITS
350
10202
  3
LAYOUTDICT
350
101FF
  3
LWETCUNION
350
10201
  3
PLOTSETDICT
350
10200
  3
PSVPSCALE
350
10207
  3
PUCSBASE
350
1020A
  3
PUCSORGBACK
350
10210
  3
PUCSORGBOTTOM
350
1020C
  3
PUCSORGFRONT
350
1020F
  3
PUCSORGLEFT
350
1020D
  3
PUCSORGRIGHT
350
1020E
  3
PUCSORGTOP
350
1020B
  3
PUCSORTHOREF
350
10208
  3
PUCSORTHOVIEW
350
10209
  3
STYLESHEET
350
101FE
  3
TSTACKALIGN
350
101FB
  3
TSTACKSIZE
350
101FC
  3
UCSBASE
350
10213
  3
UCSORGBACK
350
10219
  3
UCSORGBOTTOM
350
10215
  3
UCSORGFRONT
350
10218
  3
UCSORGLEFT
350
10216
  3
UCSORGRIGHT
350
10217
  3
UCSORGTOP
350
10214
  3
UCSORTHOREF
350
10211
  3
UCSORTHOVIEW
350
10212
  3
VERSIONGUID
350
10206
  0
DICTIONARY
  5
1021B
102
{ACAD_REACTORS
330
10134
102
}
330
10134
100
AcDbDictionary
  3
CANNOSCALE
350
10225
  3
CMLEADERSTYLE
350
1021D
  3
CTABLESTYLE
350
1021C
  3
DIMASSOC
350
10220
  3
HIDETEXT
350
10221
  3
MSLTSCALE
350
10226
  0
XRECORD
  5
10222
102
{ACAD_REACTORS
330
10134
102
}
330
10134
100
AcDbXrecord
  1
DWGPROPS COOKIE
  2

  3

  4

  6

  7

  8
maerki
  9

300
=
301
=
302
=
303
=
304
=
305
=
306
=
307
=
308
=
309
=
 40
0.0
 41
2460207.001040683
 42
2460207.001041238
  1

 90
        0
  0
DICTIONARY
  5
10186
102
{ACAD_REACTORS
330
10134
102
}
330
10134
100
AcDbDictionary
  3
COLORSETTINGS/BACKGROUNDCOLOR
350
10188
  3
COLORSETTINGS/COLORMODE
350
10189
  3
GRID/DISPLAYGRID00
350
1018A
  3
GRID/DISPLAYGRID01
350
1018B
  3
GRID/DISPLAYGRID02
350
1018C
  3
GRID/DISPLAYGRID03
350
1018D
  3
GRID/GRIDSPACINGX00
350
1018E
  3
GRID/GRIDSPACINGX01
350
1018F
  3
GRID/GRIDSPACINGX02
350
10190
  3
GRID/GRIDSPACINGX03
350
10191
  3
GRID/GRIDSPACINGY00
350
10192
  3
GRID/GRIDSPACINGY01
350
10193
  3
GRID/GRIDSPACINGY02
350
10194
  3
GRID/GRIDSPACINGY03
350
10195
  3
GRID/ISOMETRICGRID00
350
10196
  3
GRID/ISOMETRICGRID01
350
10197
  3
GRID/ISOMETRICGRID02
350
10198
  3
GRID/ISOMETRICGRID03
350
10199
  3
GRID/ISOMETRICPROJECTION00
350
1019A
  3
GRID/ISOMETRICPROJECTION01
350
1019B
  3
GRID/ISOMETRICPROJECTION02
350
1019C
  3
GRID/ISOMETRICPROJECTION03
350
1019D
  3
GRID/METAGRIDSPACINGX00
350
1019E
  3
GRID/METAGRIDSPACINGX01
350
1019F
  3
GRID/METAGRIDSPACINGX02
350
101A0
  3
GRID/METAGRIDSPACINGX03
350
101A1
  3
GRID/METAGRIDSPACINGY00
350
101A2
  3
GRID/METAGRIDSPACINGY01
350
101A3
  3
GRID/METAGRIDSPACINGY02
350
101A4
  3
GRID/METAGRIDSPACINGY03
350
101A5
  3
MULTIPAGESETTINGS/COLUMNS
350
101A6
  3
MULTIPAGESETTINGS/GLUEMAR0
350
101A7
  3
MULTIPAGESETTINGS/GLUEMAR1
350
101A8
  3
MULTIPAGESETTINGS/GLUEMAR2
350
101A9
  3
MULTIPAGESETTINGS/GLUEMARG
350
101AA
  3
MultiPageSettings/GlueMarginsBottom
350
101AD
  3
MultiPageSettings/GlueMarginsLeft
350
101AE
  3
MultiPageSettings/GlueMarginsRight
350
101AF
  3
MultiPageSettings/GlueMarginsTop
350
101B0
  3
MULTIPAGESETTINGS/PRINTCRO
350
101AB
  3
MultiPageSettings/PrintCropMarks
350
101B1
  3
MULTIPAGESETTINGS/ROWS
350
101AC
  3
PAGESETTINGS/OFFSETX
350
101B2
  3
PAGESETTINGS/OFFSETY
350
101B3
  3
PAGESETTINGS/PAGEORIENTATION
350
101B4
  3
PAGESETTINGS/PAPERHEIGHT
350
101B5
  3
PAGESETTINGS/PAPERWIDTH
350
101B6
  3
PAGESETTINGS/SCALE
350
101B7
  3
PAGESETTINGS/SHOWPAPERBORDERS
350
101B8
  3
PAGETAGSETTINGS/ENABLEPAGETAGS
350
101B9
  3
PAGETAGSETTINGS/TAGALIGNMENT
350
101BA
  3
PAGETAGSETTINGS/TAGFONT
350
101BB
  3
PAGETAGSETTINGS/TAGPOSITION
350
101BC
  3
QCADVERSION
350
101BD
  3
UNITSETTINGS/PAPERUNIT
350
101BE
  3
VIEWPORTCENTER
350
101BF
  3
VIEWPORTHEIGHT
350
101C0
  3
VIEWPORTWIDTH
350
101C1
  0
XRECORD
  5
10224
102
{ACAD_REACTORS
330
10223
102
}
330
10223
100
AcDbXrecord
102
VTR_0.000_0.000_1.000_1.000_VISUALSTYLE
340
10156
102
VTR_0.000_0.000_1.000_1.000_GRIDDISPLAY
 70
     3
102
VTR_0.000_0.000_1.000_1.000_GRIDMAJOR
 70
     5
102
VTR_0.000_0.000_1.000_1.000_DEFAULTLIGHTING
280
     1
102
VTR_0.000_0.000_1.000_1.000_DEFAULTLIGHTINGTYPE
 70
     1
102
VTR_0.000_0.000_1.000_1.000_BRIGHTNESS
141
0.0
102
VTR_0.000_0.000_1.000_1.000_CONTRAST
142
0.0
  0
MATERIAL
  5
1016C
102
{ACAD_REACTORS
330
1016A
102
}
102
{ACAD_XDICTIONARY
360
10229
102
}
330
1016A
100
AcDbMaterial
  1
BYBLOCK
  0
MATERIAL
  5
1016B
102
{ACAD_REACTORS
330
1016A
102
}
102
{ACAD_XDICTIONARY
360
10227
102
}
330
1016A
100
AcDbMaterial
  1
BYLAYER
  0
MATERIAL
  5
1016D
102
{ACAD_REACTORS
330
1016A
102
}
102
{ACAD_XDICTIONARY
360
1022B
102
}
330
1016A
100
AcDbMaterial
  1
GLOBAL
  0
ACAD_PROXY_OBJECT
  5
10183
102
{ACAD_REACTORS
330
10182
102
}
330
10182
100
AcDbProxyObject
 90
      499
 91
      505
 93
      610
310
40901902A4063FBFFFFFE056BD1B81E855B9FC0AD7A3703D0AD73F4214DD185B99185C9900AD7A3703D0AC73F90141901A02B5E8DC0F42B1CFC02B5E8DC0F42B1CFE5764000000000000300FC0
340
1013B
340
0
340
10139
340
0
 94
        0
1001
ACAD_MLEADERVER
1070
     2
  0
MLINESTYLE
  5
1013F
102
{ACAD_REACTORS
330
1013E
102
}
330
1013E
100
AcDbMlineStyle
  2
Standard
 70
     0
  3

 62
   256
 51
90.0
 52
90.0
 71
     2
 49
0.5
 62
   256
  6
BYLAYER
 49
-0.5
 62
   256
  6
BYLAYER
  0
ACAD_PROXY_OBJECT
  5
1016F
102
{ACAD_REACTORS
330
1016E
102
}
330
1016E
100
AcDbProxyObject
 90
      499
 91
      503
 93
       41
310
903313A31580
  0
ACAD_PROXY_OBJECT
  5
10170
102
{ACAD_REACTORS
330
1016E
102
}
330
1016E
100
AcDbProxyObject
 90
      499
 91
      503
 93
      257
310
90E312F31323822203D2031272D3022000000000000200FC000000000000284000
  0
ACAD_PROXY_OBJECT
  5
10171
102
{ACAD_REACTORS
330
1016E
102
}
330
1016E
100
AcDbProxyObject
 90
      499
 91
      503
 93
      249
310
90D312F363422203D2031272D3022000000000000240FC000000000000284000
  0
ACAD_PROXY_OBJECT
  5
10172
102
{ACAD_REACTORS
330
1016E
102
}
330
1016E
100
AcDbProxyObject
 90
      499
 91
      503
 93
      249
310
90D312F333222203D2031272D3022000000000000280FC000000000000284000
  0
ACAD_PROXY_OBJECT
  5
10173
102
{ACAD_REACTORS
330
1016E
102
}
330
1016E
100
AcDbProxyObject
 90
      499
 91
      503
 93
      249
310
90D312F313622203D2031272D30220000000000002C0FC000000000000284000
  0
ACAD_PROXY_OBJECT
  5
10174
102
{ACAD_REACTORS
330
1016E
102
}
330
1016E
100
AcDbProxyObject
 90
      499
 91
      503
 93
      249
310
90D332F333222203D2031272D30220000000000002E0FC000000000000284000
  0
ACAD_PROXY_OBJECT
  5
10175
102
{ACAD_REACTORS
330
1016E
102
}
330
1016E
100
AcDbProxyObject
 90
      499
 91
      503
 93
      241
310
90C312F3822203D2031272D3022000000000000300FC000000000000284000
  0
ACAD_PROXY_OBJECT
  5
10176
102
{ACAD_REACTORS
330
1016E
102
}
330
1016E
100
AcDbProxyObject
 90
      499
 91
      503
 93
      249
310
90D332F313622203D2031272D3022000000000000320FC000000000000284000
  0
ACAD_PROXY_OBJECT
  5
10177
102
{ACAD_REACTORS
330
1016E
102
}
330
1016E
100
AcDbProxyObject
 90
      499
 91
      503
 93
      241
310
90C312F3422203D2031272D3022000000000000340FC000000000000284000
  0
ACAD_PROXY_OBJECT
  5
10178
102
{ACAD_REACTORS
330
1016E
102
}
330
1016E
100
AcDbProxyObject
 90
      499
 91
      503
 93
      241
310
90C332F3822203D2031272D3022000000000000360FC000000000000284000
  0
ACAD_PROXY_OBJECT
  5
10179
102
{ACAD_REACTORS
330
1016E
102
}
330
1016E
100
AcDbProxyObject
 90
      499
 91
      503
 93
      241
310
90C312F3222203D2031272D3022000000000000380FC000000000000284000
  0
ACAD_PROXY_OBJECT
  5
1017A
102
{ACAD_REACTORS
330
1016E
102
}
330
1016E
100
AcDbProxyObject
 90
      499
 91
      503
 93
      241
310
90C332F3422203D2031272D30220000000000003A0FC000000000000284000
  0
ACAD_PROXY_OBJECT
  5
1017B
102
{ACAD_REACTORS
330
1016E
102
}
330
1016E
100
AcDbProxyObject
 90
      499
 91
      503
 93
      161
310
90A3122203D2031272D30224000000000000284000
  0
ACAD_PROXY_OBJECT
  5
1017C
102
{ACAD_REACTORS
330
1016E
102
}
330
1016E
100
AcDbProxyObject
 90
      499
 91
      503
 93
      257
310
90E312D312F3222203D2031272D30220000000000003E0FC000000000000284000
  0
ACAD_PROXY_OBJECT
  5
1017D
102
{ACAD_REACTORS
330
1016E
102
}
330
1016E
100
AcDbProxyObject
 90
      499
 91
      503
 93
      225
310
90A3322203D2031272D302200000000000002100000000000000284000
  0
ACAD_PROXY_OBJECT
  5
1017E
102
{ACAD_REACTORS
330
1016E
102
}
330
1016E
100
AcDbProxyObject
 90
      499
 91
      503
 93
      225
310
90A3622203D2031272D302200000000000006100000000000000284000
  0
ACAD_PROXY_OBJECT
  5
1017F
102
{ACAD_REACTORS
330
1016E
102
}
330
1016E
100
AcDbProxyObject
 90
      499
 91
      503
 93
      249
310
90D31272D3022203D2031272D30220000000000000A100000000000000284000
  0
ACAD_PROXY_OBJECT
  5
10156
102
{ACAD_REACTORS
330
10151
102
}
330
10151
100
AcDbProxyObject
 90
      499
 91
      501
 93
      436
310
42CC9915DA5C99599C985B595049028333333333333E33F0000000000000F90107901411070040501600405405064090741402480A0340
1001
ACAD
1000
AcDbSavedByObjectVersion
1070
     0
  0
ACAD_PROXY_OBJECT
  5
10159
102
{ACAD_REACTORS
330
10151
102
}
330
10151
100
AcDbProxyObject
 90
      499
 91
      501
 93
      388
310
4150985CDA58D07406404333333333333E33F0000000000000F90107A41107004050150841D405064090741402480A0350
1001
ACAD
1000
AcDbSavedByObjectVersion
1070
     0
  0
ACAD_PROXY_OBJECT
  5
1015D
102
{ACAD_REACTORS
330
10151
102
}
330
10151
100
AcDbProxyObject
 90
      499
 91
      501
 93
      428
310
42109C9A59DA1D195B90C409028333333333333E33F0000000000000F9010790141107004050150841D405064090741402480A029950
1001
ACAD
1000
AcDbSavedByObjectVersion
1070
     0
  0
ACAD_PROXY_OBJECT
  5
10161
102
{ACAD_REACTORS
330
10151
102
}
330
10151
100
AcDbProxyObject
 90
      499
 91
      501
 93
      452
310
42D0DBDB1BDC90DA185B99D95104090240C333333333333E33F0000000000000F90108901411070040501508421405064090741402480A0350
1001
ACAD
1000
AcDbSavedByObjectVersion
1070
     0
  0
ACAD_PROXY_OBJECT
  5
1015B
102
{ACAD_REACTORS
330
10151
102
}
330
10151
100
AcDbProxyObject
 90
      499
 91
      501
 93
      500
310
4290DBDB98D95C1D1D585B10940D028333333333333E33F0000000000000F90107902409070040501000000000018199010841D405064090740C02480A0340
1001
ACAD
1000
AcDbSavedByObjectVersion
1070
     0
  0
ACAD_PROXY_OBJECT
  5
1015C
102
{ACAD_REACTORS
330
10151
102
}
330
10151
100
AcDbProxyObject
 90
      499
 91
      501
 93
      412
310
40D11A5B50B409028333333333333E33F0000000000000F9010790141107004050150841D405064090741402480A02677FFFFFD0
1001
ACAD
1000
AcDbSavedByObjectVersion
1070
     0
  0
ACAD_PROXY_OBJECT
  5
10164
102
{ACAD_REACTORS
330
10151
102
}
330
10151
100
AcDbProxyObject
 90
      499
 91
      501
 93
      452
310
43115919D950DBDB1BDC93D999916409028333333333333E33F0000000000000F9010790141107004050150841D405064090741402480A0350
1001
ACAD
1000
AcDbSavedByObjectVersion
1070
     0
  0
ACAD_PROXY_OBJECT
  5
10160
102
{ACAD_REACTORS
330
10151
102
}
330
10151
100
AcDbProxyObject
 90
      499
 91
      501
 93
      444
310
42D19858D95C185D1D195C9B90F409028333333333333E33F0000000000000F9010790141107004050150841D405064090741402480A0350
1001
ACAD
1000
AcDbSavedByObjectVersion
1070
     0
  0
ACAD_PROXY_OBJECT
  5
10152
102
{ACAD_REACTORS
330
10151
102
}
330
10151
100
AcDbProxyObject
 90
      499
 91
      501
 93
      380
310
41119B185D240901404333333333333E33F0000000000000F9010740A907004050150841D405064090741402480A1B50
1001
ACAD
1000
AcDbSavedByObjectVersion
1070
     0
  0
ACAD_PROXY_OBJECT
  5
10153
102
{ACAD_REACTORS
330
10151
102
}
330
10151
100
AcDbProxyObject
 90
      499
 91
      501
 93
      468
310
43519B185D15DA5D1A115919D95CD0140901404333333333333E33F0000000000000F90107409019070040501600405405064090741402480A1B50
1001
ACAD
1000
AcDbSavedByObjectVersion
1070
     0
  0
ACAD_PROXY_OBJECT
  5
10154
102
{ACAD_REACTORS
330
10151
102
}
330
10151
100
AcDbProxyObject
 90
      499
 91
      501
 93
      404
310
41D1DBDD5C985D5910240902404333333333333E33F0000000000000F9010740A9070040501641D405064090741402480A1B50
1001
ACAD
1000
AcDbSavedByObjectVersion
1070
     0
  0
ACAD_PROXY_OBJECT
  5
10155
102
{ACAD_REACTORS
330
10151
102
}
330
10151
100
AcDbProxyObject
 90
      499
 91
      501
 93
      492
310
4411DBDD5C985D5915DA5D1A115919D95CD0340902404333333333333E33F0000000000000F90107409019070040501600405405064090741402480A1B50
1001
ACAD
1000
AcDbSavedByObjectVersion
1070
     0
  0
ACAD_PROXY_OBJECT
  5
10158
102
{ACAD_REACTORS
330
10151
102
}
330
10151
100
AcDbProxyObject
 90
      499
 91
      501
 93
      476
310
41921A5919195B90640502408333333333333E33F0000000000000F901079024090700405020000000000001110200405405064090740C02480A0340
1001
ACAD
1000
AcDbSavedByObjectVersion
1070
     0
  0
ACAD_PROXY_OBJECT
  5
10162
102
{ACAD_REACTORS
330
10151
102
}
330
10151
100
AcDbProxyObject
 90
      499
 91
      501
 93
      428
310
42529A5D1D195C93D999914409028333333333333E33F0000000000000F9010790141107004050150A41D405064090741402480A0350
1001
ACAD
1000
AcDbSavedByObjectVersion
1070
     0
  0
ACAD_PROXY_OBJECT
  5
1015F
102
{ACAD_REACTORS
330
10151
102
}
330
10151
100
AcDbProxyObject
 90
      499
 91
      501
 93
      444
310
42D31A5B995C185D1D195C9B90E409028333333333333E33F0000000000000F9010790141107004050750841D405064090741402483A0350
1001
ACAD
1000
AcDbSavedByObjectVersion
1070
     0
  0
ACAD_PROXY_OBJECT
  5
10163
102
{ACAD_REACTORS
330
10151
102
}
330
10151
100
AcDbProxyObject
 90
      499
 91
      501
 93
      444
310
42D3DD995C9A185B99D3D999915409028333333333333E33F0000000000000F9010790141107004050150941D405064090741402480A0350
1001
ACAD
1000
AcDbSavedByObjectVersion
1070
     0
  0
ACAD_PROXY_OBJECT
  5
1015A
102
{ACAD_REACTORS
330
10151
102
}
330
10151
100
AcDbProxyObject
 90
      499
 91
      501
 93
      428
310
425499585B1A5CDD1A58D08409038333333333333E33F0000000000000F9010740A907004050150800405405064090740C02480A1B40
1001
ACAD
1000
AcDbSavedByObjectVersion
1070
     0
  0
ACAD_PROXY_OBJECT
  5
10169
102
{ACAD_REACTORS
330
10151
102
}
330
10151
100
AcDbProxyObject
 90
      499
 91
      501
 93
      420
310
4194DA1859195911B40902404333333333333E33F0000000000000F9010740A41107004050150800405405064090840C02480A0B40
1001
ACAD
1000
AcDbSavedByObjectVersion
1070
     0
  0
ACAD_PROXY_OBJECT
  5
10168
102
{ACAD_REACTORS
330
10151
102
}
330
10151
100
AcDbProxyObject
 90
      499
 91
      501
 93
      516
310
4454DA18591959081DDA5D1A08195919D95CD1A40902404333333333333E33F0000000000000F901074090142907004050250800405405064090740C02480A0B40
1001
ACAD
1000
AcDbSavedByObjectVersion
1070
     0
  0
ACAD_PROXY_OBJECT
  5
10165
102
{ACAD_REACTORS
330
10151
102
}
330
10151
100
AcDbProxyObject
 90
      499
 91
      501
 93
      532
310
4394DA1859195CC81BD98811DC985E5174090240C333333333333E33F0000000000000F901079024090741D01000000000000111010841D405064090740C02480A0340
1001
ACAD
1000
AcDbSavedByObjectVersion
1070
     0
  0
ACAD_PROXY_OBJECT
  5
10166
102
{ACAD_REACTORS
330
10151
102
}
330
10151
100
AcDbProxyObject
 90
      499
 91
      501
 93
      476
310
41D4DAD95D18DA1E51840502408333333333333E33F0000000000000F901079024090741D01000000000000111010B41D405064090741802480A0340
1001
ACAD
1000
AcDbSavedByObjectVersion
1070
     0
  0
ACAD_PROXY_OBJECT
  5
1015E
102
{ACAD_REACTORS
330
10151
102
}
330
10151
100
AcDbProxyObject
 90
      499
 91
      501
 93
      412
310
41D51A1A58DAD95B90D409028333333333333E33F0000000000000F9010790141107004050150C41D405064090741402480A0350
1001
ACAD
1000
AcDbSavedByObjectVersion
1070
     0
  0
ACAD_PROXY_OBJECT
  5
10157
102
{ACAD_REACTORS
330
10151
102
}
330
10151
100
AcDbProxyObject
 90
      499
 91
      501
 93
      420
310
4255DA5C99599C985B595059028333333333333E33F0000000000000F90107901411070040501600405405064090740C02480A0340
1001
ACAD
1000
AcDbSavedByObjectVersion
1070
     0
  0
ACAD_PROXY_OBJECT
  5
10167
102
{ACAD_REACTORS
330
10151
102
}
330
10151
100
AcDbProxyObject
 90
      499
 91
      501
 93
      404
310
41560B54985E51940902404000000000000E03F0000000000000F9010740501907004050150841D405064090740C02480A1B40
1001
ACAD
1000
AcDbSavedByObjectVersion
1070
     0
  0
XRECORD
  5
10204
102
{ACAD_REACTORS
330
101FA
102
}
330
101FA
100
AcDbXrecord
340
0
  0
XRECORD
  5
10203
102
{ACAD_REACTORS
330
101FA
102
}
330
101FA
100
AcDbXrecord
 90
        0
  0
XRECORD
  5
1021A
102
{ACAD_REACTORS
330
101FA
102
}
330
101FA
100
AcDbXrecord
1000
DSTYLE
1002
{
1070
   340
340
10139
1002
}
  0
XRECORD
  5
10205
102
{ACAD_REACTORS
330
101FA
102
}
330
101FA
100
AcDbXrecord
  1
{66f43973-3361-3162-b430-37f666b036b4}
  0
XRECORD
  5
101FD
102
{ACAD_REACTORS
330
101FA
102
}
330
101FA
100
AcDbXrecord
  1

  0
XRECORD
  5
10202
102
{ACAD_REACTORS
330
101FA
102
}
330
101FA
100
AcDbXrecord
 90
        4
  0
XRECORD
  5
101FF
102
{ACAD_REACTORS
330
101FA
102
}
330
101FA
100
AcDbXrecord
340
10141
  0
XRECORD
  5
10201
102
{ACAD_REACTORS
330
101FA
102
}
330
101FA
100
AcDbXrecord
 90
    10781
  0
XRECORD
  5
10200
102
{ACAD_REACTORS
330
101FA
102
}
330
101FA
100
AcDbXrecord
340
10140
  0
XRECORD
  5
10207
102
{ACAD_REACTORS
330
101FA
102
}
330
101FA
100
AcDbXrecord
 40
0.0
  0
XRECORD
  5
1020A
102
{ACAD_REACTORS
330
101FA
102
}
330
101FA
100
AcDbXrecord
340
0
  0
XRECORD
  5
10210
102
{ACAD_REACTORS
330
101FA
102
}
330
101FA
100
AcDbXrecord
 10
0.0
 20
0.0
 30
0.0
  0
XRECORD
  5
1020C
102
{ACAD_REACTORS
330
101FA
102
}
330
101FA
100
AcDbXrecord
 10
0.0
 20
0.0
 30
0.0
  0
XRECORD
  5
1020F
102
{ACAD_REACTORS
330
101FA
102
}
330
101FA
100
AcDbXrecord
 10
0.0
 20
0.0
 30
0.0
  0
XRECORD
  5
1020D
102
{ACAD_REACTORS
330
101FA
102
}
330
101FA
100
AcDbXrecord
 10
0.0
 20
0.0
 30
0.0
  0
XRECORD
  5
1020E
102
{ACAD_REACTORS
330
101FA
102
}
330
101FA
100
AcDbXrecord
 10
0.0
 20
0.0
 30
0.0
  0
XRECORD
  5
1020B
102
{ACAD_REACTORS
330
101FA
102
}
330
101FA
100
AcDbXrecord
 10
0.0
 20
0.0
 30
0.0
  0
XRECORD
  5
10208
102
{ACAD_REACTORS
330
101FA
102
}
330
101FA
100
AcDbXrecord
340
0
  0
XRECORD
  5
10209
102
{ACAD_REACTORS
330
101FA
102
}
330
101FA
100
AcDbXrecord
 70
     0
  0
XRECORD
  5
101FE
102
{ACAD_REACTORS
330
101FA
102
}
330
101FA
100
AcDbXrecord
  1

  0
XRECORD
  5
101FB
102
{ACAD_REACTORS
330
101FA
102
}
330
101FA
100
AcDbXrecord
 90
        1
  0
XRECORD
  5
101FC
102
{ACAD_REACTORS
330
101FA
102
}
330
101FA
100
AcDbXrecord
 90
       70
  0
XRECORD
  5
10213
102
{ACAD_REACTORS
330
101FA
102
}
330
101FA
100
AcDbXrecord
340
0
  0
XRECORD
  5
10219
102
{ACAD_REACTORS
330
101FA
102
}
330
101FA
100
AcDbXrecord
 10
0.0
 20
0.0
 30
0.0
  0
XRECORD
  5
10215
102
{ACAD_REACTORS
330
101FA
102
}
330
101FA
100
AcDbXrecord
 10
0.0
 20
0.0
 30
0.0
  0
XRECORD
  5
10218
102
{ACAD_REACTORS
330
101FA
102
}
330
101FA
100
AcDbXrecord
 10
0.0
 20
0.0
 30
0.0
  0
XRECORD
  5
10216
102
{ACAD_REACTORS
330
101FA
102
}
330
101FA
100
AcDbXrecord
 10
0.0
 20
0.0
 30
0.0
  0
XRECORD
  5
10217
102
{ACAD_REACTORS
330
101FA
102
}
330
101FA
100
AcDbXrecord
 10
0.0
 20
0.0
 30
0.0
  0
XRECORD
  5
10214
102
{ACAD_REACTORS
330
101FA
102
}
330
101FA
100
AcDbXrecord
 10
0.0
 20
0.0
 30
0.0
  0
XRECORD
  5
10211
102
{ACAD_REACTORS
330
101FA
102
}
330
101FA
100
AcDbXrecord
340
0
  0
XRECORD
  5
10212
102
{ACAD_REACTORS
330
101FA
102
}
330
101FA
100
AcDbXrecord
 70
     0
  0
XRECORD
  5
10206
102
{ACAD_REACTORS
330
101FA
102
}
330
101FA
100
AcDbXrecord
  1
{FAEB1C32-E019-11D5-929B-00C0DF256EC4}
  0
DICTIONARYVAR
  5
10225
102
{ACAD_REACTORS
330
1021B
102
}
330
1021B
100
DictionaryVariables
280
     0
  1
1:1
  0
DICTIONARYVAR
  5
1021D
102
{ACAD_REACTORS
330
1021B
102
}
330
1021B
100
DictionaryVariables
280
     0
  1
Standard
  0
DICTIONARYVAR
  5
1021C
102
{ACAD_REACTORS
330
1021B
102
}
330
1021B
100
DictionaryVariables
280
     0
  1
Standard
  0
DICTIONARYVAR
  5
10220
102
{ACAD_REACTORS
330
1021B
102
}
330
1021B
100
DictionaryVariables
280
     0
  1
2
  0
DICTIONARYVAR
  5
10221
102
{ACAD_REACTORS
330
1021B
102
}
330
1021B
100
DictionaryVariables
280
     0
  1
1
  0
DICTIONARYVAR
  5
10226
102
{ACAD_REACTORS
330
1021B
102
}
330
1021B
100
DictionaryVariables
280
     0
  1
1
  0
XRECORD
  5
10188
102
{ACAD_REACTORS
330
10186
102
}
330
10186
100
AcDbXrecord
1000
#ffffff
  0
XRECORD
  5
10189
102
{ACAD_REACTORS
330
10186
102
}
330
10186
100
AcDbXrecord
1000
FullColor
  0
ACAD_PROXY_OBJECT
  5
1018A
102
{ACAD_REACTORS
330
10186
102
}
330
10186
100
AcDbProxyObject
 90
      499
 91
      508
 93
       34
310
40C8804040
  0
ACAD_PROXY_OBJECT
  5
1018B
102
{ACAD_REACTORS
330
10186
102
}
330
10186
100
AcDbProxyObject
 90
      499
 91
      508
 93
       34
310
40C8804040
  0
ACAD_PROXY_OBJECT
  5
1018C
102
{ACAD_REACTORS
330
10186
102
}
330
10186
100
AcDbProxyObject
 90
      499
 91
      508
 93
       34
310
40C8804040
  0
ACAD_PROXY_OBJECT
  5
1018D
102
{ACAD_REACTORS
330
10186
102
}
330
10186
100
AcDbProxyObject
 90
      499
 91
      508
 93
       34
310
40C8804040
  0
XRECORD
  5
1018E
102
{ACAD_REACTORS
330
10186
102
}
330
10186
100
AcDbXrecord
1000
auto
  0
XRECORD
  5
1018F
102
{ACAD_REACTORS
330
10186
102
}
330
10186
100
AcDbXrecord
1000
auto
  0
XRECORD
  5
10190
102
{ACAD_REACTORS
330
10186
102
}
330
10186
100
AcDbXrecord
1000
auto
  0
XRECORD
  5
10191
102
{ACAD_REACTORS
330
10186
102
}
330
10186
100
AcDbXrecord
1000
auto
  0
XRECORD
  5
10192
102
{ACAD_REACTORS
330
10186
102
}
330
10186
100
AcDbXrecord
1000
auto
  0
XRECORD
  5
10193
102
{ACAD_REACTORS
330
10186
102
}
330
10186
100
AcDbXrecord
1000
auto
  0
XRECORD
  5
10194
102
{ACAD_REACTORS
330
10186
102
}
330
10186
100
AcDbXrecord
1000
auto
  0
XRECORD
  5
10195
102
{ACAD_REACTORS
330
10186
102
}
330
10186
100
AcDbXrecord
1000
auto
  0
ACAD_PROXY_OBJECT
  5
10196
102
{ACAD_REACTORS
330
10186
102
}
330
10186
100
AcDbProxyObject
 90
      499
 91
      508
 93
       34
310
40C8804000
  0
ACAD_PROXY_OBJECT
  5
10197
102
{ACAD_REACTORS
330
10186
102
}
330
10186
100
AcDbProxyObject
 90
      499
 91
      508
 93
       34
310
40C8804000
  0
ACAD_PROXY_OBJECT
  5
10198
102
{ACAD_REACTORS
330
10186
102
}
330
10186
100
AcDbProxyObject
 90
      499
 91
      508
 93
       34
310
40C8804000
  0
ACAD_PROXY_OBJECT
  5
10199
102
{ACAD_REACTORS
330
10186
102
}
330
10186
100
AcDbProxyObject
 90
      499
 91
      508
 93
       34
310
40C8804000
  0
XRECORD
  5
1019A
102
{ACAD_REACTORS
330
10186
102
}
330
10186
100
AcDbXrecord
 90
    65537
  0
XRECORD
  5
1019B
102
{ACAD_REACTORS
330
10186
102
}
330
10186
100
AcDbXrecord
 90
    65537
  0
XRECORD
  5
1019C
102
{ACAD_REACTORS
330
10186
102
}
330
10186
100
AcDbXrecord
 90
    65537
  0
XRECORD
  5
1019D
102
{ACAD_REACTORS
330
10186
102
}
330
10186
100
AcDbXrecord
 90
    65537
  0
XRECORD
  5
1019E
102
{ACAD_REACTORS
330
10186
102
}
330
10186
100
AcDbXrecord
1000
auto
  0
XRECORD
  5
1019F
102
{ACAD_REACTORS
330
10186
102
}
330
10186
100
AcDbXrecord
1000
auto
  0
XRECORD
  5
101A0
102
{ACAD_REACTORS
330
10186
102
}
330
10186
100
AcDbXrecord
1000
auto
  0
XRECORD
  5
101A1
102
{ACAD_REACTORS
330
10186
102
}
330
10186
100
AcDbXrecord
1000
auto
  0
XRECORD
  5
101A2
102
{ACAD_REACTORS
330
10186
102
}
330
10186
100
AcDbXrecord
1000
auto
  0
XRECORD
  5
101A3
102
{ACAD_REACTORS
330
10186
102
}
330
10186
100
AcDbXrecord
1000
auto
  0
XRECORD
  5
101A4
102
{ACAD_REACTORS
330
10186
102
}
330
10186
100
AcDbXrecord
1000
auto
  0
XRECORD
  5
101A5
102
{ACAD_REACTORS
330
10186
102
}
330
10186
100
AcDbXrecord
1000
auto
  0
XRECORD
  5
101A6
102
{ACAD_REACTORS
330
10186
102
}
330
10186
100
AcDbXrecord
 90
        1
  0
XRECORD
  5
101A7
102
{ACAD_REACTORS
330
10186
102
}
330
10186
100
AcDbXrecord
 40
10.0
  0
XRECORD
  5
101A8
102
{ACAD_REACTORS
330
10186
102
}
330
10186
100
AcDbXrecord
 40
10.0
  0
XRECORD
  5
101A9
102
{ACAD_REACTORS
330
10186
102
}
330
10186
100
AcDbXrecord
 40
10.0
  0
XRECORD
  5
101AA
102
{ACAD_REACTORS
330
10186
102
}
330
10186
100
AcDbXrecord
 40
10.0
  0
XRECORD
  5
101AD
102
{ACAD_REACTORS
330
10186
102
}
330
10186
100
AcDbXrecord
 40
10.0
  0
XRECORD
  5
101AE
102
{ACAD_REACTORS
330
10186
102
}
330
10186
100
AcDbXrecord
 40
10.0
  0
XRECORD
  5
101AF
102
{ACAD_REACTORS
330
10186
102
}
330
10186
100
AcDbXrecord
 40
10.0
  0
XRECORD
  5
101B0
102
{ACAD_REACTORS
330
10186
102
}
330
10186
100
AcDbXrecord
 40
10.0
  0
ACAD_PROXY_OBJECT
  5
101AB
102
{ACAD_REACTORS
330
10186
102
}
330
10186
100
AcDbProxyObject
 90
      499
 91
      508
 93
       34
310
40C8804000
  0
ACAD_PROXY_OBJECT
  5
101B1
102
{ACAD_REACTORS
330
10186
102
}
330
10186
100
AcDbProxyObject
 90
      499
 91
      508
 93
       34
310
40C8804000
  0
XRECORD
  5
101AC
102
{ACAD_REACTORS
330
10186
102
}
330
10186
100
AcDbXrecord
 90
        1
  0
XRECORD
  5
101B2
102
{ACAD_REACTORS
330
10186
102
}
330
10186
100
AcDbXrecord
 40
0.0
  0
XRECORD
  5
101B3
102
{ACAD_REACTORS
330
10186
102
}
330
10186
100
AcDbXrecord
 40
0.0
  0
XRECORD
  5
101B4
102
{ACAD_REACTORS
330
10186
102
}
330
10186
100
AcDbXrecord
1000
Portrait
  0
XRECORD
  5
101B5
102
{ACAD_REACTORS
330
10186
102
}
330
10186
100
AcDbXrecord
 40
297.0
  0
XRECORD
  5
101B6
102
{ACAD_REACTORS
330
10186
102
}
330
10186
100
AcDbXrecord
 40
210.0
  0
XRECORD
  5
101B7
102
{ACAD_REACTORS
330
10186
102
}
330
10186
100
AcDbXrecord
1000
1:1
  0
ACAD_PROXY_OBJECT
  5
101B8
102
{ACAD_REACTORS
330
10186
102
}
330
10186
100
AcDbProxyObject
 90
      499
 91
      508
 93
       34
310
40C8804040
  0
ACAD_PROXY_OBJECT
  5
101B9
102
{ACAD_REACTORS
330
10186
102
}
330
10186
100
AcDbProxyObject
 90
      499
 91
      508
 93
       34
310
40C8804000
  0
XRECORD
  5
101BA
102
{ACAD_REACTORS
330
10186
102
}
330
10186
100
AcDbXrecord
1000
Inside
  0
XRECORD
  5
101BB
102
{ACAD_REACTORS
330
10186
102
}
330
10186
100
AcDbXrecord
1000
Arial,10,-1,5,50,0,0,0,0,0
  0
XRECORD
  5
101BC
102
{ACAD_REACTORS
330
10186
102
}
330
10186
100
AcDbXrecord
1000
TopLeft
  0
XRECORD
  5
101BD
102
{ACAD_REACTORS
330
10186
102
}
330
10186
100
AcDbXrecord
1000
3.28.2
  0
XRECORD
  5
101BE
102
{ACAD_REACTORS
330
10186
102
}
330
10186
100
AcDbXrecord
 90
        4
  0
XRECORD
  5
101BF
102
{ACAD_REACTORS
330
10186
102
}
330
10186
100
AcDbXrecord
  0
XRECORD
  5
101C0
102
{ACAD_REACTORS
330
10186
102
}
330
10186
100
AcDbXrecord
 40
32.39758606228668
  0
XRECORD
  5
101C1
102
{ACAD_REACTORS
330
10186
102
}
330
10186
100
AcDbXrecord
 40
59.15359503818286
  0
DICTIONARY
  5
10229
330
1016C
100
AcDbDictionary
280
     1
  3
ACAD_XREC_ROUNDTRIP
360
1022A
  0
DICTIONARY
  5
10227
330
1016B
100
AcDbDictionary
280
     1
  3
ACAD_XREC_ROUNDTRIP
360
10228
  0
DICTIONARY
  5
1022B
330
1016D
100
AcDbDictionary
280
     1
  3
ACAD_XREC_ROUNDTRIP
360
1022C
  0
XRECORD
  5
1022A
102
{ACAD_REACTORS
330
10229
102
}
330
10229
100
AcDbXrecord
102
MATERIAL
148
0.0
149
0.0
149
0.0
 93
        0
 94
      127
282
     0
 72
     1
 77
     1
171
     1
175
     1
179
     1
273
     0
  0
XRECORD
  5
10228
102
{ACAD_REACTORS
330
10227
102
}
330
10227
100
AcDbXrecord
102
MATERIAL
148
0.0
149
0.0
149
0.0
 93
        0
 94
      127
282
     0
 72
     1
 77
     1
171
     1
175
     1
179
     1
273
     0
  0
XRECORD
  5
1022C
102
{ACAD_REACTORS
330
1022B
102
}
330
1022B
100
AcDbXrecord
102
MATERIAL
148
0.0
149
0.0
149
0.0
 93
        0
 94
      127
282
     0
 72
     1
 77
     1
171
     1
175
     1
179
     1
273
     0
  0
ENDSEC
  0
EOF
